<?xml version="1.0" encoding="UTF-8"?>
<svg id="Layer_1" data-name="Layer 1" xmlns="http://www.w3.org/2000/svg" viewBox="0 0 54.93 46.63">
  <defs>
    <style>
      .cls-1 {
        fill: #fcab40;
      }
    </style>
  </defs>
  <path class="cls-1" d="M54.5,16.43c-1.89-5.57-8.71-5.47-11.62-9.53-2.54-4.04-11.07-9.38-19.06-5.62C17.61,4.21,1.4,15.61.08,21.16c-1.14,5.08,10.87,5.18,17.65,5.25-1.15,2.84-2.38,6.56-2.57,9.83-.07,1.16.73,2.31,1.86,2.63,1.49.47,5.46,1.27,9.2,1.15,1.28,2.15,3.29,4.73,6.23,6.5.21.12.46.14.68.05l7.97-3.37c.55-.21.62-1.02.11-1.32-.04-.02-2.45-1.59-4.16-3.88,10.69-4.03,20.01-12.67,17.45-21.58h0ZM17.43,37.43c-.15-.04-.29-.12-.4-.22.63-.68,1.78-.95,3.3-.74.9.12,2.37.18,4.21.12.17.44.44,1.11.86,1.94-3.64-.02-6.51-.68-7.96-1.09ZM39.28,42.34l-6.38,2.69c-3.48-2.31-5.4-5.41-6.77-8.52,2.34-.14,5.1-.47,8-1.05.81,3.12,3.57,5.65,5.15,6.87ZM38.6,35.77c-.77.35-1.57.66-2.38.94-.27-.5-.48-1.02-.62-1.55,3.47-.79,7.06-1.97,10.31-3.68-1.9,1.46-4.29,2.94-7.31,4.29ZM51.47,25.52c-8.52,9.07-26.78,10.02-30.94,9.46-1.8-.24-2.99.08-3.8.57.16-4.5,5.2-15.74,7.76-18.37,2.56-2.91,2.91-8.33,2.93-8.56.05-.97-1.41-1.07-1.5-.09,0,.05-.34,5.13-2.55,7.66-1.41,1.61-3.4,5.07-5,8.72-8.67.06-17.38-.72-16.82-3.4C2.66,16.82,17.97,5.7,24.45,2.64c7.08-3.33,14.93,1.52,17.15,5.06,1.23,1.97,3.4,3.03,5.49,4.05,6.4,2.61,8.29,7.29,4.38,13.78h0Z"/>
</svg>