<?xml version="1.0" encoding="UTF-8"?>
<svg id="Layer_1" data-name="Layer 1" xmlns="http://www.w3.org/2000/svg" viewBox="0 0 89.35 80.01">
  <defs>
    <style>
      .cls-1 {
        fill: #fcab40;
      }
    </style>
  </defs>
  <path class="cls-1" d="M15.66,27.34c.1.07.2-.08.13-.17-.21-.23-.61-.31-.88-.15-.06.03-.06.12,0,.15.1.06.25.1.36.1.15,0,.26-.03.39.07Z"/>
  <path class="cls-1" d="M15.96,31.22c-.15-.22-.51-.15-.51.13s.36.35.51.14c-.04.06-.04.04,0,.02.12-.06.12-.26,0-.31-.04-.02-.05-.04,0,.02Z"/>
  <path class="cls-1" d="M8.66,29.53s0,0,0,0c-.02-.02-.04-.03-.07-.04-.06,0-.12-.02-.18-.02-.22,0-.27.28-.11.39.06.04.12.09.13.15.03.12.22.13.25,0,.02-.07.01-.13,0-.2.06-.03.12-.06.12-.14,0-.08-.08-.12-.15-.15Z"/>
  <path class="cls-1" d="M25.54,29.34c.31.06.67.07.95-.08.14-.08.14-.27.03-.37,0-.02-.02-.04-.03-.06,0,0-.01-.01-.02-.02,0-.03-.02-.05-.02-.08-.02-.06-.1-.06-.12,0,0,.02-.01.04-.02.06-.24-.07-.52-.05-.76,0-.27.05-.27.49,0,.54Z"/>
  <path class="cls-1" d="M11.59,30.47s0-.02,0-.04c0-.09-.05-.17-.08-.25-.07-.16-.33-.14-.4,0-.04.02-.08.03-.12.05-.07.03-.07.11,0,.13.02,0,.05.02.08.03,0,.12.05.23.14.31.1.09.22.11.34.17.13.07.28-.07.2-.2-.04-.07-.1-.14-.15-.21Z"/>
  <path class="cls-1" d="M19.15,30.34s0,0,0,.01c-.06.01-.11.03-.16.05-.04.02-.09.07-.12.1,0,0,0,0,0,0,0,0,0,0,0,0-.1.02-.18.13-.18.24,0,.14.11.23.25.24.1,0,.18-.02.27-.06.04-.02.1-.06.18-.07.13-.02.28-.11.26-.26-.03-.25-.25-.47-.48-.26Z"/>
  <path class="cls-1" d="M24.33,26.24c-.2.06-.25.35-.06.46.14.08.32.02.37-.15.05-.18-.12-.36-.31-.31Z"/>
  <path class="cls-1" d="M28.54,39.12c2.24,6.14,16.39,10.08,21.47,6.85,7.73-4.91,11.27-4.56,16.32-8.87,2.25-1.92,10.95-3.77,13.88-9.52,2.19-4.32,1.27-10.19-.61-11.14-8.64-4.38-7.98-5.88-10.54-9.32-3.07-4.12-8.15-7.13-18.63-7.13C31,0,9.39,20.85,2.71,23.99c-5.15,2.42-2.11,7.87,2.11,8.66,4.22.79,9.67,2.22,16.05,2.65,4.72.32,6.94,1.79,7.67,3.81ZM5.42,31.98c-3.28-.61-5.22-3.63-4.34-5.43.89-1.8,5.09-3.07,6.2-4.08C21.96,9.23,36.76.52,50.32.52c9.12,0,13.78,2.25,16.95,5.6.5.53,2.26,3.14,2.79,4.44.62,1.51,1.51,1.24,2.06,1.88.9,1.06,3.15,3.76,6.08,4.32,2.45.47,3.4,3.61,2.62,5.22-.01,1.62.25,2.72-.63,4.53-1.25,2.59-4.03,4.72-7.69,6.86-1.25.73-2.81,1.23-4.33,1.59-1.44.35-4.22,3.71-5.28,3.99-5.38,1.41-10.22,5.75-16.01,6.85-5.79,1.1-16.59-3.63-17.83-6.01-.51-3.75-4.27-4.36-8.85-4.79-5.21-.49-10.57-2.23-14.79-3.02Z"/>
  <path class="cls-1" d="M21.07,28.63s-.05-.05-.08-.07c-.16-.12-.37.04-.37.22s.22.33.37.22c.03-.02.06-.05.08-.07,0,0,0,0,.01,0,.13-.06.13-.22,0-.27,0,0,0,0-.01,0Z"/>
  <path class="cls-1" d="M26.22,25.97c.21-.02.3-.24.2-.42-.02-.03-.07-.03-.09,0-.03.05-.04.23-.11.24-.12.01-.12.2,0,.19Z"/>
  <path class="cls-1" d="M23.56,30.77c-.12-.06-.23-.14-.38-.17-.12-.02-.24-.03-.35,0-.09.03-.14.15-.08.23-.14.02-.28.09-.38.17-.06.05,0,.13.07.12.15-.03.29-.06.44-.08.02,0,.06-.01.11-.02.02.01.04.02.07.03.08.03.15.04.22.05.1.02.15-.02.24-.06,0,0,0,0,0,0,.11-.04.17-.2.04-.27Z"/>
  <path class="cls-1" d="M25.8,33.33c-.32.02-.6.18-.57.53,0,.02.01.05.03.06.22.1.45.11.68.1.25,0,.46-.04.64-.21.06-.05.05-.15,0-.2-.21-.21-.49-.3-.79-.28Z"/>
  <path class="cls-1" d="M19.96,25.94c-.09.01-.09.16,0,.18.14.02.28.06.42.06.07,0,.12-.04.14-.11.01-.03.01-.05,0-.08-.02-.06-.08-.1-.14-.11-.14,0-.28.03-.42.06Z"/>
  <path class="cls-1" d="M31.3,30.51c-.03.12-.05.32.11.34.13.02.29-.09.47-.07.24.03.49.2.72.18.05,0,.1-.05.08-.1-.06-.18-.24-.31-.38-.42-.17-.13-.32-.19-.53-.21-.18-.02-.43.1-.48.28Z"/>
  <path class="cls-1" d="M44.59,44.92c.8.52,2.94.15,4.08-.6,1.14-.75,4-2.08,5.13-2.61,1.14-.53,1.26-.19,1.98-.75.72-.56,1.04-.64,1.92-1.2.88-.56,1.28-.8,2.48-.88s1.76-.72,2.24-1.22c.48-.51,1.52-.94,1.84-1.44.32-.5,1.17-1.24,2.87-1.75,1.7-.51,3.01-.38,3.81-1.1.8-.72,2.65-1.32,3.27-1.72.61-.4,2.16-1.8,2.8-2.43.64-.63,2.04-1.22,2.2-2.44.07-.56.78-1.22.99-2.62.12-.82-.31-1.29-.16-2.06.15-.77.22-1.53.16-2.16-.23-2.32-2.49-2.4-4.31-3.17-1.82-.78-2.48-1.21-3.04-1.85-.56-.64-1.1-1.88-2.1-1.85s-1.36-1.12-2-2.72c-.64-1.6-1.39-2.74-2.11-2.9s-1.17-.86-1.65-1.18c-.48-.32-1.12-.5-1.6-.34-.48.16-.76.18-1,.2-.24.02-.64.68-.98.77-.35.09-.89,1.39-1.12,1.39s-.32-.42-.64-.37c-.32.05-.46.37-.76.46-.3.09-.12.42-.25.69-.14.28.18.69.18,1.15s-.45,1.89-.85,3.09c-.4,1.2-.72,2.24-.98,2.75s.18.13-.38.71c-.56.58-.48.77,0,1.25.48.48,1.08,2.23,1.02,3.05-.06.81-.13.5-.47,1.13-.34.63-.28.28-.6.59-.31.31-.56.38-.58,1.19,0,.25-.03.34-.06.36.02.03.04.07.07.13.25.51.07.37,0,.7-.06.34-.19.6-.44.84-.25.23-1.91,1.29-2.48,1.4-.58.11-.79.53-1.3.46s-.77.07-1.01.33c-.25.26-.79.54-1.11.85s-.16.25-1.03,1.02c-.87.77-1.53.67-2.84,2.02-1.31,1.35-1.17,2.97-1.77,3.69-.6.72.04,1.6-.2,2.8-.24,1.2-.24,1.92-.64,2.4-.4.48-.56,1.28-.56,2.21,0,.93,1.21,1.24,2.01,1.76Z"/>
  <path class="cls-1" d="M32.61,28.2c.23-.01.43-.16.59-.31.16-.15-.06-.45-.24-.31-.02.01-.03.02-.04.03h0c-.2.18-.49.23-.76.19-.08-.01-.12.11-.07.16.14.13.31.25.51.24Z"/>
  <path class="cls-1" d="M55.9,24.34c-.08-.13-.05.04,0,0h0Z"/>
  <path class="cls-1" d="M32.16,33.37c-.07,0-.13,0-.2.02-.07.01-.14.1-.13.17.03.19-.08.24-.19.38-.07.08.02.23.12.15.07-.05.13-.09.19-.13,0,.05,0,.1-.01.15-.02.16-.04.36-.01.51.01.06.09.09.14.06.35-.2.3-.78.3-1.12,0-.11-.09-.19-.19-.19Z"/>
  <path class="cls-1" d="M29.35,37.87s-.01-.03-.02-.04c-.01-.03-.03-.07-.07-.09,0,0-.02,0-.02-.01-.14-.12-.41-.1-.45.12-.05.25.21.45.44.38.07,0,.13-.02.19-.07.05-.05.06-.14.03-.2-.03-.04-.06-.06-.09-.09Z"/>
  <path class="cls-1" d="M28.43,35.18h.01s.03.03.03.03c.05.03.1.03.16.04.08.02.17.02.22.03.09.02.15.19.22.29.05.07.15.08.2,0,.15-.21.07-.47-.09-.65-.07-.08-.18-.13-.28-.16-.15-.05-.29,0-.43.06-.05.02-.08.08-.1.13,0,0-.01,0-.03.02-.09.08-.01.2.09.21Z"/>
  <path class="cls-1" d="M29.14,30.84c.13.04.28.1.42.09.26-.01.26-.38,0-.4-.14,0-.29.04-.42.09-.11.03-.11.19,0,.22Z"/>
  <path class="cls-1" d="M29.3,26.96s-.02-.08-.06-.06c-.14.08-.25.09-.37-.03-.09-.08-.22.06-.13.13.2.17.4.17.56-.04Z"/>
  <path class="cls-1" d="M29.25,26.72c.14.03.14-.19,0-.17-.05,0-.1.01-.14.03-.06.02-.06.09,0,.11.05.02.1.02.14.03Z"/>
  <path class="cls-1" d="M31.38,25.77s.1-.03.07-.07c-.06-.11-.1-.21-.17-.31-.03-.06-.07-.11-.1-.17-.06-.12-.23-.01-.17.1.09.19.18.34.37.45Z"/>
  <path class="cls-1" d="M30.25,36.68c.1-.03.21-.06.25-.17.04-.1.03-.1.15-.17.08-.05.14-.14.13-.24,0-.1-.04-.18-.11-.24-.04-.07-.12-.12-.21-.09-.09.03-.18.06-.27.1-.08.03-.08.12-.02.15-.04.06-.08.12-.1.19-.02.1-.03.21.01.31,0,.09.06.18.16.15Z"/>
  <path class="cls-1" d="M38.35,72.85c-.01-.06-.06-.11-.13-.12-.08,0-.19,0-.24.06-.04.05-.02.14-.02.2,0,.07-.01.12.03.18,0,0,0,.01,0,.02-.02.02-.03.05-.03.08,0,.06.08.1.12.05.09.04.19,0,.25-.08.08-.11.05-.26.02-.39Z"/>
  <path class="cls-1" d="M38.2,69.99h0s0,0,0,0c0,0,0,0,0,0-.03-.14-.08-.28-.08-.42,0-.23-.36-.28-.36-.05,0,.06,0,.11.01.17,0,.02,0,.05,0,.07,0,0-.02,0-.03-.01-.2-.16-.43.07-.35.28,0,.01.01.02.02.03.02.08.04.17.1.23.04.04.09.05.13.02.01,0,.02-.02.03-.03.07.03.16,0,.22.04.22.18.44-.11.3-.31Z"/>
  <path class="cls-1" d="M39.04,73.6c-.1-.03-.19-.05-.28-.02-.1.03-.18.09-.24.17-.03.05.02.1.07.08.11-.04.22-.04.33-.04,0,.06,0,.12-.01.18,0,.1.15.12.16.02,0-.09.01-.18.04-.26.01-.05,0-.11-.06-.12Z"/>
  <path class="cls-1" d="M41.74,72.48c-.15-.04-.28-.01-.42.04-.06.03-.11.06-.15.1-.1,0-.21-.02-.32-.02-.04,0-.04.05,0,.06.09.02.17.03.26.03-.02.02-.03.04-.06.06-.06.06.03.17.11.13.18-.1.37-.16.58-.18.13,0,.13-.19,0-.23Z"/>
  <path class="cls-1" d="M44,71.57c-.42,0-.84.08-1.22.24-.06.03-.03.14.04.12.26-.06.52-.09.78-.08,0,.01,0,.02,0,.04.04.21.28.24.41.1.07-.08.11-.13.13-.24.01-.08-.06-.18-.15-.18Z"/>
  <path class="cls-1" d="M35.78,73.78c-.09,0-.09.13-.01.17.05.02.09.07.11.13-.04,0-.08.01-.12.02-.06,0-.06.09,0,.11.05.02.09.04.14.06.04.02,0,0,.04.04.03.03.07.03.11.04.08.01.17-.05.17-.14.01-.25-.19-.43-.44-.43Z"/>
  <path class="cls-1" d="M42.01,74.29c-.16-.02-.31-.04-.47-.06-.14-.02-.25-.04-.35.04-.03,0-.07.02-.1.03-.06.02-.07.11-.01.15.03.03.06.04.1.06.07.07.15.09.26.11.06,0,.12.01.19.02-.03.09-.04.17-.03.28.01.11.14.19.25.18.05-.01.1-.02.15-.04.06-.03.09-.08.1-.14,0-.09.01-.25.06-.32.07-.12.02-.29-.15-.31Z"/>
  <path class="cls-1" d="M41.32,70.68s-.08,0-.12,0c-.05-.04-.11-.05-.17-.06-.21-.04-.24.31-.03.32.06,0,.12,0,.18-.01.04.01.08.02.11.03.18.04.21-.28.03-.28Z"/>
  <path class="cls-1" d="M20.32,70.01c-.07-.03-.12-.05-.19-.03-.08.02-.09.13-.04.19-.04-.06.01.05.02.07.02.02.06.03.08.01.01-.01.02-.02.03-.03.03,0,.06-.01.08-.02.1-.01.11-.15.02-.19Z"/>
  <path class="cls-1" d="M24.74,70.31c-.34-.22-.66-.25-1.05-.38-.36-.11-.66-.44-1.06-.41-.63.05-.86.76-1.55.34-.13-.08-.25.14-.12.22.39.25.71.31,1.06.02.39-.31.62-.44,1.17-.2.5.21,1.03.23,1.51.47.03.02.06-.04.03-.06Z"/>
  <path class="cls-1" d="M19.66,70.18c-.14-.04-.31-.14-.42-.03-.01.01-.02.05,0,.06.09.15.28.1.42.11.09,0,.1-.12.01-.14Z"/>
  <path class="cls-1" d="M29.86,73.5c-.07-.11-.2-.11-.31-.09-.11.02-.12.16-.02.21.04.02.08.03.12.05,0,.04.03.08.08.06,0,0,.1-.04.06-.03.1-.02.13-.12.08-.2Z"/>
  <path class="cls-1" d="M33.35,72.18c-.1-.08-.29-.05-.4,0-.12.05-.16.19-.16.31,0,.1.14.12.16.02.01-.08.03-.15.11-.16.1-.01.19.05.28,0,.06-.04.07-.12.01-.17Z"/>
  <path class="cls-1" d="M29.42,73.58c-.09-.01-.1.12-.01.13.09.01.1-.12.01-.13Z"/>
  <path class="cls-1" d="M50.43,74.63s-.05-.02-.07-.03c0-.02.01-.04.02-.05.05-.16-.22-.19-.2-.03,0,.06.01.13.06.17.05.04.12.03.18.02.04,0,.05-.07,0-.09Z"/>
  <path class="cls-1" d="M61.91,69.4s-.07.06-.12.07c-.02,0-.04.01-.07.02-.02,0-.05.04-.07.04-.05,0-.15.03-.12.11.01.04.04.06.08.07.06.03.1.06.16.08.13.03.26-.03.37-.1.19-.11-.06-.45-.23-.3Z"/>
  <path class="cls-1" d="M65.77,68.14c-.03-.05-.05-.09-.09-.14-.04-.04-.11-.05-.16-.07-.18-.04-.22.22-.07.29.05.02.09.06.14.07-.05-.01,0,.01.01.04.02.03.02.06.02.08.01.13.19.12.21,0,.01-.1-.01-.2-.07-.29Z"/>
  <path class="cls-1" d="M63.89,66.27c-.17.01-.43.04-.5.23-.01,0-.02.01-.04.01-.02,0-.03-.02-.05-.01-.09,0-.18-.02-.27-.03-.06,0-.07.09-.01.1.05,0,.1.02.14.03,0,0,0,.01-.01.02,0,0,0,.02,0,.03-.03.11.04.24.18.22.31-.04.57-.13.68-.45.02-.07-.03-.15-.11-.15Z"/>
  <path class="cls-1" d="M59.06,69.93c0,.05-.01.11,0,.17.02.07.06.11.1.13h0c-.01.08.11.1.11.03h0c.05-.02.1-.05.12-.11.02-.05.02-.11.03-.16.04-.24-.37-.31-.37-.06Z"/>
  <path class="cls-1" d="M63.88,69.76s-.07.02-.09.05c-.09.08-.19.16-.27.25-.03.03.02.09.06.07.11-.05.21-.12.31-.19.09-.02.09-.16-.01-.18Z"/>
  <path class="cls-1" d="M58.92,73.5s-.07-.02-.1-.04c-.03-.01-.06,0-.08,0-.02.02-.03.03-.04.05-.07-.06-.15-.1-.22-.1-.04,0-.04.06,0,.08.08.04.15.08.21.15,0,.1.15.12.16.01,0-.09,0-.08.08-.09.04,0,.04-.06,0-.08Z"/>
  <path class="cls-1" d="M57.3,68.87c-.02-.1-.05-.21-.11-.3-.12-.18-.39-.23-.58-.23-.22,0-.25.36-.04.42.2.06.34.02.47.14,0,0,0,0-.02.01-.11,0-.15.16-.09.25.07.1.19.07.28.04.09-.03.1-.14.05-.21.02-.03.03-.06.03-.12Z"/>
  <path class="cls-1" d="M58.28,71.41s-.03-.01-.04-.02c-.04-.05-.11-.09-.18-.07-.07.02-.12.04-.17.08-.08,0-.16.01-.23.01-.03,0-.04.05,0,.06.07.03.15.06.22.09.04.06.09.09.15.13.06.04.13.02.19-.01.02,0,.03,0,.04,0,.13-.03.14-.19.02-.25Z"/>
  <path class="cls-1" d="M68.07,66.6c-.09,0-.17-.02-.23.02-.03,0-.06,0-.08,0-.08,0-.1.11-.05.17h0s-.05.1-.01.13c.15.15.33.09.47-.01.11-.08.06-.29-.09-.3Z"/>
  <path class="cls-1" d="M72.65,58.61c-.03.1-.04.19-.05.3,0,.29.4.36.44.07.02-.1.02-.2,0-.31-.01-.21-.35-.26-.4-.07Z"/>
  <path class="cls-1" d="M72.27,60.64c-.07-.02-.14-.06-.21-.05-.16.03-.18.23-.03.32.06.03.14.02.21.02.14,0,.16-.23.03-.28Z"/>
  <path class="cls-1" d="M70.82,51.33c-4.97-3.87-6.63-3.81-11.49-3.06-1.42.22-18.92,5.98-21.49,8.06-.4.32-3.88,3.19-6.33,4.75-3.35,2.12-11.89,5.83-13.72,7.58-.21.2-.41.46-.59.73h-.03c-1.1,1.13-1.11,2.44-.75,3.58.08.69.9,1.45,1.25,1.66.25.44.51.79.71,1.04.78.98.62.69,1.96,1.47,1.34.78.9.52,3.23,1.04,2.34.52,0,0,1.75.43,1.76.43,1.02.2,1.76.58.74.38,1.5.91,2.62.4,1.12-.51,1.87-.09,2.72-.27.85-.18,2.62-.93,3.98-.61,1.36.32.28.61.81.71.53.1.85.5.9-.17.05-.68.4.17,1.14-.71.01-.01.02-.02.03-.04.12.17.39.34.99.53.2.06.39.1.58.11.25.29.48.57.65.68.51.32,1.13.19,2.99.09,1.87-.09,2.18-.54,5.08-1.05.14-.02.26-.05.38-.07.75,0,1.69.03,2.2.18.78.22,1.15-.29,1.61-.88.46-.59-.25-.25.46-.59.71-.35.04-.54,1.26-.28,1.22.26,1.18.79,1.88.34.69-.46.18-.02.69-.46.28-.24.09-.48.48-.48,1.5-.04-.05-.39.9-.32.95.07.62.32.95.07.81-.63-.14-.86,1.17-1.22,1.31-.35,1.82-.14,1.82-.14h.53s.58-.58.58-.58l.36-.5.48-.59s.24.41.7.04c.46-.37.45.21.61-.47.16-.68.08-1.26.26-1.77.18-.51.89-.4,1.12-.69.24-.3.29-.42.5-.81.45-.88-.58-3.41,2.13-3.86,3.66-1.31,5.13-10.54.16-14.41ZM70.45,64.88c-2.71.46-1.68,2.82-2.13,3.65-.2.38-.26.49-.5.77-.24.28-.95.19-1.12.67-.18.48-.1,1.03-.26,1.67-.17.64-.16.1-.61.45s-.7-.03-.7-.03l-.48.56-.36.47-.58.54-.53.02s-.51-.19-1.82.16c-1.31.36-.36.56-1.17,1.16-.33.24,0,0-.95-.05-.95-.05,0,0-1.48-.03-.38,0-.24.22-.57.44-.6.4,0,0-.78.41-.78.4-.63-.1-1.77-.4-1.14-.29-.53-.09-1.29.21-.77.3,0,0-.58.55-.58.54-1.05,1.01-1.77.77-.72-.24-2.52-.29-3.05-.26-.53.03-1.27-.09-1.93.18-.66.26-.85-.02-1.63-.64-.79-.62-.69-.61-1.55-.5-.86.11-2.09,1.34-3.5.79-1.41-.54-.67-.83-.95-1.29-.28-.45-.72-.21-1.38-.16-.66.05-1.03-.31-1.52-.58-.49-.27-.83-.75-1.82-.67-.99.08,0,0-.79.14-.79.14-2.28.7-4.17.73s-3.46-2.73-4.92-2.97c-1.46-.24-2.02-1.07-2.61-.43-.59.64.24-.67-2.14.18-2.38.86-1.96-.93-.13-2.67,1.83-1.75,9.26-4.72,12.61-6.85,2.45-1.55,5.31-3.78,5.7-4.1,2.57-2.07,20.27-8.87,21.69-9.09,4.86-.75,6.58-.97,11.56,2.9,4.97,3.87,3.66,11.99,0,13.27Z"/>
  <path class="cls-1" d="M44.43,70.5c-.03-.05-.09-.09-.14-.1,0-.08-.02-.17-.04-.25-.03-.12-.19-.14-.24-.03-.03.06-.08.14-.08.22,0,.09,0,.18.01.27.01.05.05.09.09.11.07.12.27.15.37.04.04-.03.06-.07.06-.11,0,0,0-.01,0-.02,0,0,0,0,0-.02,0-.04,0-.08-.04-.12Z"/>
  <path class="cls-1" d="M56.54,73.63c-.09.04-.25.22-.19.33.03.05.09.1.15.08,0,0,0,0,0,0,.02,0,.04-.01.05-.02-.02.01,0,0,.02,0,.03-.01.06-.03.08-.05.07-.05.11-.14.09-.23-.02-.09-.12-.15-.2-.11Z"/>
  <path class="cls-1" d="M67.9,65.32c-.08-.08-.17-.15-.25-.22-.04-.03-.08-.07-.13-.09,0,0-.01,0-.02-.01-.02-.02-.04-.04-.06-.06-.1-.09-.26.03-.19.15,0,.02.02.04.03.05.02.04.02.08.03.01,0,.07.04.14.07.19.08.13.17.22.29.31.08.06.2.08.27,0,.03-.03.05-.05.06-.09.04-.09,0-.2-.08-.26Z"/>
  <path class="cls-1" d="M66.16,70.37s0,.06,0,.08c-.02,0-.04,0-.06.01-.03,0-.04.06,0,.08.04.02.07.03.11.04.03.02.07.02.1,0,.04-.04.06-.09.07-.15.04-.16-.21-.2-.2-.06Z"/>
  <path class="cls-1" d="M70.2,63.82c-.32-.07-.8-.16-.99.16-.09.14.11.29.21.17.18-.21.5-.16.76-.13.13.01.15-.17.02-.2Z"/>
  <path class="cls-1" d="M65.21,61.99c-.11-.04-.22-.07-.32-.01-.07.04-.11.15-.07.23.02.03.06.05.09.03.04-.03.04-.04.09-.04.06,0,.12,0,.18,0,.1,0,.11-.16.02-.2Z"/>
  <path class="cls-1" d="M48.1,69.51c-.02.13-.05.26-.04.38,0,.22.3.26.35.04.03-.12.02-.26.03-.39.01-.21-.31-.25-.33-.04Z"/>
  <path class="cls-1" d="M52.24,70.48c-.06-.09-.17-.11-.27-.13-.19-.04-.27.16-.22.3-.41.01-.81.09-1.18.25-.09.04-.04.18.05.16.4-.1.8-.17,1.19-.32,0,0,0,0,0,0,0,.03,0,.07.02.11.03.06.08.09.15.07.02,0,.03-.02.04-.03.09.04.21,0,.24-.09.05-.11.05-.21-.02-.32Z"/>
  <path class="cls-1" d="M49.72,73.09v-.08c0-.09-.06-.19-.16-.19-.1,0-.21-.02-.31,0-.1.02-.19.03-.29.04-.06,0-.06.09,0,.11.09.04.19.07.28.11.04.02.08.03.12.04-.01.17.24.3.34.14,0-.01,0-.02,0-.03.06-.01.08-.1.03-.14Z"/>
  <path class="cls-1" d="M50.26,74.72c-.06,0-.19-.03-.2.05,0,.09.13.09.19.1.1.02.12-.15.02-.16Z"/>
  <path class="cls-1" d="M48.56,74.84s0,0,0-.01c0,0,0,0,0-.01-.03-.03-.08-.05-.12-.03,0,0-.02,0-.03.01l-.12.09c-.12.09.03.27.15.18l.12-.09c.06-.05.05-.1.02-.15Z"/>
  <path class="cls-1" d="M56.23,69.98c-.13-.03-.25-.07-.38-.11-.09-.03-.2,0-.23.1,0,.02,0,.03-.02.05,0,0,0,.01,0,.02-.03.02-.04.04-.06.06-.03.03-.03.07,0,.11-.2.05-.4.09-.59.15-.19.07-.08.34.1.33.46-.03.92-.19,1.24-.51.07-.07.04-.17-.06-.2Z"/>
  <path class="cls-1" d="M47.88,64.07c-.06-.25-.44-.26-.46,0,0,.07-.01.14-.02.2,0,0-.02.01-.03.02-.13.03-.27-.02-.39-.07-.17-.08-.35.08-.32.25.03.19.21.32.39.32.02.06.1.11.16.07.06-.03.12-.07.18-.1.07,0,.15-.02.22-.05.06-.03.12-.07.16-.11.04-.02.07-.07.08-.12.06-.12.07-.27.04-.41Z"/>
  <path class="cls-1" d="M47.25,71c-.06,0-.1.03-.12.07-.04-.04-.1.01-.06.06.03.04.05.07.08.11,0,0,0,.02,0,.03.01.08.13.1.16.02,0-.01,0-.02.01-.04,0-.01,0-.02,0-.04,0,0,0,0,0,0,.07-.07.03-.2-.08-.22Z"/>
  <path class="cls-1" d="M52.66,74.87c.03-.11-.03-.17-.14-.19-.08-.02-.17,0-.19.09-.01.04,0,.1.03.13,0,0,0,.02,0,.02-.03.02-.06.06-.07.1-.06.18.24.22.23.06t0,0s.03-.01.04-.02c.06-.04.07-.13.09-.19Z"/>
  <path class="cls-1" d="M45.66,74.43s-.03-.02-.04-.03c-.03-.02-.05-.04-.08-.07-.06-.04-.14-.06-.23-.06-.08-.07-.22-.06-.26.05,0,.02-.01.04-.02.06-.03.08,0,.19.1.22.1.04.27.09.38.04.04-.02.07-.04.12-.06,0,0,0,0,0,0,.09-.02.09-.12.02-.16Z"/>
  <path class="cls-1" d="M55.99,72.55c-.06,0-.11,0-.16.02-.05.02-.08.09-.14.09-.12,0-.14.16-.02.18.06,0,.11,0,.16-.03.04-.02.09-.07.13-.07.1.02.17-.17.02-.19Z"/>
  <path class="cls-1" d="M54.84,73.94c-.1-.01-.2.1-.14.19.02.04.04.07.07.11.02.04.06.04.09,0,.03-.03.06-.06.08-.09.08-.08,0-.21-.1-.22Z"/>
  <path class="cls-1" d="M54.38,74.24c-.1,0-.21-.02-.3-.01-.04,0-.04.06,0,.08.09.03.2.05.3.07.09.02.1-.13.01-.14Z"/>
  <path class="cls-1" d="M52.99,73.57s-.1-.03-.15-.04c-.19-.05-.23.3-.03.3.05,0,.1,0,.16,0,.14-.01.15-.22.02-.26Z"/>
  <path class="cls-1" d="M46.88,73.7c-.08-.08-.16-.1-.27-.11-.11-.02-.18.06-.19.15,0,0,0,.01,0,.02,0,.09.05.18.16.19.06,0,.12.01.19.02.02.07.15.06.15-.02.01-.09.04-.17-.04-.25Z"/>
  <path class="cls-1" d="M88.19,44.64c-.08-.04-.18-.07-.27-.1.14.08.25.15.32.21.55.49.26,1.21-.04,1.74-.61,1.07-2.4-.08-3.1,1.09-.47.78-1.15.49-1.91.59-.5-.32-.15-.38-.69-.07-.23.13-.5.09-.75,0-.11-.04-.18-.18-.28-.23-.09-.05-.22-.02-.31-.07-.11-.07-.19.12-.37.03-.17-.09-.44-.45-.48-.58-.04-.13-.06-.39-.13-.6-.05,0-.1-.03-.14-.09-.18-.18-.36-.37-.54-.55-.08-.06-.09-.17-.05-.26-.16-.2-.29.05-.46-.15-.18,0-.32-.22-.18-.36.12-.12.23-.2.35-.27-.22.09-.45.18-.7.24-1.25.33-.76,1.69-.31,2.38.37.57.77.93,1.38,1.23.49.24.75,1.01,1.31,1.12.47.09,1.13-.31,1.53.01.03.06.08.11.16.12.82.14,1.54.32,2.36.1.19-.05.37-.19.52-.33.59-.56,1.26-.68,2.03-.65,1.52.05,1.18-1.15,1.69-2.09.54-.98.02-1.97-.94-2.45Z"/>
  <path class="cls-1" d="M85.03,44.31c.12.02.28,0,.44-.03-.6,0-1.18-.07-1.75-.34,0,0,0,0,0,0,0,.04.01.08,0,.11-.06.11,1.12.23,1.32.26Z"/>
  <path class="cls-1" d="M83.16,43.63c-.13-.07-.26-.12-.39-.15,0,0,0,0,.01.01.09.09.24.11.38.13Z"/>
  <path class="cls-1" d="M82,43.52c-.28.07-.55.19-.83.34-.59.31-1.09.64-1.64.91.41-.14.84-.15,1.34-.39.54-.27.75-.65,1.14-.86Z"/>
  <path class="cls-1" d="M78.99,39.25c.11-.04.2-.18.07-.24-.18-.09.71-.19.83-.23.31-.08.04-.08.2-.27.27-.33.1-.52-.15-.68,0,0,0,0,0,0-.01.2-.91.38-1.07.51-.09.07-.13.1-.22.18-.12.02-.59.1-.6.06-.01-.06-.06-.11-.15-.14-.27-.07-.44,0-.69.08-.1.03-.15.08-.17.12-.12,0-.23.01-.4.08-.33.13-.7.02-.67-.12.09-.39-1.02-.41-.36-.81.06-.04.07-.07.06-.11-.17-.46.57-.31,1.06-.5.36-.14.14-.3.73-.24.12,0,.28.07.42.05.31-.05.34.14.63.13.29,0,.97.19,1.03.42,0,.05.04.08.11.1.06.02.08.03.12.05-.25-.24-.58-.63-.88-.61-.3.02-.45-.24-.74-.22-.32.02-.6-.04-.93-.01-.09,0-.24.13-.26.14-.36.21-.61.22-.98.29-.47.09-.71.28-.53.6-.02-.03-.31.4-.33.48-.03.2.18.39.35.52.26.19.43-.09.26.17-.14.22-.06.36.27.5,1,.45.8.12,1.4-.18.02,0,.05,0,.07,0,.11-.02.15-.05.15-.07.04.08.15.12.25.16.3.13.85-.11,1.11-.21Z"/>
  <path class="cls-1" d="M72.43,43.86s0-.01,0-.02c.27-.09.33-1.11.22-1.28-.14-.23-.22-.61-.61-.67-.23-.27-.56-.44-1.01-.36-.16-.02-.31-.06-.46-.11-.21-.07-.49-.05-.72-.07-.46-.03-.93-.21-1.4-.19-.06,0-.08.06-.02.07.13.03.15.16.29.19.32.08.73.08,1.07.14.3.05.58.04.87.12.05.01.1.02.15.03.03.03.08.06.14.05.29-.03.5.08.65.26-.05.08-.02.19.1.26.02,0,.04.02.07.03.08.21.12.44.12.63-.08,0-.16.01-.23.06-.47.32-.57.77-1.48.75-.25,0-.5.15-.43.33.18.48-2,.16-2.54.4-.31.14-1.67-.81-2.23-.74-1.1.15-.41-.65-.47-.87-.11-.41.3-.46.67-.79.08-.07.3-.24.43-.31.55-.3.25-.05,1.16-.22.04,0,.07-.02.08-.04.05-.01.1-.03.15-.04.12-.04.25-.03.35-.08.01,0,.02-.02.02-.03.07-.01.14-.03.22-.04.14-.02.28-.03.42-.05.05,0,.04-.06-.02-.06-.14.01-.28.02-.42.03-.1,0-.2.01-.29.05-.14-.04-.31.03-.44.07-.02,0-.04,0-.05.01-.02,0-.04,0-.07,0,.04,0-1.69.34-1.55.36-.06,0-.15.02-.19.06-.53.62-1.09,1.55-.95,2.26.06.32.91,1.05,1.4,1.08.37.02.48-.08.84.1.17.08.44.27.67.3.47.06.53-.14,1.01-.04.8.16,2.7.09,2.69-.61.16-.02.32-.04.47-.08.19.02.39-.09.53-.19.01,0,.02,0,.03-.01.01,0,.05-.04.09-.09.15.03.32,0,.39-.14,0-.02.01-.04.02-.06h0s0-.03,0-.04c.01-.05.02-.1.03-.15,0-.03,0-.06-.01-.09.12,0,.23-.07.25-.17Z"/>
</svg>