<?xml version="1.0" encoding="utf-8" standalone="yes"?>
<!DOCTYPE svg PUBLIC "-//W3C//DTD SVG 1.1//EN" "http://www.w3.org/Graphics/SVG/1.1/DTD/svg11.dtd">
<svg width="757" height="418" viewBox="0 0 757 418" style="fill:none;stroke:none;fill-rule:evenodd;clip-rule:evenodd;stroke-linecap:round;stroke-linejoin:round;stroke-miterlimit:1.5;" version="1.1" xmlns="http://www.w3.org/2000/svg" xmlns:xlink="http://www.w3.org/1999/xlink"><style id="fontImports">@import url("https://fonts.googleapis.com/css2?family=Shantell+Sans:wght@300..800&amp;display=block");</style><rect id="" x="0" y="0" width="756.128" height="417.554" style="fill: #ffffff;"></rect><g id="items" style="isolation: isolate"><g id="blend" style="mix-blend-mode:normal"><g id="g-root-tf_v980g114jwwlm-fill" data-item-order="-313381" transform="translate(-9, -9)"><g id="tf_v980g114jwwlm-fill" stroke="none" fill="#ffffff"><g><path d="M 10.003995 10L 764.133995 10L 764.133995 425.55L 10.003995 425.55Z"></path></g></g></g><g id="g-root-0.cu_sy_vccapt14k15aa-fill" data-item-order="-127819" transform="translate(19.128005981445312, 67)"><g id="0.cu_sy_vccapt14k15aa-fill" stroke="none" fill="#eaeaea"><g><path d="M 94.251091 283C 94.251091 279.692 94.251091 264.059 90.580691 261C 85.673191 256.91 79.221891 257.967 71.002791 259.313C 66.158191 260.106 60.699491 261 54.580591 261C 40.172391 261 34.916291 252.865 36.580591 242.5C 38.085791 233.126 36.690491 232.097 34.110291 230.193C 33.636791 229.844 33.123391 229.465 32.580691 229C 29.080691 226 27.580691 220 30.580691 216.5C 26.580691 212 24.436891 207.155 27.080691 203C 30.580691 197.5 29.580691 192 23.080691 190.5C 22.626291 190.395 22.143591 190.225 21.506591 190C 20.496691 189.644 19.098891 189.151 16.811291 188.565C 13.080691 187.61 5.871991 179.431 13.080691 169.5C 15.876091 165.649 18.632391 162.27 21.152991 159.18C 27.649591 151.216 32.580691 145.171 32.580691 137.91C 32.580691 135.155 31.861691 133.224 31.033391 131C 29.907991 127.977 28.580691 124.413 28.580691 117.5C 28.580691 58.1294 76.710091 10 136.080991 10C 195.450991 10 243.580991 58.1294 243.580991 117.5C 243.580991 155.855 223.832991 180.246 216.721991 189.028L 216.649991 189.117C 210.103991 197.204 200.649991 208.932 200.649991 225.5L 200.649991 283C 200.649991 287.226 195.049991 301.554 145.665991 301.554C 96.282791 301.554 94.251091 286.308 94.251091 283ZM 135.999991 208C 185.705991 208 225.999991 167.706 225.999991 118C 225.999991 68.2944 185.705991 28 135.999991 28C 86.294491 28 46.000091 68.2944 46.000091 118C 46.000091 167.706 86.294491 208 135.999991 208Z"></path></g></g></g><g id="g-root-3.cu_sy_i0vsch14k16v7-fill" data-item-order="-127815" transform="translate(256.55181884765625, 233.69677734375)"><g id="3.cu_sy_i0vsch14k16v7-fill" stroke="none" fill="#fff9ce"><g><path d="M 151.687 48.0459L 174.576 61.5164L 151.466 74.6031L 151.523 67.6944C 101.2928 65.675 54.5757 49.9538 15.026 24.1668L 10 20.8897L 17.1003 10L 22.1263 13.277C 59.6594 37.7492 103.9649 52.6957 151.632 54.688L 151.687 48.0459Z"></path></g></g></g><g id="g-root-2.cu_sy_8vvnsx14k2j2k-fill" data-item-order="-127811" transform="translate(271.12799072265625, 157.220947265625)"><g id="2.cu_sy_8vvnsx14k2j2k-fill" stroke="none" fill="#cedfff"><g><path d="M 137 36.5581L 160 23.2791L 137 10L 137 16.7791L 10 16.7791L 10 29.7791L 137 29.7791L 137 36.5581Z"></path></g></g></g><g id="g-root-1.cu_sy_4g25oh14k2jut-fill" data-item-order="-127807" transform="translate(256.55181884765625, 43.813232421875)"><g id="1.cu_sy_4g25oh14k2jut-fill" stroke="none" fill="#d5f7e8"><g><path d="M 151.687 36.5572L 174.576 23.0867L 151.466 10L 151.523 16.9086C 101.2928 18.9281 54.5757 34.6493 15.026 60.4363L 10 63.7133L 17.1003 74.6031L 22.1263 71.326C 59.6594 46.8539 103.9649 31.9074 151.632 29.9151L 151.687 36.5572Z"></path></g></g></g><g id="g-root-doll_1uqj39d14jwyyp-fill" data-item-order="0" transform="translate(433.1279602050781, 39)"></g><g id="g-root-tx_benefitd_1q7l4jl14k2k90-fill" data-item-order="0" transform="translate(481.1279602050781, 45)"><g id="tx_benefitd_1q7l4jl14k2k90-fill" stroke="none" fill="#3bc482"><g><text style="font: 20px &quot;Shantell Sans&quot;, cursive; white-space: pre;" font-size="20px" font-family="'Shantell Sans', cursive"><tspan x="12" y="35" dominant-baseline="ideographic">Benefit-Driven</tspan></text></g></g></g><g id="g-root-tx_focusonu_4hxkxt14k2iv7-fill" data-item-order="0" transform="translate(481.1279602050781, 81)"><g id="tx_focusonu_4hxkxt14k2iv7-fill" stroke="none" fill="#484848"><g><text style="font: 20px &quot;Shantell Sans&quot;, cursive; white-space: pre;" font-size="20px" font-family="'Shantell Sans', cursive"><tspan x="12" y="35" dominant-baseline="ideographic">Focus on user gains to </tspan><tspan x="12" y="59" dominant-baseline="ideographic">enhance appeal.</tspan></text></g></g></g><g id="g-root-tx_howtocra_1q5ppa914k2l8m-fill" data-item-order="0" transform="translate(73.12799072265625, 135)"><g id="tx_howtocra_1q5ppa914k2l8m-fill" stroke="none" fill="#484848"><g><text style="font: 20px &quot;Shantell Sans&quot;, cursive; white-space: pre;" font-size="20px" font-family="'Shantell Sans', cursive"><tspan x="16.87" y="35" dominant-baseline="ideographic">How to craft </tspan><tspan x="22.13" y="59" dominant-baseline="ideographic">an effective </tspan><tspan x="33.26" y="83" dominant-baseline="ideographic">headline?</tspan></text></g></g></g><g id="g-root-chec_4loim914jojrb-fill" data-item-order="0" transform="translate(433.1279602050781, 153)"></g><g id="g-root-tx_specific_hsrm8114k2kg2-fill" data-item-order="0" transform="translate(481.1279602050781, 153)"><g id="tx_specific_hsrm8114k2kg2-fill" stroke="none" fill="#4682e3"><g><text style="font: 20px &quot;Shantell Sans&quot;, cursive; white-space: pre;" font-size="20px" font-family="'Shantell Sans', cursive"><tspan x="12" y="35" dominant-baseline="ideographic">Specific &amp; Actionable</tspan></text></g></g></g><g id="g-root-tx_provides_m8l4ch14k2jnt-fill" data-item-order="0" transform="translate(481.1279602050781, 189)"><g id="tx_provides_m8l4ch14k2jnt-fill" stroke="none" fill="#484848"><g><text style="font: 20px &quot;Shantell Sans&quot;, cursive; white-space: pre;" font-size="20px" font-family="'Shantell Sans', cursive"><tspan x="12" y="35" dominant-baseline="ideographic">Provides clear and direct </tspan><tspan x="12" y="59" dominant-baseline="ideographic">information.</tspan></text></g></g></g><g id="g-root-info_147ctvl14k6rke-fill" data-item-order="0" transform="translate(433.1279602050781, 267)"></g><g id="g-root-tx_curiosit_zjf5mp14k2l8o-fill" data-item-order="0" transform="translate(481.1279602050781, 261)"><g id="tx_curiosit_zjf5mp14k2l8o-fill" stroke="none" fill="#e3cd09"><g><text style="font: 20px &quot;Shantell Sans&quot;, cursive; white-space: pre;" font-size="20px" font-family="'Shantell Sans', cursive"><tspan x="12" y="35" dominant-baseline="ideographic">Curiosity-Stirring</tspan></text></g></g></g><g id="g-root-tx_engagesi_13z8nr514k2kgf-fill" data-item-order="0" transform="translate(481.1279602050781, 297)"><g id="tx_engagesi_13z8nr514k2kgf-fill" stroke="none" fill="#484848"><g><text style="font: 20px &quot;Shantell Sans&quot;, cursive; white-space: pre;" font-size="20px" font-family="'Shantell Sans', cursive"><tspan x="12" y="35" dominant-baseline="ideographic">Engages interest without </tspan><tspan x="12" y="59" dominant-baseline="ideographic">being misleading.</tspan></text></g></g></g><g id="g-root-tf_v980g114jwwlm-stroke" data-item-order="-313381" transform="translate(-9, -9)"></g><g id="g-root-0.cu_sy_vccapt14k15aa-stroke" data-item-order="-127819" transform="translate(19.128005981445312, 67)"><g id="0.cu_sy_vccapt14k15aa-stroke" fill="none" stroke-linecap="round" stroke-linejoin="round" stroke-miterlimit="4" stroke="#ffffff" stroke-width="2"><g><path d="M 94.251091 283.0001C 94.251091 279.6921 94.251091 264.0588 90.580691 261.0001C 85.673191 256.9105 79.221891 257.9669 71.002791 259.3128C 66.158191 260.1062 60.699491 261.0001 54.580591 261.0001C 40.172391 261.0001 34.916291 252.8652 36.580591 242.5C 38.085791 233.1262 36.690491 232.0968 34.110291 230.1933C 33.636791 229.8439 33.123391 229.4652 32.580691 229C 29.080691 226 27.580691 220 30.580691 216.5C 26.580691 212 24.436891 207.1545 27.080691 203C 30.580691 197.5 29.580691 192 23.080691 190.5C 22.626291 190.3951 22.143591 190.2249 21.506591 190.0003C 20.496691 189.6442 19.098891 189.1514 16.811191 188.5654C 13.080691 187.6097 5.871991 179.4306 13.080691 169.5C 15.876091 165.6491 18.632391 162.2701 21.152991 159.1801C 27.649591 151.2162 32.580691 145.1712 32.580691 137.9105C 32.580691 135.1548 31.861691 133.224 31.033391 130.9995C 29.907991 127.9771 28.580691 124.4125 28.580691 117.5C 28.580691 58.1294 76.710091 10 136.080691 10C 195.451291 10 243.580691 58.1294 243.580691 117.5C 243.580691 155.8549 223.832691 180.2462 216.722491 189.0282L 216.650291 189.1173C 210.103591 197.2037 200.650291 208.932 200.650291 225.5L 200.650291 283.0001C 200.650291 287.2262 195.049991 301.5538 145.666391 301.5538C 96.282791 301.5538 94.251091 286.308 94.251091 283.0001ZM 136.000091 208C 185.705691 208 226.000091 167.7056 226.000091 118C 226.000091 68.2944 185.705691 28 136.000091 28C 86.294491 28 46.000091 68.2944 46.000091 118C 46.000091 167.7056 86.294491 208 136.000091 208Z"></path></g></g></g><g id="g-root-3.cu_sy_i0vsch14k16v7-stroke" data-item-order="-127815" transform="translate(256.55181884765625, 233.69677734375)"><g id="3.cu_sy_i0vsch14k16v7-stroke" fill="none" stroke-linecap="round" stroke-linejoin="round" stroke-miterlimit="4" stroke="#ffffff" stroke-width="2"><g><path d="M 151.6874 48.0459L 174.5757 61.5164L 151.4657 74.6031L 151.5234 67.6944C 101.2928 65.675 54.5757 49.9538 15.026 24.1668L 10 20.8897L 17.1003 10L 22.1263 13.277C 59.6594 37.7492 103.9649 52.6957 151.6319 54.688L 151.6874 48.0459Z"></path></g></g></g><g id="g-root-2.cu_sy_8vvnsx14k2j2k-stroke" data-item-order="-127811" transform="translate(271.12799072265625, 157.220947265625)"><g id="2.cu_sy_8vvnsx14k2j2k-stroke" fill="none" stroke-linecap="round" stroke-linejoin="round" stroke-miterlimit="4" stroke="#ffffff" stroke-width="2"><g><path d="M 137 36.5581L 160 23.2791L 137 10L 137 16.7791L 10 16.7791L 10 29.7791L 137 29.7791L 137 36.5581Z"></path></g></g></g><g id="g-root-1.cu_sy_4g25oh14k2jut-stroke" data-item-order="-127807" transform="translate(256.55181884765625, 43.813232421875)"><g id="1.cu_sy_4g25oh14k2jut-stroke" fill="none" stroke-linecap="round" stroke-linejoin="round" stroke-miterlimit="4" stroke="#ffffff" stroke-width="2"><g><path d="M 151.6874 36.5572L 174.5757 23.0867L 151.4657 10L 151.5234 16.9086C 101.2928 18.9281 54.5757 34.6493 15.026 60.4363L 10 63.7133L 17.1003 74.6031L 22.1263 71.326C 59.6594 46.8539 103.9649 31.9074 151.6319 29.9151L 151.6874 36.5572Z"></path></g></g></g><g id="g-root-doll_1uqj39d14jwyyp-stroke" data-item-order="0" transform="translate(433.1279602050781, 39)"><g id="doll_1uqj39d14jwyyp-stroke" fill="none" stroke-linecap="round" stroke-linejoin="round" stroke-miterlimit="4" stroke="#484848" stroke-width="2"><g><path d="M 21.571428 37L 31.47143 37C 33.661392 37.009113 35.498478 35.349979 35.711765 33.17041C 35.92506 30.990839 34.444469 29.00704 32.294285 28.591429L 23.705713 27.408571C 21.555531 26.99296 20.074942 25.009161 20.288233 22.829592C 20.501524 20.650021 22.33861 18.990889 24.528572 19L 34.42857 19M 28 44.714287L 28 11.285714"></path></g></g></g><g id="g-root-tx_benefitd_1q7l4jl14k2k90-stroke" data-item-order="0" transform="translate(481.1279602050781, 45)"></g><g id="g-root-tx_focusonu_4hxkxt14k2iv7-stroke" data-item-order="0" transform="translate(481.1279602050781, 81)"></g><g id="g-root-tx_howtocra_1q5ppa914k2l8m-stroke" data-item-order="0" transform="translate(73.12799072265625, 135)"></g><g id="g-root-chec_4loim914jojrb-stroke" data-item-order="0" transform="translate(433.1279602050781, 153)"><g id="chec_4loim914jojrb-stroke" fill="none" stroke-linecap="round" stroke-linejoin="round" stroke-miterlimit="4" stroke="#484848" stroke-width="2"><g><path d="M 34.42857 13.857142L 38.285713 13.857142C 39.705875 13.857142 40.857143 15.00841 40.857143 16.428572L 40.857143 42.142857C 40.857143 43.563019 39.705875 44.714287 38.285713 44.714287L 17.714285 44.714287C 16.294125 44.714287 15.142857 43.563019 15.142857 42.142857L 15.142857 16.428572C 15.142857 15.00841 16.294125 13.857142 17.714285 13.857142L 21.571428 13.857142M 24.142857 11.285714L 31.857143 11.285714C 31.857143 11.285714 34.42857 11.285714 34.42857 13.857142L 34.42857 15.142857C 34.42857 15.142857 34.42857 17.714285 31.857143 17.714285L 24.142857 17.714285C 24.142857 17.714285 21.571428 17.714285 21.571428 15.142857L 21.571428 13.857142C 21.571428 13.857142 21.571428 11.285714 24.142857 11.285714M 21.571428 31.857143L 26.714285 35.714287L 33.142857 25.428572"></path></g></g></g><g id="g-root-tx_specific_hsrm8114k2kg2-stroke" data-item-order="0" transform="translate(481.1279602050781, 153)"></g><g id="g-root-tx_provides_m8l4ch14k2jnt-stroke" data-item-order="0" transform="translate(481.1279602050781, 189)"></g><g id="g-root-info_147ctvl14k6rke-stroke" data-item-order="0" transform="translate(433.1279602050781, 267)"><g id="info_147ctvl14k6rke-stroke" fill="none" stroke-linecap="round" stroke-linejoin="round" stroke-miterlimit="4" stroke="#484848" stroke-width="2"><g><path d="M 13.75 30.997C 13.75 38.038631 19.45837 43.746998 26.5 43.746998C 33.54163 43.746998 39.25 38.038631 39.25 30.997C 39.25 23.955368 33.54163 18.247 26.5 18.247C 19.45837 18.247 13.75 23.955368 13.75 30.997ZM 33.107498 14.863C 32.824806 14.703339 32.676941 14.379912 32.741138 14.061656C 32.805336 13.743401 33.067017 13.502587 33.3895 13.465L 42.806499 12.3565C 43.034462 12.329679 43.262161 12.408725 43.424469 12.571032C 43.586777 12.733339 43.665825 12.961035 43.639 13.189L 42.550003 22.51C 42.512062 22.833508 42.269653 23.095543 41.950069 23.158501C 41.630489 23.22146 41.306805 23.070946 41.149002 22.785999C 39.324657 19.39761 36.522598 16.636839 33.107498 14.863ZM 27.25 37.75L 27.25 28.75C 27.25 27.921572 26.578428 27.25 25.75 27.25L 24.25 27.25M 24.25 37.746998L 30.25 37.746998M 27.25 23.497L 27.25 23.497M 27.25 23.5C 27.042892 23.5 26.875 23.667892 26.875 23.875C 26.875 24.082108 27.042892 24.25 27.25 24.25C 27.457108 24.25 27.625 24.082108 27.625 23.875C 27.625 23.667892 27.457108 23.5 27.25 23.5"></path></g></g></g><g id="g-root-tx_curiosit_zjf5mp14k2l8o-stroke" data-item-order="0" transform="translate(481.1279602050781, 261)"></g><g id="g-root-tx_engagesi_13z8nr514k2kgf-stroke" data-item-order="0" transform="translate(481.1279602050781, 297)"></g></g></g></svg>