<?xml version="1.0" encoding="utf-8" standalone="yes"?>
<!DOCTYPE svg PUBLIC "-//W3C//DTD SVG 1.1//EN" "http://www.w3.org/Graphics/SVG/1.1/DTD/svg11.dtd">
<svg width="890" height="842" viewBox="0 0 890 842" style="fill:none;stroke:none;fill-rule:evenodd;clip-rule:evenodd;stroke-linecap:round;stroke-linejoin:round;stroke-miterlimit:1.5;" version="1.1" xmlns="http://www.w3.org/2000/svg" xmlns:xlink="http://www.w3.org/1999/xlink"><style id="fontImports">@import url("https://fonts.googleapis.com/css2?family=Roboto:wght@400;700&amp;display=block");</style><g id="items" style="isolation: isolate"><g id="blend" style="mix-blend-mode:normal"><g id="g-root-ro_hwijur1541s0a-fill" data-item-order="-27144" transform="translate(363, 258)"><g id="ro_hwijur1541s0a-fill" stroke="none" fill="#f0f0f0"><g><path d="M 34 10L 142 10C 142 10 166 10 166 34L 166 160C 166 160 166 184 142 184L 34 184C 34 184 10 184 10 160L 10 34C 10 34 10 10 34 10"></path></g></g></g><g id="g-root-ro_4ot2bn153qjgj-fill" data-item-order="-20736" transform="translate(491, 39)"><g id="ro_4ot2bn153qjgj-fill" stroke="none" fill="#e6f9ff"><g><path d="M 22 10L 286 10C 286 10 298 10 298 22L 298 70C 298 70 298 82 286 82L 22 82C 22 82 10 82 10 70L 10 22C 10 22 10 10 22 10"></path></g></g></g><g id="g-root-ro_146qm83153ta8d-fill" data-item-order="-17496" transform="translate(279, 657)"><g id="ro_146qm83153ta8d-fill" stroke="none" fill="#fef2e6"><g><path d="M 22 10L 322 10C 322 10 334 10 334 22L 334 52C 334 52 334 64 322 64L 22 64C 22 64 10 64 10 52L 10 22C 10 22 10 10 22 10"></path></g></g></g><g id="g-root-ro_18gbdhf1541r0n-fill" data-item-order="-16200" transform="translate(91, 57)"><g id="ro_18gbdhf1541r0n-fill" stroke="none" fill="#e6efff"><g><path d="M 22 10L 298 10C 298 10 310 10 310 22L 310 52C 310 52 310 64 298 64L 22 64C 22 64 10 64 10 52L 10 22C 10 22 10 10 22 10"></path></g></g></g><g id="g-root-ro_1lqixoj153ywhv-fill" data-item-order="-16200" transform="translate(15, 357)"><g id="ro_1lqixoj153ywhv-fill" stroke="none" fill="#f7e6fe"><g><path d="M 22 10L 298 10C 298 10 310 10 310 22L 310 52C 310 52 310 64 298 64L 22 64C 22 64 10 64 10 52L 10 22C 10 22 10 10 22 10"></path></g></g></g><g id="g-root-ro_146qj2b153xij1-fill" data-item-order="-15552" transform="translate(567, 357)"><g id="ro_146qj2b153xij1-fill" stroke="none" fill="#fffce6"><g><path d="M 22 10L 286 10C 286 10 298 10 298 22L 298 52C 298 52 298 64 286 64L 22 64C 22 64 10 64 10 52L 10 22C 10 22 10 10 22 10"></path></g></g></g><g id="g-root-ro_1cu9gcj153npqb-fill" data-item-order="-14904" transform="translate(491, 507)"><g id="ro_1cu9gcj153npqb-fill" stroke="none" fill="#f5fbe9"><g><path d="M 22 10L 274 10C 274 10 286 10 286 22L 286 52C 286 52 286 64 274 64L 22 64C 22 64 10 64 10 52L 10 22C 10 22 10 10 22 10"></path></g></g></g><g id="g-root-ro_1qcl6o3153w5ql-fill" data-item-order="-14904" transform="translate(39, 207)"><g id="ro_1qcl6o3153w5ql-fill" stroke="none" fill="#e9fbf3"><g><path d="M 22 10L 274 10C 274 10 286 10 286 22L 286 52C 286 52 286 64 274 64L 22 64C 22 64 10 64 10 52L 10 22C 10 22 10 10 22 10"></path></g></g></g><g id="g-root-ro_1d14oar153yyvc-fill" data-item-order="-14256" transform="translate(127, 507)"><g id="ro_1d14oar153yyvc-fill" stroke="none" fill="#fffce6"><g><path d="M 22 10L 262 10C 262 10 274 10 274 22L 274 52C 274 52 274 64 262 64L 22 64C 22 64 10 64 10 52L 10 22C 10 22 10 10 22 10"></path></g></g></g><g id="g-root-ro_13z8u0z153rvno-fill" data-item-order="-12960" transform="translate(567, 207)"><g id="ro_13z8u0z153rvno-fill" stroke="none" fill="#f7e6fe"><g><path d="M 22 10L 238 10C 238 10 250 10 250 22L 250 52C 250 52 250 64 238 64L 22 64C 22 64 10 64 10 52L 10 22C 10 22 10 10 22 10"></path></g></g></g><g id="g-root-cu_1luw9ab1541s75-fill" data-item-order="0" transform="translate(349, 111)"></g><g id="g-root-cu_1czvq4j1541pu4-fill" data-item-order="0" transform="translate(349, 111)"></g><g id="g-root-tx_simplela_1lxe5mr153up72-fill" data-item-order="0" transform="translate(539, 573)"><g id="tx_simplela_1lxe5mr153up72-fill" stroke="none" fill="#484848"><g><text style="font: 20px Roboto, sans-serif; white-space: pre;" font-size="20px" font-family="Roboto, sans-serif"><tspan x="14.02" y="34" dominant-baseline="ideographic">Simple Layouts</tspan></text></g></g></g><g id="g-root-cu_1qaprer1541rev-fill" data-item-order="0" transform="translate(515, 561)"></g><g id="g-root-cu_18k28031541qme-fill" data-item-order="0" transform="translate(515, 111)"></g><g id="g-root-cu_1448pvn1541rep-fill" data-item-order="0" transform="translate(515, 111)"></g><g id="g-root-cu_1uqj9j71541qmk-fill" data-item-order="0" transform="translate(515, 561)"></g><g id="g-root-cu_4l27sz1541q0y-fill" data-item-order="0" transform="translate(349, 561)"></g><g id="g-root-tx_whitespa_mfglqb153uqrm-fill" data-item-order="0" transform="translate(539, 123)"><g id="tx_whitespa_mfglqb153uqrm-fill" stroke="none" fill="#484848"><g><text style="font: 20px Roboto, sans-serif; white-space: pre;" font-size="20px" font-family="Roboto, sans-serif"><tspan x="17.42" y="34" dominant-baseline="ideographic">Whitespace Usage</tspan></text></g></g></g><g id="g-root-tx_grouping_zqx43n153up6p-fill" data-item-order="0" transform="translate(163, 159)"><g id="tx_grouping_zqx43n153up6p-fill" stroke="none" fill="#484848"><g><text style="font: 20px Roboto, sans-serif; white-space: pre;" font-size="20px" font-family="Roboto, sans-serif"><tspan x="15.63" y="34" dominant-baseline="ideographic">Grouping Elements</tspan></text></g></g></g><g id="g-root-cu_9098ub1541sef-fill" data-item-order="0" transform="translate(349, 561)"></g><g id="g-root-tx_contrast_diknb7153upe4-fill" data-item-order="0" transform="translate(199, 573)"><g id="tx_contrast_diknb7153upe4-fill" stroke="none" fill="#484848"><g><text style="font: 20px Roboto, sans-serif; white-space: pre;" font-size="20px" font-family="Roboto, sans-serif"><tspan x="13.33" y="34" dominant-baseline="ideographic">Contrast Ratios</tspan></text></g></g></g><g id="g-root-tx_minimald_djtlhf153urkb-fill" data-item-order="0" transform="translate(539, 159)"><g id="tx_minimald_djtlhf153urkb-fill" stroke="none" fill="#484848"><g><text style="font: 20px Roboto, sans-serif; white-space: pre;" font-size="20px" font-family="Roboto, sans-serif"><tspan x="13.22" y="34" dominant-baseline="ideographic">Minimal Design</tspan></text></g></g></g><g id="g-root-tx_screenre_744xv153uqz1-fill" data-item-order="0" transform="translate(79, 609)"><g id="tx_screenre_744xv153uqz1-fill" stroke="none" fill="#484848"><g><text style="font: 20px Roboto, sans-serif; white-space: pre;" font-size="20px" font-family="Roboto, sans-serif"><tspan x="16.65" y="34" dominant-baseline="ideographic">Screen Reader Compatibility</tspan></text></g></g></g><g id="g-root-cu_1uonu9v1541qtp-fill" data-item-order="0" transform="translate(467, 75)"></g><g id="g-root-tx_touchfri_1hhknib153upzb-fill" data-item-order="0" transform="translate(539, 609)"><g id="tx_touchfri_1hhknib153upzb-fill" stroke="none" fill="#484848"><g><text style="font: 20px Roboto, sans-serif; white-space: pre;" font-size="20px" font-family="Roboto, sans-serif"><tspan x="15.95" y="34" dominant-baseline="ideographic">Touch-Friendly Buttons</tspan></text></g></g></g><g id="g-root-cu_1uonu9v1541qtm-fill" data-item-order="0" transform="translate(391, 84)"></g><g id="g-root-tx_chunkinf_144v6yr153upe1-fill" data-item-order="0" transform="translate(615, 459)"><g id="tx_chunkinf_144v6yr153upe1-fill" stroke="none" fill="#484848"><g><text style="font: 20px Roboto, sans-serif; white-space: pre;" font-size="20px" font-family="Roboto, sans-serif"><tspan x="17.49" y="34" dominant-baseline="ideographic">Chunk Information</tspan></text></g></g></g><g id="g-root-cu_v4uv431541slk-fill" data-item-order="0" transform="translate(315, 234)"></g><g id="g-root-tx_errorhig_mdl6gz153urr7-fill" data-item-order="0" transform="translate(123, 459)"><g id="tx_errorhig_mdl6gz153urr7-fill" stroke="none" fill="#484848"><g><text style="font: 20px Roboto, sans-serif; white-space: pre;" font-size="20px" font-family="Roboto, sans-serif"><tspan x="13.02" y="34" dominant-baseline="ideographic">Error Highlights</tspan></text></g></g></g><g id="g-root-cu_qpnu2r1541q83-fill" data-item-order="0" transform="translate(519, 234)"></g><g id="g-root-tx_familiar_1czvq4j153urr4-fill" data-item-order="0" transform="translate(615, 423)"><g id="tx_familiar_1czvq4j153urr4-fill" stroke="none" fill="#484848"><g><text style="font: 20px Roboto, sans-serif; white-space: pre;" font-size="20px" font-family="Roboto, sans-serif"><tspan x="12.27" y="34" dominant-baseline="ideographic">Familiar Patterns</tspan></text></g></g></g><g id="g-root-cu_3daf71541q8f-fill" data-item-order="0" transform="translate(467, 432)"></g><g id="g-root-tx_userpers_dgp81v153uqdo-fill" data-item-order="0" transform="translate(123, 273)"><g id="tx_userpers_dgp81v153uqdo-fill" stroke="none" fill="#484848"><g><text style="font: 20px Roboto, sans-serif; white-space: pre;" font-size="20px" font-family="Roboto, sans-serif"><tspan x="17.3" y="34" dominant-baseline="ideographic">User Personas</tspan></text></g></g></g><g id="g-root-cu_1lt0u0z1541seb-fill" data-item-order="0" transform="translate(273, 261)"></g><g id="g-root-cu_18i6sqr1541qti-fill" data-item-order="0" transform="translate(273, 261)"></g><g id="g-root-cu_1q8uc5f1541rm0-fill" data-item-order="0" transform="translate(441, 432)"></g><g id="g-root-cu_v8lpmr1541s7f-fill" data-item-order="0" transform="translate(303, 711)"></g><g id="g-root-cu_8ydtkz1541slg-fill" data-item-order="0" transform="translate(391, 432)"></g><g id="g-root-cu_qrj9c31541q14-fill" data-item-order="0" transform="translate(591, 411)"></g><g id="g-root-cu_v6qadf1541sel-fill" data-item-order="0" transform="translate(591, 411)"></g><g id="g-root-cu_142damb1541rls-fill" data-item-order="0" transform="translate(591, 261)"></g><g id="g-root-cu_v6qadf1541sej-fill" data-item-order="0" transform="translate(591, 261)"></g><g id="g-root-cu_dg2qyr1541rm5-fill" data-item-order="0" transform="translate(273, 411)"></g><g id="g-root-cu_mbpr7n1541qte-fill" data-item-order="0" transform="translate(273, 411)"></g><g id="g-root-tx_loadinga_qteolf153uqyy-fill" data-item-order="0" transform="translate(75, 423)"><g id="tx_loadinga_qteolf153uqyy-fill" stroke="none" fill="#484848"><g><text style="font: 20px Roboto, sans-serif; white-space: pre;" font-size="20px" font-family="Roboto, sans-serif"><tspan x="17.06" y="34" dominant-baseline="ideographic">Loading Animations</tspan></text></g></g></g><g id="g-root-tx_clearmen_1ur5qmb153updy-fill" data-item-order="0" transform="translate(615, 273)"><g id="tx_clearmen_1ur5qmb153updy-fill" stroke="none" fill="#484848"><g><text style="font: 20px Roboto, sans-serif; white-space: pre;" font-size="20px" font-family="Roboto, sans-serif"><tspan x="14.25" y="34" dominant-baseline="ideographic">Clear Menus</tspan></text></g></g></g><g id="g-root-tx_research_5v6rn153uost-fill" data-item-order="0" transform="translate(51, 309)"><g id="tx_research_5v6rn153uost-fill" stroke="none" fill="#484848"><g><text style="font: 20px Roboto, sans-serif; white-space: pre;" font-size="20px" font-family="Roboto, sans-serif"><tspan x="12.05" y="34" dominant-baseline="ideographic">Research and Feedback</tspan></text></g></g></g><g id="g-root-cu_hu0ttv1541r0u-fill" data-item-order="0" transform="translate(519, 374)"></g><g id="g-root-tx_abtestin_1uua41v153uqkl-fill" data-item-order="0" transform="translate(327, 759)"><g id="tx_abtestin_1uua41v153uqkl-fill" stroke="none" fill="#484848"><g><text style="font: 20px Roboto, sans-serif; white-space: pre;" font-size="20px" font-family="Roboto, sans-serif"><tspan x="12.09" y="34" dominant-baseline="ideographic">A/B Testing</tspan></text></g></g></g><g id="g-root-cu_de7bpf1541rt5-fill" data-item-order="0" transform="translate(315, 374)"></g><g id="g-root-cu_qteolf1541pty-fill" data-item-order="0" transform="translate(303, 711)"></g><g id="g-root-tx_intuitiv_1hfp88z153uqyv-fill" data-item-order="0" transform="translate(615, 309)"><g id="tx_intuitiv_1hfp88z153uqyv-fill" stroke="none" fill="#484848"><g><text style="font: 20px Roboto, sans-serif; white-space: pre;" font-size="20px" font-family="Roboto, sans-serif"><tspan x="11.91" y="34" dominant-baseline="ideographic">Intuitive Hierarchies</tspan></text></g></g></g><g id="g-root-tx_usabilit_94mkg3153up6s-fill" data-item-order="0" transform="translate(327, 723)"><g id="tx_usabilit_94mkg3153up6s-fill" stroke="none" fill="#484848"><g><text style="font: 20px Roboto, sans-serif; white-space: pre;" font-size="20px" font-family="Roboto, sans-serif"><tspan x="14.99" y="34" dominant-baseline="ideographic">Usability Testing</tspan></text></g></g></g><g id="g-root-tx_sizeandc_146454z153urk8-fill" data-item-order="0" transform="translate(127, 123)"><g id="tx_sizeandc_146454z153urk8-fill" stroke="none" fill="#484848"><g><text style="font: 20px Roboto, sans-serif; white-space: pre;" font-size="20px" font-family="Roboto, sans-serif"><tspan x="13.66" y="34" dominant-baseline="ideographic">Size and Color Contrast</tspan></text></g></g></g><g id="g-root-tx_providei_4g2f43153yxhl-fill" data-item-order="1000000000" transform="translate(27, 372)"><g id="tx_providei_4g2f43153yxhl-fill" stroke="none" fill="#b65edf"><g><text style="font: 20px Roboto, sans-serif; white-space: pre;" font-size="20px" font-family="Roboto, sans-serif"><tspan x="17.72" y="34" dominant-baseline="ideographic">Provide Instant Feedback</tspan></text></g></g></g><g id="g-root-1_1q5pypv153yyve-fill" data-item-order="1000000000" transform="translate(273, 369)"></g><g id="g-root-tx_userexpe_143m2gz1541pmo-fill" data-item-order="1000000000" transform="translate(387, 336)"><g id="tx_userexpe_143m2gz1541pmo-fill" stroke="none" fill="#484848"><g><text style="font: 20px Roboto, sans-serif; white-space: pre;" font-size="20px" font-family="Roboto, sans-serif"><tspan x="41.2" y="34" dominant-baseline="ideographic">User </tspan><tspan x="12.81" y="58" dominant-baseline="ideographic">Experience </tspan><tspan x="30.95" y="82" dominant-baseline="ideographic">Design</tspan></text></g></g></g><g id="g-root-5_1d1r283153xkw4-fill" data-item-order="1000000000" transform="translate(579, 369)"></g><g id="g-root-tx_minimize_1qd7klf153xjb7-fill" data-item-order="1000000000" transform="translate(615, 372)"><g id="tx_minimize_1qd7klf153xjb7-fill" stroke="none" fill="#e3cd09"><g><text style="font: 20px Roboto, sans-serif; white-space: pre;" font-size="20px" font-family="Roboto, sans-serif"><tspan x="14.88" y="34" dominant-baseline="ideographic">Minimize Cognitive Load</tspan></text></g></g></g><g id="g-root-focu_qs5k3n1541r7l-fill" data-item-order="1000000000" transform="translate(417, 282)"></g><g id="g-root-tx_simplify_1lpwdfn153rwga-fill" data-item-order="1000000000" transform="translate(615, 222)"><g id="tx_simplify_1lpwdfn153rwga-fill" stroke="none" fill="#b65edf"><g><text style="font: 20px Roboto, sans-serif; white-space: pre;" font-size="20px" font-family="Roboto, sans-serif"><tspan x="14" y="34" dominant-baseline="ideographic">Simplify Navigation</tspan></text></g></g></g><g id="g-root-righ_18efv2b153ry17-fill" data-item-order="1000000000" transform="translate(579, 219)"></g><g id="g-root-tx_focusona_4mb5z7153yz2e-fill" data-item-order="1000000000" transform="translate(139, 522)"><g id="tx_focusona_4mb5z7153yz2e-fill" stroke="none" fill="#e3cd09"><g><text style="font: 20px Roboto, sans-serif; white-space: pre;" font-size="20px" font-family="Roboto, sans-serif"><tspan x="12.88" y="34" dominant-baseline="ideographic">Focus on Accessibility</tspan></text></g></g></g><g id="g-root-desi_1qcl6o3153yxaf-fill" data-item-order="1000000000" transform="translate(349, 519)"></g><g id="g-root-focu_4mxn2b153w4cs-fill" data-item-order="1000000000" transform="translate(273, 219)"></g><g id="g-root-expa_1q5pypv153no5e-fill" data-item-order="1000000000" transform="translate(503, 519)"></g><g id="g-root-tx_designfo_4pfjer153mbcx-fill" data-item-order="1000000000" transform="translate(539, 522)"><g id="tx_designfo_4pfjer153mbcx-fill" stroke="none" fill="#93c131"><g><text style="font: 20px Roboto, sans-serif; white-space: pre;" font-size="20px" font-family="Roboto, sans-serif"><tspan x="17.49" y="34" dominant-baseline="ideographic">Design for Mobile First</tspan></text></g></g></g><g id="g-root-tx_prioriti_hxrocj153w5xn-fill" data-item-order="1000000000" transform="translate(51, 222)"><g id="tx_prioriti_hxrocj153w5xn-fill" stroke="none" fill="#3bc482"><g><text style="font: 20px Roboto, sans-serif; white-space: pre;" font-size="20px" font-family="Roboto, sans-serif"><tspan x="16.91" y="34" dominant-baseline="ideographic">Prioritize the User First</tspan></text></g></g></g><g id="g-root-2_1hhknib153tbt8-fill" data-item-order="1000000000" transform="translate(291, 669)"></g><g id="g-root-tx_testandi_1ut15vn153ta8b-fill" data-item-order="1000000000" transform="translate(327, 672)"><g id="tx_testandi_1ut15vn153ta8b-fill" stroke="none" fill="#dd8433"><g><text style="font: 20px Roboto, sans-serif; white-space: pre;" font-size="20px" font-family="Roboto, sans-serif"><tspan x="12.31" y="34" dominant-baseline="ideographic">Test and Iterate Continuously</tspan></text></g></g></g><g id="g-root-2_1cw4vlv1541q8e-fill" data-item-order="1000000000" transform="translate(349, 69)"></g><g id="g-root-tx_leverage_1q6yww31541rt9-fill" data-item-order="1000000000" transform="translate(103, 72)"><g id="tx_leverage_1q6yww31541rt9-fill" stroke="none" fill="#4682e3"><g><text style="font: 20px Roboto, sans-serif; white-space: pre;" font-size="20px" font-family="Roboto, sans-serif"><tspan x="15.24" y="34" dominant-baseline="ideographic">Leverage Visual Hierarchy</tspan></text></g></g></g><g id="g-root-tx_balancea_vb3lz7153qjgh-fill" data-item-order="1000000000" transform="translate(539, 51)"><g id="tx_balancea_vb3lz7153qjgh-fill" stroke="none" fill="#17b0e3"><g><text style="font: 20px Roboto, sans-serif; white-space: pre;" font-size="20px" font-family="Roboto, sans-serif"><tspan x="15.14" y="34" dominant-baseline="ideographic">Balance Aesthetics with </tspan><tspan x="64.64" y="58" dominant-baseline="ideographic">Functionality</tspan></text></g></g></g><g id="g-root-2_i09koz153qhvm-fill" data-item-order="1000000000" transform="translate(503, 60)"></g><g id="g-root-ro_hwijur1541s0a-stroke" data-item-order="-27144" transform="translate(363, 258)"><g id="ro_hwijur1541s0a-stroke" fill="none" stroke-linecap="round" stroke-linejoin="round" stroke-miterlimit="4" stroke="#484848" stroke-width="2"><g><path d="M 34 10L 142 10C 142 10 166 10 166 34L 166 160C 166 160 166 184 142 184L 34 184C 34 184 10 184 10 160L 10 34C 10 34 10 10 34 10"></path></g></g></g><g id="g-root-ro_4ot2bn153qjgj-stroke" data-item-order="-20736" transform="translate(491, 39)"><g id="ro_4ot2bn153qjgj-stroke" fill="none" stroke-linecap="round" stroke-linejoin="round" stroke-miterlimit="4" stroke="#17b0e3" stroke-width="2"><g><path d="M 22 10L 286 10C 286 10 298 10 298 22L 298 70C 298 70 298 82 286 82L 22 82C 22 82 10 82 10 70L 10 22C 10 22 10 10 22 10"></path></g></g></g><g id="g-root-ro_146qm83153ta8d-stroke" data-item-order="-17496" transform="translate(279, 657)"><g id="ro_146qm83153ta8d-stroke" fill="none" stroke-linecap="round" stroke-linejoin="round" stroke-miterlimit="4" stroke="#dd8433" stroke-width="2"><g><path d="M 22 10L 322 10C 322 10 334 10 334 22L 334 52C 334 52 334 64 322 64L 22 64C 22 64 10 64 10 52L 10 22C 10 22 10 10 22 10"></path></g></g></g><g id="g-root-ro_18gbdhf1541r0n-stroke" data-item-order="-16200" transform="translate(91, 57)"><g id="ro_18gbdhf1541r0n-stroke" fill="none" stroke-linecap="round" stroke-linejoin="round" stroke-miterlimit="4" stroke="#4682e3" stroke-width="2"><g><path d="M 22 10L 298 10C 298 10 310 10 310 22L 310 52C 310 52 310 64 298 64L 22 64C 22 64 10 64 10 52L 10 22C 10 22 10 10 22 10"></path></g></g></g><g id="g-root-ro_1lqixoj153ywhv-stroke" data-item-order="-16200" transform="translate(15, 357)"><g id="ro_1lqixoj153ywhv-stroke" fill="none" stroke-linecap="round" stroke-linejoin="round" stroke-miterlimit="4" stroke="#b65edf" stroke-width="2"><g><path d="M 22 10L 298 10C 298 10 310 10 310 22L 310 52C 310 52 310 64 298 64L 22 64C 22 64 10 64 10 52L 10 22C 10 22 10 10 22 10"></path></g></g></g><g id="g-root-ro_146qj2b153xij1-stroke" data-item-order="-15552" transform="translate(567, 357)"><g id="ro_146qj2b153xij1-stroke" fill="none" stroke-linecap="round" stroke-linejoin="round" stroke-miterlimit="4" stroke="#e3cd09" stroke-width="2"><g><path d="M 22 10L 286 10C 286 10 298 10 298 22L 298 52C 298 52 298 64 286 64L 22 64C 22 64 10 64 10 52L 10 22C 10 22 10 10 22 10"></path></g></g></g><g id="g-root-ro_1cu9gcj153npqb-stroke" data-item-order="-14904" transform="translate(491, 507)"><g id="ro_1cu9gcj153npqb-stroke" fill="none" stroke-linecap="round" stroke-linejoin="round" stroke-miterlimit="4" stroke="#93c131" stroke-width="2"><g><path d="M 22 10L 274 10C 274 10 286 10 286 22L 286 52C 286 52 286 64 274 64L 22 64C 22 64 10 64 10 52L 10 22C 10 22 10 10 22 10"></path></g></g></g><g id="g-root-ro_1qcl6o3153w5ql-stroke" data-item-order="-14904" transform="translate(39, 207)"><g id="ro_1qcl6o3153w5ql-stroke" fill="none" stroke-linecap="round" stroke-linejoin="round" stroke-miterlimit="4" stroke="#3bc482" stroke-width="2"><g><path d="M 22 10L 274 10C 274 10 286 10 286 22L 286 52C 286 52 286 64 274 64L 22 64C 22 64 10 64 10 52L 10 22C 10 22 10 10 22 10"></path></g></g></g><g id="g-root-ro_1d14oar153yyvc-stroke" data-item-order="-14256" transform="translate(127, 507)"><g id="ro_1d14oar153yyvc-stroke" fill="none" stroke-linecap="round" stroke-linejoin="round" stroke-miterlimit="4" stroke="#e3cd09" stroke-width="2"><g><path d="M 22 10L 262 10C 262 10 274 10 274 22L 274 52C 274 52 274 64 262 64L 22 64C 22 64 10 64 10 52L 10 22C 10 22 10 10 22 10"></path></g></g></g><g id="g-root-ro_13z8u0z153rvno-stroke" data-item-order="-12960" transform="translate(567, 207)"><g id="ro_13z8u0z153rvno-stroke" fill="none" stroke-linecap="round" stroke-linejoin="round" stroke-miterlimit="4" stroke="#b65edf" stroke-width="2"><g><path d="M 22 10L 238 10C 238 10 250 10 250 22L 250 52C 250 52 250 64 238 64L 22 64C 22 64 10 64 10 52L 10 22C 10 22 10 10 22 10"></path></g></g></g><g id="g-root-cu_1luw9ab1541s75-stroke" data-item-order="0" transform="translate(349, 111)"><g id="cu_1luw9ab1541s75-stroke" fill="none" stroke-linecap="round" stroke-linejoin="round" stroke-miterlimit="4" stroke="#888888" stroke-width="2" stroke-dasharray="5.0, 7.0"><g><path d="M 28 10L 28 22L 28 34L 19 34L 10 34"></path></g></g></g><g id="g-root-cu_1czvq4j1541pu4-stroke" data-item-order="0" transform="translate(349, 111)"><g id="cu_1czvq4j1541pu4-stroke" fill="none" stroke-linecap="round" stroke-linejoin="round" stroke-miterlimit="4" stroke="#888888" stroke-width="2" stroke-dasharray="5.0, 7.0"><g><path d="M 28 10L 28 17.5L 28 58C 27.999999 64.627415 22.627416 69.999998 16 69.999998L 15.9 70L 10 70"></path></g></g></g><g id="g-root-tx_simplela_1lxe5mr153up72-stroke" data-item-order="0" transform="translate(539, 573)"></g><g id="g-root-cu_1qaprer1541rev-stroke" data-item-order="0" transform="translate(515, 561)"><g id="cu_1qaprer1541rev-stroke" fill="none" stroke-linecap="round" stroke-linejoin="round" stroke-miterlimit="4" stroke="#888888" stroke-width="2" stroke-dasharray="5.0, 7.0"><g><path d="M 10 10L 10 17.5L 10 58C 10.000002 64.627417 15.372585 70 22.000002 69.999999L 22.1 70L 28 70"></path></g></g></g><g id="g-root-cu_18k28031541qme-stroke" data-item-order="0" transform="translate(515, 111)"><g id="cu_18k28031541qme-stroke" fill="none" stroke-linecap="round" stroke-linejoin="round" stroke-miterlimit="4" stroke="#888888" stroke-width="2" stroke-dasharray="5.0, 7.0"><g><path d="M 10 10L 10 22L 10 34L 19 34L 28 34"></path></g></g></g><g id="g-root-cu_1448pvn1541rep-stroke" data-item-order="0" transform="translate(515, 111)"><g id="cu_1448pvn1541rep-stroke" fill="none" stroke-linecap="round" stroke-linejoin="round" stroke-miterlimit="4" stroke="#888888" stroke-width="2" stroke-dasharray="5.0, 7.0"><g><path d="M 10 10L 10 17.5L 10 58C 10.000002 64.627417 15.372585 70 22.000002 69.999999L 22.1 70L 28 70"></path></g></g></g><g id="g-root-cu_1uqj9j71541qmk-stroke" data-item-order="0" transform="translate(515, 561)"><g id="cu_1uqj9j71541qmk-stroke" fill="none" stroke-linecap="round" stroke-linejoin="round" stroke-miterlimit="4" stroke="#888888" stroke-width="2" stroke-dasharray="5.0, 7.0"><g><path d="M 10 10L 10 22L 10 34L 19 34L 28 34"></path></g></g></g><g id="g-root-cu_4l27sz1541q0y-stroke" data-item-order="0" transform="translate(349, 561)"><g id="cu_4l27sz1541q0y-stroke" fill="none" stroke-linecap="round" stroke-linejoin="round" stroke-miterlimit="4" stroke="#888888" stroke-width="2" stroke-dasharray="5.0, 7.0"><g><path d="M 28 10L 28 17.5L 28 58C 27.999999 64.627415 22.627416 69.999998 16 69.999998L 15.9 70L 10 70"></path></g></g></g><g id="g-root-tx_whitespa_mfglqb153uqrm-stroke" data-item-order="0" transform="translate(539, 123)"></g><g id="g-root-tx_grouping_zqx43n153up6p-stroke" data-item-order="0" transform="translate(163, 159)"></g><g id="g-root-cu_9098ub1541sef-stroke" data-item-order="0" transform="translate(349, 561)"><g id="cu_9098ub1541sef-stroke" fill="none" stroke-linecap="round" stroke-linejoin="round" stroke-miterlimit="4" stroke="#888888" stroke-width="2" stroke-dasharray="5.0, 7.0"><g><path d="M 28 10L 28 22L 28 34L 19 34L 10 34"></path></g></g></g><g id="g-root-tx_contrast_diknb7153upe4-stroke" data-item-order="0" transform="translate(199, 573)"></g><g id="g-root-tx_minimald_djtlhf153urkb-stroke" data-item-order="0" transform="translate(539, 159)"></g><g id="g-root-tx_screenre_744xv153uqz1-stroke" data-item-order="0" transform="translate(79, 609)"></g><g id="g-root-cu_1uonu9v1541qtp-stroke" data-item-order="0" transform="translate(467, 75)"><g id="cu_1uonu9v1541qtp-stroke" fill="none" stroke-linecap="round" stroke-linejoin="round" stroke-miterlimit="4" stroke="#888888" stroke-width="2" stroke-dasharray="5.0, 7.0"><g><path d="M 10 193L 10 170.1L 10 30.9C 10 19.357248 19.357248 10 30.899998 10L 31 10L 34 10"></path></g></g></g><g id="g-root-tx_touchfri_1hhknib153upzb-stroke" data-item-order="0" transform="translate(539, 609)"></g><g id="g-root-cu_1uonu9v1541qtm-stroke" data-item-order="0" transform="translate(391, 84)"><g id="cu_1uonu9v1541qtm-stroke" fill="none" stroke-linecap="round" stroke-linejoin="round" stroke-miterlimit="4" stroke="#888888" stroke-width="2" stroke-dasharray="5.0, 7.0"><g><path d="M 34 184L 34 162.3L 34 30.9C 33.999998 19.357248 24.64275 10 13.1 10L 13 10L 10 10"></path></g></g></g><g id="g-root-tx_chunkinf_144v6yr153upe1-stroke" data-item-order="0" transform="translate(615, 459)"></g><g id="g-root-cu_v4uv431541slk-stroke" data-item-order="0" transform="translate(315, 234)"><g id="cu_v4uv431541slk-stroke" fill="none" stroke-linecap="round" stroke-linejoin="round" stroke-miterlimit="4" stroke="#888888" stroke-width="2" stroke-dasharray="5.0, 7.0"><g><path d="M 58 92L 55 92L 54.9 92C 43.357247 92 33.999998 82.642751 33.999998 71.1L 34 71L 34 30.9C 33.999998 19.357248 24.64275 10 13.1 10L 13 10L 10 10"></path></g></g></g><g id="g-root-tx_errorhig_mdl6gz153urr7-stroke" data-item-order="0" transform="translate(123, 459)"></g><g id="g-root-cu_qpnu2r1541q83-stroke" data-item-order="0" transform="translate(519, 234)"><g id="cu_qpnu2r1541q83-stroke" fill="none" stroke-linecap="round" stroke-linejoin="round" stroke-miterlimit="4" stroke="#888888" stroke-width="2" stroke-dasharray="5.0, 7.0"><g><path d="M 10 92L 13 92L 13.1 92C 24.642748 92.000003 33.999998 82.642755 33.999998 71.100003L 34 71L 34 30.9C 33.999999 19.357249 43.357248 10.000001 54.899999 10.000002L 55 10L 58 10"></path></g></g></g><g id="g-root-tx_familiar_1czvq4j153urr4-stroke" data-item-order="0" transform="translate(615, 423)"></g><g id="g-root-cu_3daf71541q8f-stroke" data-item-order="0" transform="translate(467, 432)"><g id="cu_3daf71541q8f-stroke" fill="none" stroke-linecap="round" stroke-linejoin="round" stroke-miterlimit="4" stroke="#888888" stroke-width="2" stroke-dasharray="5.0, 7.0"><g><path d="M 10 10L 10 22.8L 10 91.1C 9.999999 102.642757 19.357248 112.000007 30.9 112.000007L 31 112L 34 112"></path></g></g></g><g id="g-root-tx_userpers_dgp81v153uqdo-stroke" data-item-order="0" transform="translate(123, 273)"></g><g id="g-root-cu_1lt0u0z1541seb-stroke" data-item-order="0" transform="translate(273, 261)"><g id="cu_1lt0u0z1541seb-stroke" fill="none" stroke-linecap="round" stroke-linejoin="round" stroke-miterlimit="4" stroke="#888888" stroke-width="2" stroke-dasharray="5.0, 7.0"><g><path d="M 28 10L 28 22L 28 34L 19 34L 10 34"></path></g></g></g><g id="g-root-cu_18i6sqr1541qti-stroke" data-item-order="0" transform="translate(273, 261)"><g id="cu_18i6sqr1541qti-stroke" fill="none" stroke-linecap="round" stroke-linejoin="round" stroke-miterlimit="4" stroke="#888888" stroke-width="2" stroke-dasharray="5.0, 7.0"><g><path d="M 28 10L 28 17.5L 28 58C 27.999999 64.627415 22.627416 69.999998 16 69.999998L 15.9 70L 10 70"></path></g></g></g><g id="g-root-cu_1q8uc5f1541rm0-stroke" data-item-order="0" transform="translate(441, 432)"><g id="cu_1q8uc5f1541rm0-stroke" fill="none" stroke-linecap="round" stroke-linejoin="round" stroke-miterlimit="4" stroke="#888888" stroke-width="2" stroke-dasharray="5.0, 7.0"><g><path d="M 10 10L 10 122.5L 10 235"></path></g></g></g><g id="g-root-cu_v8lpmr1541s7f-stroke" data-item-order="0" transform="translate(303, 711)"><g id="cu_v8lpmr1541s7f-stroke" fill="none" stroke-linecap="round" stroke-linejoin="round" stroke-miterlimit="4" stroke="#888888" stroke-width="2" stroke-dasharray="5.0, 7.0"><g><path d="M 10 10L 10 22L 10 34L 19 34L 28 34"></path></g></g></g><g id="g-root-cu_8ydtkz1541slg-stroke" data-item-order="0" transform="translate(391, 432)"><g id="cu_8ydtkz1541slg-stroke" fill="none" stroke-linecap="round" stroke-linejoin="round" stroke-miterlimit="4" stroke="#888888" stroke-width="2" stroke-dasharray="5.0, 7.0"><g><path d="M 34 10L 34 22.8L 34 91.1C 33.999998 102.642755 24.642749 112.000004 13.099997 112.000003L 13 112L 10 112"></path></g></g></g><g id="g-root-cu_qrj9c31541q14-stroke" data-item-order="0" transform="translate(591, 411)"><g id="cu_qrj9c31541q14-stroke" fill="none" stroke-linecap="round" stroke-linejoin="round" stroke-miterlimit="4" stroke="#888888" stroke-width="2" stroke-dasharray="5.0, 7.0"><g><path d="M 10 10L 10 17.5L 10 58C 10.000002 64.627417 15.372585 70 22.000002 69.999999L 22.1 70L 28 70"></path></g></g></g><g id="g-root-cu_v6qadf1541sel-stroke" data-item-order="0" transform="translate(591, 411)"><g id="cu_v6qadf1541sel-stroke" fill="none" stroke-linecap="round" stroke-linejoin="round" stroke-miterlimit="4" stroke="#888888" stroke-width="2" stroke-dasharray="5.0, 7.0"><g><path d="M 10 10L 10 22L 10 34L 19 34L 28 34"></path></g></g></g><g id="g-root-cu_142damb1541rls-stroke" data-item-order="0" transform="translate(591, 261)"><g id="cu_142damb1541rls-stroke" fill="none" stroke-linecap="round" stroke-linejoin="round" stroke-miterlimit="4" stroke="#888888" stroke-width="2" stroke-dasharray="5.0, 7.0"><g><path d="M 10 10L 10 22L 10 34L 19 34L 28 34"></path></g></g></g><g id="g-root-cu_v6qadf1541sej-stroke" data-item-order="0" transform="translate(591, 261)"><g id="cu_v6qadf1541sej-stroke" fill="none" stroke-linecap="round" stroke-linejoin="round" stroke-miterlimit="4" stroke="#888888" stroke-width="2" stroke-dasharray="5.0, 7.0"><g><path d="M 10 10L 10 17.5L 10 58C 10.000002 64.627417 15.372585 70 22.000002 69.999999L 22.1 70L 28 70"></path></g></g></g><g id="g-root-cu_dg2qyr1541rm5-stroke" data-item-order="0" transform="translate(273, 411)"><g id="cu_dg2qyr1541rm5-stroke" fill="none" stroke-linecap="round" stroke-linejoin="round" stroke-miterlimit="4" stroke="#888888" stroke-width="2" stroke-dasharray="5.0, 7.0"><g><path d="M 28 10L 28 17.5L 28 58C 27.999999 64.627415 22.627416 69.999998 16 69.999998L 15.9 70L 10 70"></path></g></g></g><g id="g-root-cu_mbpr7n1541qte-stroke" data-item-order="0" transform="translate(273, 411)"><g id="cu_mbpr7n1541qte-stroke" fill="none" stroke-linecap="round" stroke-linejoin="round" stroke-miterlimit="4" stroke="#888888" stroke-width="2" stroke-dasharray="5.0, 7.0"><g><path d="M 28 10L 28 22L 28 34L 19 34L 10 34"></path></g></g></g><g id="g-root-tx_loadinga_qteolf153uqyy-stroke" data-item-order="0" transform="translate(75, 423)"></g><g id="g-root-tx_clearmen_1ur5qmb153updy-stroke" data-item-order="0" transform="translate(615, 273)"></g><g id="g-root-tx_research_5v6rn153uost-stroke" data-item-order="0" transform="translate(51, 309)"></g><g id="g-root-cu_hu0ttv1541r0u-stroke" data-item-order="0" transform="translate(519, 374)"><g id="cu_hu0ttv1541r0u-stroke" fill="none" stroke-linecap="round" stroke-linejoin="round" stroke-miterlimit="4" stroke="#888888" stroke-width="2" stroke-dasharray="5.0, 7.0"><g><path d="M 10 10L 13 10L 13.1 10C 16.360602 10.01615 19.962923 10.453815 23.800001 11.3C 26.03452 11.745014 29.638043 13.052174 34 15.000001C 38.361958 16.947827 41.965481 18.254987 44.200001 18.700001C 48.03708 19.546186 51.639401 19.983851 54.900002 20.000001L 55 20L 58 20"></path></g></g></g><g id="g-root-tx_abtestin_1uua41v153uqkl-stroke" data-item-order="0" transform="translate(327, 759)"></g><g id="g-root-cu_de7bpf1541rt5-stroke" data-item-order="0" transform="translate(315, 374)"><g id="cu_de7bpf1541rt5-stroke" fill="none" stroke-linecap="round" stroke-linejoin="round" stroke-miterlimit="4" stroke="#888888" stroke-width="2" stroke-dasharray="5.0, 7.0"><g><path d="M 58 10L 55 10L 54.9 10C 51.639401 10.016148 48.03708 10.453814 44.200002 11.299999C 41.965481 11.745013 38.361958 13.052173 34 14.999999C 29.638043 16.947825 26.03452 18.254985 23.8 18.699999C 19.962923 19.546185 16.360601 19.98385 13.1 20L 13 20L 10 20"></path></g></g></g><g id="g-root-cu_qteolf1541pty-stroke" data-item-order="0" transform="translate(303, 711)"><g id="cu_qteolf1541pty-stroke" fill="none" stroke-linecap="round" stroke-linejoin="round" stroke-miterlimit="4" stroke="#888888" stroke-width="2" stroke-dasharray="5.0, 7.0"><g><path d="M 10 10L 10 17.5L 10 58C 10.000002 64.627417 15.372585 70 22.000002 69.999999L 22.1 70L 28 70"></path></g></g></g><g id="g-root-tx_intuitiv_1hfp88z153uqyv-stroke" data-item-order="0" transform="translate(615, 309)"></g><g id="g-root-tx_usabilit_94mkg3153up6s-stroke" data-item-order="0" transform="translate(327, 723)"></g><g id="g-root-tx_sizeandc_146454z153urk8-stroke" data-item-order="0" transform="translate(127, 123)"></g><g id="g-root-tx_providei_4g2f43153yxhl-stroke" data-item-order="1000000000" transform="translate(27, 372)"></g><g id="g-root-1_1q5pypv153yyve-stroke" data-item-order="1000000000" transform="translate(273, 369)"><g id="1_1q5pypv153yyve-stroke" fill="none" stroke-linecap="round" stroke-linejoin="round" stroke-miterlimit="4" stroke="#b65edf" stroke-width="2"><g><path d="M 29.205 18.33375L 30.061249 16.2325C 30.415939 15.362068 31.409187 14.944083 32.279533 15.298987C 33.149876 15.653893 33.567616 16.647242 33.212502 17.5175L 32.356251 19.6175M 29.786251 25.92L 32.356251 19.6175C 32.711243 18.747543 33.704174 18.329979 34.574215 18.684761C 35.44426 19.039543 35.862068 20.03237 35.5075 20.902498L 34.2225 24.053749M 32.295002 28.78125L 34.2225 24.053749C 34.577343 23.18321 35.570713 22.765158 36.44125 23.120001C 37.31179 23.474844 37.729843 24.46821 37.375 25.338749L 33.092503 35.838749C 31.91032 38.740021 28.599628 40.133141 25.69875 38.950001L 22.19875 37.522499C 20.399496 36.790211 19.098845 35.189735 18.75 33.278748C 18.102499 29.692499 17.77125 24.08625 17.77125 24.08625C 17.621967 23.419434 17.990173 22.745281 18.631891 22.51049C 19.273609 22.2757 19.989944 22.553043 20.30625 23.158749L 21.768749 27.5525L 26.05125 17.0525C 26.405941 16.182068 27.399187 15.764083 28.269531 16.118988C 29.139877 16.473892 29.557617 17.467241 29.202499 18.3375L 26.6325 24.639999M 15.6025 30.71875C 14.863361 30.292763 14.230079 29.705204 13.75 29L 11.61375 25.875C 10.520901 24.272585 10.321068 22.22336 11.08375 20.440001C 12.52 17.091249 15.33375 12.23 15.33375 12.23C 15.578406 11.59348 16.25629 11.236206 16.919666 11.394153C 17.583042 11.552098 18.027187 12.176523 17.95875 12.855L 16.758751 17.32625L 26.125 10.9225C 26.88154 10.420086 27.899311 10.600487 28.437078 11.332319C 28.974846 12.064153 28.842972 13.08934 28.137499 13.66125M 33.75 10.625L 33.75 11.875M 38.75 10.625L 36.875 12.5M 38.125 15.625L 39.375 15.625"></path></g></g></g><g id="g-root-tx_userexpe_143m2gz1541pmo-stroke" data-item-order="1000000000" transform="translate(387, 336)"></g><g id="g-root-5_1d1r283153xkw4-stroke" data-item-order="1000000000" transform="translate(579, 369)"><g id="5_1d1r283153xkw4-stroke" fill="none" stroke-linecap="round" stroke-linejoin="round" stroke-miterlimit="4" stroke="#e3cd09" stroke-width="2"><g><path d="M 11.071428 22.857143L 11.071428 13.214286C 11.071428 12.030818 12.030818 11.071428 13.214286 11.071428L 36.785713 11.071428C 37.969181 11.071428 38.92857 12.030818 38.92857 13.214286L 38.92857 36.785713C 38.92857 37.969181 37.969181 38.92857 36.785713 38.92857L 27.142857 38.92857M 18.571428 38.92857L 11.071428 38.92857L 11.071428 31.42857M 11.071428 38.92857L 25 25"></path></g></g></g><g id="g-root-tx_minimize_1qd7klf153xjb7-stroke" data-item-order="1000000000" transform="translate(615, 372)"></g><g id="g-root-focu_qs5k3n1541r7l-stroke" data-item-order="1000000000" transform="translate(417, 282)"><g id="focu_qs5k3n1541r7l-stroke" fill="none" stroke-linecap="round" stroke-linejoin="round" stroke-miterlimit="4" stroke="#484848" stroke-width="2"><g><path d="M 25.428572 28.857143C 25.428572 33.591011 29.266132 37.428574 34 37.428574C 38.733868 37.428574 42.57143 33.591011 42.57143 28.857143C 42.57143 24.123276 38.733868 20.285715 34 20.285715C 29.266132 20.285715 25.428572 24.123276 25.428572 28.857143M 45.348572 46.857143C 38.866127 41.131516 29.133875 41.131516 22.651428 46.857143M 56.285713 46L 56.285713 52.857143C 56.285713 54.750694 54.750694 56.285713 52.857143 56.285713L 46 56.285713M 46 11.714286L 52.857143 11.714286C 54.750694 11.714286 56.285713 13.24931 56.285713 15.142858L 56.285713 22M 11.714286 22L 11.714286 15.142858C 11.714286 13.24931 13.24931 11.714286 15.142858 11.714286L 22 11.714286M 22 56.285713L 15.142858 56.285713C 13.24931 56.285713 11.714286 54.750694 11.714286 52.857143L 11.714286 46"></path></g></g></g><g id="g-root-tx_simplify_1lpwdfn153rwga-stroke" data-item-order="1000000000" transform="translate(615, 222)"></g><g id="g-root-righ_18efv2b153ry17-stroke" data-item-order="1000000000" transform="translate(579, 219)"><g id="righ_18efv2b153ry17-stroke" fill="none" stroke-linecap="round" stroke-linejoin="round" stroke-miterlimit="4" stroke="#b65edf" stroke-width="2"><g><path d="M 19.375 19.5L 19.375 12.86375C 19.375156 12.605597 19.534014 12.374104 19.77483 12.281099C 20.015646 12.188094 20.288866 12.252717 20.4625 12.44375L 31.4925 24.57625C 31.709463 24.814699 31.709463 25.17905 31.4925 25.4175L 20.4625 37.55125C 20.288101 37.743149 20.013319 37.807426 19.771894 37.712799C 19.53047 37.618172 19.372551 37.384296 19.375 37.125L 19.375 30.5M 11.875 37.125L 11.875 12.86375C 11.875156 12.605597 12.034013 12.374104 12.27483 12.281099C 12.515647 12.188094 12.788865 12.252717 12.9625 12.44375L 23.9925 24.57625C 24.209465 24.814699 24.209465 25.17905 23.9925 25.4175L 12.9625 37.55125C 12.7881 37.743149 12.51332 37.807426 12.271894 37.712799C 12.03047 37.618172 11.872552 37.384296 11.875 37.125ZM 26.875 19.5L 26.875 12.86375C 26.875156 12.605597 27.034014 12.374104 27.27483 12.281099C 27.515646 12.188094 27.788866 12.252717 27.9625 12.44375L 38.9925 24.57625C 39.209465 24.814699 39.209465 25.17905 38.9925 25.4175L 27.9625 37.55125C 27.788712 37.742455 27.515184 37.807003 27.274246 37.713676C 27.03331 37.620346 26.87464 37.388378 26.875 37.130001L 26.875 30.5"></path></g></g></g><g id="g-root-tx_focusona_4mb5z7153yz2e-stroke" data-item-order="1000000000" transform="translate(139, 522)"></g><g id="g-root-desi_1qcl6o3153yxaf-stroke" data-item-order="1000000000" transform="translate(349, 519)"><g id="desi_1qcl6o3153yxaf-stroke" fill="none" stroke-linecap="round" stroke-linejoin="round" stroke-miterlimit="4" stroke="#e3cd09" stroke-width="2"><g><path d="M 20.625 34.375L 29.375 34.375M 25 31.875L 25 34.375M 14.375 28.125L 29.375 28.125M 11.875 10.625L 16.875 10.625C 16.875 10.625 18.125 10.625 18.125 11.875L 18.125 20.625C 18.125 20.625 18.125 21.875 16.875 21.875L 11.875 21.875C 11.875 21.875 10.625 21.875 10.625 20.625L 10.625 11.875C 10.625 11.875 10.625 10.625 11.875 10.625M 33.125 28.125L 38.125 28.125C 38.125 28.125 39.375 28.125 39.375 29.375L 39.375 38.125C 39.375 38.125 39.375 39.375 38.125 39.375L 33.125 39.375C 33.125 39.375 31.875 39.375 31.875 38.125L 31.875 29.375C 31.875 29.375 31.875 28.125 33.125 28.125M 31.875 36.875L 39.375 36.875M 20.625 16.875L 33.75 16.875C 34.785534 16.875 35.625 17.714466 35.625 18.75L 35.625 25.625M 29.375 31.875L 16.25 31.875C 15.214466 31.875 14.375 31.035536 14.375 30L 14.375 24.375"></path></g></g></g><g id="g-root-focu_4mxn2b153w4cs-stroke" data-item-order="1000000000" transform="translate(273, 219)"><g id="focu_4mxn2b153w4cs-stroke" fill="none" stroke-linecap="round" stroke-linejoin="round" stroke-miterlimit="4" stroke="#3bc482" stroke-width="2"><g><path d="M 18.035713 20.714285C 18.035715 24.560555 21.15373 27.678572 25 27.678572C 28.84627 27.678572 31.964285 24.560555 31.964285 20.714285C 31.964285 16.868017 28.84627 13.75 25 13.75C 21.15373 13.75 18.035715 16.868017 18.035715 20.714285M 25 16.428572L 25 11.071428M 20.714285 20.714285L 15.357142 20.714285M 25 25L 25 30.357141M 29.285713 20.714285L 34.642857 20.714285M 17.864286 31.42857C 15.229186 33.188301 13.336715 35.859127 12.55 38.92857M 32.135712 31.42857C 34.766544 33.183083 36.658524 35.845585 37.450001 38.907143"></path></g></g></g><g id="g-root-expa_1q5pypv153no5e-stroke" data-item-order="1000000000" transform="translate(503, 519)"><g id="expa_1q5pypv153no5e-stroke" fill="none" stroke-linecap="round" stroke-linejoin="round" stroke-miterlimit="4" stroke="#93c131" stroke-width="2"><g><path d="M 15.625 16.25L 39.375 16.25M 15.625 25.625L 15.625 13.125C 15.625 11.744288 16.744287 10.625 18.125 10.625L 36.875 10.625C 38.255714 10.625 39.375 11.744288 39.375 13.125L 39.375 26.875C 39.375 28.255713 38.255714 29.375 36.875 29.375L 29.375 29.375M 11.875 28.125L 25.625 28.125C 25.625 28.125 26.875 28.125 26.875 29.375L 26.875 38.125C 26.875 38.125 26.875 39.375 25.625 39.375L 11.875 39.375C 11.875 39.375 10.625 39.375 10.625 38.125L 10.625 29.375C 10.625 29.375 10.625 28.125 11.875 28.125M 10.625 31.875L 26.875 31.875M 28.75 24.375L 33.75 19.375M 30 19.375L 33.75 19.375L 33.75 23.125M 26.25 24.375L 21.25 19.375M 25 19.375L 21.25 19.375L 21.25 23.125M 19.6875 13.125C 19.860088 13.125 20 13.264911 20 13.4375C 20 13.610089 19.860088 13.75 19.6875 13.75C 19.514912 13.75 19.375 13.610089 19.375 13.4375C 19.375 13.264911 19.514912 13.125 19.6875 13.125M 22.8125 13.125C 22.985088 13.125 23.125 13.264911 23.125 13.4375C 23.125 13.610089 22.985088 13.75 22.8125 13.75C 22.639912 13.75 22.5 13.610089 22.5 13.4375C 22.5 13.264911 22.639912 13.125 22.8125 13.125M 25.9375 13.125C 26.110088 13.125 26.25 13.264911 26.25 13.4375C 26.25 13.610089 26.110088 13.75 25.9375 13.75C 25.764912 13.75 25.625 13.610089 25.625 13.4375C 25.625 13.264911 25.764912 13.125 25.9375 13.125"></path></g></g></g><g id="g-root-tx_designfo_4pfjer153mbcx-stroke" data-item-order="1000000000" transform="translate(539, 522)"></g><g id="g-root-tx_prioriti_hxrocj153w5xn-stroke" data-item-order="1000000000" transform="translate(51, 222)"></g><g id="g-root-2_1hhknib153tbt8-stroke" data-item-order="1000000000" transform="translate(291, 669)"><g id="2_1hhknib153tbt8-stroke" fill="none" stroke-linecap="round" stroke-linejoin="round" stroke-miterlimit="4" stroke="#dd8433" stroke-width="2"><g><path d="M 12.142857 14.285714L 37.857143 14.285714C 37.857143 14.285714 38.92857 14.285714 38.92857 15.357142L 38.92857 32.5C 38.92857 32.5 38.92857 33.571426 37.857143 33.571426L 12.142857 33.571426C 12.142857 33.571426 11.071428 33.571426 11.071428 32.5L 11.071428 15.357142C 11.071428 15.357142 11.071428 14.285714 12.142857 14.285714M 22.857143 33.571426L 20.714285 38.92857M 27.142857 33.571426L 29.285713 38.92857M 18.571428 38.92857L 31.42857 38.92857M 26.071428 14.285714L 26.071428 33.571426M 16.428572 20.714285L 20.714285 20.714285M 16.428572 27.142857L 18.571428 27.142857M 26.071428 25L 28.664286 22.857143C 30.249554 21.545429 32.543301 21.545429 34.128571 22.857143L 38.92857 27.142857"></path></g></g></g><g id="g-root-tx_testandi_1ut15vn153ta8b-stroke" data-item-order="1000000000" transform="translate(327, 672)"></g><g id="g-root-2_1cw4vlv1541q8e-stroke" data-item-order="1000000000" transform="translate(349, 69)"><g id="2_1cw4vlv1541q8e-stroke" fill="none" stroke-linecap="round" stroke-linejoin="round" stroke-miterlimit="4" stroke="#4682e3" stroke-width="2"><g><path d="M 21.16625 14.45875C 21.165659 16.576488 22.882259 18.29357 24.999998 18.29357C 27.117739 18.29357 28.834341 16.576488 28.83375 14.45875C 28.834341 12.34101 27.117739 10.623929 24.999998 10.623929C 22.882259 10.623929 21.165659 12.34101 21.16625 14.45875M 30.111252 35.541252C 30.110657 37.658989 31.827259 39.376068 33.945 39.376068C 36.06274 39.376068 37.779343 37.658989 37.778748 35.541248C 37.779343 33.423508 36.06274 31.706429 33.945 31.706429C 31.827259 31.706429 30.110657 33.423508 30.111248 35.541248M 12.22125 35.541252C 12.220658 37.658989 13.93726 39.376068 16.055 39.376068C 18.172739 39.376068 19.889341 37.658989 19.888748 35.541248C 19.889341 33.423508 18.172739 31.706429 16.055 31.706429C 13.93726 31.706429 12.220658 33.423508 12.22125 35.541248M 25 18.29125L 25 20.5275C 25 22.997593 22.997593 25 20.5275 25C 18.057407 25 16.055 27.002407 16.055 29.4725L 16.055 31.708752M 25 18.29125L 25 20.5275C 25 22.997593 27.002407 25 29.4725 25C 31.942593 25 33.945 27.002407 33.945 29.4725L 33.945 31.708752"></path></g></g></g><g id="g-root-tx_leverage_1q6yww31541rt9-stroke" data-item-order="1000000000" transform="translate(103, 72)"></g><g id="g-root-tx_balancea_vb3lz7153qjgh-stroke" data-item-order="1000000000" transform="translate(539, 51)"></g><g id="g-root-2_i09koz153qhvm-stroke" data-item-order="1000000000" transform="translate(503, 60)"><g id="2_i09koz153qhvm-stroke" fill="none" stroke-linecap="round" stroke-linejoin="round" stroke-miterlimit="4" stroke="#17b0e3" stroke-width="2"><g><path d="M 29.485001 16.73625C 30.502748 16.18082 31.140259 15.118143 31.151249 13.95875C 31.174612 12.752552 30.544481 11.627846 29.503601 11.017902C 28.462723 10.407959 27.173527 10.407959 26.132648 11.017902C 25.09177 11.627846 24.461639 12.752552 24.485001 13.95875C 24.484577 12.11787 22.99213 10.625767 21.151249 10.625767C 19.310369 10.625767 17.817923 12.11787 17.817501 13.95875C 17.852531 15.111559 18.483999 16.163372 19.485001 16.73625L 19.485001 16.73625C 18.45085 16.233168 17.230543 16.297947 16.255466 16.907688C 15.280389 17.517429 14.68792 18.586224 14.6875 19.73625C 14.726673 20.874977 15.319245 21.922884 16.274876 22.543371C 17.230505 23.163858 18.428856 23.278791 19.485001 22.85125L 19.485001 22.85125C 18.086864 23.661705 17.472446 25.359018 18.027834 26.876637C 18.58322 28.394257 20.148071 29.294044 21.739071 29.010599C 23.33007 28.727152 24.487898 27.342299 24.485001 25.72625C 24.485001 27.572262 25.981487 29.06875 27.827499 29.06875C 29.673512 29.06875 31.170002 27.572262 31.170002 25.72625C 31.192444 24.527624 30.541744 23.417379 29.485001 22.85125L 29.485001 22.85125C 30.596249 23.47625 34.6875 23.190001 34.6875 19.73625C 34.638603 18.518614 33.968784 17.411089 32.913109 16.802338C 31.857433 16.193586 30.563354 16.168638 29.485001 16.73625ZM 21.95875 20.0975C 21.95875 21.478212 23.078039 22.5975 24.45875 22.5975C 25.839462 22.5975 26.95875 21.478212 26.95875 20.0975C 26.95875 18.716789 25.839462 17.5975 24.45875 17.5975C 23.078039 17.5975 21.95875 18.716789 21.95875 20.0975ZM 24.6875 26.858751L 24.6875 39.263748M 33.4375 30.625C 28.605009 30.625 24.6875 34.542511 24.687502 39.375004C 29.519993 39.375004 33.437504 35.457493 33.4375 30.625ZM 15.9375 30.625C 20.769993 30.625 24.687502 34.542511 24.687502 39.375004C 19.855009 39.375004 15.9375 35.457493 15.9375 30.625Z"></path></g></g></g></g></g></svg>