<?xml version="1.0" encoding="utf-8" standalone="yes"?>
<!DOCTYPE svg PUBLIC "-//W3C//DTD SVG 1.1//EN" "http://www.w3.org/Graphics/SVG/1.1/DTD/svg11.dtd">
<svg width="674" height="458" viewBox="0 0 674 458" style="fill:none;stroke:none;fill-rule:evenodd;clip-rule:evenodd;stroke-linecap:round;stroke-linejoin:round;stroke-miterlimit:1.5;" version="1.1" xmlns="http://www.w3.org/2000/svg" xmlns:xlink="http://www.w3.org/1999/xlink"><style id="fontImports">@import url("https://fonts.googleapis.com/css2?family=Roboto:wght@400;700&amp;display=block");</style><g id="items" style="isolation: isolate"><g id="blend" style="mix-blend-mode:normal"><g id="g-root--1.cu_sy_qs668j14a4d1c-fill" data-item-order="-110586" transform="translate(291, 111)"><g id="-1.cu_sy_qs668j14a4d1c-fill" stroke="none" fill="url(#gradient-cccccc-454304273)"><g><path d="M 65.766602 298C 80.754802 298 106.000002 233.529 106.000002 154C 106.000002 74.471 80.754802 10 65.766602 10C 80.775202 10.0075 92.941702 74.6668 92.941702 154C 92.941702 233.333 80.775202 297.992 65.766602 298ZM 65.765897 298C 80.774597 297.992 92.941097 233.333 92.941097 154C 92.941097 74.6668 80.774597 10.0075 65.765897 10L 51.957397 10C 66.060697 15.1659 77.199297 77.8539 77.199297 154C 77.199297 230.146 65.382597 292.834 51.279297 298L 65.765897 298ZM 77.2 154C 77.2 230.146 65.3833 292.834 51.28 298L 50.0615 298C 35.0734 298 10 233.529 10 154C 10 74.471 35.0734 10 50.0615 10C 50.6991 10 51.9581 10 51.9581 10C 66.0614 15.1659 77.2 77.8539 77.2 154Z"></path></g></g></g><g id="g-root-0.cr-medium_cr_hwj5zn14a4du1-fill" data-item-order="-110582" transform="translate(459, 219)"><g id="0.cr-medium_cr_hwj5zn14a4du1-fill" stroke="none" fill="url(#gradient-999999-232777082)"><g><path d="M 10 46C 10 65.882251 26.117749 82 46 82C 65.882251 82 82 65.882251 82 46C 82 26.117749 65.882251 10 46 10C 26.117749 10 10 26.117749 10 46"></path></g></g></g><g id="g-root-3.line_sy_dgpnv714a4ema-fill" data-item-order="-110575" transform="translate(207.10940551757812, 279)"></g><g id="g-root-3.cr-small_cr_4lp4pf14a4c97-fill" data-item-order="-110574" transform="translate(147, 309)"><g id="3.cr-small_cr_4lp4pf14a4c97-fill" stroke="none" fill="url(#gradient-44d0ff-453494305)"><g><path d="M 10 40C 10.000002 56.568544 23.431459 70.000002 40.000002 70.000002C 56.568544 70.000002 70.000002 56.568544 70.000002 40.000002C 70.000002 23.431459 56.568544 10.000002 40.000002 10.000002C 23.431459 10.000002 10.000002 23.431459 10.000002 40.000002"></path></g></g></g><g id="g-root-2.line_sy_5vmkz14a4d1g-fill" data-item-order="-110567" transform="translate(207, 255)"></g><g id="g-root-2.cr-small_cr_1qbcob714a4dn1-fill" data-item-order="-110566" transform="translate(147, 225)"><g id="2.cr-small_cr_1qbcob714a4dn1-fill" stroke="none" fill="url(#gradient-b8e45c-154771520)"><g><path d="M 10 40C 10.000002 56.568544 23.431459 70.000002 40.000002 70.000002C 56.568544 70.000002 70.000002 56.568544 70.000002 40.000002C 70.000002 23.431459 56.568544 10.000002 40.000002 10.000002C 23.431459 10.000002 10.000002 23.431459 10.000002 40.000002"></path></g></g></g><g id="g-root-1.line_sy_1lvj66r14a4efa-fill" data-item-order="-110559" transform="translate(207, 171)"></g><g id="g-root-1.cr-small_cr_1d0in0z14a4c27-fill" data-item-order="-110558" transform="translate(147, 141)"><defs><linearGradient id="gradient-cccccc-454304273" x2="0" y2="1"><stop offset="0" stop-color="#f5f5f5"></stop><stop offset="1" stop-color="#A3A3A3"></stop></linearGradient><linearGradient id="gradient-999999-232777082" x2="0" y2="1"><stop offset="0" stop-color="#cccccc"></stop><stop offset="1" stop-color="#666666"></stop></linearGradient><linearGradient id="gradient-44d0ff-453494305" x2="0" y2="1"><stop offset="0" stop-color="#6ddafe"></stop><stop offset="1" stop-color="#1AC6FF"></stop></linearGradient><linearGradient id="gradient-b8e45c-154771520" x2="0" y2="1"><stop offset="0" stop-color="#c8ea80"></stop><stop offset="1" stop-color="#A8DD38"></stop></linearGradient><linearGradient id="gradient-67a1ff-352354018" x2="0" y2="1"><stop offset="0" stop-color="#7fb0ff"></stop><stop offset="1" stop-color="#4F92FF"></stop></linearGradient></defs><g id="1.cr-small_cr_1d0in0z14a4c27-fill" stroke="none" fill="url(#gradient-67a1ff-352354018)"><g><path d="M 10 40C 10.000002 56.568544 23.431459 70.000002 40.000002 70.000002C 56.568544 70.000002 70.000002 56.568544 70.000002 40.000002C 70.000002 23.431459 56.568544 10.000002 40.000002 10.000002C 23.431459 10.000002 10.000002 23.431459 10.000002 40.000002"></path></g></g></g><g id="g-root-tx_thepower_mdlpg3149yr5w-fill" data-item-order="0" transform="translate(213, 39)"><g id="tx_thepower_mdlpg3149yr5w-fill" stroke="none" fill="#484848"><g><text style="font: 20px Roboto, sans-serif; white-space: pre;" font-size="20px" font-family="Roboto, sans-serif"><tspan x="14.52" y="34" dominant-baseline="ideographic">The Power of Effective UX</tspan></text></g></g></g><g id="g-root-tx_improved_zofqqb149ysqr-fill" data-item-order="0" transform="translate(39, 147)"><g id="tx_improved_zofqqb149ysqr-fill" stroke="none" fill="#484848"><g><text style="font: 20px Roboto, sans-serif; white-space: pre;" font-size="20px" font-family="Roboto, sans-serif"><tspan x="20.53" y="34" dominant-baseline="ideographic">Improved </tspan><tspan x="19.09" y="58" dominant-baseline="ideographic">Retention</tspan></text></g></g></g><g id="g-root-hand_598nn149yrdb-fill" data-item-order="0" transform="translate(159, 153)"></g><g id="g-root-tx_higherco_1czw93n149yr5u-fill" data-item-order="0" transform="translate(15, 231)"><g id="tx_higherco_1czw93n149yr5u-fill" stroke="none" fill="#484848"><g><text style="font: 20px Roboto, sans-serif; white-space: pre;" font-size="20px" font-family="Roboto, sans-serif"><tspan x="69.28" y="34" dominant-baseline="ideographic">Higher </tspan><tspan x="17.69" y="58" dominant-baseline="ideographic">Conversions</tspan></text></g></g></g><g id="g-root-rewa_9036b149ukgc-fill" data-item-order="0" transform="translate(159, 237)"></g><g id="g-root-grap_18n74er149m496-fill" data-item-order="0" transform="translate(471, 231)"></g><g id="g-root-tx_business_1uqjsib149yryg-fill" data-item-order="0" transform="translate(543, 231)"><g id="tx_business_1uqjsib149yryg-fill" stroke="none" fill="#484848"><g><text style="font: 20px Roboto, sans-serif; white-space: pre;" font-size="20px" font-family="Roboto, sans-serif"><tspan x="12" y="34" dominant-baseline="ideographic">Business </tspan><tspan x="12" y="58" dominant-baseline="ideographic">Success</tspan></text></g></g></g><g id="g-root-tx_competit_1hfpr83149yqdl-fill" data-item-order="0" transform="translate(15, 315)"><g id="tx_competit_1hfpr83149yqdl-fill" stroke="none" fill="#484848"><g><text style="font: 20px Roboto, sans-serif; white-space: pre;" font-size="20px" font-family="Roboto, sans-serif"><tspan x="21.3" y="34" dominant-baseline="ideographic">Competitive </tspan><tspan x="32.98" y="58" dominant-baseline="ideographic">Advantage</tspan></text></g></g></g><g id="g-root-1_1umsxzn149t3wv-fill" data-item-order="0" transform="translate(159, 321)"></g><g id="g-root--1.cu_sy_qs668j14a4d1c-stroke" data-item-order="-110586" transform="translate(291, 111)"><g id="-1.cu_sy_qs668j14a4d1c-stroke" fill="none" stroke-linecap="round" stroke-linejoin="round" stroke-miterlimit="4" stroke="#484848" stroke-width="2"><g><path d="M 65.766602 298C 80.754802 298 106.000002 233.529 106.000002 154C 106.000002 74.471 80.754802 10 65.766602 10C 80.775202 10.0075 92.941702 74.6668 92.941702 154C 92.941702 233.3332 80.775202 297.9925 65.766602 298ZM 65.765897 298C 80.774597 297.9925 92.941097 233.3332 92.941097 154C 92.941097 74.6668 80.774597 10.0075 65.765897 10L 51.957397 10C 66.060697 15.1659 77.199297 77.8539 77.199297 154C 77.199297 230.1462 65.382597 292.8341 51.279297 298L 65.765897 298ZM 77.2 154C 77.2 230.1462 65.3833 292.8341 51.28 298L 50.0615 298C 35.0734 298 10 233.529 10 154C 10 74.471 35.0734 10 50.0615 10C 50.6991 10 51.9581 10 51.9581 10C 66.0614 15.1659 77.2 77.8539 77.2 154Z"></path></g></g></g><g id="g-root-0.cr-medium_cr_hwj5zn14a4du1-stroke" data-item-order="-110582" transform="translate(459, 219)"><g id="0.cr-medium_cr_hwj5zn14a4du1-stroke" fill="none" stroke-linecap="round" stroke-linejoin="round" stroke-miterlimit="4" stroke="#484848" stroke-width="2"><g><path d="M 10 46C 10 65.882251 26.117749 82 46 82C 65.882251 82 82 65.882251 82 46C 82 26.117749 65.882251 10 46 10C 26.117749 10 10 26.117749 10 46"></path></g></g></g><g id="g-root-3.line_sy_dgpnv714a4ema-stroke" data-item-order="-110575" transform="translate(207.10940551757812, 279)"><g id="3.line_sy_dgpnv714a4ema-stroke" fill="none" stroke-linecap="round" stroke-linejoin="round" stroke-miterlimit="4" stroke="#484848" stroke-width="2"><g><path d="M 254.080594 10.86L 129.890594 70L 10.000594 70"></path><path d="M 251.490594 19.3L 254.490594 10.6L 245.890594 7.6" stroke-dasharray="none"></path></g></g></g><g id="g-root-3.cr-small_cr_4lp4pf14a4c97-stroke" data-item-order="-110574" transform="translate(147, 309)"><g id="3.cr-small_cr_4lp4pf14a4c97-stroke" fill="none" stroke-linecap="round" stroke-linejoin="round" stroke-miterlimit="4" stroke="#484848" stroke-width="2"><g><path d="M 10 40C 10.000002 56.568544 23.431459 70.000002 40.000002 70.000002C 56.568544 70.000002 70.000002 56.568544 70.000002 40.000002C 70.000002 23.431459 56.568544 10.000002 40.000002 10.000002C 23.431459 10.000002 10.000002 23.431459 10.000002 40.000002"></path></g></g></g><g id="g-root-2.line_sy_5vmkz14a4d1g-stroke" data-item-order="-110567" transform="translate(207, 255)"><g id="2.line_sy_5vmkz14a4d1g-stroke" fill="none" stroke-linecap="round" stroke-linejoin="round" stroke-miterlimit="4" stroke="#484848" stroke-width="2"><g><path d="M 248 10L 130 10L 10 10"></path><path d="M 242 16.5L 248.5 10L 242 3.5" stroke-dasharray="none"></path></g></g></g><g id="g-root-2.cr-small_cr_1qbcob714a4dn1-stroke" data-item-order="-110566" transform="translate(147, 225)"><g id="2.cr-small_cr_1qbcob714a4dn1-stroke" fill="none" stroke-linecap="round" stroke-linejoin="round" stroke-miterlimit="4" stroke="#484848" stroke-width="2"><g><path d="M 10 40C 10.000002 56.568544 23.431459 70.000002 40.000002 70.000002C 56.568544 70.000002 70.000002 56.568544 70.000002 40.000002C 70.000002 23.431459 56.568544 10.000002 40.000002 10.000002C 23.431459 10.000002 10.000002 23.431459 10.000002 40.000002"></path></g></g></g><g id="g-root-1.line_sy_1lvj66r14a4efa-stroke" data-item-order="-110559" transform="translate(207, 171)"><g id="1.line_sy_1lvj66r14a4efa-stroke" fill="none" stroke-linecap="round" stroke-linejoin="round" stroke-miterlimit="4" stroke="#484848" stroke-width="2"><g><path d="M 254.19 69.14L 130 10L 10 10"></path><path d="M 246 72.4L 254.6 69.4L 251.6 60.7" stroke-dasharray="none"></path></g></g></g><g id="g-root-1.cr-small_cr_1d0in0z14a4c27-stroke" data-item-order="-110558" transform="translate(147, 141)"><g id="1.cr-small_cr_1d0in0z14a4c27-stroke" fill="none" stroke-linecap="round" stroke-linejoin="round" stroke-miterlimit="4" stroke="#484848" stroke-width="2"><g><path d="M 10 40C 10.000002 56.568544 23.431459 70.000002 40.000002 70.000002C 56.568544 70.000002 70.000002 56.568544 70.000002 40.000002C 70.000002 23.431459 56.568544 10.000002 40.000002 10.000002C 23.431459 10.000002 10.000002 23.431459 10.000002 40.000002"></path></g></g></g><g id="g-root-tx_thepower_mdlpg3149yr5w-stroke" data-item-order="0" transform="translate(213, 39)"></g><g id="g-root-tx_improved_zofqqb149ysqr-stroke" data-item-order="0" transform="translate(39, 147)"></g><g id="g-root-hand_598nn149yrdb-stroke" data-item-order="0" transform="translate(159, 153)"><g id="hand_598nn149yrdb-stroke" fill="none" stroke-linecap="round" stroke-linejoin="round" stroke-miterlimit="4" stroke="#484848" stroke-width="2"><g><path d="M 23.083 15.731501C 23.082287 18.483212 25.312788 20.714291 28.064501 20.714291C 30.816212 20.714291 33.046715 18.483212 33.046001 15.731501C 33.046715 12.979789 30.816212 10.748709 28.064501 10.748709C 25.312788 10.748709 23.082287 12.979789 23.083 15.731501M 35.814999 28.379501C 34.64209 25.157221 31.579113 23.012558 28.150002 23.012558C 24.720888 23.012558 21.657909 25.157221 20.485001 28.379501M 15.3535 45.25L 12.2665 41.390499C 11.285567 40.168289 10.750641 38.64817 10.75 37.081001L 10.75 29.1535C 10.75 27.883522 11.779521 26.854 13.0495 26.854L 13.0495 26.854C 14.319136 26.854828 15.348172 27.883863 15.349 29.1535L 15.349 34.900002M 22.252001 45.0415L 22.252001 40.449997C 22.251772 39.086838 21.847778 37.754292 21.091 36.620499L 19.3405 33.995499C 19.038086 33.492523 18.543037 33.135193 17.970417 33.006557C 17.397799 32.877922 16.797482 32.989193 16.309 33.314499L 16.309 33.314499C 15.408283 33.914551 15.095686 35.091618 15.58 36.059498L 17.653 39.509499M 40.6465 45.25L 43.733501 41.390499C 44.714432 40.168289 45.249359 38.64817 45.25 37.081001L 45.25 29.1535C 45.25 27.883522 44.220478 26.854 42.9505 26.854L 42.9505 26.854C 41.680862 26.854828 40.651825 27.883863 40.651001 29.1535L 40.651001 34.900002M 33.748001 45.0415L 33.748001 40.449997C 33.748226 39.086838 34.152218 37.754292 34.908997 36.620499L 36.6595 33.995499C 36.961914 33.492523 37.456966 33.135193 38.029587 33.006557C 38.602203 32.877922 39.202518 32.989193 39.691002 33.314499L 39.691002 33.314499C 40.591717 33.914551 40.904312 35.091618 40.419998 36.059498L 38.347 39.509499M 24.566502 12.1855C 26.2675 15.3355 30.039999 15.731501 33.046001 15.731501"></path></g></g></g><g id="g-root-tx_higherco_1czw93n149yr5u-stroke" data-item-order="0" transform="translate(15, 231)"></g><g id="g-root-rewa_9036b149ukgc-stroke" data-item-order="0" transform="translate(159, 237)"><g id="rewa_9036b149ukgc-stroke" fill="none" stroke-linecap="round" stroke-linejoin="round" stroke-miterlimit="4" stroke="#484848" stroke-width="2"><g><path d="M 36.618999 26.480501C 38.328293 30.564304 37.071632 35.287132 33.558811 37.981422C 30.045986 40.675713 25.158844 40.665112 21.657747 37.955597C 18.156649 35.246086 16.9205 30.517849 18.647501 26.441502M 34.519001 37.144001L 42.625 45.25M 35.393501 22.337502C 35.236279 23.018345 34.629761 23.500448 33.931 23.5L 21.319 23.5C 20.620237 23.500448 20.013721 23.018345 19.856501 22.337502L 17.875 13.75L 23.125 18.25L 27.625 13.75L 32.125 18.25L 37.375 13.75ZM 16.375 12.25C 16.375 13.078427 17.046574 13.75 17.875 13.75C 18.703426 13.75 19.375 13.078427 19.375 12.25C 19.375 11.421573 18.703426 10.75 17.875 10.75C 17.046574 10.75 16.375 11.421573 16.375 12.25ZM 26.125 12.25C 26.125 13.078427 26.796572 13.75 27.625 13.75C 28.453428 13.75 29.125 13.078427 29.125 12.25C 29.125 11.421573 28.453428 10.75 27.625 10.75C 26.796572 10.75 26.125 11.421573 26.125 12.25ZM 35.875 12.25C 35.875 13.078427 36.546574 13.75 37.375 13.75C 38.203426 13.75 38.875 13.078427 38.875 12.25C 38.875 11.421573 38.203426 10.75 37.375 10.75C 36.546574 10.75 35.875 11.421573 35.875 12.25ZM 14.125 39.25L 14.125 45.25M 17.125 42.25L 11.125 42.25M 42.625 17.5L 42.625 22M 44.875 19.75L 40.375 19.75"></path></g></g></g><g id="g-root-grap_18n74er149m496-stroke" data-item-order="0" transform="translate(471, 231)"><g id="grap_18n74er149m496-stroke" fill="none" stroke-linecap="round" stroke-linejoin="round" stroke-miterlimit="4" stroke="#484848" stroke-width="2"><g><path d="M 20 34L 20 40M 24 57L 25 47L 29 47L 29 39C 29 34.029438 24.970562 30 20 30C 15.029438 30 11 34.029438 11 39L 11 47L 15 47L 16 57M 14.860001 18C 16.740438 19.91843 19.31366 20.999617 22 21C 23.37554 21.004684 24.737255 20.725533 26 20.18M 14.04 21C 14.039658 24.313951 16.717094 27.000622 20.02 27.000622C 23.322905 27.000622 26.000341 24.313951 26 21C 26.000341 17.686049 23.322905 14.999378 20.02 14.999378C 16.717094 14.999378 14.039658 17.686049 14.04 21M 26 11L 55 11C 56.104568 11 57 11.895431 57 13L 57 33C 57 34.104568 56.104568 35 55 35L 34 35M 39 35L 39 47M 35 47L 43 47M 32 25L 38 19L 41 22L 48 15M 43 15L 48 15L 48 20M 45 27L 49 27M 45 31L 51 31"></path></g></g></g><g id="g-root-tx_business_1uqjsib149yryg-stroke" data-item-order="0" transform="translate(543, 231)"></g><g id="g-root-tx_competit_1hfpr83149yqdl-stroke" data-item-order="0" transform="translate(15, 315)"></g><g id="g-root-1_1umsxzn149t3wv-stroke" data-item-order="0" transform="translate(159, 321)"><g id="1_1umsxzn149t3wv-stroke" fill="none" stroke-linecap="round" stroke-linejoin="round" stroke-miterlimit="4" stroke="#484848" stroke-width="2"><g><path d="M 28 15.25L 28 43M 11.5 34L 16.75 22.8025L 22 34M 16.75 39.25C 18.152805 39.284939 19.508562 38.743042 20.500803 37.750805C 21.493046 36.75856 22.034941 35.402805 22 34L 11.5 34C 11.465059 35.402805 12.006954 36.75856 12.999196 37.750805C 13.991438 38.743042 15.347193 39.284939 16.75 39.25ZM 44.5 25L 39.25 13.6195L 34 25M 39.25 30.25C 37.847191 30.284941 36.491436 29.743046 35.499195 28.750805C 34.506954 27.75856 33.965057 26.402805 34 25L 44.5 25C 44.534939 26.402805 43.993042 27.75856 43.000805 28.750805C 42.00856 29.743046 40.652805 30.284941 39.25 30.25ZM 30.241001 17.342501L 40.75 13M 13.669001 24.047501L 30.241001 17.342501M 21.25 43L 34.75 43"></path></g></g></g></g></g></svg>