<?xml version="1.0" encoding="utf-8" standalone="yes"?>
<!DOCTYPE svg PUBLIC "-//W3C//DTD SVG 1.1//EN" "http://www.w3.org/Graphics/SVG/1.1/DTD/svg11.dtd">
<svg width="590" height="566" viewBox="0 0 590 566" style="fill:none;stroke:none;fill-rule:evenodd;clip-rule:evenodd;stroke-linecap:round;stroke-linejoin:round;stroke-miterlimit:1.5;" version="1.1" xmlns="http://www.w3.org/2000/svg" xmlns:xlink="http://www.w3.org/1999/xlink"><style id="fontImports">@import url("https://fonts.googleapis.com/css2?family=Roboto:wght@400;700&amp;display=block");</style><g id="items" style="isolation: isolate"><g id="blend" style="mix-blend-mode:normal"><g id="g-root-3.line_sy_1hjg96a16hu29u-fill" data-item-order="-92654" transform="translate(327, 406.3828125)"></g><g id="g-root-3.line_1_sy_1hjg96a16hu29v-fill" data-item-order="-92650" transform="translate(351, 411.921875)"></g><g id="g-root-3.line_2_sy_18nt8xe16hu32k-fill" data-item-order="-92646" transform="translate(375, 417.4609375)"></g><g id="g-root-3.line_3_sy_147zqsy16hu3ut-fill" data-item-order="-92642" transform="translate(471, 406.392578125)"></g><g id="g-root-3.line_4_sy_vccqk216hu4ni-fill" data-item-order="-92638" transform="translate(447, 411.927734375)"></g><g id="g-root-3.line_5_sy_qn644y16hvguf-fill" data-item-order="-92634" transform="translate(423, 417.462890625)"></g><g id="g-root-3.line_6_sy_qn644y16hvgug-fill" data-item-order="-92630" transform="translate(399, 422.998046875)"></g><g id="g-root-3.cu_sy_m7cm0i16hvhmp-fill" data-item-order="-92629" transform="translate(243, 345)"><g id="3.cu_sy_m7cm0i16hvhmp-fill" stroke="none" fill="#f5fbe9"><g><path d="M 10 52L 10 40L 140 10L 166 16L 192 10L 322 40L 322 52L 166 88L 10 52Z"></path></g></g></g><g id="g-root-2.line_sy_dbplrm16hvife-fill" data-item-order="-92622" transform="translate(303, 328.84375)"></g><g id="g-root-2.line_1_sy_8vw3n616hvj7n-fill" data-item-order="-92618" transform="translate(327, 334.3828125)"></g><g id="g-root-2.line_2_sy_vkhe16hvguk-fill" data-item-order="-92614" transform="translate(351, 339.921875)"></g><g id="g-root-2.line_3_sy_1um64c216hvhfp-fill" data-item-order="-92610" transform="translate(375, 345.4609375)"></g><g id="g-root-2.line_4_sy_1um64c216hvhfq-fill" data-item-order="-92606" transform="translate(495, 328.857421875)"></g><g id="g-root-2.line_5_sy_1lqj43616hvi8f-fill" data-item-order="-92602" transform="translate(471, 334.392578125)"></g><g id="g-root-2.line_6_sy_1haplyq16hvj0o-fill" data-item-order="-92598" transform="translate(447, 339.927734375)"></g><g id="g-root-2.line_7_sy_1haplyq16hvj0p-fill" data-item-order="-92594" transform="translate(423, 345.462890625)"></g><g id="g-root-2.line_8_sy_1cuw3ua16hvjsy-fill" data-item-order="-92590" transform="translate(399, 350.998046875)"></g><g id="g-root-2.cu_sy_13zvkoi16hvhfv-fill" data-item-order="-92589" transform="translate(243, 273)"><g id="2.cu_sy_13zvkoi16hvhfv-fill" stroke="none" fill="#e9fbf3"><g><path d="M 10 52L 10 40L 140 10L 166 16L 192 10L 322 40L 322 52L 166 88L 10 52Z"></path></g></g></g><g id="g-root-1.line_sy_zk22k216hvi84-fill" data-item-order="-92582" transform="translate(279, 251.3046875)"></g><g id="g-root-1.line_1_sy_qof2b616hvj0t-fill" data-item-order="-92578" transform="translate(303, 256.84375)"></g><g id="g-root-1.line_2_sy_qof2b616hvj0u-fill" data-item-order="-92574" transform="translate(327, 262.3828125)"></g><g id="g-root-1.line_3_sy_m8lk6q16hvjt3-fill" data-item-order="-92570" transform="translate(351, 267.921875)"></g><g id="g-root-1.line_4_sy_htej5e16hvhfk-fill" data-item-order="-92566" transform="translate(375, 273.4609375)"></g><g id="g-root-1.line_5_sy_htej5e16hvhfl-fill" data-item-order="-92562" transform="translate(519, 251.322265625)"></g><g id="g-root-1.line_6_sy_8xriwi16hvi8a-fill" data-item-order="-92558" transform="translate(495, 256.857421875)"></g><g id="g-root-1.line_7_sy_4hy0s216hvj0j-fill" data-item-order="-92554" transform="translate(471, 262.392578125)"></g><g id="g-root-1.line_8_sy_1unf2ia16hvjm4-fill" data-item-order="-92550" transform="translate(447, 267.927734375)"></g><g id="g-root-1.line_9_sy_1q881gy16hvh8l-fill" data-item-order="-92546" transform="translate(423, 273.462890625)"></g><g id="g-root-1.line_10_sy_1q881gy16hvh8m-fill" data-item-order="-92542" transform="translate(399, 278.998046875)"></g><g id="g-root-1.cu_sy_1hcl18216hvi1b-fill" data-item-order="-92541" transform="translate(243, 195)"><g id="1.cu_sy_1hcl18216hvi1b-fill" stroke="none" fill="#e6f9ff"><g><path d="M 10 58L 10 46L 166 10L 322 46L 322 58L 166 94L 10 58Z"></path></g></g></g><g id="g-root-0.line_sy_1cwrj3m16hvitk-fill" data-item-order="-92534" transform="translate(255, 171.0001220703125)"></g><g id="g-root-0.line_1_sy_18gy0z616hvjlt-fill" data-item-order="-92530" transform="translate(471, 183)"></g><g id="g-root-0.line_2_sy_zlxhte16hvh8q-fill" data-item-order="-92526" transform="translate(423, 183)"></g><g id="g-root-0.line_3_sy_v63zoy16hvi0z-fill" data-item-order="-92522" transform="translate(327, 183)"></g><g id="g-root-0.line_4_sy_v63zoy16hvi10-fill" data-item-order="-92518" transform="translate(447, 171)"></g><g id="g-root-0.line_5_sy_magzg216hvitp-fill" data-item-order="-92514" transform="translate(279, 183)"></g><g id="g-root-0.line_6_sy_hunhbm16hvjly-fill" data-item-order="-92510" transform="translate(543, 171)"></g><g id="g-root-0.line_7_sy_hunhbm16hvjlz-fill" data-item-order="-92506" transform="translate(495, 171)"></g><g id="g-root-0.line_8_sy_dfggaa16hvh8g-fill" data-item-order="-92502" transform="translate(303, 171)"></g><g id="g-root-0.line_9_sy_4jtg1e16hvi15-fill" data-item-order="-92498" transform="translate(375, 183)"></g><g id="g-root-0.line_10_sy_3zxwy16hvite-fill" data-item-order="-92494" transform="translate(351, 171)"></g><g id="g-root-0.line_11_sy_3zxwy16hvitf-fill" data-item-order="-92490" transform="translate(519, 183)"></g><g id="g-root-0.line_12_sy_1q9gzn616hvjf0-fill" data-item-order="-92486" transform="translate(399, 171)"></g><g id="g-root-tx_storytel_5vd6a16hvhtu-fill" data-item-order="0" transform="translate(111, 39)"><g id="tx_storytel_5vd6a16hvhtu-fill" stroke="none" fill="#484848"><g><text style="font: bold 20px Roboto, sans-serif; white-space: pre;" font-weight="bold" font-size="20px" font-family="Roboto, sans-serif"><tspan x="16.69" y="34" dominant-baseline="ideographic">Storytelling to Conversion Funnel</tspan></text></g></g></g><g id="g-root-tx_userenga_hwiwky16hvimg-fill" data-item-order="0" transform="translate(315, 135)"><g id="tx_userenga_hwiwky16hvimg-fill" stroke="none" fill="#484848"><g><text style="font: 20px Roboto, sans-serif; white-space: pre;" font-size="20px" font-family="Roboto, sans-serif"><tspan x="15.2" y="34" dominant-baseline="ideographic">User Engagement</tspan></text></g></g></g><g id="g-root-tx_narrativ_mccepe16hvhu7-fill" data-item-order="0" transform="translate(51, 225)"><g id="tx_narrativ_mccepe16hvhu7-fill" stroke="none" fill="#484848"><g><text style="font: 20px Roboto, sans-serif; white-space: pre;" font-size="20px" font-family="Roboto, sans-serif"><tspan x="19.14" y="34" dominant-baseline="ideographic">Narrative Journey</tspan></text></g></g></g><g id="g-root-tx_emotiona_zn6fzm16hvjf2-fill" data-item-order="0" transform="translate(15, 297)"><g id="tx_emotiona_zn6fzm16hvjf2-fill" stroke="none" fill="#484848"><g><text style="font: 20px Roboto, sans-serif; white-space: pre;" font-size="20px" font-family="Roboto, sans-serif"><tspan x="15.8" y="34" dominant-baseline="ideographic">Emotional Connection</tspan></text></g></g></g><g id="g-root-tx_desireda_18itg8i16hvimd-fill" data-item-order="0" transform="translate(75, 369)"><g id="tx_desireda_18itg8i16hvimd-fill" stroke="none" fill="#484848"><g><text style="font: 20px Roboto, sans-serif; white-space: pre;" font-size="20px" font-family="Roboto, sans-serif"><tspan x="22.36" y="34" dominant-baseline="ideographic">Desired Action</tspan></text></g></g></g><g id="g-root-tx_conversi_dgpegi16hvjep-fill" data-item-order="0" transform="translate(303, 483)"><g id="tx_conversi_dgpegi16hvjep-fill" stroke="none" fill="#484848"><g><text style="font: 20px Roboto, sans-serif; white-space: pre;" font-size="20px" font-family="Roboto, sans-serif"><tspan x="12.88" y="34" dominant-baseline="ideographic">Conversion Achieved</tspan></text></g></g></g><g id="g-root-3.line_sy_1hjg96a16hu29u-stroke" data-item-order="-92654" transform="translate(327, 406.3828125)"><g id="3.line_sy_1hjg96a16hu29u-stroke" fill="none" stroke-linecap="round" stroke-linejoin="round" stroke-miterlimit="4" stroke="#484848" stroke-width="2"><g><path d="M 10 9.997187L 10 52.997187"></path><path d="M 3.5 47.017187L 10 53.517187L 16.5 47.017187" stroke-dasharray="none"></path></g></g></g><g id="g-root-3.line_1_sy_1hjg96a16hu29v-stroke" data-item-order="-92650" transform="translate(351, 411.921875)"><g id="3.line_1_sy_1hjg96a16hu29v-stroke" fill="none" stroke-linecap="round" stroke-linejoin="round" stroke-miterlimit="4" stroke="#484848" stroke-width="2"><g><path d="M 10 9.998125L 10 52.998125"></path><path d="M 3.5 46.978125L 10 53.478125L 16.5 46.978125" stroke-dasharray="none"></path></g></g></g><g id="g-root-3.line_2_sy_18nt8xe16hu32k-stroke" data-item-order="-92646" transform="translate(375, 417.4609375)"><g id="3.line_2_sy_18nt8xe16hu32k-stroke" fill="none" stroke-linecap="round" stroke-linejoin="round" stroke-miterlimit="4" stroke="#484848" stroke-width="2"><g><path d="M 10 9.999062L 10 52.999062"></path><path d="M 3.5 47.039063L 10 53.539063L 16.5 47.039063" stroke-dasharray="none"></path></g></g></g><g id="g-root-3.line_3_sy_147zqsy16hu3ut-stroke" data-item-order="-92642" transform="translate(471, 406.392578125)"><g id="3.line_3_sy_147zqsy16hu3ut-stroke" fill="none" stroke-linecap="round" stroke-linejoin="round" stroke-miterlimit="4" stroke="#484848" stroke-width="2"><g><path d="M 10 9.997422L 10 52.997422"></path><path d="M 3.5 47.007422L 10 53.507422L 16.5 47.007422" stroke-dasharray="none"></path></g></g></g><g id="g-root-3.line_4_sy_vccqk216hu4ni-stroke" data-item-order="-92638" transform="translate(447, 411.927734375)"><g id="3.line_4_sy_vccqk216hu4ni-stroke" fill="none" stroke-linecap="round" stroke-linejoin="round" stroke-miterlimit="4" stroke="#484848" stroke-width="2"><g><path d="M 10 10.002266L 10 53.002266"></path><path d="M 3.5 46.972266L 10 53.472266L 16.5 46.972266" stroke-dasharray="none"></path></g></g></g><g id="g-root-3.line_5_sy_qn644y16hvguf-stroke" data-item-order="-92634" transform="translate(423, 417.462890625)"><g id="3.line_5_sy_qn644y16hvguf-stroke" fill="none" stroke-linecap="round" stroke-linejoin="round" stroke-miterlimit="4" stroke="#484848" stroke-width="2"><g><path d="M 10 9.997109L 10 52.997109"></path><path d="M 3.5 47.037109L 10 53.537109L 16.5 47.037109" stroke-dasharray="none"></path></g></g></g><g id="g-root-3.line_6_sy_qn644y16hvgug-stroke" data-item-order="-92630" transform="translate(399, 422.998046875)"><g id="3.line_6_sy_qn644y16hvgug-stroke" fill="none" stroke-linecap="round" stroke-linejoin="round" stroke-miterlimit="4" stroke="#484848" stroke-width="2"><g><path d="M 10 10.001953L 10 53.001953"></path><path d="M 3.5 47.001953L 10 53.501953L 16.5 47.001953" stroke-dasharray="none"></path></g></g></g><g id="g-root-3.cu_sy_m7cm0i16hvhmp-stroke" data-item-order="-92629" transform="translate(243, 345)"><g id="3.cu_sy_m7cm0i16hvhmp-stroke" fill="none" stroke-linecap="round" stroke-linejoin="round" stroke-miterlimit="4" stroke="#93c131" stroke-width="2"><g><path d="M 10 40L 10 52L 166 88L 322 52L 322 40M 10 40L 165.9714 76L 322 40M 10 40L 140 10L 166 16L 192 10L 322 40"></path></g></g></g><g id="g-root-2.line_sy_dbplrm16hvife-stroke" data-item-order="-92622" transform="translate(303, 328.84375)"><g id="2.line_sy_dbplrm16hvife-stroke" fill="none" stroke-linecap="round" stroke-linejoin="round" stroke-miterlimit="4" stroke="#484848" stroke-width="2"><g><path d="M 10 9.99625L 10 52.99625"></path><path d="M 3.5 46.95625L 10 53.45625L 16.5 46.95625" stroke-dasharray="none"></path></g></g></g><g id="g-root-2.line_1_sy_8vw3n616hvj7n-stroke" data-item-order="-92618" transform="translate(327, 334.3828125)"><g id="2.line_1_sy_8vw3n616hvj7n-stroke" fill="none" stroke-linecap="round" stroke-linejoin="round" stroke-miterlimit="4" stroke="#484848" stroke-width="2"><g><path d="M 10 9.997187L 10 52.997187"></path><path d="M 3.5 47.017187L 10 53.517187L 16.5 47.017187" stroke-dasharray="none"></path></g></g></g><g id="g-root-2.line_2_sy_vkhe16hvguk-stroke" data-item-order="-92614" transform="translate(351, 339.921875)"><g id="2.line_2_sy_vkhe16hvguk-stroke" fill="none" stroke-linecap="round" stroke-linejoin="round" stroke-miterlimit="4" stroke="#484848" stroke-width="2"><g><path d="M 10 9.998125L 10 52.998125"></path><path d="M 3.5 46.978125L 10 53.478125L 16.5 46.978125" stroke-dasharray="none"></path></g></g></g><g id="g-root-2.line_3_sy_1um64c216hvhfp-stroke" data-item-order="-92610" transform="translate(375, 345.4609375)"><g id="2.line_3_sy_1um64c216hvhfp-stroke" fill="none" stroke-linecap="round" stroke-linejoin="round" stroke-miterlimit="4" stroke="#484848" stroke-width="2"><g><path d="M 10 9.999062L 10 52.999062"></path><path d="M 3.5 47.039063L 10 53.539063L 16.5 47.039063" stroke-dasharray="none"></path></g></g></g><g id="g-root-2.line_4_sy_1um64c216hvhfq-stroke" data-item-order="-92606" transform="translate(495, 328.857421875)"><g id="2.line_4_sy_1um64c216hvhfq-stroke" fill="none" stroke-linecap="round" stroke-linejoin="round" stroke-miterlimit="4" stroke="#484848" stroke-width="2"><g><path d="M 10 10.002578L 10 53.002578"></path><path d="M 3.5 47.042578L 10 53.542578L 16.5 47.042578" stroke-dasharray="none"></path></g></g></g><g id="g-root-2.line_5_sy_1lqj43616hvi8f-stroke" data-item-order="-92602" transform="translate(471, 334.392578125)"><g id="2.line_5_sy_1lqj43616hvi8f-stroke" fill="none" stroke-linecap="round" stroke-linejoin="round" stroke-miterlimit="4" stroke="#484848" stroke-width="2"><g><path d="M 10 9.997422L 10 52.997422"></path><path d="M 3.5 47.007422L 10 53.507422L 16.5 47.007422" stroke-dasharray="none"></path></g></g></g><g id="g-root-2.line_6_sy_1haplyq16hvj0o-stroke" data-item-order="-92598" transform="translate(447, 339.927734375)"><g id="2.line_6_sy_1haplyq16hvj0o-stroke" fill="none" stroke-linecap="round" stroke-linejoin="round" stroke-miterlimit="4" stroke="#484848" stroke-width="2"><g><path d="M 10 10.002266L 10 53.002266"></path><path d="M 3.5 46.972266L 10 53.472266L 16.5 46.972266" stroke-dasharray="none"></path></g></g></g><g id="g-root-2.line_7_sy_1haplyq16hvj0p-stroke" data-item-order="-92594" transform="translate(423, 345.462890625)"><g id="2.line_7_sy_1haplyq16hvj0p-stroke" fill="none" stroke-linecap="round" stroke-linejoin="round" stroke-miterlimit="4" stroke="#484848" stroke-width="2"><g><path d="M 10 9.997109L 10 52.997109"></path><path d="M 3.5 47.037109L 10 53.537109L 16.5 47.037109" stroke-dasharray="none"></path></g></g></g><g id="g-root-2.line_8_sy_1cuw3ua16hvjsy-stroke" data-item-order="-92590" transform="translate(399, 350.998046875)"><g id="2.line_8_sy_1cuw3ua16hvjsy-stroke" fill="none" stroke-linecap="round" stroke-linejoin="round" stroke-miterlimit="4" stroke="#484848" stroke-width="2"><g><path d="M 10 10.001953L 10 53.001953"></path><path d="M 3.5 47.001953L 10 53.501953L 16.5 47.001953" stroke-dasharray="none"></path></g></g></g><g id="g-root-2.cu_sy_13zvkoi16hvhfv-stroke" data-item-order="-92589" transform="translate(243, 273)"><g id="2.cu_sy_13zvkoi16hvhfv-stroke" fill="none" stroke-linecap="round" stroke-linejoin="round" stroke-miterlimit="4" stroke="#3bc482" stroke-width="2"><g><path d="M 10 40L 10 52L 166 88L 322 52L 322 40M 10 40L 165.9714 76L 322 40M 10 40L 140 10L 166 16L 192 10L 322 40"></path></g></g></g><g id="g-root-1.line_sy_zk22k216hvi84-stroke" data-item-order="-92582" transform="translate(279, 251.3046875)"><g id="1.line_sy_zk22k216hvi84-stroke" fill="none" stroke-linecap="round" stroke-linejoin="round" stroke-miterlimit="4" stroke="#484848" stroke-width="2"><g><path d="M 10 9.995313L 10 52.995313"></path><path d="M 3.5 46.995313L 10 53.495313L 16.5 46.995313" stroke-dasharray="none"></path></g></g></g><g id="g-root-1.line_1_sy_qof2b616hvj0t-stroke" data-item-order="-92578" transform="translate(303, 256.84375)"><g id="1.line_1_sy_qof2b616hvj0t-stroke" fill="none" stroke-linecap="round" stroke-linejoin="round" stroke-miterlimit="4" stroke="#484848" stroke-width="2"><g><path d="M 10 9.99625L 10 52.99625"></path><path d="M 3.5 46.95625L 10 53.45625L 16.5 46.95625" stroke-dasharray="none"></path></g></g></g><g id="g-root-1.line_2_sy_qof2b616hvj0u-stroke" data-item-order="-92574" transform="translate(327, 262.3828125)"><g id="1.line_2_sy_qof2b616hvj0u-stroke" fill="none" stroke-linecap="round" stroke-linejoin="round" stroke-miterlimit="4" stroke="#484848" stroke-width="2"><g><path d="M 10 9.997187L 10 52.997187"></path><path d="M 3.5 47.017187L 10 53.517187L 16.5 47.017187" stroke-dasharray="none"></path></g></g></g><g id="g-root-1.line_3_sy_m8lk6q16hvjt3-stroke" data-item-order="-92570" transform="translate(351, 267.921875)"><g id="1.line_3_sy_m8lk6q16hvjt3-stroke" fill="none" stroke-linecap="round" stroke-linejoin="round" stroke-miterlimit="4" stroke="#484848" stroke-width="2"><g><path d="M 10 9.998125L 10 52.998125"></path><path d="M 3.5 46.978125L 10 53.478125L 16.5 46.978125" stroke-dasharray="none"></path></g></g></g><g id="g-root-1.line_4_sy_htej5e16hvhfk-stroke" data-item-order="-92566" transform="translate(375, 273.4609375)"><g id="1.line_4_sy_htej5e16hvhfk-stroke" fill="none" stroke-linecap="round" stroke-linejoin="round" stroke-miterlimit="4" stroke="#484848" stroke-width="2"><g><path d="M 10 9.999062L 10 52.999062"></path><path d="M 3.5 47.039063L 10 53.539063L 16.5 47.039063" stroke-dasharray="none"></path></g></g></g><g id="g-root-1.line_5_sy_htej5e16hvhfl-stroke" data-item-order="-92562" transform="translate(519, 251.322265625)"><g id="1.line_5_sy_htej5e16hvhfl-stroke" fill="none" stroke-linecap="round" stroke-linejoin="round" stroke-miterlimit="4" stroke="#484848" stroke-width="2"><g><path d="M 10 9.997734L 10 52.997734"></path><path d="M 3.5 46.977734L 10 53.477734L 16.5 46.977734" stroke-dasharray="none"></path></g></g></g><g id="g-root-1.line_6_sy_8xriwi16hvi8a-stroke" data-item-order="-92558" transform="translate(495, 256.857421875)"><g id="1.line_6_sy_8xriwi16hvi8a-stroke" fill="none" stroke-linecap="round" stroke-linejoin="round" stroke-miterlimit="4" stroke="#484848" stroke-width="2"><g><path d="M 10 10.002578L 10 53.002578"></path><path d="M 3.5 47.042578L 10 53.542578L 16.5 47.042578" stroke-dasharray="none"></path></g></g></g><g id="g-root-1.line_7_sy_4hy0s216hvj0j-stroke" data-item-order="-92554" transform="translate(471, 262.392578125)"><g id="1.line_7_sy_4hy0s216hvj0j-stroke" fill="none" stroke-linecap="round" stroke-linejoin="round" stroke-miterlimit="4" stroke="#484848" stroke-width="2"><g><path d="M 10 9.997422L 10 52.997422"></path><path d="M 3.5 47.007422L 10 53.507422L 16.5 47.007422" stroke-dasharray="none"></path></g></g></g><g id="g-root-1.line_8_sy_1unf2ia16hvjm4-stroke" data-item-order="-92550" transform="translate(447, 267.927734375)"><g id="1.line_8_sy_1unf2ia16hvjm4-stroke" fill="none" stroke-linecap="round" stroke-linejoin="round" stroke-miterlimit="4" stroke="#484848" stroke-width="2"><g><path d="M 10 10.002266L 10 53.002266"></path><path d="M 3.5 46.972266L 10 53.472266L 16.5 46.972266" stroke-dasharray="none"></path></g></g></g><g id="g-root-1.line_9_sy_1q881gy16hvh8l-stroke" data-item-order="-92546" transform="translate(423, 273.462890625)"><g id="1.line_9_sy_1q881gy16hvh8l-stroke" fill="none" stroke-linecap="round" stroke-linejoin="round" stroke-miterlimit="4" stroke="#484848" stroke-width="2"><g><path d="M 10 9.997109L 10 52.997109"></path><path d="M 3.5 47.037109L 10 53.537109L 16.5 47.037109" stroke-dasharray="none"></path></g></g></g><g id="g-root-1.line_10_sy_1q881gy16hvh8m-stroke" data-item-order="-92542" transform="translate(399, 278.998046875)"><g id="1.line_10_sy_1q881gy16hvh8m-stroke" fill="none" stroke-linecap="round" stroke-linejoin="round" stroke-miterlimit="4" stroke="#484848" stroke-width="2"><g><path d="M 10 10.001953L 10 53.001953"></path><path d="M 3.5 47.001953L 10 53.501953L 16.5 47.001953" stroke-dasharray="none"></path></g></g></g><g id="g-root-1.cu_sy_1hcl18216hvi1b-stroke" data-item-order="-92541" transform="translate(243, 195)"><g id="1.cu_sy_1hcl18216hvi1b-stroke" fill="none" stroke-linecap="round" stroke-linejoin="round" stroke-miterlimit="4" stroke="#17b0e3" stroke-width="2"><g><path d="M 10 46L 10 58L 166 94L 322 58L 322 46M 10 46L 166 10L 322 46M 10 46L 166 82L 322 46"></path></g></g></g><g id="g-root-0.line_sy_1cwrj3m16hvitk-stroke" data-item-order="-92534" transform="translate(255, 171.0001220703125)"><g id="0.line_sy_1cwrj3m16hvitk-stroke" fill="none" stroke-linecap="round" stroke-linejoin="round" stroke-miterlimit="4" stroke="#484848" stroke-width="2"><g><path d="M 10 9.999878L 10 55.769878"></path><path d="M 3.5 49.799878L 10 56.299878L 16.5 49.799878" stroke-dasharray="none"></path></g></g></g><g id="g-root-0.line_1_sy_18gy0z616hvjlt-stroke" data-item-order="-92530" transform="translate(471, 183)"><g id="0.line_1_sy_18gy0z616hvjlt-stroke" fill="none" stroke-linecap="round" stroke-linejoin="round" stroke-miterlimit="4" stroke="#484848" stroke-width="2"><g><path d="M 10 10L 10 60.39"></path><path d="M 3.5 54.4L 10 60.9L 16.5 54.4" stroke-dasharray="none"></path></g></g></g><g id="g-root-0.line_2_sy_zlxhte16hvh8q-stroke" data-item-order="-92526" transform="translate(423, 183)"><g id="0.line_2_sy_zlxhte16hvh8q-stroke" fill="none" stroke-linecap="round" stroke-linejoin="round" stroke-miterlimit="4" stroke="#484848" stroke-width="2"><g><path d="M 10 10L 10 71.46"></path><path d="M 3.5 65.5L 10 72L 16.5 65.5" stroke-dasharray="none"></path></g></g></g><g id="g-root-0.line_3_sy_v63zoy16hvi0z-stroke" data-item-order="-92522" transform="translate(327, 183)"><g id="0.line_3_sy_v63zoy16hvi0z-stroke" fill="none" stroke-linecap="round" stroke-linejoin="round" stroke-miterlimit="4" stroke="#484848" stroke-width="2"><g><path d="M 10 10L 10 60.38"></path><path d="M 3.5 54.4L 10 60.9L 16.5 54.4" stroke-dasharray="none"></path></g></g></g><g id="g-root-0.line_4_sy_v63zoy16hvi10-stroke" data-item-order="-92518" transform="translate(447, 171)"><g id="0.line_4_sy_v63zoy16hvi10-stroke" fill="none" stroke-linecap="round" stroke-linejoin="round" stroke-miterlimit="4" stroke="#484848" stroke-width="2"><g><path d="M 10 10L 10 77.93"></path><path d="M 3.5 71.9L 10 78.4L 16.5 71.9" stroke-dasharray="none"></path></g></g></g><g id="g-root-0.line_5_sy_magzg216hvitp-stroke" data-item-order="-92514" transform="translate(279, 183)"><g id="0.line_5_sy_magzg216hvitp-stroke" fill="none" stroke-linecap="round" stroke-linejoin="round" stroke-miterlimit="4" stroke="#484848" stroke-width="2"><g><path d="M 10 10L 10 49.31"></path><path d="M 3.5 43.3L 10 49.8L 16.5 43.3" stroke-dasharray="none"></path></g></g></g><g id="g-root-0.line_6_sy_hunhbm16hvjly-stroke" data-item-order="-92510" transform="translate(543, 171)"><g id="0.line_6_sy_hunhbm16hvjly-stroke" fill="none" stroke-linecap="round" stroke-linejoin="round" stroke-miterlimit="4" stroke="#484848" stroke-width="2"><g><path d="M 10 10L 10 55.79"></path><path d="M 3.5 49.8L 10 56.3L 16.5 49.8" stroke-dasharray="none"></path></g></g></g><g id="g-root-0.line_7_sy_hunhbm16hvjlz-stroke" data-item-order="-92506" transform="translate(495, 171)"><g id="0.line_7_sy_hunhbm16hvjlz-stroke" fill="none" stroke-linecap="round" stroke-linejoin="round" stroke-miterlimit="4" stroke="#484848" stroke-width="2"><g><path d="M 10 10L 10 66.86"></path><path d="M 3.5 60.9L 10 67.4L 16.5 60.9" stroke-dasharray="none"></path></g></g></g><g id="g-root-0.line_8_sy_dfggaa16hvh8g-stroke" data-item-order="-92502" transform="translate(303, 171)"><g id="0.line_8_sy_dfggaa16hvh8g-stroke" fill="none" stroke-linecap="round" stroke-linejoin="round" stroke-miterlimit="4" stroke="#484848" stroke-width="2"><g><path d="M 10 10L 10 66.84"></path><path d="M 3.5 60.8L 10 67.3L 16.5 60.8" stroke-dasharray="none"></path></g></g></g><g id="g-root-0.line_9_sy_4jtg1e16hvi15-stroke" data-item-order="-92498" transform="translate(375, 183)"><g id="0.line_9_sy_4jtg1e16hvi15-stroke" fill="none" stroke-linecap="round" stroke-linejoin="round" stroke-miterlimit="4" stroke="#484848" stroke-width="2"><g><path d="M 10 10L 10 71.46"></path><path d="M 3.5 65.5L 10 72L 16.5 65.5" stroke-dasharray="none"></path></g></g></g><g id="g-root-0.line_10_sy_3zxwy16hvite-stroke" data-item-order="-92494" transform="translate(351, 171)"><g id="0.line_10_sy_3zxwy16hvite-stroke" fill="none" stroke-linecap="round" stroke-linejoin="round" stroke-miterlimit="4" stroke="#484848" stroke-width="2"><g><path d="M 10 10L 10 77.92"></path><path d="M 3.5 71.9L 10 78.4L 16.5 71.9" stroke-dasharray="none"></path></g></g></g><g id="g-root-0.line_11_sy_3zxwy16hvitf-stroke" data-item-order="-92490" transform="translate(519, 183)"><g id="0.line_11_sy_3zxwy16hvitf-stroke" fill="none" stroke-linecap="round" stroke-linejoin="round" stroke-miterlimit="4" stroke="#484848" stroke-width="2"><g><path d="M 10 10L 10 49.32"></path><path d="M 3.5 43.3L 10 49.8L 16.5 43.3" stroke-dasharray="none"></path></g></g></g><g id="g-root-0.line_12_sy_1q9gzn616hvjf0-stroke" data-item-order="-92486" transform="translate(399, 171)"><g id="0.line_12_sy_1q9gzn616hvjf0-stroke" fill="none" stroke-linecap="round" stroke-linejoin="round" stroke-miterlimit="4" stroke="#484848" stroke-width="2"><g><path d="M 10 10L 10 89"></path><path d="M 3.5 83L 10 89.5L 16.5 83" stroke-dasharray="none"></path></g></g></g><g id="g-root-tx_storytel_5vd6a16hvhtu-stroke" data-item-order="0" transform="translate(111, 39)"></g><g id="g-root-tx_userenga_hwiwky16hvimg-stroke" data-item-order="0" transform="translate(315, 135)"></g><g id="g-root-tx_narrativ_mccepe16hvhu7-stroke" data-item-order="0" transform="translate(51, 225)"></g><g id="g-root-tx_emotiona_zn6fzm16hvjf2-stroke" data-item-order="0" transform="translate(15, 297)"></g><g id="g-root-tx_desireda_18itg8i16hvimd-stroke" data-item-order="0" transform="translate(75, 369)"></g><g id="g-root-tx_conversi_dgpegi16hvjep-stroke" data-item-order="0" transform="translate(303, 483)"></g></g></g></svg>