<?xml version="1.0" encoding="utf-8" standalone="yes"?>
<!DOCTYPE svg PUBLIC "-//W3C//DTD SVG 1.1//EN" "http://www.w3.org/Graphics/SVG/1.1/DTD/svg11.dtd">
<svg width="464" height="470" viewBox="0 0 464 470" style="fill:none;stroke:none;fill-rule:evenodd;clip-rule:evenodd;stroke-linecap:round;stroke-linejoin:round;stroke-miterlimit:1.5;" version="1.1" xmlns="http://www.w3.org/2000/svg" xmlns:xlink="http://www.w3.org/1999/xlink"><style id="fontImports">@import url("https://fonts.googleapis.com/css2?family=Roboto:wght@400;700&amp;display=block");</style><g id="items" style="isolation: isolate"><g id="blend" style="mix-blend-mode:normal"><g id="g-root--1.hAxis_sy_18hjz1o1m1eewx-fill" data-item-order="-48681" transform="translate(117, 69)"></g><g id="g-root--1.vAxis_sy_zmjfvw1m1ecju-fill" data-item-order="-48677" transform="translate(117, 315)"></g><g id="g-root--1.line_sy_v6pxrg1m1edc3-fill" data-item-order="-48673" transform="translate(165, 123)"></g><g id="g-root--1.ci_sy_mb2xik1m1ee4s-fill" data-item-order="-48672" transform="translate(162, 120)"><g id="-1.ci_sy_mb2xik1m1ee4s-fill" stroke="none" fill="#edf4ff"><g><path d="M 10 13C 10.000001 14.656856 11.343147 16.000001 13.000001 16.000001C 14.656856 16.000001 16.000001 14.656856 16.000001 13.000001C 16.000001 11.343147 14.656856 10.000001 13.000001 10.000001C 11.343147 10.000001 10.000001 11.343147 10.000001 13.000001"></path></g></g></g><g id="g-root--1.ci_1_sy_hv9fe41m1eex1-fill" data-item-order="-48670" transform="translate(258, 288)"><g id="-1.ci_1_sy_hv9fe41m1eex1-fill" stroke="none" fill="#edf4ff"><g><path d="M 10 13C 10.000004 14.656861 11.34315 16.000006 13.000004 16.000006C 14.656859 16.000006 16.000004 14.656861 16.000004 13.000006C 16.000004 11.343152 14.656859 10.000006 13.000004 10.000006C 11.34315 10.000006 10.000004 11.343152 10.000004 13.000006"></path></g></g></g><g id="g-root-tx_conversi_1hefxgs1m1efin-fill" data-item-order="0" transform="translate(39, 39)"><g id="tx_conversi_1hefxgs1m1efin-fill" stroke="none" fill="#484848"><g><text style="font: 20px Roboto, sans-serif; white-space: pre;" font-size="20px" font-family="Roboto, sans-serif"><tspan x="15.37" y="34" dominant-baseline="ideographic">Conversion Rate</tspan></text></g></g></g><g id="g-root-tx_32_91huek1m1eeq3-fill" data-item-order="0" transform="translate(141, 87)"><g id="tx_32_91huek1m1eeq3-fill" stroke="none" fill="#484848"><g><text style="font: 20px Roboto, sans-serif; white-space: pre;" font-size="20px" font-family="Roboto, sans-serif"><tspan x="15.45" y="34" dominant-baseline="ideographic">32%</tspan></text></g></g></g><g id="g-root-tx_15_1urrv3g1m1ecy4-fill" data-item-order="0" transform="translate(237, 255)"><g id="tx_15_1urrv3g1m1ecy4-fill" stroke="none" fill="#484848"><g><text style="font: 20px Roboto, sans-serif; white-space: pre;" font-size="20px" font-family="Roboto, sans-serif"><tspan x="12.81" y="34" dominant-baseline="ideographic">1.5%</tspan></text></g></g></g><g id="g-root-tx_pageload_18jfeb01m1edxc-fill" data-item-order="0" transform="translate(321, 291)"><g id="tx_pageload_18jfeb01m1edxc-fill" stroke="none" fill="#484848"><g><text style="font: 20px Roboto, sans-serif; white-space: pre;" font-size="20px" font-family="Roboto, sans-serif"><tspan x="12" y="34" dominant-baseline="ideographic">Page Load </tspan><tspan x="12" y="58" dominant-baseline="ideographic">Speed</tspan></text></g></g></g><g id="g-root-tx_under1se_v7yvxo1m1efi9-fill" data-item-order="0" transform="translate(135, 327)"><g id="tx_under1se_v7yvxo1m1efi9-fill" stroke="none" fill="#484848"><g><text style="font: lighter 15px Roboto, sans-serif; white-space: pre;" font-weight="lighter" font-size="15px" font-family="Roboto, sans-serif"><tspan x="12.33" y="28" dominant-baseline="ideographic">Under 1 </tspan><tspan x="13.14" y="46" dominant-baseline="ideographic">Second</tspan></text></g></g></g><g id="g-root-tx_over3sec_hx4ung1m1edxe-fill" data-item-order="0" transform="translate(225, 327)"><g id="tx_over3sec_hx4ung1m1edxe-fill" stroke="none" fill="#484848"><g><text style="font: lighter 15px Roboto, sans-serif; white-space: pre;" font-weight="lighter" font-size="15px" font-family="Roboto, sans-serif"><tspan x="24.68" y="28" dominant-baseline="ideographic">Over 3 </tspan><tspan x="17.13" y="46" dominant-baseline="ideographic">Seconds</tspan></text></g></g></g><g id="g-root-tx_impactof_908w8c1m1ecjy-fill" data-item-order="0" transform="translate(15, 387)"><g id="tx_impactof_908w8c1m1ecjy-fill" stroke="none" fill="#484848"><g><text style="font: 20px Roboto, sans-serif; white-space: pre;" font-size="20px" font-family="Roboto, sans-serif"><tspan x="16.02" y="34" dominant-baseline="ideographic">Impact of Page Speed on Conversion Rates</tspan></text></g></g></g><g id="g-root--1.hAxis_sy_18hjz1o1m1eewx-stroke" data-item-order="-48681" transform="translate(117, 69)"><g id="-1.hAxis_sy_18hjz1o1m1eewx-stroke" fill="none" stroke-linecap="round" stroke-linejoin="round" stroke-miterlimit="4" stroke="#969696" stroke-width="2"><g><path d="M 10 256L 10 12"></path><path d="M 16.5 18L 10 11.5L 3.5 18" stroke-dasharray="none"></path></g></g></g><g id="g-root--1.vAxis_sy_zmjfvw1m1ecju-stroke" data-item-order="-48677" transform="translate(117, 315)"><g id="-1.vAxis_sy_zmjfvw1m1ecju-stroke" fill="none" stroke-linecap="round" stroke-linejoin="round" stroke-miterlimit="4" stroke="#969696" stroke-width="2"><g><path d="M 10 10L 206 10"></path><path d="M 200 16.5L 206.5 10L 200 3.5" stroke-dasharray="none"></path></g></g></g><g id="g-root--1.line_sy_v6pxrg1m1edc3-stroke" data-item-order="-48673" transform="translate(165, 123)"><g id="-1.line_sy_v6pxrg1m1edc3-stroke" fill="none" stroke-linecap="round" stroke-linejoin="round" stroke-miterlimit="4" stroke="#4e88e7" stroke-width="2"><g><path d="M 10 10L 106 178"></path></g></g></g><g id="g-root--1.ci_sy_mb2xik1m1ee4s-stroke" data-item-order="-48672" transform="translate(162, 120)"><g id="-1.ci_sy_mb2xik1m1ee4s-stroke" fill="none" stroke-linecap="round" stroke-linejoin="round" stroke-miterlimit="4" stroke="#4e88e7" stroke-width="2"><g><path d="M 10 13C 10.000001 14.656856 11.343147 16.000001 13.000001 16.000001C 14.656856 16.000001 16.000001 14.656856 16.000001 13.000001C 16.000001 11.343147 14.656856 10.000001 13.000001 10.000001C 11.343147 10.000001 10.000001 11.343147 10.000001 13.000001"></path></g></g></g><g id="g-root--1.ci_1_sy_hv9fe41m1eex1-stroke" data-item-order="-48670" transform="translate(258, 288)"><g id="-1.ci_1_sy_hv9fe41m1eex1-stroke" fill="none" stroke-linecap="round" stroke-linejoin="round" stroke-miterlimit="4" stroke="#4e88e7" stroke-width="2"><g><path d="M 10 13C 10.000004 14.656861 11.34315 16.000006 13.000004 16.000006C 14.656859 16.000006 16.000004 14.656861 16.000004 13.000006C 16.000004 11.343152 14.656859 10.000006 13.000004 10.000006C 11.34315 10.000006 10.000004 11.343152 10.000004 13.000006"></path></g></g></g><g id="g-root-tx_conversi_1hefxgs1m1efin-stroke" data-item-order="0" transform="translate(39, 39)"></g><g id="g-root-tx_32_91huek1m1eeq3-stroke" data-item-order="0" transform="translate(141, 87)"></g><g id="g-root-tx_15_1urrv3g1m1ecy4-stroke" data-item-order="0" transform="translate(237, 255)"></g><g id="g-root-tx_pageload_18jfeb01m1edxc-stroke" data-item-order="0" transform="translate(321, 291)"></g><g id="g-root-tx_under1se_v7yvxo1m1efi9-stroke" data-item-order="0" transform="translate(135, 327)"></g><g id="g-root-tx_over3sec_hx4ung1m1edxe-stroke" data-item-order="0" transform="translate(225, 327)"></g><g id="g-root-tx_impactof_908w8c1m1ecjy-stroke" data-item-order="0" transform="translate(15, 387)"></g></g></g></svg>