<?xml version="1.0" encoding="utf-8" standalone="yes"?>
<!DOCTYPE svg PUBLIC "-//W3C//DTD SVG 1.1//EN" "http://www.w3.org/Graphics/SVG/1.1/DTD/svg11.dtd">
<svg width="470" height="458" viewBox="0 0 470 458" style="fill:none;stroke:none;fill-rule:evenodd;clip-rule:evenodd;stroke-linecap:round;stroke-linejoin:round;stroke-miterlimit:1.5;" version="1.1" xmlns="http://www.w3.org/2000/svg" xmlns:xlink="http://www.w3.org/1999/xlink"><style id="fontImports">@import url("https://fonts.googleapis.com/css2?family=Roboto:wght@400;700&amp;display=block");</style><g id="items" style="isolation: isolate"><g id="blend" style="mix-blend-mode:normal"><g id="g-root-1.cu_sy_zkp2jm14jn4lg-fill" data-item-order="-57942" transform="translate(15, 192)"><g id="1.cu_sy_zkp2jm14jn4lg-fill" stroke="none" fill="#e9fbf3"><g><path d="M 28 61C 28 42.7746 42.7746 28 61 28L 139 28C 152.377 28 163.895 35.9597 169.077 47.4013C 172.902 46.4852 176.894 46 181 46L 187.758 46C 181.353 25.154 161.946 10 139 10L 61 10C 32.8335 10 10 32.8335 10 61C 10 89.1665 32.8335 112 61 112L 132.242 112L 139 112C 143.106 112 147.098 111.515 150.923 110.599C 172.4 105.4546 188.595 86.7232 189.913 64L 181 64C 177.778 64 174.663 64.4618 171.719 65.3229C 170.009 78.3943 160.649 89.0594 148.281 92.6771C 145.337 93.5382 142.222 94 139 94L 130.087 94L 61 94C 42.7746 94 28 79.2254 28 61Z"></path></g></g></g><g id="g-root-2.cu_sy_m9v19e14jn30l-fill" data-item-order="-57938" transform="translate(135.0869140625, 228)"><g id="2.cu_sy_m9v19e14jn30l-fill" stroke="none" fill="#fef2e6"><g><path d="M 10 58L 18.9132 58C 22.1355 58 25.2499 57.5382 28.1938 56.6771C 29.9041 43.6057 39.264 32.9406 51.6326 29.3229C 54.5766 28.4618 57.691 28 60.9132 28L 69.8265 28L 130 28L 138.913 28C 142.135 28 145.25 28.4618 148.194 29.3229C 160.562 32.9406 169.922 43.6057 171.633 56.6771C 174.577 57.5382 177.691 58 180.913 58L 189.826 58C 188.508 35.2768 172.313 16.5454 150.836 11.4013C 147.012 10.4852 143.019 10 138.913 10L 132.155 10L 67.6716 10L 60.9132 10C 56.8074 10 52.815 10.4852 48.99 11.4013C 27.5133 16.5454 11.3181 35.2768 10 58ZM 138.913 94L 60.9132 94C 47.536 94 36.0178 86.0403 30.8365 74.5987C 27.0115 75.5148 23.019 76 18.9132 76L 12.1548 76C 18.5603 96.846 37.967 112 60.9132 112L 138.913 112C 161.859 112 181.266 96.846 187.672 76L 180.913 76C 176.807 76 172.815 75.5148 168.99 74.5987C 163.809 86.0403 152.291 94 138.913 94Z"></path></g></g></g><g id="g-root-3.cu_sy_de810i14jn3ta-fill" data-item-order="-57934" transform="translate(255, 192)"><g id="3.cu_sy_de810i14jn3ta-fill" stroke="none" fill="#ffe7e6"><g><path d="M 138.912994 112C 167.080017 112 189.912994 89.166504 189.912994 61C 189.912994 32.833496 167.080017 10 138.912994 10L 60.913208 10C 37.96701 10 18.560211 25.153992 12.1548 46L 18.913208 46C 23.019012 46 27.011505 46.485199 30.836395 47.401306C 36.0177 35.959702 47.535889 28 60.913208 28L 138.912994 28C 157.139008 28 171.912994 42.774597 171.912994 61C 171.912994 79.225403 157.139008 94 138.912994 94L 69.826416 94L 60.913208 94C 57.690887 94 54.576599 93.538208 51.632599 92.677094C 39.264008 89.059387 29.903992 78.394302 28.193787 65.322906C 25.249786 64.461792 22.135498 64 18.913208 64L 10 64C 11.3181 86.723206 27.513306 105.45459 48.98999 110.598694C 52.814911 111.514801 56.807404 112 60.913208 112L 67.6716 112L 138.912994 112Z"></path></g></g></g><g id="g-root-tx_effectiv_18f34ma14k16a4-fill" data-item-order="0" transform="translate(153, 39)"><g id="tx_effectiv_18f34ma14k16a4-fill" stroke="none" fill="#484848"><g><text style="font: 20px Roboto, sans-serif; white-space: pre;" font-size="20px" font-family="Roboto, sans-serif"><tspan x="17.16" y="34" dominant-baseline="ideographic">Effective CTAs</tspan></text></g></g></g><g id="g-root-tx_claritya_1lqjmzm14k14p7-fill" data-item-order="0" transform="translate(51, 123)"><g id="tx_claritya_1lqjmzm14k14p7-fill" stroke="none" fill="#484848"><g><text style="font: 20px Roboto, sans-serif; white-space: pre;" font-size="20px" font-family="Roboto, sans-serif"><tspan x="14.27" y="34" dominant-baseline="ideographic">Clarity and </tspan><tspan x="15.83" y="58" dominant-baseline="ideographic">Specificity</tspan></text></g></g></g><g id="g-root-tx_urgencyc_dbq4o214k14w9-fill" data-item-order="0" transform="translate(267, 147)"><g id="tx_urgencyc_dbq4o214k14w9-fill" stroke="none" fill="#484848"><g><text style="font: 20px Roboto, sans-serif; white-space: pre;" font-size="20px" font-family="Roboto, sans-serif"><tspan x="11.91" y="34" dominant-baseline="ideographic">Urgency Creation</tspan></text></g></g></g><g id="g-root-eye_1cynh9e14jsr9q-fill" data-item-order="0" transform="translate(81, 219)"></g><g id="g-root-fire_mgq97m14jzsow-fill" data-item-order="0" transform="translate(321, 219)"></g><g id="g-root-post_qs6fqa14jvitq-fill" data-item-order="0" transform="translate(201, 255)"></g><g id="g-root-tx_actionor_9maq14k16h6-fill" data-item-order="0" transform="translate(147, 351)"><g id="tx_actionor_9maq14k16h6-fill" stroke="none" fill="#484848"><g><text style="font: 20px Roboto, sans-serif; white-space: pre;" font-size="20px" font-family="Roboto, sans-serif"><tspan x="16.38" y="34" dominant-baseline="ideographic">Action-Oriented </tspan><tspan x="41.71" y="58" dominant-baseline="ideographic">Language</tspan></text></g></g></g><g id="g-root-1.cu_sy_zkp2jm14jn4lg-stroke" data-item-order="-57942" transform="translate(15, 192)"><g id="1.cu_sy_zkp2jm14jn4lg-stroke" fill="none" stroke-linecap="round" stroke-linejoin="round" stroke-miterlimit="4" stroke="#3bc482" stroke-width="2"><g><path d="M 28 61C 28 42.7746 42.7746 28 61 28L 139 28C 152.3773 28 163.8955 35.9597 169.0768 47.4013C 172.9017 46.4852 176.8942 46 181 46L 187.7584 46C 181.353 25.154 161.9462 10 139 10L 61 10C 32.8335 10 10 32.8335 10 61C 10 89.1665 32.8335 112 61 112L 132.2416 112L 139 112C 143.1058 112 147.0983 111.5148 150.9232 110.5987C 172.4 105.4546 188.5951 86.7232 189.9132 64L 181 64C 177.7777 64 174.6634 64.4618 171.7194 65.3229C 170.0092 78.3943 160.6492 89.0594 148.2806 92.6771C 145.3366 93.5382 142.2223 94 139 94L 130.0868 94L 61 94C 42.7746 94 28 79.2254 28 61Z"></path></g></g></g><g id="g-root-2.cu_sy_m9v19e14jn30l-stroke" data-item-order="-57938" transform="translate(135.0869140625, 228)"><g id="2.cu_sy_m9v19e14jn30l-stroke" fill="none" stroke-linecap="round" stroke-linejoin="round" stroke-miterlimit="4" stroke="#dd8433" stroke-width="2"><g><path d="M 10 58L 18.9132 58C 22.1355 58 25.2499 57.5382 28.1938 56.6771C 29.9041 43.6057 39.264 32.9406 51.6326 29.3229C 54.5766 28.4618 57.691 28 60.9132 28L 69.8265 28L 130 28L 138.9132 28C 142.1355 28 145.2499 28.4618 148.1938 29.3229C 160.5624 32.9406 169.9224 43.6057 171.6326 56.6771C 174.5766 57.5382 177.691 58 180.9132 58L 189.8265 58C 188.5084 35.2768 172.3132 16.5454 150.8365 11.4013C 147.0115 10.4852 143.019 10 138.9132 10L 132.1548 10L 67.6716 10L 60.9132 10C 56.8074 10 52.815 10.4852 48.99 11.4013C 27.5133 16.5454 11.3181 35.2768 10 58ZM 138.9132 94L 60.9132 94C 47.536 94 36.0178 86.0403 30.8365 74.5987C 27.0115 75.5148 23.019 76 18.9132 76L 12.1548 76C 18.5603 96.846 37.967 112 60.9132 112L 138.9132 112C 161.8594 112 181.2662 96.846 187.6717 76L 180.9132 76C 176.8074 76 172.8149 75.5148 168.99 74.5987C 163.8087 86.0403 152.2905 94 138.9132 94ZM 30.8365 74.5987C 52.3132 69.4546 68.5084 50.7232 69.8265 28M 28.1938 56.6771C 40.5624 53.0594 49.9224 42.3943 51.6326 29.3229M 130 28C 131.3181 50.7232 147.5133 69.4546 168.99 74.5987M 148.1938 29.3229C 149.9041 42.3943 159.264 53.0594 171.6326 56.6771"></path></g></g></g><g id="g-root-3.cu_sy_de810i14jn3ta-stroke" data-item-order="-57934" transform="translate(255, 192)"><g id="3.cu_sy_de810i14jn3ta-stroke" fill="none" stroke-linecap="round" stroke-linejoin="round" stroke-miterlimit="4" stroke="#e15e5a" stroke-width="2"><g><path d="M 138.913208 112C 167.079712 112 189.913208 89.166504 189.913208 61C 189.913208 32.833496 167.079712 10 138.913208 10L 60.913208 10C 37.96701 10 18.560211 25.153992 12.1548 46L 18.913208 46C 23.019012 46 27.011505 46.485199 30.836395 47.401306C 36.0177 35.959702 47.535889 28 60.913208 28L 138.913208 28C 157.138611 28 171.913208 42.774597 171.913208 61C 171.913208 79.225403 157.138611 94 138.913208 94L 69.826416 94L 60.913208 94C 57.690887 94 54.576599 93.538208 51.632599 92.677094C 39.264008 89.059387 29.903992 78.394302 28.193787 65.322906C 25.249786 64.461792 22.135498 64 18.913208 64L 10 64C 11.3181 86.723206 27.513306 105.45459 48.98999 110.598694C 52.814911 111.514801 56.807404 112 60.913208 112L 67.6716 112L 138.913208 112ZM 28.193787 65.322906C 40.562408 68.940598 49.922394 79.605698 51.632599 92.677094M 30.836395 47.401306C 52.31311 52.545395 68.508301 71.276794 69.826416 94"></path></g></g></g><g id="g-root-tx_effectiv_18f34ma14k16a4-stroke" data-item-order="0" transform="translate(153, 39)"></g><g id="g-root-tx_claritya_1lqjmzm14k14p7-stroke" data-item-order="0" transform="translate(51, 123)"></g><g id="g-root-tx_urgencyc_dbq4o214k14w9-stroke" data-item-order="0" transform="translate(267, 147)"></g><g id="g-root-eye_1cynh9e14jsr9q-stroke" data-item-order="0" transform="translate(81, 219)"><g id="eye_1cynh9e14jsr9q-stroke" fill="none" stroke-linecap="round" stroke-linejoin="round" stroke-miterlimit="4" stroke="#3bc482" stroke-width="2"><g><path d="M 14 16L 54 16C 54 16 56 16 56 18L 56 50C 56 50 56 52 54 52L 14 52C 14 52 12 52 12 50L 12 18C 12 18 12 16 14 16M 18 28L 18 24C 18 22.895432 18.895432 22 20 22L 24 22M 50 28L 50 24C 50 22.895432 49.104568 22 48 22L 44 22M 18 40L 18 44C 18 45.104568 18.895432 46 20 46L 24 46M 50 40L 50 44C 50 45.104568 49.104568 46 48 46L 44 46M 29 34C 29 36.761425 31.238577 39 34 39C 36.761425 39 39 36.761425 39 34C 39 31.238577 36.761425 29 34 29C 31.238577 29 29 31.238577 29 34M 45.650002 33.104C 44.355999 31.691999 39.629997 27 34 27C 28.370001 27 23.644001 31.691999 22.35 33.104C 21.878456 33.611351 21.878456 34.396648 22.35 34.903999C 23.644001 36.307999 28.370001 41 34 41C 39.629997 41 44.355999 36.307999 45.650002 34.896C 46.121548 34.388649 46.121548 33.603355 45.650002 33.096001Z"></path></g></g></g><g id="g-root-fire_mgq97m14jzsow-stroke" data-item-order="0" transform="translate(321, 219)"><g id="fire_mgq97m14jzsow-stroke" fill="none" stroke-linecap="round" stroke-linejoin="round" stroke-miterlimit="4" stroke="#e15e5a" stroke-width="2"><g><path d="M 20 43.001999C 20 50.73399 26.268015 57.002003 34 57.002003C 41.731987 57.002003 48 50.73399 48 43.002003C 48 35.270016 41.731987 29.002001 34 29.002001C 26.268015 29.002001 20 35.270016 20 43.002003ZM 47.099998 38.054001C 50.260151 36.237114 52.181328 32.844597 52.114002 29.200001C 52.050232 25.509613 50.54237 21.991268 47.914001 19.4C 47.755997 20.712328 47.068573 21.903091 46.011131 22.696175C 44.953686 23.489258 43.618073 23.815769 42.313999 23.599998C 38.643883 20.513309 37.496609 15.35058 39.514 11C 30.764 11 25.164 16.162001 24.114 23.6C 21.436256 23.879742 18.995216 22.048962 18.514 19.4C 12.32 24.667999 12 35.323997 20.501999 39.274002M 41 43.001999L 34 43.001999L 34 34.001999"></path></g></g></g><g id="g-root-post_qs6fqa14jvitq-stroke" data-item-order="0" transform="translate(201, 255)"><g id="post_qs6fqa14jvitq-stroke" fill="none" stroke-linecap="round" stroke-linejoin="round" stroke-miterlimit="4" stroke="#dd8433" stroke-width="2"><g><path d="M 21.496 51.200001C 21.296 51.200001 20.896 51.200001 20.695999 51C 19.096001 50.599998 18.296 48.799999 18.695999 47.200001L 24.695999 27.200001C 24.896 26.4 25.496 25.799999 26.096001 25.4C 26.896 25 27.695999 25 28.496 25.200001L 37.295998 28C 39.695999 28.799999 41.496002 30.799999 42.096001 33.200001C 42.695999 35.799999 41.695999 38.400002 39.695999 40L 37.096001 42.200001L 40.695999 45.799999C 41.896 47 41.896 48.799999 40.695999 50C 39.496002 51.200001 37.695999 51.200001 36.496002 50L 30.496 44C 29.896 43.400002 29.496 42.599998 29.695999 41.799999C 29.695999 41 30.096001 40.200001 30.695999 39.599998L 35.896 35.400002C 36.096001 35.200001 36.295998 34.799999 36.295998 34.400002C 36.295998 34 35.896 33.799999 35.695999 33.599998L 29.896 31.6L 24.695999 48.599998C 24.096001 50.400002 22.896 51.200001 21.496 51.200001ZM 10 10M 41.93 32.606003L 45.695999 38.799999L 55.096001 44.400002C 56.495998 45.200001 56.896 47 56.096001 48.599998C 55.495998 49.599998 54.495998 50 53.495998 50C 52.896 50 52.495998 49.799999 51.896 49.599998L 46.375999 46.25M 17.496 26.4C 20.809708 26.4 23.496 23.713709 23.496 20.400002C 23.496 17.086292 20.809708 14.4 17.496 14.4C 14.182291 14.4 11.496 17.086292 11.496 20.400002C 11.496 23.713709 14.182291 26.4 17.496 26.4Z"></path></g></g></g><g id="g-root-tx_actionor_9maq14k16h6-stroke" data-item-order="0" transform="translate(147, 351)"></g></g></g></svg>