<?xml version="1.0" encoding="utf-8" standalone="yes"?>
<!DOCTYPE svg PUBLIC "-//W3C//DTD SVG 1.1//EN" "http://www.w3.org/Graphics/SVG/1.1/DTD/svg11.dtd">
<svg width="860" height="890" viewBox="0 0 860 890" style="fill:none;stroke:none;fill-rule:evenodd;clip-rule:evenodd;stroke-linecap:round;stroke-linejoin:round;stroke-miterlimit:1.5;" version="1.1" xmlns="http://www.w3.org/2000/svg" xmlns:xlink="http://www.w3.org/1999/xlink"><style id="fontImports">@import url("https://fonts.googleapis.com/css2?family=Roboto:wght@400;700&amp;display=block");</style><g id="items" style="isolation: isolate"><g id="blend" style="mix-blend-mode:normal"><g id="g-root-7.cu_sy_1lux1rg1muuwb1-fill" data-item-order="-222907" transform="translate(248.0966796875, 219)"><g id="7.cu_sy_1lux1rg1muuwb1-fill" stroke="none" fill="#de8431"><g><path d="M 178.903 10L 178.919 10L 178.935 94L 178.903 94C 164.789 94 151.193 96.2151 138.443 100.3166L 154.252 133.195C 142.381 136.34 131.412 141.702 121.815 148.811L 106.0076 115.936C 94.5018 123.572 84.2624 132.964 75.6716 143.729L 10 91.3479C 49.5782 41.7676 110.531 10 178.903 10Z"></path></g></g></g><g id="g-root-6.cu_sy_18jgje41muuxvy-fill" data-item-order="-222903" transform="translate(200.9990234375, 300.34765625)"><g id="6.cu_sy_18jgje41muuxvy-fill" stroke="none" fill="#92bd39"><g><path d="M 10 144.652C 10 161.165 11.8529 177.244 15.362 192.695L 97.2658 173.963C 95.1284 164.536 94 154.726 94 144.652C 94 140.727 94.1713 136.842 94.5069 133.003L 130.063 141.147C 130.51 128.698 133.327 116.853 138.077 106.0501L 102.5165 97.9057C 107.4157 84.971 114.289 73.0068 122.768 62.381L 57.0968 10C 27.6205 46.9255 10 93.7311 10 144.652Z"></path></g></g></g><g id="g-root-5.cu_sy_1449ics1muuvif-fill" data-item-order="-222899" transform="translate(206.36337280273438, 464.3115234375)"><g id="5.cu_sy_1449ics1muuvif-fill" stroke="none" fill="#7f64ea"><g><path d="M 10 28.7314C 24.7048 93.4743 68.4931 147.167 126.901 175.345L 163.353 99.6446C 150.86 93.6173 139.462 85.68 129.537 76.2116L 158.068 53.5005C 148.933 45.6436 141.293 36.097 135.633 25.3457L 107.1004 48.0582C 100.1733 36.4092 94.9881 23.6034 91.9038 10L 10 28.7314Z"></path></g></g></g><g id="g-root-4.cu_sy_zog08c1muuwao-fill" data-item-order="-222895" transform="translate(323.2635803222656, 529.315673828125)"><g id="4.cu_sy_zog08c1muuwao-fill" stroke="none" fill="#e55753"><g><path d="M 103.7363 11.6848C 109.8887 11.6848 115.906 11.106 121.736 10L 121.736 46.4674C 135.637 44.5721 148.849 40.5126 161.022 34.6396L 197.481 110.337C 169.127 124.017 137.327 131.684 103.7366 131.684C 70.1491 131.684 38.3521 124.018 10 110.34L 46.452 34.6402C 58.6245 40.5128 71.8362 44.572 85.7363 46.4674L 85.7363 10C 91.5668 11.106 97.584 11.6848 103.7363 11.6848Z"></path></g></g></g><g id="g-root-3.cu_sy_qsszzg1muux3d-fill" data-item-order="-222891" transform="translate(474.2861328125, 464.3720703125)"><g id="3.cu_sy_qsszzg1muux3d-fill" stroke="none" fill="#1eabda"><g><path d="M 46.4586 175.28C 104.8521 147.106 148.632 93.4308 163.344 28.7069L 81.4349 10C 78.3382 23.6278 73.1329 36.4542 66.1802 48.1181L 37.67 25.375C 31.9991 36.1198 24.3494 45.6586 15.2061 53.5063L 43.714 76.2476C 33.8131 85.673 22.45 93.5766 10 99.5831L 46.4586 175.28Z"></path></g></g></g><g id="g-root-2.cu_sy_dhyyp81muuvii-fill" data-item-order="-222887" transform="translate(504.9638671875, 300.3173828125)"><g id="2.cu_sy_dhyyp81muuvii-fill" stroke="none" fill="#e0cb15"><g><path d="M 138.037 144.681C 138.037 161.207 136.181 177.299 132.667 192.761L 50.7573 174.054C 52.9037 164.608 54.037 154.777 54.037 144.681C 54.037 140.803 53.8698 136.964 53.5421 133.17L 17.977 141.277C 17.543 128.826 14.7381 116.979 10 106.1714L 45.5695 98.0641C 40.6613 85.0644 33.76 73.0429 25.2383 62.3722L 90.9169 10C 120.407 46.93 138.037 93.7469 138.037 144.681Z"></path></g></g></g><g id="g-root-1.cu_sy_925gks1muuwar-fill" data-item-order="-222883" transform="translate(417.0164794921875, 219)"><g id="1.cu_sy_925gks1muuwar-fill" stroke="none" fill="#3cc583"><g><path d="M 10 10C 78.3523 10.005 139.288 41.7588 178.864 91.3183L 113.185 143.69C 104.6292 132.977 94.4402 123.626 82.995 116.013L 67.1533 148.871C 57.5637 141.751 46.6003 136.378 34.7334 133.22L 50.5766 100.3592C 37.7978 96.2336 24.1672 94.0034 10.0162 94L 10 10Z"></path></g></g></g><g id="g-root-0.cu_sy_6igbw1muux3g-fill" data-item-order="-222879" transform="translate(321, 339)"><g id="0.cu_sy_6igbw1muux3g-fill" stroke="none" fill="#666666"><g><path d="M 202 106C 202 159.019 159.019 202 106 202C 52.9807 202 10 159.019 10 106C 10 52.9807 52.9807 10 106 10C 159.019 10 202 52.9807 202 106Z"></path></g></g></g><g id="g-root-bmp_13ym0bw1n59xj7-fill" data-item-order="0" transform="translate(465, 255)"></g><g id="g-root-acti_mev0a41muwa30-fill" data-item-order="0" transform="translate(321, 255)"></g><g id="g-root-tx_mobileop_v6r2uk1muz3sw-fill" data-item-order="0" transform="translate(33, 315)"><g id="tx_mobileop_v6r2uk1muz3sw-fill" stroke="none" fill="#92bd39"><g><text style="font: bold 20px Roboto, sans-serif; white-space: pre;" font-weight="bold" font-size="20px" font-family="Roboto, sans-serif"><tspan x="39.23" y="34" dominant-baseline="ideographic">Mobile </tspan><tspan x="12.39" y="58" dominant-baseline="ideographic">Optimization</tspan></text></g></g></g><g id="g-root-tx_minimize_8yem241muz40d-fill" data-item-order="0" transform="translate(663, 315)"><g id="tx_minimize_8yem241muz40d-fill" stroke="none" fill="#e0cb15"><g><text style="font: bold 20px Roboto, sans-serif; white-space: pre;" font-weight="bold" font-size="20px" font-family="Roboto, sans-serif"><tspan x="15.8" y="34" dominant-baseline="ideographic">Minimize HTTP </tspan><tspan x="43.4" y="58" dominant-baseline="ideographic">Requests</tspan></text></g></g></g><g id="g-root-tx_compress_147dvsc1muuwp0-fill" data-item-order="0" transform="translate(501, 135)"><g id="tx_compress_147dvsc1muuwp0-fill" stroke="none" fill="#374840"><g><text style="font: 20px Roboto, sans-serif; white-space: pre;" font-size="20px" font-family="Roboto, sans-serif"><tspan x="11.91" y="34" dominant-baseline="ideographic">Compress images </tspan><tspan x="37.51" y="58" dominant-baseline="ideographic">and use lazy </tspan><tspan x="16.29" y="82" dominant-baseline="ideographic">loading for faster </tspan><tspan x="43.35" y="106" dominant-baseline="ideographic">load times.</tspan></text></g></g></g><g id="g-root-tx_enhancem_145igj01muuxon-fill" data-item-order="0" transform="translate(15, 363)"><g id="tx_enhancem_145igj01muuxon-fill" stroke="none" fill="#424736"><g><text style="font: 20px Roboto, sans-serif; white-space: pre;" font-size="20px" font-family="Roboto, sans-serif"><tspan x="14.62" y="34" dominant-baseline="ideographic">Enhance mobile </tspan><tspan x="37.32" y="58" dominant-baseline="ideographic">speed with </tspan><tspan x="37.27" y="82" dominant-baseline="ideographic">responsive </tspan><tspan x="53.24" y="106" dominant-baseline="ideographic">design.</tspan></text></g></g></g><g id="g-root-1_1cuwt2k1mv7if7-fill" data-item-order="0" transform="translate(225, 375)"></g><g id="g-root-hier_qu0pws1n54dmr-fill" data-item-order="0" transform="translate(561, 375)"></g><g id="g-root-tx_reducere_1ly1f701muuxhn-fill" data-item-order="0" transform="translate(657, 363)"><g id="tx_reducere_1ly1f701muuxhn-fill" stroke="none" fill="#46432d"><g><text style="font: 20px Roboto, sans-serif; white-space: pre;" font-size="20px" font-family="Roboto, sans-serif"><tspan x="18.45" y="34" dominant-baseline="ideographic">Reduce requests </tspan><tspan x="12.27" y="58" dominant-baseline="ideographic">by combining files </tspan><tspan x="32.27" y="82" dominant-baseline="ideographic">and removing </tspan><tspan x="36.39" y="106" dominant-baseline="ideographic">unnecessary </tspan><tspan x="49.06" y="130" dominant-baseline="ideographic">elements.</tspan></text></g></g></g><g id="g-root-fire_hu1mb01muz37o-fill" data-item-order="0" transform="translate(369, 387)"></g><g id="g-root-tx_continuo_18lbyng1muuwwe-fill" data-item-order="0" transform="translate(165, 135)"><g id="tx_continuo_18lbyng1muuwwe-fill" stroke="none" fill="#4c4034"><g><text style="font: 20px Roboto, sans-serif; white-space: pre;" font-size="20px" font-family="Roboto, sans-serif"><tspan x="15.2" y="34" dominant-baseline="ideographic">Continuously test </tspan><tspan x="13.34" y="58" dominant-baseline="ideographic">and improve page </tspan><tspan x="63.02" y="82" dominant-baseline="ideographic">speed.</tspan></text></g></g></g><g id="g-root-tx_imageopt_1qa42ss1muz56r-fill" data-item-order="0" transform="translate(525, 87)"><g id="tx_imageopt_1qa42ss1muz56r-fill" stroke="none" fill="#3cc583"><g><text style="font: bold 20px Roboto, sans-serif; white-space: pre;" font-weight="bold" font-size="20px" font-family="Roboto, sans-serif"><tspan x="41.95" y="34" dominant-baseline="ideographic">Image </tspan><tspan x="12.39" y="58" dominant-baseline="ideographic">Optimization</tspan></text></g></g></g><g id="g-root-shar_1hhlj581mvd7nu-fill" data-item-order="0" transform="translate(261, 519)"></g><g id="g-root-tx_usehighp_dj7wvg1muuxop-fill" data-item-order="0" transform="translate(345, 711)"><g id="tx_usehighp_dj7wvg1muuxop-fill" stroke="none" fill="#543a3a"><g><text style="font: 20px Roboto, sans-serif; white-space: pre;" font-size="20px" font-family="Roboto, sans-serif"><tspan x="38.29" y="34" dominant-baseline="ideographic">Use high-</tspan><tspan x="22.34" y="58" dominant-baseline="ideographic">performance </tspan><tspan x="31.29" y="82" dominant-baseline="ideographic">hosting for </tspan><tspan x="17.15" y="106" dominant-baseline="ideographic">quicker server </tspan><tspan x="30.7" y="130" dominant-baseline="ideographic">responses.</tspan></text></g></g></g><g id="g-root-hear_zn5tt81n4xafi-fill" data-item-order="0" transform="translate(525, 519)"></g><g id="g-root-tx_usecdns_1cxem981muz4lj-fill" data-item-order="0" transform="translate(81, 555)"><g id="tx_usecdns_1cxem981muz4lj-fill" stroke="none" fill="#7f64ea"><g><text style="font: bold 20px Roboto, sans-serif; white-space: pre;" font-weight="bold" font-size="20px" font-family="Roboto, sans-serif"><tspan x="13.13" y="34" dominant-baseline="ideographic">Use CDNs</tspan></text></g></g></g><g id="g-root-tx_leverage_90a1bg1muz30q-fill" data-item-order="0" transform="translate(621, 543)"><g id="tx_leverage_90a1bg1muz30q-fill" stroke="none" fill="#1eabda"><g><text style="font: bold 20px Roboto, sans-serif; white-space: pre;" font-weight="bold" font-size="20px" font-family="Roboto, sans-serif"><tspan x="11.91" y="34" dominant-baseline="ideographic">Leverage Browser </tspan><tspan x="55.9" y="58" dominant-baseline="ideographic">Caching</tspan></text></g></g></g><g id="g-root-tx_distribu_quof8s1muuw3s-fill" data-item-order="0" transform="translate(45, 591)"><g id="tx_distribu_quof8s1muuw3s-fill" stroke="none" fill="#443e5c"><g><text style="font: 20px Roboto, sans-serif; white-space: pre;" font-size="20px" font-family="Roboto, sans-serif"><tspan x="13.41" y="34" dominant-baseline="ideographic">Distribute content </tspan><tspan x="14.69" y="58" dominant-baseline="ideographic">globally for faster </tspan><tspan x="58.44" y="82" dominant-baseline="ideographic">access.</tspan></text></g></g></g><g id="g-root-1_1czvacs1n4ujgt-fill" data-item-order="0" transform="translate(393, 584)"></g><g id="g-root-tx_storesta_8dvl81muuw3u-fill" data-item-order="0" transform="translate(627, 591)"><g id="tx_storesta_8dvl81muuw3u-fill" stroke="none" fill="#32444a"><g><text style="font: 20px Roboto, sans-serif; white-space: pre;" font-size="20px" font-family="Roboto, sans-serif"><tspan x="34.86" y="34" dominant-baseline="ideographic">Store static </tspan><tspan x="15.22" y="58" dominant-baseline="ideographic">assets to speed </tspan><tspan x="15.34" y="82" dominant-baseline="ideographic">up repeat visits.</tspan></text></g></g></g><g id="g-root-tx_optimize_1q8v4mk1muz30m-fill" data-item-order="0" transform="translate(339, 663)"><g id="tx_optimize_1q8v4mk1muz30m-fill" stroke="none" fill="#e55753"><g><text style="font: bold 20px Roboto, sans-serif; white-space: pre;" font-weight="bold" font-size="20px" font-family="Roboto, sans-serif"><tspan x="14.65" y="34" dominant-baseline="ideographic">Optimize Server </tspan><tspan x="12.15" y="58" dominant-baseline="ideographic">Response Times</tspan></text></g></g></g><g id="g-root-tx_websites_1urt06k1muuxol-fill" data-item-order="0" transform="translate(237, 39)"><g id="tx_websites_1urt06k1muuxol-fill" stroke="none" fill="#484848"><g><text style="font: bold 20px Roboto, sans-serif; white-space: pre;" font-weight="bold" font-size="20px" font-family="Roboto, sans-serif"><tspan x="14.41" y="34" dominant-baseline="ideographic">Website Speed Optimization Strategies</tspan></text></g></g></g><g id="g-root-tx_regularm_hvakh81muz5dt-fill" data-item-order="0" transform="translate(195, 87)"><g id="tx_regularm_hvakh81muz5dt-fill" stroke="none" fill="#de8431"><g><text style="font: bold 20px Roboto, sans-serif; white-space: pre;" font-weight="bold" font-size="20px" font-family="Roboto, sans-serif"><tspan x="29.24" y="34" dominant-baseline="ideographic">Regular </tspan><tspan x="14.84" y="58" dominant-baseline="ideographic">Monitoring</tspan></text></g></g></g><g id="g-root-7.cu_sy_1lux1rg1muuwb1-stroke" data-item-order="-222907" transform="translate(248.0966796875, 219)"><g id="7.cu_sy_1lux1rg1muuwb1-stroke" fill="none" stroke-linecap="round" stroke-linejoin="round" stroke-miterlimit="4" stroke="#ffffff" stroke-width="2"><g><path d="M 178.9034 10L 178.9191 10L 178.9352 94L 178.9034 94C 164.7895 94 151.193 96.2151 138.4426 100.3166L 154.2517 133.1951C 142.3807 136.34 131.4118 141.7021 121.8152 148.8113L 106.0076 115.9364C 94.5018 123.572 84.2624 132.9637 75.6716 143.7289L 10 91.3479C 49.5782 41.7676 110.5309 10 178.9034 10Z"></path></g></g></g><g id="g-root-6.cu_sy_18jgje41muuxvy-stroke" data-item-order="-222903" transform="translate(200.9990234375, 300.34765625)"><g id="6.cu_sy_18jgje41muuxvy-stroke" fill="none" stroke-linecap="round" stroke-linejoin="round" stroke-miterlimit="4" stroke="#ffffff" stroke-width="2"><g><path d="M 10 144.6523C 10 161.1647 11.8529 177.2443 15.362 192.6945L 97.2658 173.9632C 95.1284 164.5361 94 154.726 94 144.6523C 94 140.727 94.1713 136.8416 94.5069 133.0034L 130.0628 141.1468C 130.5098 128.6979 133.327 116.8531 138.077 106.0501L 102.5165 97.9057C 107.4157 84.971 114.2889 73.0068 122.7685 62.381L 57.0968 10C 27.6205 46.9255 10 93.7311 10 144.6523Z"></path></g></g></g><g id="g-root-5.cu_sy_1449ics1muuvif-stroke" data-item-order="-222899" transform="translate(206.36337280273438, 464.3115234375)"><g id="5.cu_sy_1449ics1muuvif-stroke" fill="none" stroke-linecap="round" stroke-linejoin="round" stroke-miterlimit="4" stroke="#ffffff" stroke-width="2"><g><path d="M 10 28.7314C 24.7048 93.4743 68.4931 147.1666 126.9012 175.3446L 163.3532 99.6446C 150.8601 93.6173 139.4616 85.68 129.5366 76.2116L 158.0679 53.5005C 148.9331 45.6436 141.2932 36.097 135.6334 25.3457L 107.1004 48.0582C 100.1733 36.4092 94.9881 23.6034 91.9038 10L 10 28.7314Z"></path></g></g></g><g id="g-root-4.cu_sy_zog08c1muuwao-stroke" data-item-order="-222895" transform="translate(323.2635803222656, 529.315673828125)"><g id="4.cu_sy_zog08c1muuwao-stroke" fill="none" stroke-linecap="round" stroke-linejoin="round" stroke-miterlimit="4" stroke="#ffffff" stroke-width="2"><g><path d="M 103.7363 11.6848C 109.8887 11.6848 115.9058 11.106 121.7363 10L 121.7363 46.4674C 135.6371 44.5721 148.8494 40.5126 161.0224 34.6396L 197.481 110.3365C 169.1269 124.0169 137.3272 131.6844 103.7366 131.6844C 70.1491 131.6844 38.3521 124.0183 10 110.3403L 46.452 34.6402C 58.6245 40.5128 71.8362 44.572 85.7363 46.4674L 85.7363 10C 91.5668 11.106 97.584 11.6848 103.7363 11.6848ZM 103.974 215.6844L 103.5001 215.6844"></path></g></g></g><g id="g-root-3.cu_sy_qsszzg1muux3d-stroke" data-item-order="-222891" transform="translate(474.2861328125, 464.3720703125)"><g id="3.cu_sy_qsszzg1muux3d-stroke" fill="none" stroke-linecap="round" stroke-linejoin="round" stroke-miterlimit="4" stroke="#ffffff" stroke-width="2"><g><path d="M 46.4586 175.28C 104.8521 147.1064 148.6319 93.4308 163.3443 28.7069L 81.4349 10C 78.3382 23.6278 73.1329 36.4542 66.1802 48.1181L 37.67 25.375C 31.9991 36.1198 24.3494 45.6586 15.2061 53.5063L 43.714 76.2476C 33.8131 85.673 22.45 93.5766 10 99.5831L 46.4586 175.28Z"></path></g></g></g><g id="g-root-2.cu_sy_dhyyp81muuvii-stroke" data-item-order="-222887" transform="translate(504.9638671875, 300.3173828125)"><g id="2.cu_sy_dhyyp81muuvii-stroke" fill="none" stroke-linecap="round" stroke-linejoin="round" stroke-miterlimit="4" stroke="#ffffff" stroke-width="2"><g><path d="M 138.037 144.6815C 138.037 161.2069 136.1813 177.299 132.6667 192.7605L 50.7573 174.0536C 52.9037 164.6078 54.037 154.777 54.037 144.6815C 54.037 140.803 53.8698 136.9637 53.5421 133.1702L 17.977 141.2765C 17.543 128.8262 14.7381 116.9787 10 106.1714L 45.5695 98.0641C 40.6613 85.0644 33.76 73.0429 25.2383 62.3722L 90.9169 10C 120.4073 46.93 138.037 93.7469 138.037 144.6815Z"></path></g></g></g><g id="g-root-1.cu_sy_925gks1muuwar-stroke" data-item-order="-222883" transform="translate(417.0164794921875, 219)"><g id="1.cu_sy_925gks1muuwar-stroke" fill="none" stroke-linecap="round" stroke-linejoin="round" stroke-miterlimit="4" stroke="#ffffff" stroke-width="2"><g><path d="M 10 10C 78.3523 10.005 139.2878 41.7588 178.8635 91.3183L 113.1849 143.6905C 104.6292 132.9773 94.4402 123.6258 82.995 116.0131L 67.1533 148.8712C 57.5637 141.7514 46.6003 136.3777 34.7334 133.2202L 50.5766 100.3592C 37.7978 96.2336 24.1672 94.0034 10.0162 94L 10 10Z"></path></g></g></g><g id="g-root-0.cu_sy_6igbw1muux3g-stroke" data-item-order="-222879" transform="translate(321, 339)"><g id="0.cu_sy_6igbw1muux3g-stroke" fill="none" stroke-linecap="round" stroke-linejoin="round" stroke-miterlimit="4" stroke="#ffffff" stroke-width="2"><g><path d="M 202 106C 202 159.0193 159.0193 202 106 202C 52.9807 202 10 159.0193 10 106C 10 52.9807 52.9807 10 106 10C 159.0193 10 202 52.9807 202 106Z"></path></g></g></g><g id="g-root-bmp_13ym0bw1n59xj7-stroke" data-item-order="0" transform="translate(465, 255)"><g id="bmp_13ym0bw1n59xj7-stroke" fill="none" stroke-linecap="round" stroke-linejoin="round" stroke-miterlimit="4" stroke="#ffffff" stroke-width="2"><g><path d="M 13 20L 55 20C 55 20 57 20 57 22L 57 46C 57 46 57 48 55 48L 13 48C 13 48 11 48 11 46L 11 22C 11 22 11 20 13 20M 27 31C 27 32.656853 25.656855 34 24 34L 21 34L 21 28L 24 28C 25.656855 28 27 29.343145 27 31ZM 27 37C 27 38.656853 25.656855 40 24 40L 21 40L 21 34L 24 34C 25.656855 34 27 35.343147 27 37ZM 31 40L 31 28L 34 34L 37 28L 37 40M 47 31C 47 32.656853 45.656857 34 44 34L 41 34L 41 28L 44 28C 45.656857 28 47 29.343145 47 31ZM 41 40L 41 34"></path></g></g></g><g id="g-root-acti_mev0a41muwa30-stroke" data-item-order="0" transform="translate(321, 255)"><g id="acti_mev0a41muwa30-stroke" fill="none" stroke-linecap="round" stroke-linejoin="round" stroke-miterlimit="4" stroke="#ffffff" stroke-width="2"><g><path d="M 20.285715 11.714286L 47.714287 11.714286C 47.714287 11.714286 51.142857 11.714286 51.142857 15.142858L 51.142857 42.57143C 51.142857 42.57143 51.142857 46 47.714287 46L 20.285715 46C 20.285715 46 16.857143 46 16.857143 42.57143L 16.857143 15.142858C 16.857143 15.142858 16.857143 11.714286 20.285715 11.714286M 25.428572 28.857143C 25.428572 33.591011 29.266132 37.428574 34 37.428574C 38.733868 37.428574 42.57143 33.591011 42.57143 28.857143C 42.57143 24.123276 38.733868 20.285715 34 20.285715C 29.266132 20.285715 25.428572 24.123276 25.428572 28.857143M 39.142857 46L 39.142857 56.285713M 28.857143 46L 28.857143 56.285713M 23.714287 56.285713L 44.285713 56.285713"></path></g></g></g><g id="g-root-tx_mobileop_v6r2uk1muz3sw-stroke" data-item-order="0" transform="translate(33, 315)"></g><g id="g-root-tx_minimize_8yem241muz40d-stroke" data-item-order="0" transform="translate(663, 315)"></g><g id="g-root-tx_compress_147dvsc1muuwp0-stroke" data-item-order="0" transform="translate(501, 135)"></g><g id="g-root-tx_enhancem_145igj01muuxon-stroke" data-item-order="0" transform="translate(15, 363)"></g><g id="g-root-1_1cuwt2k1mv7if7-stroke" data-item-order="0" transform="translate(225, 375)"><g id="1_1cuwt2k1mv7if7-stroke" fill="none" stroke-linecap="round" stroke-linejoin="round" stroke-miterlimit="4" stroke="#ffffff" stroke-width="2"><g><path d="M 41 49L 15 49M 28 52.5C 28.276142 52.5 28.5 52.723858 28.5 53L 28.5 53C 28.5 53.276142 28.276142 53.5 28 53.5L 28 53.5C 27.723858 53.5 27.5 53.276142 27.5 53L 27.5 53C 27.5 52.723858 27.723858 52.5 28 52.5M 28 52.5L 28 52.5M 41 41L 41 53C 41 55.209141 39.209137 57 37 57L 19 57C 16.790861 57 15 55.209141 15 53L 15 15C 15 12.790861 16.790861 11 19 11L 29 11M 29 23C 29 29.627417 34.372581 35 41 35C 47.627419 35 53 29.627417 53 23C 53 16.372583 47.627419 11 41 11C 34.372581 11 29 16.372583 29 23ZM 41 29L 41 22C 41 21.447716 40.552284 21 40 21L 38 21M 39.5 16C 39.776142 16 40 16.223858 40 16.5C 40 16.776142 39.776142 17 39.5 17C 39.223858 17 39 16.776142 39 16.5C 39 16.223858 39.223858 16 39.5 16M 38 29L 44 29"></path></g></g></g><g id="g-root-hier_qu0pws1n54dmr-stroke" data-item-order="0" transform="translate(561, 375)"><g id="hier_qu0pws1n54dmr-stroke" fill="none" stroke-linecap="round" stroke-linejoin="round" stroke-miterlimit="4" stroke="#ffffff" stroke-width="2"><g><path d="M 15 14L 53 14C 53 14 57 14 57 18L 57 50C 57 50 57 54 53 54L 15 54C 15 54 11 54 11 50L 11 18C 11 18 11 14 15 14M 11 24L 57 24M 18 18.5C 18.276142 18.5 18.5 18.723858 18.5 19C 18.5 19.276142 18.276142 19.5 18 19.5C 17.723858 19.5 17.5 19.276142 17.5 19C 17.5 18.723858 17.723858 18.5 18 18.5M 24 18.5C 24.276142 18.5 24.5 18.723858 24.5 19C 24.5 19.276142 24.276142 19.5 24 19.5C 23.723858 19.5 23.5 19.276142 23.5 19C 23.5 18.723858 23.723858 18.5 24 18.5M 30 18.5C 30.276142 18.5 30.5 18.723858 30.5 19C 30.5 19.276142 30.276142 19.5 30 19.5C 29.723858 19.5 29.5 19.276142 29.5 19C 29.5 18.723858 29.723858 18.5 30 18.5M 20 42L 24 42C 24 42 25 42 25 43L 25 47C 25 47 25 48 24 48L 20 48C 20 48 19 48 19 47L 19 43C 19 43 19 42 20 42M 31 33C 31 34.656853 32.343147 36 34 36C 35.656853 36 37 34.656853 37 33C 37 31.343147 35.656853 30 34 30C 32.343147 30 31 31.343147 31 33M 32 42L 36 42C 36 42 37 42 37 43L 37 47C 37 47 37 48 36 48L 32 48C 32 48 31 48 31 47L 31 43C 31 43 31 42 32 42M 44 42L 48 42C 48 42 49 42 49 43L 49 47C 49 47 49 48 48 48L 44 48C 44 48 43 48 43 47L 43 43C 43 43 43 42 44 42M 36.82 34L 43 34C 44.104568 34 45 34.895432 45 36L 45 42M 31.18 34L 25 34C 23.895432 34 23 34.895432 23 36L 23 42M 34 36L 34 42"></path></g></g></g><g id="g-root-tx_reducere_1ly1f701muuxhn-stroke" data-item-order="0" transform="translate(657, 363)"></g><g id="g-root-fire_hu1mb01muz37o-stroke" data-item-order="0" transform="translate(369, 387)"><g id="fire_hu1mb01muz37o-stroke" fill="none" stroke-linecap="round" stroke-linejoin="round" stroke-miterlimit="4" stroke="#ffffff" stroke-width="2"><g><path d="M 30 76.003998C 30.000002 91.467979 42.53603 104.004005 58.000004 104.004005C 73.463974 104.004005 86 91.467979 86 76.004005C 86 60.540031 73.463974 48.004002 58.000004 48.004002C 42.53603 48.004002 30.000002 60.540031 30.000002 76.004005ZM 84.199997 66.108002C 90.520302 62.474232 94.362656 55.689198 94.228004 48.400002C 94.100464 41.019226 91.08474 33.982536 85.828003 28.799999C 85.511993 31.424656 84.137146 33.806183 82.022263 35.392349C 79.907372 36.978516 77.236145 37.631538 74.627998 37.199997C 67.287766 31.026621 64.993217 20.70116 69.028 12C 51.528 12 40.327999 22.324001 38.228001 37.200001C 32.872513 37.759483 27.990431 34.097923 27.028 28.799999C 14.639999 39.335999 14 60.647999 31.004 68.548004M 72 76.003998L 58 76.003998L 58 58.004002"></path></g></g></g><g id="g-root-tx_continuo_18lbyng1muuwwe-stroke" data-item-order="0" transform="translate(165, 135)"></g><g id="g-root-tx_imageopt_1qa42ss1muz56r-stroke" data-item-order="0" transform="translate(525, 87)"></g><g id="g-root-shar_1hhlj581mvd7nu-stroke" data-item-order="0" transform="translate(261, 519)"><g id="shar_1hhlj581mvd7nu-stroke" fill="none" stroke-linecap="round" stroke-linejoin="round" stroke-miterlimit="4" stroke="#ffffff" stroke-width="2"><g><path d="M 13.796 45L 29 45.001999M 15.024 21L 52.992001 21M 34 33.001999L 11.022 33M 32.756001 56.967999C 21.017073 56.319218 11.657207 46.921844 11.055376 35.180416C 10.453544 23.438988 18.803514 13.13386 30.414585 11.288221C 42.025658 9.442584 53.159439 16.650671 56.228001 28M 32.538002 11.052C 20.538 24.052 20.756001 40.968002 32.756001 56.967999M 35.459999 11.052C 39.941879 15.717068 42.917374 21.62207 44.000004 28.000002M 33 46.501999C 33 48.987282 35.014717 51.001999 37.5 51.001999C 39.985283 51.001999 42 48.987282 42 46.501999C 42 44.01672 39.985283 42.001999 37.5 42.001999C 35.014717 42.001999 33 44.01672 33 46.501999ZM 48 52.501999C 48 54.987282 50.014717 57.001999 52.5 57.001999C 54.985283 57.001999 57 54.987282 57 52.501999C 57 50.01672 54.985283 48.001999 52.5 48.001999C 50.014717 48.001999 48 50.01672 48 52.501999ZM 48 37.501999C 48 39.987282 50.014717 42.001999 52.5 42.001999C 54.985283 42.001999 57 39.987282 57 37.501999C 57 35.016716 54.985283 33.001999 52.5 33.001999C 50.014717 33.001999 48 35.016716 48 37.501999ZM 41.349998 44.192001L 48.650002 39.812M 41.676003 48.172001L 48.324001 50.832001"></path></g></g></g><g id="g-root-tx_usehighp_dj7wvg1muuxop-stroke" data-item-order="0" transform="translate(345, 711)"></g><g id="g-root-hear_zn5tt81n4xafi-stroke" data-item-order="0" transform="translate(525, 519)"><g id="hear_zn5tt81n4xafi-stroke" fill="none" stroke-linecap="round" stroke-linejoin="round" stroke-miterlimit="4" stroke="#ffffff" stroke-width="2"><g><path d="M 15.142858 11.714286L 52.857143 11.714286C 52.857143 11.714286 56.285713 11.714286 56.285713 15.142858L 56.285713 52.857143C 56.285713 52.857143 56.285713 56.285713 52.857143 56.285713L 15.142858 56.285713C 15.142858 56.285713 11.714286 56.285713 11.714286 52.857143L 11.714286 15.142858C 11.714286 15.142858 11.714286 11.714286 15.142858 11.714286M 11.714286 22L 56.285713 22M 34 35.714287C 37.428574 28.857143 44.285713 32.285713 44.285713 37.428574C 44.285713 44.285713 34 47.714287 34 47.714287C 34 47.714287 23.714287 44.285713 23.714287 37.428574C 23.714287 32.285713 30.571428 28.857143 34 35.714287Z"></path></g></g></g><g id="g-root-tx_usecdns_1cxem981muz4lj-stroke" data-item-order="0" transform="translate(81, 555)"></g><g id="g-root-tx_leverage_90a1bg1muz30q-stroke" data-item-order="0" transform="translate(621, 543)"></g><g id="g-root-tx_distribu_quof8s1muuw3s-stroke" data-item-order="0" transform="translate(45, 591)"></g><g id="g-root-1_1czvacs1n4ujgt-stroke" data-item-order="0" transform="translate(393, 584)"><g id="1_1czvacs1n4ujgt-stroke" fill="none" stroke-linecap="round" stroke-linejoin="round" stroke-miterlimit="4" stroke="#ffffff" stroke-width="2"><g><path d="M 33 45C 33 51.627419 38.372581 57 45 57C 51.627419 57 57 51.627419 57 45C 57 38.372581 51.627419 33 45 33C 38.372581 33 33 38.372581 33 45ZM 49 45L 45 45L 45 39M 21 51L 27 51M 27.002001 41L 27.002001 51M 16.5 50C 16.223858 50 16 50.223858 16 50.5C 16 50.776142 16.223858 51 16.5 51C 16.776142 51 17 50.776142 17 50.5C 17 50.223858 16.776142 50 16.5 50L 16.5 50M 11.5 50C 11.223858 50 11 50.223858 11 50.5C 11 50.776142 11.223858 51 11.5 51C 11.776142 51 12 50.776142 12 50.5C 12 50.223858 11.776142 50 11.5 50L 11.5 50M 18.5 35.5C 18.223858 35.5 18 35.723858 18 36C 18 36.276142 18.223858 36.5 18.5 36.5C 18.776142 36.5 19 36.276142 19 36C 19 35.723858 18.776142 35.5 18.5 35.5L 18.5 35.5M 23.5 35.5C 23.223858 35.5 23 35.723858 23 36C 23 36.276142 23.223858 36.5 23.5 36.5C 23.776142 36.5 24 36.276142 24 36C 24 35.723858 23.776142 35.5 23.5 35.5L 23.5 35.5M 35 31L 16 31C 13.238577 31 11 33.238579 11 36C 11 38.761425 13.238577 41 16 41L 29 41M 18.5 25.5C 18.223858 25.5 18 25.723858 18 26C 18 26.276142 18.223858 26.5 18.5 26.5C 18.776142 26.5 19 26.276142 19 26C 19 25.723858 18.776142 25.5 18.5 25.5L 18.5 25.5M 23.5 25.5C 23.223858 25.5 23 25.723858 23 26C 23 26.276142 23.223858 26.5 23.5 26.5C 23.776142 26.5 24 26.276142 24 26C 24 25.723858 23.776142 25.5 23.5 25.5L 23.5 25.5M 45 26C 45 23.238577 42.761425 21 40 21L 16 21C 13.238577 21 11 23.238577 11 26C 11 28.761423 13.238577 31 16 31L 35 31M 18.5 15.5C 18.223858 15.5 18 15.723858 18 16C 18 16.276142 18.223858 16.5 18.5 16.5C 18.776142 16.5 19 16.276142 19 16C 19 15.723858 18.776142 15.5 18.5 15.5L 18.5 15.5M 23.5 15.5C 23.223858 15.5 23 15.723858 23 16C 23 16.276142 23.223858 16.5 23.5 16.5C 23.776142 16.5 24 16.276142 24 16C 24 15.723858 23.776142 15.5 23.5 15.5L 23.5 15.5M 45 16C 45 13.238576 42.761425 11 40 11L 16 11C 13.238577 11 11 13.238577 11 16C 11 18.761425 13.238577 21 16 21L 40 21C 42.761425 21 45 18.761425 45 16Z"></path></g></g></g><g id="g-root-tx_storesta_8dvl81muuw3u-stroke" data-item-order="0" transform="translate(627, 591)"></g><g id="g-root-tx_optimize_1q8v4mk1muz30m-stroke" data-item-order="0" transform="translate(339, 663)"></g><g id="g-root-tx_websites_1urt06k1muuxol-stroke" data-item-order="0" transform="translate(237, 39)"></g><g id="g-root-tx_regularm_hvakh81muz5dt-stroke" data-item-order="0" transform="translate(195, 87)"></g></g></g></svg>