<?xml version="1.0" encoding="utf-8" standalone="yes"?>
<!DOCTYPE svg PUBLIC "-//W3C//DTD SVG 1.1//EN" "http://www.w3.org/Graphics/SVG/1.1/DTD/svg11.dtd">
<svg width="537" height="456" viewBox="0 0 537 456" style="fill:none;stroke:none;fill-rule:evenodd;clip-rule:evenodd;stroke-linecap:round;stroke-linejoin:round;stroke-miterlimit:1.5;" version="1.1" xmlns="http://www.w3.org/2000/svg" xmlns:xlink="http://www.w3.org/1999/xlink"><style id="fontImports">@import url("https://fonts.googleapis.com/css2?family=Roboto:wght@400;700&amp;display=block");</style><g id="items" style="isolation: isolate"><g id="blend" style="mix-blend-mode:normal"><g id="g-root-5.cu_sy_1hf2hrm153p3in-fill" data-item-order="-40762" transform="translate(15.52862548828125, 333.770263671875)"><g id="5.cu_sy_1hf2hrm153p3in-fill" stroke="none" fill="#f5fbe9"><g><path d="M 127.336977 20.2322C 126.543977 29.7108 98.397177 34.4164 69.909777 39.6509C 48.711877 43.546 29.357977 45.288 21.745577 47.0136C 15.502477 48.4288 9.471377 52.8286 10.036877 61.629C 10.381077 66.9868 13.703477 71.4046 21.745577 72.035C 31.437377 72.7948 48.104077 69.9303 75.229277 65.242C 123.998977 56.8124 140.902977 48.3751 140.902977 31.5084C 140.902977 20.2322 125.553977 12.281 118.676977 10C 122.844977 11.6633 127.810977 14.562 127.336977 20.2322Z"></path></g></g></g><g id="g-root-5.cu_1_sy_1cz8zn6153p4aw-fill" data-item-order="-40760" transform="translate(18.224365234375, 327.4970703125)"><g id="5.cu_1_sy_1cz8zn6153p4aw-fill" stroke="none" fill="#f5fbe9"><g><path d="M 38.0076 27.1771C 16.9757 24.0392 10.9029 18.5537 10 17.5313C 11.8743 19.5171 14.7922 20.8771 19.0033 21.2053C 28.7014 21.9611 45.379 19.1113 72.522 14.4469C 81.0593 12.9798 88.6207 11.5124 95.2864 10C 102.5445 12.184 110.341 13.5695 117.352 16.811C 120.339 18.2371 124.813 20.893 124.686 26.0148C 124.538 31.9893 114.66 35.7537 102.0009 38.9452C 101.6757 38.8312 100.3044 38.2844 99.9973 38.1713C 92.3051 35.2781 65.1564 31.2276 38.0076 27.1771Z"></path></g></g></g><g id="g-root-4.cu_sy_zoeycy153p2q1-fill" data-item-order="-40756" transform="translate(15.52862548828125, 276.74609375)"><g id="4.cu_sy_zoeycy153p2q1-fill" stroke="none" fill="#fef2e6"><g><path d="M 127.336977 20.2322C 126.543977 29.7108 98.397177 34.4164 69.909777 39.6509C 48.711877 43.546 29.357977 45.288 21.745577 47.0136C 15.502477 48.4288 9.471377 52.8286 10.036877 61.629C 10.381077 66.9868 13.703477 71.4046 21.745577 72.035C 31.437377 72.7948 48.104077 69.9303 75.229277 65.242C 123.998977 56.8124 140.902977 48.3751 140.902977 31.5084C 140.902977 20.2322 125.553977 12.281 118.676977 10C 122.844977 11.6633 127.810977 14.562 127.336977 20.2322Z"></path></g></g></g><g id="g-root-4.cu_1_sy_v8lg8i153p3ia-fill" data-item-order="-40754" transform="translate(18.224365234375, 270.4736328125)"><g id="4.cu_1_sy_v8lg8i153p3ia-fill" stroke="none" fill="#fef2e6"><g><path d="M 38.0076 27.1771C 16.9757 24.0392 10.9029 18.5537 10 17.5313C 11.8743 19.5171 14.7922 20.8771 19.0033 21.2053C 28.7014 21.9611 45.379 19.1113 72.522 14.4469C 81.0593 12.9798 88.6207 11.5124 95.2864 10C 102.5445 12.184 110.341 13.5695 117.352 16.811C 120.339 18.2371 124.813 20.893 124.686 26.0148C 124.538 31.9893 114.66 35.7537 102.0009 38.9452C 101.6757 38.8312 100.3044 38.2844 99.9973 38.1713C 92.3051 35.2781 65.1564 31.2276 38.0076 27.1771Z"></path></g></g></g><g id="g-root-3.cu_sy_hx4xv6153p537-fill" data-item-order="-40750" transform="translate(15.52862548828125, 219.720703125)"><g id="3.cu_sy_hx4xv6153p537-fill" stroke="none" fill="#ffe7e6"><g><path d="M 127.336977 20.2322C 126.543977 29.7108 98.397177 34.4164 69.909777 39.6509C 48.711877 43.546 29.357977 45.288 21.745577 47.0136C 15.502477 48.4288 9.471377 52.8286 10.036877 61.629C 10.381077 66.9868 13.703477 71.4046 21.745577 72.035C 31.437377 72.7948 48.104077 69.9303 75.229277 65.242C 123.998977 56.8124 140.902977 48.3751 140.902977 31.5084C 140.902977 20.2322 125.553977 12.281 118.676977 10C 122.844977 11.6633 127.810977 14.562 127.336977 20.2322Z"></path></g></g></g><g id="g-root-3.cu_1_sy_924epe153p2q4-fill" data-item-order="-40748" transform="translate(18.224365234375, 213.4482421875)"><g id="3.cu_1_sy_924epe153p2q4-fill" stroke="none" fill="#ffe7e6"><g><path d="M 38.0076 27.1771C 16.9757 24.0392 10.9029 18.5537 10 17.5313C 11.8743 19.5171 14.7922 20.8771 19.0033 21.2053C 28.7014 21.9611 45.379 19.1113 72.522 14.4469C 81.0593 12.9798 88.6207 11.5124 95.2864 10C 102.5445 12.184 110.341 13.5695 117.352 16.811C 120.339 18.2371 124.813 20.893 124.686 26.0148C 124.538 31.9893 114.66 35.7537 102.0009 38.9452C 101.6757 38.8312 100.3044 38.2844 99.9973 38.1713C 92.3051 35.2781 65.1564 31.2276 38.0076 27.1771Z"></path></g></g></g><g id="g-root-2.cu_sy_1urryb6153p43x-fill" data-item-order="-40744" transform="translate(15.52862548828125, 162.6962890625)"><g id="2.cu_sy_1urryb6153p43x-fill" stroke="none" fill="#e9fbf3"><g><path d="M 127.336977 20.2322C 126.543977 29.7108 98.397177 34.4164 69.909777 39.6509C 48.711877 43.546 29.357977 45.288 21.745577 47.0136C 15.502477 48.4288 9.471377 52.8286 10.036877 61.629C 10.381077 66.9868 13.703477 71.4046 21.745577 72.035C 31.437377 72.7948 48.104077 69.9303 75.229277 65.242C 123.998977 56.8124 140.902977 48.3751 140.902977 31.5084C 140.902977 20.2322 125.553977 12.281 118.676977 10C 122.844977 11.6633 127.810977 14.562 127.336977 20.2322Z"></path></g></g></g><g id="g-root-2.cu_1_sy_1qbyg6q153p4w6-fill" data-item-order="-40742" transform="translate(18.224365234375, 156.4228515625)"><g id="2.cu_1_sy_1qbyg6q153p4w6-fill" stroke="none" fill="#e9fbf3"><g><path d="M 38.0076 27.1771C 16.9757 24.0392 10.9029 18.5537 10 17.5313C 11.8743 19.5171 14.7922 20.8771 19.0033 21.2053C 28.7014 21.9611 45.379 19.1113 72.522 14.4469C 81.0593 12.9798 88.6207 11.5124 95.2864 10C 102.5445 12.184 110.341 13.5695 117.352 16.811C 120.339 18.2371 124.813 20.893 124.686 26.0148C 124.538 31.9893 114.66 35.7537 102.0009 38.9452C 101.6757 38.8312 100.3044 38.2844 99.9973 38.1713C 92.3051 35.2781 65.1564 31.2276 38.0076 27.1771Z"></path></g></g></g><g id="g-root-1.cu_sy_1d14ewi153p3bb-fill" data-item-order="-40738" transform="translate(15.52862548828125, 105.671875)"><g id="1.cu_sy_1d14ewi153p3bb-fill" stroke="none" fill="#e6efff"><g><path d="M 127.336977 20.2322C 126.543977 29.7108 98.397177 34.4164 69.909777 39.6509C 48.711877 43.546 29.357977 45.288 21.745577 47.0136C 15.502477 48.4288 9.471377 52.8286 10.036877 61.629C 10.381077 66.9868 13.703477 71.4046 21.745577 72.035C 31.437377 72.7948 48.104077 69.9303 75.229277 65.242C 123.998977 56.8124 140.902977 48.3751 140.902977 31.5084C 140.902977 20.2322 125.553977 12.281 118.676977 10C 122.844977 11.6633 127.810977 14.562 127.336977 20.2322Z"></path></g></g></g><g id="g-root-1.cu_1_sy_zpnwj6153p4w8-fill" data-item-order="-40736" transform="translate(15.5655517578125, 87)"><g id="1.cu_1_sy_zpnwj6153p4w8-fill" stroke="none" fill="#e6efff"><g><path d="M 21.6823 10.137885C 31.374 9.378085 48.067 11.794885 75.1922 16.483285C 90.003 19.043285 106.1882 22.819685 120.011 29.210385C 122.998 30.636385 127.472 33.292385 127.345 38.414185C 127.196 44.388685 117.319 48.153085 104.6598 51.344585C 104.3346 51.230585 102.9633 50.683785 102.6561 50.570685C 78.8756 41.626185 51.5585 39.244885 26.2368 35.204085C 24.7636 35.763885 21.9403 35.966885 20.221 35.763885C 15.9301 34.666285 10 31.373185 10 22.448585C 10 17.819185 13.6401 10.768285 21.6823 10.137885Z"></path></g></g></g><g id="g-root-1.Ellipse_sy_vagvhu153p2ip-fill" data-item-order="-40734" transform="translate(15.5289306640625, 87.178955078125)"><g id="1.Ellipse_sy_vagvhu153p2ip-fill" stroke="none" fill="#e6efff"><g><path d="M 10 22.846066C 9.998156 29.94019 15.498816 35.692136 22.284863 35.692136C 29.070909 35.692136 34.57157 29.94019 34.569726 22.846066C 34.57157 15.751942 29.070909 9.999996 22.284863 9.999996C 15.498816 9.999996 9.998156 15.751942 10 22.846066"></path></g></g></g><g id="g-root-tx_definepr_1hi6v76153p4p9-fill" data-item-order="0" transform="translate(231.528564453125, 171)"><g id="tx_definepr_1hi6v76153p4p9-fill" stroke="none" fill="#484848"><g><text style="font: 20px Roboto, sans-serif; white-space: pre;" font-size="20px" font-family="Roboto, sans-serif"><tspan x="12" y="34" dominant-baseline="ideographic">Define Problem to Solve</tspan></text></g></g></g><g id="g-root-11_4m5iq153kxl2-fill" data-item-order="0" transform="translate(183.52859497070312, 225)"></g><g id="g-root-tx_addresso_1utndki153p34c-fill" data-item-order="0" transform="translate(231.528564453125, 231)"><g id="tx_addresso_1utndki153p34c-fill" stroke="none" fill="#484848"><g><text style="font: 20px Roboto, sans-serif; white-space: pre;" font-size="20px" font-family="Roboto, sans-serif"><tspan x="12" y="34" dominant-baseline="ideographic">Address Obstacles</tspan></text></g></g></g><g id="g-root-1_147zhbm153rx8s-fill" data-item-order="0" transform="translate(183.52859497070312, 165)"></g><g id="g-root-tx_identify_1d2dd2q153p5hi-fill" data-item-order="0" transform="translate(231.528564453125, 111)"><g id="tx_identify_1d2dd2q153p5hi-fill" stroke="none" fill="#484848"><g><text style="font: 20px Roboto, sans-serif; white-space: pre;" font-size="20px" font-family="Roboto, sans-serif"><tspan x="12" y="34" dominant-baseline="ideographic">Identify User as Hero</tspan></text></g></g></g><g id="g-root-righ_3zl9u153yxvv-fill" data-item-order="0" transform="translate(183.52859497070312, 285)"></g><g id="g-root-tx_highligh_4o6bua153p2ir-fill" data-item-order="0" transform="translate(231.528564453125, 291)"><g id="tx_highligh_4o6bua153p2ir-fill" stroke="none" fill="#484848"><g><text style="font: 20px Roboto, sans-serif; white-space: pre;" font-size="20px" font-family="Roboto, sans-serif"><tspan x="12" y="34" dominant-baseline="ideographic">Highlight Conversion Point</tspan></text></g></g></g><g id="g-root-tx_deliverv_hz0d4i153p43m-fill" data-item-order="0" transform="translate(231.528564453125, 351)"><g id="tx_deliverv_hz0d4i153p43m-fill" stroke="none" fill="#484848"><g><text style="font: 20px Roboto, sans-serif; white-space: pre;" font-size="20px" font-family="Roboto, sans-serif"><tspan x="12" y="34" dominant-baseline="ideographic">Deliver Value</tspan></text></g></g></g><g id="g-root-box_1463vqq1544iz3-fill" data-item-order="0" transform="translate(183.52859497070312, 345)"></g><g id="g-root-tx_crafting_147ctwy153p34f-fill" data-item-order="0" transform="translate(129.528564453125, 39)"><g id="tx_crafting_147ctwy153p34f-fill" stroke="none" fill="#484848"><g><text style="font: 20px Roboto, sans-serif; white-space: pre;" font-size="20px" font-family="Roboto, sans-serif"><tspan x="14.38" y="34" dominant-baseline="ideographic">Crafting a User-Centric Website Narrative</tspan></text></g></g></g><g id="g-root-shie_vbpzzm1541rm3-fill" data-item-order="0" transform="translate(183.52859497070312, 105)"></g><g id="g-root-5.cu_sy_1hf2hrm153p3in-stroke" data-item-order="-40762" transform="translate(15.52862548828125, 333.770263671875)"><g id="5.cu_sy_1hf2hrm153p3in-stroke" fill="none" stroke-linecap="round" stroke-linejoin="round" stroke-miterlimit="4" stroke="#93c131" stroke-width="2"><g><path d="M 69.909777 39.6509C 98.397177 34.4164 126.544077 29.7108 127.336877 20.2322C 127.811177 14.562 122.845377 11.6633 118.677377 10C 125.553977 12.281 140.902677 20.2322 140.902677 31.5084C 140.902677 48.3752 123.999377 56.8124 75.229277 65.242C 48.104077 69.9303 31.437377 72.7948 21.745577 72.035C 13.703477 71.4046 10.381077 66.9868 10.036877 61.629C 9.471377 52.8286 15.502477 48.4288 21.745577 47.0136C 29.357977 45.288 48.711877 43.546 69.909777 39.6509Z"></path></g></g></g><g id="g-root-5.cu_1_sy_1cz8zn6153p4aw-stroke" data-item-order="-40760" transform="translate(18.224365234375, 327.4970703125)"><g id="5.cu_1_sy_1cz8zn6153p4aw-stroke" fill="none" stroke-linecap="round" stroke-linejoin="round" stroke-miterlimit="4" stroke="#93c131" stroke-width="2"><g><path d="M 38.0076 27.1771C 16.9757 24.0392 10.9029 18.5537 10 17.5313C 11.8743 19.5171 14.7922 20.8771 19.0033 21.2053C 28.7014 21.9611 45.379 19.1113 72.522 14.4469C 81.0593 12.9798 88.6207 11.5124 95.2864 10C 102.5445 12.184 110.3408 13.5695 117.3519 16.811C 120.3393 18.2371 124.8131 20.893 124.6859 26.0148C 124.5376 31.9893 114.6599 35.7537 102.0009 38.9452C 101.6757 38.8312 100.3044 38.2844 99.9973 38.1713C 92.3051 35.2781 65.1564 31.2276 38.0076 27.1771ZM 117.3519 16.811L 117.5995 16.9255"></path></g></g></g><g id="g-root-4.cu_sy_zoeycy153p2q1-stroke" data-item-order="-40756" transform="translate(15.52862548828125, 276.74609375)"><g id="4.cu_sy_zoeycy153p2q1-stroke" fill="none" stroke-linecap="round" stroke-linejoin="round" stroke-miterlimit="4" stroke="#dd8433" stroke-width="2"><g><path d="M 69.909777 39.6509C 98.397177 34.4164 126.544077 29.7108 127.336877 20.2322C 127.811177 14.562 122.845377 11.6633 118.677377 10C 125.553977 12.281 140.902677 20.2322 140.902677 31.5084C 140.902677 48.3752 123.999377 56.8124 75.229277 65.242C 48.104077 69.9303 31.437377 72.7948 21.745577 72.035C 13.703477 71.4046 10.381077 66.9868 10.036877 61.629C 9.471377 52.8286 15.502477 48.4288 21.745577 47.0136C 29.357977 45.288 48.711877 43.546 69.909777 39.6509Z"></path></g></g></g><g id="g-root-4.cu_1_sy_v8lg8i153p3ia-stroke" data-item-order="-40754" transform="translate(18.224365234375, 270.4736328125)"><g id="4.cu_1_sy_v8lg8i153p3ia-stroke" fill="none" stroke-linecap="round" stroke-linejoin="round" stroke-miterlimit="4" stroke="#dd8433" stroke-width="2"><g><path d="M 38.0076 27.1771C 16.9757 24.0392 10.9029 18.5537 10 17.5313C 11.8743 19.5171 14.7922 20.8771 19.0033 21.2053C 28.7014 21.9611 45.379 19.1113 72.522 14.4469C 81.0593 12.9798 88.6207 11.5124 95.2864 10C 102.5445 12.184 110.3408 13.5695 117.3519 16.811C 120.3393 18.2371 124.8131 20.893 124.6859 26.0148C 124.5376 31.9893 114.6599 35.7537 102.0009 38.9452C 101.6757 38.8312 100.3044 38.2844 99.9973 38.1713C 92.3051 35.2781 65.1564 31.2276 38.0076 27.1771ZM 117.3519 16.811L 117.5995 16.9255"></path></g></g></g><g id="g-root-3.cu_sy_hx4xv6153p537-stroke" data-item-order="-40750" transform="translate(15.52862548828125, 219.720703125)"><g id="3.cu_sy_hx4xv6153p537-stroke" fill="none" stroke-linecap="round" stroke-linejoin="round" stroke-miterlimit="4" stroke="#e15e5a" stroke-width="2"><g><path d="M 69.909777 39.6509C 98.397177 34.4164 126.544077 29.7108 127.336877 20.2322C 127.811177 14.562 122.845377 11.6633 118.677377 10C 125.553977 12.281 140.902677 20.2322 140.902677 31.5084C 140.902677 48.3752 123.999377 56.8124 75.229277 65.242C 48.104077 69.9303 31.437377 72.7948 21.745577 72.035C 13.703477 71.4046 10.381077 66.9868 10.036877 61.629C 9.471377 52.8286 15.502477 48.4288 21.745577 47.0136C 29.357977 45.288 48.711877 43.546 69.909777 39.6509Z"></path></g></g></g><g id="g-root-3.cu_1_sy_924epe153p2q4-stroke" data-item-order="-40748" transform="translate(18.224365234375, 213.4482421875)"><g id="3.cu_1_sy_924epe153p2q4-stroke" fill="none" stroke-linecap="round" stroke-linejoin="round" stroke-miterlimit="4" stroke="#e15e5a" stroke-width="2"><g><path d="M 38.0076 27.1771C 16.9757 24.0392 10.9029 18.5537 10 17.5313C 11.8743 19.5171 14.7922 20.8771 19.0033 21.2053C 28.7014 21.9611 45.379 19.1113 72.522 14.4469C 81.0593 12.9798 88.6207 11.5124 95.2864 10C 102.5445 12.184 110.3408 13.5695 117.3519 16.811C 120.3393 18.2371 124.8131 20.893 124.6859 26.0148C 124.5376 31.9893 114.6599 35.7537 102.0009 38.9452C 101.6757 38.8312 100.3044 38.2844 99.9973 38.1713C 92.3051 35.2781 65.1564 31.2276 38.0076 27.1771ZM 117.3519 16.811L 117.5995 16.9255"></path></g></g></g><g id="g-root-2.cu_sy_1urryb6153p43x-stroke" data-item-order="-40744" transform="translate(15.52862548828125, 162.6962890625)"><g id="2.cu_sy_1urryb6153p43x-stroke" fill="none" stroke-linecap="round" stroke-linejoin="round" stroke-miterlimit="4" stroke="#3bc482" stroke-width="2"><g><path d="M 69.909777 39.6509C 98.397177 34.4164 126.544077 29.7108 127.336877 20.2322C 127.811177 14.562 122.845377 11.6633 118.677377 10C 125.553977 12.281 140.902677 20.2322 140.902677 31.5084C 140.902677 48.3752 123.999377 56.8124 75.229277 65.242C 48.104077 69.9303 31.437377 72.7948 21.745577 72.035C 13.703477 71.4046 10.381077 66.9868 10.036877 61.629C 9.471377 52.8286 15.502477 48.4288 21.745577 47.0136C 29.357977 45.288 48.711877 43.546 69.909777 39.6509Z"></path></g></g></g><g id="g-root-2.cu_1_sy_1qbyg6q153p4w6-stroke" data-item-order="-40742" transform="translate(18.224365234375, 156.4228515625)"><g id="2.cu_1_sy_1qbyg6q153p4w6-stroke" fill="none" stroke-linecap="round" stroke-linejoin="round" stroke-miterlimit="4" stroke="#3bc482" stroke-width="2"><g><path d="M 38.0076 27.1771C 16.9757 24.0392 10.9029 18.5537 10 17.5313C 11.8743 19.5171 14.7922 20.8771 19.0033 21.2053C 28.7014 21.9611 45.379 19.1113 72.522 14.4469C 81.0593 12.9798 88.6207 11.5124 95.2864 10C 102.5445 12.184 110.3408 13.5695 117.3519 16.811C 120.3393 18.2371 124.8131 20.893 124.6859 26.0148C 124.5376 31.9893 114.6599 35.7537 102.0009 38.9452C 101.6757 38.8312 100.3044 38.2844 99.9973 38.1713C 92.3051 35.2781 65.1564 31.2276 38.0076 27.1771ZM 117.3519 16.811L 117.5995 16.9255"></path></g></g></g><g id="g-root-1.cu_sy_1d14ewi153p3bb-stroke" data-item-order="-40738" transform="translate(15.52862548828125, 105.671875)"><g id="1.cu_sy_1d14ewi153p3bb-stroke" fill="none" stroke-linecap="round" stroke-linejoin="round" stroke-miterlimit="4" stroke="#4682e3" stroke-width="2"><g><path d="M 69.909777 39.6509C 98.397177 34.4164 126.544077 29.7108 127.336877 20.2322C 127.811177 14.562 122.845377 11.6633 118.677377 10C 125.553977 12.281 140.902677 20.2322 140.902677 31.5084C 140.902677 48.3752 123.999377 56.8124 75.229277 65.242C 48.104077 69.9303 31.437377 72.7948 21.745577 72.035C 13.703477 71.4046 10.381077 66.9868 10.036877 61.629C 9.471377 52.8286 15.502477 48.4288 21.745577 47.0136C 29.357977 45.288 48.711877 43.546 69.909777 39.6509Z"></path></g></g></g><g id="g-root-1.cu_1_sy_zpnwj6153p4w8-stroke" data-item-order="-40736" transform="translate(15.5655517578125, 87)"><g id="1.cu_1_sy_zpnwj6153p4w8-stroke" fill="none" stroke-linecap="round" stroke-linejoin="round" stroke-miterlimit="4" stroke="#4682e3" stroke-width="2"><g><path d="M 120.0108 29.210385C 122.9982 30.636385 127.4718 33.292385 127.3446 38.414185C 127.1963 44.388685 117.3187 48.153085 104.6598 51.344585C 104.3346 51.230585 102.9633 50.683785 102.6561 50.570685C 78.8756 41.626185 51.5585 39.244885 26.2368 35.204085C 24.7636 35.763885 21.9403 35.966885 20.221 35.763885C 15.9301 34.666285 10 31.373185 10 22.448585C 10 17.819185 13.6401 10.768285 21.6823 10.137885C 31.374 9.378085 48.067 11.794885 75.1922 16.483285C 90.003 19.043185 106.1882 22.819685 120.0108 29.210385ZM 120.0108 29.210385L 120.2583 29.324785"></path></g></g></g><g id="g-root-1.Ellipse_sy_vagvhu153p2ip-stroke" data-item-order="-40734" transform="translate(15.5289306640625, 87.178955078125)"><g id="1.Ellipse_sy_vagvhu153p2ip-stroke" fill="none" stroke-linecap="round" stroke-linejoin="round" stroke-miterlimit="4" stroke="#4682e3" stroke-width="2"><g><path d="M 10 22.846066C 9.998156 29.94019 15.498816 35.692136 22.284863 35.692136C 29.070909 35.692136 34.57157 29.94019 34.569726 22.846066C 34.57157 15.751942 29.070909 9.999996 22.284863 9.999996C 15.498816 9.999996 9.998156 15.751942 10 22.846066"></path></g></g></g><g id="g-root-tx_definepr_1hi6v76153p4p9-stroke" data-item-order="0" transform="translate(231.528564453125, 171)"></g><g id="g-root-11_4m5iq153kxl2-stroke" data-item-order="0" transform="translate(183.52859497070312, 225)"><g id="11_4m5iq153kxl2-stroke" fill="none" stroke-linecap="round" stroke-linejoin="round" stroke-miterlimit="4" stroke="#e15e5a" stroke-width="2"><g><path d="M 18.196001 22.724499L 18.758501 22.724499C 22.712582 22.724499 25.917999 25.929916 25.917999 29.883999L 25.918001 35.1535C 25.917999 35.822041 25.37604 36.363998 24.707499 36.363998L 12.25 36.363998C 11.581459 36.363998 11.0395 35.822041 11.0395 35.1535L 11.0395 29.8825C 11.040328 25.930172 14.243674 22.726154 18.195999 22.724499ZM 22.5355 36.363998L 44.510498 36.363998L 44.510498 33.943001M 15.9985 30.164499C 15.9985 31.53389 17.10861 32.644001 18.478001 32.644001C 19.847389 32.644001 20.9575 31.53389 20.9575 30.164499C 20.9575 28.795109 19.847389 27.684999 18.478001 27.684999C 17.10861 27.684999 15.9985 28.795109 15.9985 30.164499M 39.2005 12.895L 31.436501 28.344999L 32.411499 32.994999L 36.874001 31.075001L 44.638 15.6295C 45.393139 14.128362 44.788818 12.299278 43.287998 11.5435L 43.287998 11.5435C 42.566849 11.180084 41.730789 11.118326 40.964062 11.371838C 40.197334 11.625349 39.562878 12.173323 39.2005 12.895ZM 12.601 40.549L 12.601 44.780502M 20.577999 40.549L 20.577999 42.499001M 28.553501 40.549L 28.553501 44.780502M 36.530502 40.549L 36.530502 42.499001M 44.5075 40.549L 44.5075 44.780502M 38.435501 14.4175L 43.871498 17.152M 31.597 28.019499L 34.314999 29.386L 37.032997 30.752501"></path></g></g></g><g id="g-root-tx_addresso_1utndki153p34c-stroke" data-item-order="0" transform="translate(231.528564453125, 231)"></g><g id="g-root-1_147zhbm153rx8s-stroke" data-item-order="0" transform="translate(183.52859497070312, 165)"><g id="1_147zhbm153rx8s-stroke" fill="none" stroke-linecap="round" stroke-linejoin="round" stroke-miterlimit="4" stroke="#3bc482" stroke-width="2"><g><path d="M 20.517143 13.06C 21.443752 13.965035 21.994738 15.186387 22.059999 16.48L 26.765715 11.8C 27.0926 11.43352 27.560345 11.223954 28.051428 11.223954C 28.542511 11.223954 29.010256 11.43352 29.337143 11.8L 33.142857 15.76C 32.602329 16.022108 32.107449 16.369394 31.677143 16.788572C 29.774672 18.880758 29.851034 22.098373 31.850615 24.097954C 33.850193 26.097536 37.06781 26.173899 39.159996 24.271427C 39.579178 23.841125 39.926464 23.346241 40.188572 22.805714L 44.200001 26.765715C 44.566479 27.0926 44.776043 27.560345 44.776043 28.051428C 44.776043 28.542511 44.566479 29.010256 44.200001 29.337143L 39.519997 33.940002C 42.343624 34.110744 44.529121 36.479725 44.472176 39.307934C 44.41523 42.136143 42.136143 44.41523 39.307934 44.472176C 36.479725 44.529121 34.110744 42.343624 33.940002 39.519997L 29.234285 44.200001C 28.907398 44.566479 28.439653 44.776043 27.948572 44.776043C 27.457489 44.776043 26.989742 44.566479 26.662857 44.200001L 22.857143 40.240002C 23.397671 39.977894 23.892553 39.630608 24.322857 39.21143C 26.389193 37.130894 26.37768 33.769192 24.297144 31.702858C 22.216608 29.636524 18.854906 29.648037 16.788572 31.728573C 16.369394 32.158875 16.022108 32.653755 15.76 33.194286L 11.8 29.234285C 11.43352 28.907398 11.223954 28.439653 11.223954 27.948572C 11.223954 27.457489 11.43352 26.989742 11.8 26.662857L 16.48 22.059999C 15.186387 21.994738 13.965035 21.443752 13.06 20.517143C 11.001376 18.457806 11.001665 15.119626 13.060646 13.060646C 15.119626 11.001665 18.457806 11.001376 20.517141 13.059999Z"></path></g></g></g><g id="g-root-tx_identify_1d2dd2q153p5hi-stroke" data-item-order="0" transform="translate(231.528564453125, 111)"></g><g id="g-root-righ_3zl9u153yxvv-stroke" data-item-order="0" transform="translate(183.52859497070312, 285)"><g id="righ_3zl9u153yxvv-stroke" fill="none" stroke-linecap="round" stroke-linejoin="round" stroke-miterlimit="4" stroke="#dd8433" stroke-width="2"><g><path d="M 31.75 27.997C 31.75 31.310709 34.436291 33.997002 37.75 33.997002C 41.063709 33.997002 43.75 31.310709 43.75 27.997C 43.75 24.683292 41.063709 21.997 37.75 21.997C 34.436291 21.997 31.75 24.683292 31.75 27.997ZM 34.75 27.997C 34.75 29.653854 36.093143 30.997 37.75 30.997C 39.406857 30.997 40.75 29.653854 40.75 27.997C 40.75 26.340145 39.406857 24.997 37.75 24.997C 36.093143 24.997 34.75 26.340145 34.75 27.997ZM 37.550499 37C 33.742916 41.674103 27.40597 43.446384 21.726025 41.425709C 16.046082 39.405029 12.25231 34.028671 12.25231 28C 12.25231 21.971327 16.046082 16.594971 21.726025 14.574293C 27.40597 12.553616 33.742916 14.325899 37.550499 19M 25.75 24.997L 28 27.997L 25.75 30.997M 18.25 27.997L 28 27.997"></path></g></g></g><g id="g-root-tx_highligh_4o6bua153p2ir-stroke" data-item-order="0" transform="translate(231.528564453125, 291)"></g><g id="g-root-tx_deliverv_hz0d4i153p43m-stroke" data-item-order="0" transform="translate(231.528564453125, 351)"></g><g id="g-root-box_1463vqq1544iz3-stroke" data-item-order="0" transform="translate(183.52859497070312, 345)"><g id="box_1463vqq1544iz3-stroke" fill="none" stroke-linecap="round" stroke-linejoin="round" stroke-miterlimit="4" stroke="#93c131" stroke-width="2"><g><path d="M 45.25 25.75C 45.25 26.578428 44.578426 27.25 43.75 27.25L 12.25 27.25C 11.421573 27.25 10.75 26.578428 10.75 25.75L 10.75 22.75C 10.75 21.921574 11.421573 21.25 12.25 21.25L 43.75 21.25C 44.578426 21.25 45.25 21.921574 45.25 22.75ZM 42.25 43.75C 42.25 44.578426 41.578426 45.25 40.75 45.25L 15.25 45.25C 14.421573 45.25 13.75 44.578426 13.75 43.75L 13.75 27.25L 42.25 27.25ZM 22.75 21.25L 22.75 45.25M 33.25 45.25L 33.25 21.25M 36.140499 15.76C 34.994499 16.907499 29.5 18.25 29.5 18.25C 29.5 18.25 30.849998 12.7555 31.99 11.6095C 32.72599 10.841783 33.819653 10.532186 34.848843 10.800213C 35.878033 11.06824 36.681759 11.871967 36.949787 12.901156C 37.217815 13.930346 36.908218 15.024012 36.140499 15.76ZM 19.859501 15.76C 21.005501 16.907499 26.5 18.25 26.5 18.25C 26.5 18.25 25.150002 12.7555 24.01 11.6095C 22.857109 10.504256 21.032146 10.523508 19.902828 11.652827C 18.773508 12.782146 18.754255 14.607108 19.859501 15.76Z"></path></g></g></g><g id="g-root-tx_crafting_147ctwy153p34f-stroke" data-item-order="0" transform="translate(129.528564453125, 39)"></g><g id="g-root-shie_vbpzzm1541rm3-stroke" data-item-order="0" transform="translate(183.52859497070312, 105)"><g id="shie_vbpzzm1541rm3-stroke" fill="none" stroke-linecap="round" stroke-linejoin="round" stroke-miterlimit="4" stroke="#4682e3" stroke-width="2"><g><path d="M 36.25 34.329998C 36.25 34.329998 33.220001 32.990501 31.101999 32.2075C 29.713001 31.690001 29.910999 29.347 30.715 28.466499C 32.124786 27.084274 32.821106 25.130817 32.6035 23.168499C 32.72377 21.886112 32.288761 20.613659 31.408607 19.673281C 30.528454 18.732901 29.287533 18.214748 28 18.25C 26.712467 18.214748 25.471546 18.732901 24.591393 19.673281C 23.711239 20.613659 23.276232 21.886112 23.396502 23.168501C 23.178892 25.130817 23.875212 27.084274 25.285 28.466499C 26.089001 29.347 26.286999 31.690001 24.898001 32.2075C 22.780001 32.990501 19.75 34.329998 19.75 34.329998M 10 10M 29.601999 44.949997L 31.192001 44.349998C 38.753544 41.469368 43.750427 34.218163 43.75 26.126501L 43.75 16.376499C 43.751175 15.182561 43.044262 14.101575 41.949997 13.624C 33.047058 9.795918 22.961941 9.795918 14.059 13.624C 12.962213 14.098412 12.251576 15.178508 12.25 16.373501L 12.25 26.123499C 12.24833 34.216259 17.245432 41.468979 24.808001 44.350002L 26.398001 44.949997C 27.429571 45.34449 28.570429 45.34449 29.601999 44.949997Z"></path></g></g></g></g></g></svg>