<?xml version="1.0" encoding="utf-8" standalone="yes"?>
<!DOCTYPE svg PUBLIC "-//W3C//DTD SVG 1.1//EN" "http://www.w3.org/Graphics/SVG/1.1/DTD/svg11.dtd">
<svg width="746" height="686" viewBox="0 0 746 686" style="fill:none;stroke:none;fill-rule:evenodd;clip-rule:evenodd;stroke-linecap:round;stroke-linejoin:round;stroke-miterlimit:1.5;" version="1.1" xmlns="http://www.w3.org/2000/svg" xmlns:xlink="http://www.w3.org/1999/xlink"><style id="fontImports">@import url("https://fonts.googleapis.com/css2?family=Roboto:wght@400;700&amp;display=block");</style><g id="items" style="isolation: isolate"><g id="blend" style="mix-blend-mode:normal"><g id="g-root-4.cu_sy_13zvu7m13zs4jw-fill" data-item-order="-186618" transform="translate(147, 147)"><g id="4.cu_sy_13zvu7m13zs4jw-fill" stroke="none" fill="url(#gradient-b8e45c-154771520)"><g><path d="M 226 10C 106.7084 10 10.003 106.7035 10 225.994L 94 225.978C 94.0048 196.027 103.9854 168.406 120.8 146.257L 146.587 172.044C 153.395 162.044 162.042 153.396 172.043 146.588L 146.256 120.801C 168.41 103.9818 196.039 94 226 94L 226 10Z"></path></g></g></g><g id="g-root-3.cu_sy_qofbua13zs64t-fill" data-item-order="-186614" transform="translate(147, 362.979736328125)"><g id="3.cu_sy_qofbua13zs64t-fill" stroke="none" fill="url(#gradient-44d0ff-453494305)"><g><path d="M 10 10.0207C 10 129.314 106.7075 226.021 226.001 226.021L 226.001 142.021L 226 142.021C 196.04 142.021 168.411 132.039 146.257 115.22L 172.043 89.4343C 162.043 82.6264 153.395 73.9789 146.587 63.9785L 120.801 89.7646C 103.9817 67.6107 94 39.9814 94 10.0207L 94 10L 10 10.0162L 10 10.0207Z"></path></g></g></g><g id="g-root-2.cu_sy_8xrsfm13zs5c6-fill" data-item-order="-186610" transform="translate(363.0006103515625, 363.00390625)"><g id="2.cu_sy_8xrsfm13zs5c6-fill" stroke="none" fill="url(#gradient-ffeb38-392015901)"><g><path d="M 10 225.997C 129.292 225.996 225.997 129.292 225.999 10L 141.999 10.0161C 141.995 39.9691 132.014 67.5911 115.198 89.7402L 89.412 63.9541C 82.604 73.9545 73.9565 82.6019 63.9561 89.4099L 89.7422 115.196C 67.5887 132.015 39.96 141.996 10.000011 141.997L 10 225.997Z"></path></g></g></g><g id="g-root-1.cu_sy_1lsesvm13zs4cv-fill" data-item-order="-186606" transform="translate(362.99951171875, 147.0009765625)"><g id="1.cu_sy_1lsesvm13zs4cv-fill" stroke="none" fill="url(#gradient-65e5a8-188701211)"><g><path d="M 226 226L 226 226.002L 142 226.018L 142 226C 142 196.04 132.019 168.411 115.2 146.257L 89.4138 172.043C 82.6059 162.043 73.9583 153.395 63.958 146.587L 89.744 120.801C 67.5902 103.9818 39.961 94.0001 10.0004 94L 10 10C 129.294 10 226 106.7065 226 226Z"></path></g></g></g><g id="g-root-0.cu_sy_141r9gy13zs3k8-fill" data-item-order="-186602" transform="translate(267, 267)"><defs><linearGradient id="gradient-b8e45c-154771520" x2="0" y2="1"><stop offset="0" stop-color="#c8ea80"></stop><stop offset="1" stop-color="#A8DD38"></stop></linearGradient><linearGradient id="gradient-44d0ff-453494305" x2="0" y2="1"><stop offset="0" stop-color="#6ddafe"></stop><stop offset="1" stop-color="#1AC6FF"></stop></linearGradient><linearGradient id="gradient-ffeb38-392015901" x2="0" y2="1"><stop offset="0" stop-color="#fff066"></stop><stop offset="1" stop-color="#FFE60A"></stop></linearGradient><linearGradient id="gradient-65e5a8-188701211" x2="0" y2="1"><stop offset="0" stop-color="#85eaba"></stop><stop offset="1" stop-color="#44E095"></stop></linearGradient><linearGradient id="gradient-999999-232777082" x2="0" y2="1"><stop offset="0" stop-color="#cccccc"></stop><stop offset="1" stop-color="#666666"></stop></linearGradient></defs><g id="0.cu_sy_141r9gy13zs3k8-fill" stroke="none" fill="url(#gradient-999999-232777082)"><g><path d="M 202 106C 202 159.019 159.019 202 106 202C 52.9807 202 10 159.019 10 106C 10 52.9807 52.9807 10 106 10C 159.019 10 202 52.9807 202 106Z"></path></g></g></g><g id="g-root-tx_ethicald_qqar3m13zs555-fill" data-item-order="0" transform="translate(243, 39)"><g id="tx_ethicald_qqar3m13zs555-fill" stroke="none" fill="#484848"><g><text style="font: bold 20px Roboto, sans-serif; white-space: pre;" font-weight="bold" font-size="20px" font-family="Roboto, sans-serif"><tspan x="17.45" y="34" dominant-baseline="ideographic">Ethical Design Strategies</tspan></text></g></g></g><g id="g-root-tx_honestin_mgpzua1400iyq-fill" data-item-order="0" transform="translate(15, 99)"><g id="tx_honestin_mgpzua1400iyq-fill" stroke="none" fill="#93c131"><g><text style="font: bold 20px Roboto, sans-serif; white-space: pre;" font-weight="bold" font-size="20px" font-family="Roboto, sans-serif"><tspan x="12.95" y="34" dominant-baseline="ideographic">Honest Incentives</tspan></text></g></g></g><g id="g-root-tx_thegentl_9mh821400lcc-fill" data-item-order="0" transform="translate(543, 99)"><g id="tx_thegentl_9mh821400lcc-fill" stroke="none" fill="#3bc482"><g><text style="font: bold 20px Roboto, sans-serif; white-space: pre;" font-weight="bold" font-size="20px" font-family="Roboto, sans-serif"><tspan x="13.17" y="34" dominant-baseline="ideographic">The Gentle Nudge</tspan></text></g></g></g><g id="g-root-tx_realvalu_meukky1400jyd-fill" data-item-order="0" transform="translate(15, 135)"><g id="tx_realvalu_meukky1400jyd-fill" stroke="none" fill="#484848"><g><text style="font: 20px Roboto, sans-serif; white-space: pre;" font-size="20px" font-family="Roboto, sans-serif"><tspan x="48.76" y="34" dominant-baseline="ideographic">Real value </tspan><tspan x="59.6" y="58" dominant-baseline="ideographic">through </tspan><tspan x="14.16" y="82" dominant-baseline="ideographic">transparent offers</tspan></text></g></g></g><g id="g-root-tx_softremi_1d30jhu1400iyo-fill" data-item-order="0" transform="translate(555, 135)"><g id="tx_softremi_1d30jhu1400iyo-fill" stroke="none" fill="#484848"><g><text style="font: 20px Roboto, sans-serif; white-space: pre;" font-size="20px" font-family="Roboto, sans-serif"><tspan x="13.9" y="34" dominant-baseline="ideographic">Soft reminders </tspan><tspan x="24.46" y="58" dominant-baseline="ideographic">encouraging </tspan><tspan x="16.26" y="82" dominant-baseline="ideographic">action without </tspan><tspan x="40.9" y="106" dominant-baseline="ideographic">pressure</tspan></text></g></g></g><g id="g-root-give_18itprm1407le0-fill" data-item-order="0" transform="translate(219, 219)"></g><g id="g-root-feat_1hjglv61400jd5-fill" data-item-order="0" transform="translate(459, 219)"></g><g id="g-root-bull_142dtpu13zqrcy-fill" data-item-order="0" transform="translate(219, 459)"></g><g id="g-root-deci_140iegi13zwbgl-fill" data-item-order="0" transform="translate(459, 459)"></g><g id="g-root-tx_simplifi_dl2zle1400jrf-fill" data-item-order="0" transform="translate(39, 507)"><g id="tx_simplifi_dl2zle1400jrf-fill" stroke="none" fill="#17b0e3"><g><text style="font: bold 20px Roboto, sans-serif; white-space: pre;" font-weight="bold" font-size="20px" font-family="Roboto, sans-serif"><tspan x="24.49" y="34" dominant-baseline="ideographic">Simplified </tspan><tspan x="17.29" y="58" dominant-baseline="ideographic">Information</tspan></text></g></g></g><g id="g-root-tx_clearcho_zrk14i1400kjl-fill" data-item-order="0" transform="translate(561, 519)"><g id="tx_clearcho_zrk14i1400kjl-fill" stroke="none" fill="#e3cd09"><g><text style="font: bold 20px Roboto, sans-serif; white-space: pre;" font-weight="bold" font-size="20px" font-family="Roboto, sans-serif"><tspan x="13.7" y="34" dominant-baseline="ideographic">Clear Choices</tspan></text></g></g></g><g id="g-root-tx_avoiding_93e27m1400lja-fill" data-item-order="0" transform="translate(15, 555)"><g id="tx_avoiding_93e27m1400lja-fill" stroke="none" fill="#484848"><g><text style="font: 20px Roboto, sans-serif; white-space: pre;" font-size="20px" font-family="Roboto, sans-serif"><tspan x="55.63" y="34" dominant-baseline="ideographic">Avoiding </tspan><tspan x="35.16" y="58" dominant-baseline="ideographic">complexity in </tspan><tspan x="16.93" y="82" dominant-baseline="ideographic">terms and details</tspan></text></g></g></g><g id="g-root-tx_visibleo_1uto2wi1400jrb-fill" data-item-order="0" transform="translate(543, 555)"><g id="tx_visibleo_1uto2wi1400jrb-fill" stroke="none" fill="#484848"><g><text style="font: 20px Roboto, sans-serif; white-space: pre;" font-size="20px" font-family="Roboto, sans-serif"><tspan x="11.95" y="34" dominant-baseline="ideographic">Visible options for </tspan><tspan x="13.82" y="58" dominant-baseline="ideographic">opting in or out of </tspan><tspan x="55.66" y="82" dominant-baseline="ideographic">services</tspan></text></g></g></g><g id="g-root-4.cu_sy_13zvu7m13zs4jw-stroke" data-item-order="-186618" transform="translate(147, 147)"><g id="4.cu_sy_13zvu7m13zs4jw-stroke" fill="none" stroke-linecap="round" stroke-linejoin="round" stroke-miterlimit="4" stroke="#484848" stroke-width="2"><g><path d="M 226 10C 106.7084 10 10.003 106.7035 10 225.9944L 94 225.9782C 94.0048 196.0265 103.9854 168.4057 120.8001 146.2574L 146.5868 172.0441C 153.3947 162.0437 162.0422 153.3961 172.0425 146.5882L 146.2557 120.8013C 168.4097 103.9818 196.0391 94 226 94L 226 10Z"></path></g></g></g><g id="g-root-3.cu_sy_qofbua13zs64t-stroke" data-item-order="-186614" transform="translate(147, 362.979736328125)"><g id="3.cu_sy_qofbua13zs64t-stroke" fill="none" stroke-linecap="round" stroke-linejoin="round" stroke-miterlimit="4" stroke="#484848" stroke-width="2"><g><path d="M 10 10.0207C 10 129.3143 106.7075 226.0207 226.001 226.0207L 226.001 142.0207L 226 142.0207C 196.0397 142.0207 168.4107 132.0393 146.257 115.2204L 172.0431 89.4343C 162.0427 82.6264 153.3951 73.9789 146.5871 63.9785L 120.801 89.7646C 103.9817 67.6107 94 39.9814 94 10.0207L 94 10L 10 10.0162L 10 10.0207Z"></path></g></g></g><g id="g-root-2.cu_sy_8xrsfm13zs5c6-stroke" data-item-order="-186610" transform="translate(363.0006103515625, 363.00390625)"><g id="2.cu_sy_8xrsfm13zs5c6-stroke" fill="none" stroke-linecap="round" stroke-linejoin="round" stroke-miterlimit="4" stroke="#484848" stroke-width="2"><g><path d="M 10 225.9966C 129.2919 225.996 225.997 129.2916 225.9989 10L 141.9989 10.0161C 141.9945 39.9691 132.0136 67.5911 115.1981 89.7402L 89.412 63.9541C 82.604 73.9545 73.9565 82.6019 63.9561 89.4099L 89.7422 115.196C 67.5887 132.0149 39.96 141.9964 10 141.9966L 10 225.9966Z"></path></g></g></g><g id="g-root-1.cu_sy_1lsesvm13zs4cv-stroke" data-item-order="-186606" transform="translate(362.99951171875, 147.0009765625)"><g id="1.cu_sy_1lsesvm13zs4cv-stroke" fill="none" stroke-linecap="round" stroke-linejoin="round" stroke-miterlimit="4" stroke="#484848" stroke-width="2"><g><path d="M 226 226L 226 226.0022L 142 226.0183L 142 226C 142 196.0398 132.0186 168.4108 115.1997 146.2571L 89.4138 172.0431C 82.6059 162.0427 73.9583 153.3951 63.958 146.5871L 89.744 120.8011C 67.5902 103.9818 39.961 94.0001 10.0004 94L 10 10C 129.2935 10 226 106.7065 226 226Z"></path></g></g></g><g id="g-root-0.cu_sy_141r9gy13zs3k8-stroke" data-item-order="-186602" transform="translate(267, 267)"><g id="0.cu_sy_141r9gy13zs3k8-stroke" fill="none" stroke-linecap="round" stroke-linejoin="round" stroke-miterlimit="4" stroke="#484848" stroke-width="2"><g><path d="M 202 106C 202 159.0193 159.0193 202 106 202C 52.9807 202 10 159.0193 10 106C 10 52.9807 52.9807 10 106 10C 159.0193 10 202 52.9807 202 106Z"></path></g></g></g><g id="g-root-tx_ethicald_qqar3m13zs555-stroke" data-item-order="0" transform="translate(243, 39)"></g><g id="g-root-tx_honestin_mgpzua1400iyq-stroke" data-item-order="0" transform="translate(15, 99)"></g><g id="g-root-tx_thegentl_9mh821400lcc-stroke" data-item-order="0" transform="translate(543, 99)"></g><g id="g-root-tx_realvalu_meukky1400jyd-stroke" data-item-order="0" transform="translate(15, 135)"></g><g id="g-root-tx_softremi_1d30jhu1400iyo-stroke" data-item-order="0" transform="translate(555, 135)"></g><g id="g-root-give_18itprm1407le0-stroke" data-item-order="0" transform="translate(219, 219)"><g id="give_18itprm1407le0-stroke" fill="none" stroke-linecap="round" stroke-linejoin="round" stroke-miterlimit="4" stroke="#484848" stroke-width="2"><g><path d="M 57 54L 55 50.132L 55 41C 55.084 37.444 50.838001 34.274002 47 31M 50.037998 45L 44.936001 39.785999C 44.316936 39.141663 43.400085 38.878433 42.533497 39.096237C 41.666908 39.314037 40.983467 39.979477 40.742607 40.839943C 40.501755 41.700409 40.740417 42.623959 41.368004 43.260002L 47 49L 47 52C 47.306267 53.789154 47.987881 55.493187 49 57M 11 14L 13 17.868L 13 27C 12.916 30.556 17.162001 33.725998 21 37M 17.962 23L 23.063999 28.214001C 23.683064 28.858339 24.599916 29.121571 25.466503 28.903767C 26.333092 28.685965 27.016537 28.020525 27.257393 27.160059C 27.498249 26.299595 27.259584 25.376043 26.632 24.740002L 21 19L 21 16C 20.693735 14.210846 20.012121 12.506812 19 11M 21 26.104L 21 49C 21 50.104568 21.895432 51 23 51L 42 51M 47 41.896L 47 19C 47 17.895432 46.104568 17 45 17L 25 17"></path></g></g></g><g id="g-root-feat_1hjglv61400jd5-stroke" data-item-order="0" transform="translate(459, 219)"><g id="feat_1hjglv61400jd5-stroke" fill="none" stroke-linecap="round" stroke-linejoin="round" stroke-miterlimit="4" stroke="#484848" stroke-width="2"><g><path d="M 41.5 33.239998C 48.222366 40.028633 53.495655 48.112072 57 57M 33.599998 26.26C 33.912674 26.259813 34.169216 26.507511 34.18 26.82M 33.040001 26.82C 33.050343 26.515108 33.295105 26.270344 33.599998 26.259998M 33.599998 27.4C 33.28751 27.389217 33.03981 27.132673 33.040001 26.82M 34.18 26.82C 34.18 27.140324 33.920326 27.4 33.599998 27.4M 33.620003 21.16C 36.738121 21.171017 39.260017 23.701862 39.260002 26.82M 28 26.82C 28 23.694069 30.534069 21.16 33.66 21.16M 33.620003 32.48C 30.509701 32.458019 27.999922 29.930378 28 26.82M 39.260002 26.82C 39.260017 29.938137 36.738121 32.468983 33.619999 32.48M 11 11C 14.08 17.780001 22.66 37 33.620003 37C 36.318069 37.000004 38.905338 35.926834 40.811283 34.017136C 42.717228 32.107437 43.785309 29.518063 43.779999 26.82C 43.779999 11.88 11.22 11.02 11 11ZM 48 29.18C 49.584446 32.486488 49.160393 36.404976 46.905262 39.295952C 44.650131 42.186928 40.952705 43.551994 37.360001 42.82M 55.599998 37.120003C 56.632748 40.635883 55.587223 44.433411 52.900448 46.925243C 50.213673 49.41708 46.348293 50.174149 42.920002 48.880001"></path></g></g></g><g id="g-root-bull_142dtpu13zqrcy-stroke" data-item-order="0" transform="translate(219, 459)"><g id="bull_142dtpu13zqrcy-stroke" fill="none" stroke-linecap="round" stroke-linejoin="round" stroke-miterlimit="4" stroke="#484848" stroke-width="2"><g><path d="M 11.714286 18.571428C 11.714286 19.518202 12.481797 20.285715 13.428572 20.285715C 14.375345 20.285715 15.142858 19.518202 15.142858 18.571428C 15.142858 17.624655 14.375345 16.857143 13.428572 16.857143C 12.481797 16.857143 11.714286 17.624655 11.714286 18.571428M 25.428572 18.571428L 56.285713 18.571428M 11.714286 34C 11.714286 34.946774 12.481797 35.714287 13.428572 35.714287C 14.375345 35.714287 15.142858 34.946774 15.142858 34C 15.142858 33.053226 14.375345 32.285713 13.428572 32.285713C 12.481797 32.285713 11.714286 33.053226 11.714286 34M 25.428572 34L 56.285713 34M 11.714286 49.428574C 11.714286 50.375343 12.481797 51.142857 13.428572 51.142857C 14.375345 51.142857 15.142858 50.375343 15.142858 49.428574C 15.142858 48.4818 14.375345 47.714287 13.428572 47.714287C 12.481797 47.714287 11.714286 48.4818 11.714286 49.428574M 25.428572 49.428574L 56.285713 49.428574"></path></g></g></g><g id="g-root-deci_140iegi13zwbgl-stroke" data-item-order="0" transform="translate(459, 459)"><g id="deci_140iegi13zwbgl-stroke" fill="none" stroke-linecap="round" stroke-linejoin="round" stroke-miterlimit="4" stroke="#484848" stroke-width="2"><g><path d="M 34 50.903999L 11 34L 34 17.096001L 57 34L 34 50.903999Z"></path></g></g></g><g id="g-root-tx_simplifi_dl2zle1400jrf-stroke" data-item-order="0" transform="translate(39, 507)"></g><g id="g-root-tx_clearcho_zrk14i1400kjl-stroke" data-item-order="0" transform="translate(561, 519)"></g><g id="g-root-tx_avoiding_93e27m1400lja-stroke" data-item-order="0" transform="translate(15, 555)"></g><g id="g-root-tx_visibleo_1uto2wi1400jrb-stroke" data-item-order="0" transform="translate(543, 555)"></g></g></g></svg>