<?xml version="1.0" encoding="utf-8" standalone="yes"?>
<!DOCTYPE svg PUBLIC "-//W3C//DTD SVG 1.1//EN" "http://www.w3.org/Graphics/SVG/1.1/DTD/svg11.dtd">
<svg width="782" height="524" viewBox="0 0 782 524" style="fill:none;stroke:none;fill-rule:evenodd;clip-rule:evenodd;stroke-linecap:round;stroke-linejoin:round;stroke-miterlimit:1.5;" version="1.1" xmlns="http://www.w3.org/2000/svg" xmlns:xlink="http://www.w3.org/1999/xlink"><style id="fontImports">@import url("https://fonts.googleapis.com/css2?family=Roboto:wght@400;700&amp;display=block");</style><g id="items" style="isolation: isolate"><g id="blend" style="mix-blend-mode:normal"><g id="g-root-ro_18k30ki15y1yby-fill" data-item-order="-19800" transform="translate(339, 102)"><g id="ro_18k30ki15y1yby-fill" stroke="none" fill="#f0f0f0"><g><path d="M 34 10L 118 10C 118 10 142 10 142 34L 142 136C 142 136 142 160 118 160L 34 160C 34 160 10 160 10 136L 10 34C 10 34 10 10 34 10"></path></g></g></g><g id="g-root-ro_mb45uq15xmh3e-fill" data-item-order="-12312" transform="translate(63, 39)"><g id="ro_mb45uq15xmh3e-fill" stroke="none" fill="#f5fbe9"><g><path d="M 22 10L 226 10C 226 10 238 10 238 22L 238 52C 238 52 238 64 226 64L 22 64C 22 64 10 64 10 52L 10 22C 10 22 10 10 22 10"></path></g></g></g><g id="g-root-ro_1d30w4i15y4phr-fill" data-item-order="-12312" transform="translate(519, 189)"><g id="ro_1d30w4i15y4phr-fill" stroke="none" fill="#fffce6"><g><path d="M 22 10L 226 10C 226 10 238 10 238 22L 238 52C 238 52 238 64 226 64L 22 64C 22 64 10 64 10 52L 10 22C 10 22 10 10 22 10"></path></g></g></g><g id="g-root-ro_v6r63m15xl24t-fill" data-item-order="-12312" transform="translate(291, 339)"><g id="ro_v6r63m15xl24t-fill" stroke="none" fill="#ffe7e6"><g><path d="M 22 10L 226 10C 226 10 238 10 238 22L 238 52C 238 52 238 64 226 64L 22 64C 22 64 10 64 10 52L 10 22C 10 22 10 10 22 10"></path></g></g></g><g id="g-root-ro_qn6tgi15xnwgd-fill" data-item-order="-10368" transform="translate(99, 189)"><g id="ro_qn6tgi15xnwgd-fill" stroke="none" fill="#fee7f5"><g><path d="M 22 10L 190 10C 190 10 202 10 202 22L 202 52C 202 52 202 64 190 64L 22 64C 22 64 10 64 10 52L 10 22C 10 22 10 10 22 10"></path></g></g></g><g id="g-root-ro_m8m6ci15y4pok-fill" data-item-order="-9720" transform="translate(519, 39)"><g id="ro_m8m6ci15y4pok-fill" stroke="none" fill="#f7e6fe"><g><path d="M 22 10L 178 10C 178 10 190 10 190 22L 190 52C 190 52 190 64 178 64L 22 64C 22 64 10 64 10 52L 10 22C 10 22 10 10 22 10"></path></g></g></g><g id="g-root-cu_8wja1u15xnvnt-fill" data-item-order="0" transform="translate(471, 66)"></g><g id="g-root-cu_4il76q15xnw8x-fill" data-item-order="0" transform="translate(315, 393)"></g><g id="g-root-tx_noconsen_v8049u15xl4az-fill" data-item-order="0" transform="translate(567, 291)"><g id="tx_noconsen_v8049u15xl4az-fill" stroke="none" fill="#484848"><g><text style="font: 20px Roboto, sans-serif; white-space: pre;" font-size="20px" font-family="Roboto, sans-serif"><tspan x="17.72" y="34" dominant-baseline="ideographic">No Consent</tspan></text></g></g></g><g id="g-root-tx_freetria_hvanqa15xl3pq-fill" data-item-order="0" transform="translate(75, 105)"><g id="tx_freetria_hvanqa15xl3pq-fill" stroke="none" fill="#484848"><g><text style="font: 20px Roboto, sans-serif; white-space: pre;" font-size="20px" font-family="Roboto, sans-serif"><tspan x="13.87" y="34" dominant-baseline="ideographic">Free Trial Charges</tspan></text></g></g></g><g id="g-root-cu_1q6zsma15xnuod-fill" data-item-order="0" transform="translate(249, 93)"></g><g id="g-root-cu_1hbcsde15xnw8w-fill" data-item-order="0" transform="translate(249, 93)"></g><g id="g-root-cu_dccs6a15xnuvi-fill" data-item-order="0" transform="translate(291, 66)"></g><g id="g-root-cu_1q88qsi15xnxms-fill" data-item-order="0" transform="translate(315, 393)"></g><g id="g-root-tx_cartaddi_143n4iq15xl3ia-fill" data-item-order="0" transform="translate(567, 255)"><g id="tx_cartaddi_143n4iq15xl3ia-fill" stroke="none" fill="#484848"><g><text style="font: 20px Roboto, sans-serif; white-space: pre;" font-size="20px" font-family="Roboto, sans-serif"><tspan x="12.38" y="34" dominant-baseline="ideographic">Cart Additions</tspan></text></g></g></g><g id="g-root-cu_18fps4i15xnx1m-fill" data-item-order="0" transform="translate(543, 93)"></g><g id="g-root-cu_140ir3615xnuo5-fill" data-item-order="0" transform="translate(543, 93)"></g><g id="g-root-cu_qp28pu15xnw96-fill" data-item-order="0" transform="translate(543, 243)"></g><g id="g-root-cu_v4vqua15xnvgv-fill" data-item-order="0" transform="translate(543, 243)"></g><g id="g-root-tx_easysign_1upxo6a15xl3i8-fill" data-item-order="0" transform="translate(567, 105)"><g id="tx_easysign_1upxo6a15xl3i8-fill" stroke="none" fill="#484848"><g><text style="font: 20px Roboto, sans-serif; white-space: pre;" font-size="20px" font-family="Roboto, sans-serif"><tspan x="15.9" y="34" dominant-baseline="ideographic">Easy Signup</tspan></text></g></g></g><g id="g-root-tx_nocancel_dfh5lu15xl4hz-fill" data-item-order="0" transform="translate(15, 141)"><g id="tx_nocancel_dfh5lu15xl4hz-fill" stroke="none" fill="#484848"><g><text style="font: 20px Roboto, sans-serif; white-space: pre;" font-size="20px" font-family="Roboto, sans-serif"><tspan x="16.45" y="34" dominant-baseline="ideographic">No Cancellation Options</tspan></text></g></g></g><g id="g-root-cu_w9sy15xnx8i-fill" data-item-order="0" transform="translate(405, 252)"></g><g id="g-root-cu_8yepb615xnvgn-fill" data-item-order="0" transform="translate(249, 243)"></g><g id="g-root-cu_de87fm15xnuoc-fill" data-item-order="0" transform="translate(249, 243)"></g><g id="g-root-tx_shipping_hx62zm15xl2q4-fill" data-item-order="0" transform="translate(111, 255)"><g id="tx_shipping_hx62zm15xl2q4-fill" stroke="none" fill="#484848"><g><text style="font: 20px Roboto, sans-serif; white-space: pre;" font-size="20px" font-family="Roboto, sans-serif"><tspan x="13.7" y="34" dominant-baseline="ideographic">Shipping Fees</tspan></text></g></g></g><g id="g-root-cu_4gprxe15xnwg4-fill" data-item-order="0" transform="translate(471, 202)"></g><g id="g-root-tx_hardunsu_1hf3mw215xl1xd-fill" data-item-order="0" transform="translate(567, 141)"><g id="tx_hardunsu_1hf3mw215xl1xd-fill" stroke="none" fill="#484848"><g><text style="font: 20px Roboto, sans-serif; white-space: pre;" font-size="20px" font-family="Roboto, sans-serif"><tspan x="14.63" y="34" dominant-baseline="ideographic">Hard Unsubscribe</tspan></text></g></g></g><g id="g-root-tx_ambiguou_6ijky15xl1xi-fill" data-item-order="0" transform="translate(339, 405)"><g id="tx_ambiguou_6ijky15xl1xi-fill" stroke="none" fill="#484848"><g><text style="font: 20px Roboto, sans-serif; white-space: pre;" font-size="20px" font-family="Roboto, sans-serif"><tspan x="16.23" y="34" dominant-baseline="ideographic">Ambiguous Settings</tspan></text></g></g></g><g id="g-root-cu_4gprxe15xnwg7-fill" data-item-order="0" transform="translate(291, 202)"></g><g id="g-root-tx_excessiv_1qbzlb615xl2j3-fill" data-item-order="0" transform="translate(339, 441)"><g id="tx_excessiv_1qbzlb615xl2j3-fill" stroke="none" fill="#484848"><g><text style="font: 20px Roboto, sans-serif; white-space: pre;" font-size="20px" font-family="Roboto, sans-serif"><tspan x="14.63" y="34" dominant-baseline="ideographic">Excessive Data Sharing</tspan></text></g></g></g><g id="g-root-tx_latedisc_dhckv615xl3id-fill" data-item-order="0" transform="translate(99, 291)"><g id="tx_latedisc_dhckv615xl3id-fill" stroke="none" fill="#484848"><g><text style="font: 20px Roboto, sans-serif; white-space: pre;" font-size="20px" font-family="Roboto, sans-serif"><tspan x="13.38" y="34" dominant-baseline="ideographic">Late Disclosure</tspan></text></g></g></g><g id="g-root-pay_13ynbtu15xnuvg-fill" data-item-order="1000000000" transform="translate(249, 201)"></g><g id="g-root-tx_hiddenco_1hjgyhu15xmhvv-fill" data-item-order="1000000000" transform="translate(111, 204)"><g id="tx_hiddenco_1hjgyhu15xmhvv-fill" stroke="none" fill="#da5da8"><g><text style="font: 20px Roboto, sans-serif; white-space: pre;" font-size="20px" font-family="Roboto, sans-serif"><tspan x="16.08" y="34" dominant-baseline="ideographic">Hidden Costs</tspan></text></g></g></g><g id="g-root-disa_1ly1faa15y4ruu-fill" data-item-order="1000000000" transform="translate(531, 201)"></g><g id="g-root-tx_sneakint_8dvoi15y4qh1-fill" data-item-order="1000000000" transform="translate(567, 204)"><g id="tx_sneakint_8dvoi15y4qh1-fill" stroke="none" fill="#e3cd09"><g><text style="font: 20px Roboto, sans-serif; white-space: pre;" font-size="20px" font-family="Roboto, sans-serif"><tspan x="14.62" y="34" dominant-baseline="ideographic">Sneak into Basket</tspan></text></g></g></g><g id="g-root-tx_darkpatt_59i8y15y1yj0-fill" data-item-order="1000000000" transform="translate(363, 153)"><g id="tx_darkpatt_59i8y15y1yj0-fill" stroke="none" fill="#484848"><g><text style="font: 20px Roboto, sans-serif; white-space: pre;" font-size="20px" font-family="Roboto, sans-serif"><tspan x="31.55" y="34" dominant-baseline="ideographic">Dark </tspan><tspan x="14.41" y="58" dominant-baseline="ideographic">Patterns</tspan></text></g></g></g><g id="g-root-tx_roachmot_13z9pr615y4qh6-fill" data-item-order="1000000000" transform="translate(567, 54)"><g id="tx_roachmot_13z9pr615y4qh6-fill" stroke="none" fill="#b65edf"><g><text style="font: 20px Roboto, sans-serif; white-space: pre;" font-size="20px" font-family="Roboto, sans-serif"><tspan x="14.05" y="34" dominant-baseline="ideographic">Roach Motel</tspan></text></g></g></g><g id="g-root-1_141rp9e15xl4hw-fill" data-item-order="1000000000" transform="translate(303, 351)"></g><g id="g-root-tx_privacyz_1hd87mq15xl2wz-fill" data-item-order="1000000000" transform="translate(339, 354)"><g id="tx_privacyz_1hd87mq15xl2wz-fill" stroke="none" fill="#e15e5a"><g><text style="font: 20px Roboto, sans-serif; white-space: pre;" font-size="20px" font-family="Roboto, sans-serif"><tspan x="15.38" y="34" dominant-baseline="ideographic">Privacy Zuckering</tspan></text></g></g></g><g id="g-root-hang_qnt7du15y4s23-fill" data-item-order="1000000000" transform="translate(531, 51)"></g><g id="g-root-2_v6r63m15xmgap-fill" data-item-order="1000000000" transform="translate(249, 51)"></g><g id="g-root-tx_forcedco_18hl7du15xmhvk-fill" data-item-order="1000000000" transform="translate(75, 54)"><g id="tx_forcedco_18hl7du15xmhvk-fill" stroke="none" fill="#93c131"><g><text style="font: 20px Roboto, sans-serif; white-space: pre;" font-size="20px" font-family="Roboto, sans-serif"><tspan x="16.05" y="34" dominant-baseline="ideographic">Forced Continuity</tspan></text></g></g></g><g id="g-root-ro_18k30ki15y1yby-stroke" data-item-order="-19800" transform="translate(339, 102)"><g id="ro_18k30ki15y1yby-stroke" fill="none" stroke-linecap="round" stroke-linejoin="round" stroke-miterlimit="4" stroke="#484848" stroke-width="2"><g><path d="M 34 10L 118 10C 118 10 142 10 142 34L 142 136C 142 136 142 160 118 160L 34 160C 34 160 10 160 10 136L 10 34C 10 34 10 10 34 10"></path></g></g></g><g id="g-root-ro_mb45uq15xmh3e-stroke" data-item-order="-12312" transform="translate(63, 39)"><g id="ro_mb45uq15xmh3e-stroke" fill="none" stroke-linecap="round" stroke-linejoin="round" stroke-miterlimit="4" stroke="#93c131" stroke-width="2"><g><path d="M 22 10L 226 10C 226 10 238 10 238 22L 238 52C 238 52 238 64 226 64L 22 64C 22 64 10 64 10 52L 10 22C 10 22 10 10 22 10"></path></g></g></g><g id="g-root-ro_1d30w4i15y4phr-stroke" data-item-order="-12312" transform="translate(519, 189)"><g id="ro_1d30w4i15y4phr-stroke" fill="none" stroke-linecap="round" stroke-linejoin="round" stroke-miterlimit="4" stroke="#e3cd09" stroke-width="2"><g><path d="M 22 10L 226 10C 226 10 238 10 238 22L 238 52C 238 52 238 64 226 64L 22 64C 22 64 10 64 10 52L 10 22C 10 22 10 10 22 10"></path></g></g></g><g id="g-root-ro_v6r63m15xl24t-stroke" data-item-order="-12312" transform="translate(291, 339)"><g id="ro_v6r63m15xl24t-stroke" fill="none" stroke-linecap="round" stroke-linejoin="round" stroke-miterlimit="4" stroke="#e15e5a" stroke-width="2"><g><path d="M 22 10L 226 10C 226 10 238 10 238 22L 238 52C 238 52 238 64 226 64L 22 64C 22 64 10 64 10 52L 10 22C 10 22 10 10 22 10"></path></g></g></g><g id="g-root-ro_qn6tgi15xnwgd-stroke" data-item-order="-10368" transform="translate(99, 189)"><g id="ro_qn6tgi15xnwgd-stroke" fill="none" stroke-linecap="round" stroke-linejoin="round" stroke-miterlimit="4" stroke="#da5da8" stroke-width="2"><g><path d="M 22 10L 190 10C 190 10 202 10 202 22L 202 52C 202 52 202 64 190 64L 22 64C 22 64 10 64 10 52L 10 22C 10 22 10 10 22 10"></path></g></g></g><g id="g-root-ro_m8m6ci15y4pok-stroke" data-item-order="-9720" transform="translate(519, 39)"><g id="ro_m8m6ci15y4pok-stroke" fill="none" stroke-linecap="round" stroke-linejoin="round" stroke-miterlimit="4" stroke="#b65edf" stroke-width="2"><g><path d="M 22 10L 178 10C 178 10 190 10 190 22L 190 52C 190 52 190 64 178 64L 22 64C 22 64 10 64 10 52L 10 22C 10 22 10 10 22 10"></path></g></g></g><g id="g-root-cu_8wja1u15xnvnt-stroke" data-item-order="0" transform="translate(471, 66)"><g id="cu_8wja1u15xnvnt-stroke" fill="none" stroke-linecap="round" stroke-linejoin="round" stroke-miterlimit="4" stroke="#888888" stroke-width="2" stroke-dasharray="5.0, 7.0"><g><path d="M 10 96L 13 96L 13.1 96C 24.642748 96.000003 33.999998 86.642755 33.999998 75.100003L 34 75L 34 30.9C 33.999999 19.357249 43.357248 10.000001 54.899999 10.000002L 55 10L 58 10"></path></g></g></g><g id="g-root-cu_4il76q15xnw8x-stroke" data-item-order="0" transform="translate(315, 393)"><g id="cu_4il76q15xnw8x-stroke" fill="none" stroke-linecap="round" stroke-linejoin="round" stroke-miterlimit="4" stroke="#888888" stroke-width="2" stroke-dasharray="5.0, 7.0"><g><path d="M 10 10L 10 22L 10 34L 19 34L 28 34"></path></g></g></g><g id="g-root-tx_noconsen_v8049u15xl4az-stroke" data-item-order="0" transform="translate(567, 291)"></g><g id="g-root-tx_freetria_hvanqa15xl3pq-stroke" data-item-order="0" transform="translate(75, 105)"></g><g id="g-root-cu_1q6zsma15xnuod-stroke" data-item-order="0" transform="translate(249, 93)"><g id="cu_1q6zsma15xnuod-stroke" fill="none" stroke-linecap="round" stroke-linejoin="round" stroke-miterlimit="4" stroke="#888888" stroke-width="2" stroke-dasharray="5.0, 7.0"><g><path d="M 28 10L 28 22L 28 34L 19 34L 10 34"></path></g></g></g><g id="g-root-cu_1hbcsde15xnw8w-stroke" data-item-order="0" transform="translate(249, 93)"><g id="cu_1hbcsde15xnw8w-stroke" fill="none" stroke-linecap="round" stroke-linejoin="round" stroke-miterlimit="4" stroke="#888888" stroke-width="2" stroke-dasharray="5.0, 7.0"><g><path d="M 28 10L 28 17.5L 28 58C 27.999999 64.627415 22.627416 69.999998 16 69.999998L 15.9 70L 10 70"></path></g></g></g><g id="g-root-cu_dccs6a15xnuvi-stroke" data-item-order="0" transform="translate(291, 66)"><g id="cu_dccs6a15xnuvi-stroke" fill="none" stroke-linecap="round" stroke-linejoin="round" stroke-miterlimit="4" stroke="#888888" stroke-width="2" stroke-dasharray="5.0, 7.0"><g><path d="M 58 96L 55 96L 54.9 96C 43.357245 95.999996 33.999997 86.642747 33.999997 75.099997L 34 75L 34 30.9C 33.999998 19.357248 24.64275 10 13.1 10L 13 10L 10 10"></path></g></g></g><g id="g-root-cu_1q88qsi15xnxms-stroke" data-item-order="0" transform="translate(315, 393)"><g id="cu_1q88qsi15xnxms-stroke" fill="none" stroke-linecap="round" stroke-linejoin="round" stroke-miterlimit="4" stroke="#888888" stroke-width="2" stroke-dasharray="5.0, 7.0"><g><path d="M 10 10L 10 17.5L 10 58C 10.000002 64.627417 15.372585 70 22.000002 69.999999L 22.1 70L 28 70"></path></g></g></g><g id="g-root-tx_cartaddi_143n4iq15xl3ia-stroke" data-item-order="0" transform="translate(567, 255)"></g><g id="g-root-cu_18fps4i15xnx1m-stroke" data-item-order="0" transform="translate(543, 93)"><g id="cu_18fps4i15xnx1m-stroke" fill="none" stroke-linecap="round" stroke-linejoin="round" stroke-miterlimit="4" stroke="#888888" stroke-width="2" stroke-dasharray="5.0, 7.0"><g><path d="M 10 10L 10 22L 10 34L 19 34L 28 34"></path></g></g></g><g id="g-root-cu_140ir3615xnuo5-stroke" data-item-order="0" transform="translate(543, 93)"><g id="cu_140ir3615xnuo5-stroke" fill="none" stroke-linecap="round" stroke-linejoin="round" stroke-miterlimit="4" stroke="#888888" stroke-width="2" stroke-dasharray="5.0, 7.0"><g><path d="M 10 10L 10 17.5L 10 58C 10.000002 64.627417 15.372585 70 22.000002 69.999999L 22.1 70L 28 70"></path></g></g></g><g id="g-root-cu_qp28pu15xnw96-stroke" data-item-order="0" transform="translate(543, 243)"><g id="cu_qp28pu15xnw96-stroke" fill="none" stroke-linecap="round" stroke-linejoin="round" stroke-miterlimit="4" stroke="#888888" stroke-width="2" stroke-dasharray="5.0, 7.0"><g><path d="M 10 10L 10 17.5L 10 58C 10.000002 64.627417 15.372585 70 22.000002 69.999999L 22.1 70L 28 70"></path></g></g></g><g id="g-root-cu_v4vqua15xnvgv-stroke" data-item-order="0" transform="translate(543, 243)"><g id="cu_v4vqua15xnvgv-stroke" fill="none" stroke-linecap="round" stroke-linejoin="round" stroke-miterlimit="4" stroke="#888888" stroke-width="2" stroke-dasharray="5.0, 7.0"><g><path d="M 10 10L 10 22L 10 34L 19 34L 28 34"></path></g></g></g><g id="g-root-tx_easysign_1upxo6a15xl3i8-stroke" data-item-order="0" transform="translate(567, 105)"></g><g id="g-root-tx_nocancel_dfh5lu15xl4hz-stroke" data-item-order="0" transform="translate(15, 141)"></g><g id="g-root-cu_w9sy15xnx8i-stroke" data-item-order="0" transform="translate(405, 252)"><g id="cu_w9sy15xnx8i-stroke" fill="none" stroke-linecap="round" stroke-linejoin="round" stroke-miterlimit="4" stroke="#888888" stroke-width="2" stroke-dasharray="5.0, 7.0"><g><path d="M 10 10L 10 53.5L 10 97"></path></g></g></g><g id="g-root-cu_8yepb615xnvgn-stroke" data-item-order="0" transform="translate(249, 243)"><g id="cu_8yepb615xnvgn-stroke" fill="none" stroke-linecap="round" stroke-linejoin="round" stroke-miterlimit="4" stroke="#888888" stroke-width="2" stroke-dasharray="5.0, 7.0"><g><path d="M 28 10L 28 17.5L 28 58C 27.999999 64.627415 22.627416 69.999998 16 69.999998L 15.9 70L 10 70"></path></g></g></g><g id="g-root-cu_de87fm15xnuoc-stroke" data-item-order="0" transform="translate(249, 243)"><g id="cu_de87fm15xnuoc-stroke" fill="none" stroke-linecap="round" stroke-linejoin="round" stroke-miterlimit="4" stroke="#888888" stroke-width="2" stroke-dasharray="5.0, 7.0"><g><path d="M 28 10L 28 22L 28 34L 19 34L 10 34"></path></g></g></g><g id="g-root-tx_shipping_hx62zm15xl2q4-stroke" data-item-order="0" transform="translate(111, 255)"></g><g id="g-root-cu_4gprxe15xnwg4-stroke" data-item-order="0" transform="translate(471, 202)"><g id="cu_4gprxe15xnwg4-stroke" fill="none" stroke-linecap="round" stroke-linejoin="round" stroke-miterlimit="4" stroke="#888888" stroke-width="2" stroke-dasharray="5.0, 7.0"><g><path d="M 10 10L 13 10L 13.1 10C 16.47715 10.00393 20.199416 10.613028 24.1 11.8C 26.434787 12.503612 29.936878 14.343094 34 16.999999C 38.063122 19.656905 41.565214 21.496387 43.900001 22.199999C 47.800584 23.386973 51.52285 23.996071 54.900001 24.000001L 55 24L 58 24"></path></g></g></g><g id="g-root-tx_hardunsu_1hf3mw215xl1xd-stroke" data-item-order="0" transform="translate(567, 141)"></g><g id="g-root-tx_ambiguou_6ijky15xl1xi-stroke" data-item-order="0" transform="translate(339, 405)"></g><g id="g-root-cu_4gprxe15xnwg7-stroke" data-item-order="0" transform="translate(291, 202)"><g id="cu_4gprxe15xnwg7-stroke" fill="none" stroke-linecap="round" stroke-linejoin="round" stroke-miterlimit="4" stroke="#888888" stroke-width="2" stroke-dasharray="5.0, 7.0"><g><path d="M 58 10L 55 10L 54.9 10C 51.522851 10.003929 47.800585 10.613027 43.900001 11.799999C 41.565213 12.503613 38.063122 14.343095 34 17.000001C 29.936878 19.656907 26.434787 21.496389 24.1 22.200001C 20.199417 23.386972 16.477151 23.99607 13.100001 24L 13 24L 10 24"></path></g></g></g><g id="g-root-tx_excessiv_1qbzlb615xl2j3-stroke" data-item-order="0" transform="translate(339, 441)"></g><g id="g-root-tx_latedisc_dhckv615xl3id-stroke" data-item-order="0" transform="translate(99, 291)"></g><g id="g-root-pay_13ynbtu15xnuvg-stroke" data-item-order="1000000000" transform="translate(249, 201)"><g id="pay_13ynbtu15xnuvg-stroke" fill="none" stroke-linecap="round" stroke-linejoin="round" stroke-miterlimit="4" stroke="#da5da8" stroke-width="2"><g><path d="M 29.375 13.75C 29.375 15.47589 30.774109 16.875 32.5 16.875C 34.225891 16.875 35.625 15.47589 35.625 13.75C 35.625 12.02411 34.225891 10.625 32.5 10.625C 30.774109 10.625 29.375 12.02411 29.375 13.75M 13.125 13.75C 13.125 15.47589 14.52411 16.875 16.25 16.875C 17.975889 16.875 19.375 15.47589 19.375 13.75C 19.375 12.02411 17.975889 10.625 16.25 10.625C 14.52411 10.625 13.125 12.02411 13.125 13.75M 33.125 37.5L 33.125 31.25M 22.5 27.5625C 22.509371 28.052048 22.738983 28.511274 23.125 28.8125C 23.520411 29.122992 24.035088 29.237875 24.525 29.125C 26.739735 28.667885 28.568317 27.112646 29.375002 25.000002L 29.375 37.5C 29.375002 38.535534 30.214466 39.375 31.25 39.375C 32.285534 39.375 33.125 38.535534 33.125 37.5C 33.125 38.535534 33.964466 39.375 35 39.375C 36.035534 39.375 36.875 38.535534 36.875 37.5L 36.875 30.625L 38.125 30.625C 38.815353 30.625 39.375 30.065355 39.375 29.375L 39.375 26.25C 39.446159 24.459879 38.787922 22.717495 37.550907 21.421577C 36.313896 20.12566 34.603992 19.387133 32.8125 19.375L 32.8125 19.375C 30.242554 19.349045 27.856394 20.704382 26.5625 22.924999C 25.975 24.174999 26.362499 25 23.5375 26.0375C 22.913307 26.287031 22.502897 26.890285 22.5 27.5625ZM 36.875 30.625L 36.875 25M 10.625 26.875L 20 26.875M 10.625 26.875L 10.625 28.75C 10.625 29.095177 10.904822 29.375 11.25 29.375L 19.375 29.375M 10.6625 24.375C 10.959207 21.774948 13.009786 19.722961 15.609634 19.424473C 18.209482 19.125982 20.671753 20.659845 21.549999 23.125M 13.125 29.375L 13.125 39.375M 19.375 38.125L 19.375 39.375M 19.375 31.875L 19.375 33.125M 16.875 38.125L 20.625 38.125C 21.315357 38.125 21.875 37.565353 21.875 36.875C 21.875 36.184647 21.315357 35.625 20.625 35.625L 18.125 35.625C 17.434645 35.625 16.875 35.065353 16.875 34.375C 16.875 33.684647 17.434645 33.125 18.125 33.125L 21.875 33.125"></path></g></g></g><g id="g-root-tx_hiddenco_1hjgyhu15xmhvv-stroke" data-item-order="1000000000" transform="translate(111, 204)"></g><g id="g-root-disa_1ly1faa15y4ruu-stroke" data-item-order="1000000000" transform="translate(531, 201)"><g id="disa_1ly1faa15y4ruu-stroke" fill="none" stroke-linecap="round" stroke-linejoin="round" stroke-miterlimit="4" stroke="#e3cd09" stroke-width="2"><g><path d="M 26.858751 33.125C 26.858751 36.576778 29.656971 39.375 33.108749 39.375C 36.560532 39.375 39.358749 36.576778 39.358749 33.125C 39.358749 29.673222 36.560532 26.875 33.108749 26.875C 29.656971 26.875 26.858751 29.673222 26.858751 33.125M 37.526249 28.706249L 28.688751 37.544998M 14.4075 16.875L 17.665001 10.625M 31.776249 16.875L 28.52 10.625M 33.276249 24.102499L 33.947502 20.625L 12.23625 20.625L 14.08375 30.195C 14.303228 31.193321 15.198077 31.897051 16.220001 31.875L 22.483751 31.875M 11.89125 16.875L 34.358753 16.875C 34.358753 16.875 35.608753 16.875 35.608753 18.125L 35.608753 19.375C 35.608753 19.375 35.608753 20.625 34.358753 20.625L 11.89125 20.625C 11.89125 20.625 10.64125 20.625 10.64125 19.375L 10.64125 18.125C 10.64125 18.125 10.64125 16.875 11.89125 16.875M 23.108751 23.75L 23.108751 27.54875M 18.223749 23.75L 18.766251 27.54875"></path></g></g></g><g id="g-root-tx_sneakint_8dvoi15y4qh1-stroke" data-item-order="1000000000" transform="translate(567, 204)"></g><g id="g-root-tx_darkpatt_59i8y15y1yj0-stroke" data-item-order="1000000000" transform="translate(363, 153)"></g><g id="g-root-tx_roachmot_13z9pr615y4qh6-stroke" data-item-order="1000000000" transform="translate(567, 54)"></g><g id="g-root-1_141rp9e15xl4hw-stroke" data-item-order="1000000000" transform="translate(303, 351)"><g id="1_141rp9e15xl4hw-stroke" fill="none" stroke-linecap="round" stroke-linejoin="round" stroke-miterlimit="4" stroke="#e15e5a" stroke-width="2"><g><path d="M 25.83625 10.625C 26.818611 11.74777 27.002041 13.361916 26.296658 14.676479C 25.591274 15.991043 24.144852 16.730623 22.666164 16.532814C 21.187477 16.335005 19.986309 15.241247 19.651251 13.7875M 32.712502 24.598749C 33.617069 24.937479 34.636662 24.639059 35.215847 23.866058C 35.795029 23.093058 35.795029 22.030693 35.215847 21.25769C 34.636662 20.484692 33.617069 20.186272 32.712502 20.525C 31.751133 15.997424 27.753517 12.759519 23.125 12.759519C 18.496483 12.759519 14.498866 15.997424 13.5375 20.525C 12.63293 20.186272 11.613338 20.484692 11.034153 21.25769C 10.454968 22.030693 10.454968 23.093058 11.034153 23.866058C 11.613338 24.639059 12.63293 24.937479 13.5375 24.598749C 14.499928 29.125605 18.496967 32.362843 23.125 32.36375M 25.3575 25.25C 24.137045 26.470778 22.157955 26.470778 20.9375 25.25M 18.75 21.495001C 18.75 21.840178 19.029821 22.120001 19.375 22.120001C 19.720179 22.120001 20 21.840178 20 21.495001C 20 21.149822 19.720179 20.870001 19.375 20.870001C 19.029821 20.870001 18.75 21.149822 18.75 21.495001M 26.25 21.495001C 26.25 21.840178 26.529823 22.120001 26.875 22.120001C 27.220177 22.120001 27.5 21.840178 27.5 21.495001C 27.5 21.149822 27.220177 20.870001 26.875 20.870001C 26.529823 20.870001 26.25 21.149822 26.25 21.495001M 33.125 30L 33.125 34.375M 35.625 32.0825L 30.625 32.0825M 33.682499 39.27L 34.258751 39.05125C 37 38.008751 39.375 35.375 39.375 32.44875L 39.375 28.911249C 39.376427 28.477247 39.119373 28.084051 38.721252 27.911251C 36.92141 27.238331 35.017704 26.885511 33.096252 26.868752C 31.191389 26.884811 29.304394 27.237751 27.522499 27.911251C 27.12438 28.084051 26.867329 28.477247 26.868752 28.911251L 26.86875 32.445C 27.089828 35.460751 29.083286 38.056129 31.940001 39.047501L 32.516251 39.266251C 32.891144 39.411766 33.306679 39.413101 33.682499 39.27Z"></path></g></g></g><g id="g-root-tx_privacyz_1hd87mq15xl2wz-stroke" data-item-order="1000000000" transform="translate(339, 354)"></g><g id="g-root-hang_qnt7du15y4s23-stroke" data-item-order="1000000000" transform="translate(531, 51)"><g id="hang_qnt7du15y4s23-stroke" fill="none" stroke-linecap="round" stroke-linejoin="round" stroke-miterlimit="4" stroke="#b65edf" stroke-width="2"><g><path d="M 29.285713 16.428572C 29.285713 14.061637 27.366934 12.142857 25 12.142857C 22.633064 12.142857 20.714285 14.061637 20.714285 16.428572C 20.714285 18.795506 22.633064 20.714285 25 20.714285L 25 22.857143M 25 22.857143L 12.142857 32.714287C 11.450739 33.26268 11.054438 34.102837 11.071428 34.985714C 11.071428 36.57156 12.357011 37.857143 13.942857 37.857143L 36.05714 37.857143C 37.64299 37.857143 38.92857 36.57156 38.92857 34.985714C 38.945564 34.102837 38.549259 33.26268 37.857143 32.714287Z"></path></g></g></g><g id="g-root-2_v6r63m15xmgap-stroke" data-item-order="1000000000" transform="translate(249, 51)"><g id="2_v6r63m15xmgap-stroke" fill="none" stroke-linecap="round" stroke-linejoin="round" stroke-miterlimit="4" stroke="#93c131" stroke-width="2"><g><path d="M 21.785713 33.571426L 16.428572 20.328571L 11.071428 33.571426C 11.071428 36.530098 13.469903 38.92857 16.428572 38.92857C 19.387239 38.92857 21.785713 36.530098 21.785713 33.571426ZM 38.92857 25L 33.571426 12.528571L 28.214285 25C 28.214285 27.958668 30.612761 30.357141 33.571426 30.357141C 36.530098 30.357141 38.92857 27.958668 38.92857 25ZM 13.214286 21.785713L 36.785713 11.071428M 25 16.428572L 25 11.071428"></path></g></g></g><g id="g-root-tx_forcedco_18hl7du15xmhvk-stroke" data-item-order="1000000000" transform="translate(75, 54)"></g></g></g></svg>