<?xml version="1.0" encoding="utf-8" standalone="yes"?>
<!DOCTYPE svg PUBLIC "-//W3C//DTD SVG 1.1//EN" "http://www.w3.org/Graphics/SVG/1.1/DTD/svg11.dtd">
<svg width="776" height="536" viewBox="0 0 776 536" style="fill:none;stroke:none;fill-rule:evenodd;clip-rule:evenodd;stroke-linecap:round;stroke-linejoin:round;stroke-miterlimit:1.5;" version="1.1" xmlns="http://www.w3.org/2000/svg" xmlns:xlink="http://www.w3.org/1999/xlink"><style id="fontImports">@import url("https://fonts.googleapis.com/css2?family=Roboto:wght@400;700&amp;display=block");</style><g id="items" style="isolation: isolate"><g id="blend" style="mix-blend-mode:normal"><g id="g-root-4.line_sy_vbqpci17w0gzx-fill" data-item-order="-58275" transform="translate(297, 218.99993896484375)"></g><g id="g-root-3.line_sy_qvx78217w0hs6-fill" data-item-order="-58269" transform="translate(297, 218.99993896484375)"></g><g id="g-root-1.line_sy_4pg5oy17w0gzz-fill" data-item-order="-58263" transform="translate(297, 56.99993896484375)"></g><g id="g-root-2.line_sy_9mnki17w0hs8-fill" data-item-order="-58257" transform="translate(297.00244140625, 164.99993896484375)"></g><g id="g-root-0.cu_sy_1uux7f617w0idd-fill" data-item-order="-58253" transform="translate(225, 218.99993896484375)"></g><g id="g-root-circ_v6r2z617vl24p-fill" data-item-order="0" transform="translate(417, 39)"></g><g id="g-root-tx_aestheti_zlxxoy17w1y4p-fill" data-item-order="0" transform="translate(465, 45)"><g id="tx_aestheti_zlxxoy17w1y4p-fill" stroke="none" fill="#e15e5a"><g><text style="font: bold 20px Roboto, sans-serif; white-space: pre;" font-weight="bold" font-size="20px" font-family="Roboto, sans-serif"><tspan x="12" y="34" dominant-baseline="ideographic">Aesthetic Over Function</tspan></text></g></g></g><g id="g-root-tx_prioriti_1lt1gb617w1vr4-fill" data-item-order="0" transform="translate(465, 81)"><g id="tx_prioriti_1lt1gb617w1vr4-fill" stroke="none" fill="#484848"><g><text style="font: 20px Roboto, sans-serif; white-space: pre;" font-size="20px" font-family="Roboto, sans-serif"><tspan x="12" y="34" dominant-baseline="ideographic">Prioritizing visual appeal over </tspan><tspan x="12" y="58" dominant-baseline="ideographic">usability can lead to visitor </tspan><tspan x="12" y="82" dominant-baseline="ideographic">disengagement.</tspan></text></g></g></g><g id="g-root-chec_1ha3r2q17via6l-fill" data-item-order="0" transform="translate(81, 141)"></g><g id="g-root-hand_mahln617vgsnd-fill" data-item-order="0" transform="translate(417, 147)"></g><g id="g-root-tx_meektwea_1uo1zgy17w1xcf-fill" data-item-order="0" transform="translate(465, 153)"><g id="tx_meektwea_1uo1zgy17w1xcf-fill" stroke="none" fill="#dd8433"><g><text style="font: bold 20px Roboto, sans-serif; white-space: pre;" font-weight="bold" font-size="20px" font-family="Roboto, sans-serif"><tspan x="12" y="34" dominant-baseline="ideographic">Meek Tweaking</tspan></text></g></g></g><g id="g-root-tx_smallsup_8yefv617w1vym-fill" data-item-order="0" transform="translate(465, 189)"><g id="tx_smallsup_8yefv617w1vym-fill" stroke="none" fill="#484848"><g><text style="font: 20px Roboto, sans-serif; white-space: pre;" font-size="20px" font-family="Roboto, sans-serif"><tspan x="12" y="34" dominant-baseline="ideographic">Small, superficial changes </tspan><tspan x="12" y="58" dominant-baseline="ideographic">may not drive significant </tspan><tspan x="12" y="82" dominant-baseline="ideographic">improvements.</tspan></text></g></g></g><g id="g-root-tx_howtocre_mb3weq17w1wju-fill" data-item-order="0" transform="translate(32.999969482421875, 213)"><g id="tx_howtocre_mb3weq17w1wju-fill" stroke="none" fill="#484848"><g><text style="font: bold 20px Roboto, sans-serif; white-space: pre;" font-weight="bold" font-size="20px" font-family="Roboto, sans-serif"><tspan x="17.52" y="34" dominant-baseline="ideographic">Avoid spending </tspan><tspan x="14.95" y="58" dominant-baseline="ideographic">energy on these</tspan></text></g></g></g><g id="g-root-a_40gya17vz37y-fill" data-item-order="0" transform="translate(417, 255)"></g><g id="g-root-tx_lackofte_m98h5e17w1xjh-fill" data-item-order="0" transform="translate(465, 261)"><g id="tx_lackofte_m98h5e17w1xjh-fill" stroke="none" fill="#b65edf"><g><text style="font: bold 20px Roboto, sans-serif; white-space: pre;" font-weight="bold" font-size="20px" font-family="Roboto, sans-serif"><tspan x="12" y="34" dominant-baseline="ideographic">Lack of Testing</tspan></text></g></g></g><g id="g-root-tx_decision_18gbzrm17w1v5w-fill" data-item-order="0" transform="translate(465, 297)"><g id="tx_decision_18gbzrm17w1v5w-fill" stroke="none" fill="#484848"><g><text style="font: 20px Roboto, sans-serif; white-space: pre;" font-size="20px" font-family="Roboto, sans-serif"><tspan x="12" y="34" dominant-baseline="ideographic">Decisions without </tspan><tspan x="12" y="58" dominant-baseline="ideographic">experimentation can result in </tspan><tspan x="12" y="82" dominant-baseline="ideographic">missed opportunities.</tspan></text></g></g></g><g id="g-root-clos_940ssy17vnua5-fill" data-item-order="0" transform="translate(417, 363)"></g><g id="g-root-tx_ignoring_1lr611u17w1wqr-fill" data-item-order="0" transform="translate(465, 369)"><g id="tx_ignoring_1lr611u17w1wqr-fill" stroke="none" fill="#4682e3"><g><text style="font: bold 20px Roboto, sans-serif; white-space: pre;" font-weight="bold" font-size="20px" font-family="Roboto, sans-serif"><tspan x="12" y="34" dominant-baseline="ideographic">Ignoring Customer Insights</tspan></text></g></g></g><g id="g-root-tx_failingt_1lza76a17w0j62-fill" data-item-order="0" transform="translate(465, 405)"><g id="tx_failingt_1lza76a17w0j62-fill" stroke="none" fill="#484848"><g><text style="font: 20px Roboto, sans-serif; white-space: pre;" font-size="20px" font-family="Roboto, sans-serif"><tspan x="12" y="34" dominant-baseline="ideographic">Failing to understand visitor </tspan><tspan x="12" y="58" dominant-baseline="ideographic">needs can lead to high </tspan><tspan x="12" y="82" dominant-baseline="ideographic">bounce rates.</tspan></text></g></g></g><g id="g-root-4.line_sy_vbqpci17w0gzx-stroke" data-item-order="-58275" transform="translate(297, 218.99993896484375)"><g id="4.line_sy_vbqpci17w0gzx-stroke" fill="none" stroke-linecap="round" stroke-linejoin="round" stroke-miterlimit="4" stroke="#4682e3" stroke-width="2"><g><path d="M 116 172.000061L 57.95 172.000061C 44.7 172.000061 33.95 161.250061 33.95 148.000061L 33.95 33.950061C 33.95 20.720061 23.23 10.000061 10 10.000061"></path><path d="M 110 178.500061L 116.5 172.000061L 110 165.500061" stroke-dasharray="none"></path></g></g></g><g id="g-root-3.line_sy_qvx78217w0hs6-stroke" data-item-order="-58269" transform="translate(297, 218.99993896484375)"><g id="3.line_sy_qvx78217w0hs6-stroke" fill="none" stroke-linecap="round" stroke-linejoin="round" stroke-miterlimit="4" stroke="#b65edf" stroke-width="2"><g><path d="M 116 64.000061L 57.95 64.000061C 44.7 64.000061 33.95 53.250061 33.95 40.000061L 33.95 33.950061C 33.95 20.720061 23.23 10.000061 10 10.000061"></path><path d="M 110 70.500061L 116.5 64.000061L 110 57.500061" stroke-dasharray="none"></path></g></g></g><g id="g-root-1.line_sy_4pg5oy17w0gzz-stroke" data-item-order="-58263" transform="translate(297, 56.99993896484375)"><g id="1.line_sy_4pg5oy17w0gzz-stroke" fill="none" stroke-linecap="round" stroke-linejoin="round" stroke-miterlimit="4" stroke="#e15e5a" stroke-width="2"><g><path d="M 116 10.000061L 57.95 10.000061C 44.7 10.000061 33.95 20.750061 33.95 34.000061L 33.95 148.050061C 33.95 161.280061 23.23 172.000061 10 172.000061"></path><path d="M 110 16.500061L 116.5 10.000061L 110 3.500061" stroke-dasharray="none"></path></g></g></g><g id="g-root-2.line_sy_9mnki17w0hs8-stroke" data-item-order="-58257" transform="translate(297.00244140625, 164.99993896484375)"><g id="2.line_sy_9mnki17w0hs8-stroke" fill="none" stroke-linecap="round" stroke-linejoin="round" stroke-miterlimit="4" stroke="#dd8433" stroke-width="2"><g><path d="M 115.997559 10.000061L 57.947559 10.000061C 44.697559 10.000061 33.947559 20.750061 33.947559 34.000061L 33.947559 40.050061C 33.947559 53.280061 23.227559 64.000061 9.997559 64.000061"></path><path d="M 109.997559 16.500061L 116.497559 10.000061L 109.997559 3.500061" stroke-dasharray="none"></path></g></g></g><g id="g-root-0.cu_sy_1uux7f617w0idd-stroke" data-item-order="-58253" transform="translate(225, 218.99993896484375)"><g id="0.cu_sy_1uux7f617w0idd-stroke" fill="none" stroke-linecap="round" stroke-linejoin="round" stroke-miterlimit="4" stroke="#484848" stroke-width="2"><g><path d="M 82 10L 10 10"></path></g></g></g><g id="g-root-circ_v6r2z617vl24p-stroke" data-item-order="0" transform="translate(417, 39)"><g id="circ_v6r2z617vl24p-stroke" fill="none" stroke-linecap="round" stroke-linejoin="round" stroke-miterlimit="4" stroke="#484848" stroke-width="2"><g><path d="M 10.75 28C 10.75 37.526913 18.473087 45.25 28 45.25C 37.526913 45.25 45.25 37.526913 45.25 28C 45.25 18.473087 37.526913 10.75 28 10.75C 18.473087 10.75 10.75 18.473087 10.75 28M 41.5 28C 41.5 28 36.685001 20.290001 28 20.290001C 19.315001 20.290001 14.5 28 14.5 28C 14.5 28 19.315001 35.709999 28 35.709999C 36.685001 35.709999 41.5 28 41.5 28ZM 23.875 28C 23.875 30.278175 25.721827 32.125 28 32.125C 30.278175 32.125 32.125 30.278175 32.125 28C 32.125 25.721827 30.278175 23.875 28 23.875C 25.721827 23.875 23.875 25.721827 23.875 28M 28 27.625C 27.792892 27.625 27.625 27.792892 27.625 28C 27.625 28.207108 27.792892 28.375 28 28.375C 28.207108 28.375 28.375 28.207108 28.375 28C 28.375 27.792892 28.207108 27.625 28 27.625L 28 27.625"></path></g></g></g><g id="g-root-tx_aestheti_zlxxoy17w1y4p-stroke" data-item-order="0" transform="translate(465, 45)"></g><g id="g-root-tx_prioriti_1lt1gb617w1vr4-stroke" data-item-order="0" transform="translate(465, 81)"></g><g id="g-root-chec_1ha3r2q17via6l-stroke" data-item-order="0" transform="translate(81, 141)"><g id="chec_1ha3r2q17via6l-stroke" fill="none" stroke-linecap="round" stroke-linejoin="round" stroke-miterlimit="4" stroke="#484848" stroke-width="2"><g><path d="M 23.975 61.25L 16.25 61.25C 14.869288 61.25 13.75 60.130711 13.75 58.75L 13.75 13.75C 13.75 12.369288 14.869288 11.25 16.25 11.25L 63.75 11.25C 65.130707 11.25 66.25 12.369288 66.25 13.75L 66.25 58.75C 66.25 60.130711 65.130707 61.25 63.75 61.25L 53.75 61.25M 23.75 21.25L 56.25 21.25M 23.75 28.75L 56.25 28.75M 23.75 36.25L 45 36.25M 27.5 57.5C 27.5 63.713203 32.536797 68.75 38.75 68.75C 44.963203 68.75 50 63.713203 50 57.5C 50 51.286797 44.963203 46.25 38.75 46.25C 32.536797 46.25 27.5 51.286797 27.5 57.5M 33.75 57.5L 37.5 61.25L 43.75 53.75"></path></g></g></g><g id="g-root-hand_mahln617vgsnd-stroke" data-item-order="0" transform="translate(417, 147)"><g id="hand_mahln617vgsnd-stroke" fill="none" stroke-linecap="round" stroke-linejoin="round" stroke-miterlimit="4" stroke="#484848" stroke-width="2"><g><path d="M 12.571428 35.714287L 20.285713 33.142857L 24.142857 26.714285M 24.142857 44.714287L 26.714285 43.42857L 40.857143 43.42857L 42.142857 30.571428L 28 30.571428M 38.285713 11.285714L 38.285713 16.428572C 38.285713 17.848732 37.134449 19 35.714287 19C 34.294125 19 33.142857 17.848732 33.142857 16.428572L 33.142857 11.285714C 30.173067 12.329288 28.135223 15.072586 27.993828 18.217216C 27.852432 21.361849 29.635851 24.276966 32.5 25.582857L 32.5 30.571428L 38.92857 30.571428L 38.92857 25.582857C 41.792721 24.276966 43.576138 21.361849 43.434742 18.217216C 43.29335 15.072586 41.255505 12.329288 38.285713 11.285714Z"></path></g></g></g><g id="g-root-tx_meektwea_1uo1zgy17w1xcf-stroke" data-item-order="0" transform="translate(465, 153)"></g><g id="g-root-tx_smallsup_8yefv617w1vym-stroke" data-item-order="0" transform="translate(465, 189)"></g><g id="g-root-tx_howtocre_mb3weq17w1wju-stroke" data-item-order="0" transform="translate(32.999969482421875, 213)"></g><g id="g-root-a_40gya17vz37y-stroke" data-item-order="0" transform="translate(417, 255)"><g id="a_40gya17vz37y-stroke" fill="none" stroke-linecap="round" stroke-linejoin="round" stroke-miterlimit="4" stroke="#484848" stroke-width="2"><g><path d="M 27.684999 40.48C 27.474943 40.194473 27.474943 39.805527 27.684999 39.52C 29.675072 36.652058 32.896866 34.885628 36.385002 34.75C 39.873138 34.885628 43.094929 36.652058 45.084999 39.52C 45.310772 39.800179 45.310772 40.199821 45.084999 40.48C 43.094929 43.347942 39.873138 45.114372 36.385002 45.25C 32.896866 45.114372 29.675072 43.347942 27.684999 40.48ZM 40.57 35.695L 32.215 44.305M 24.25 40.75L 12.25 40.75C 11.421573 40.75 10.75 40.078426 10.75 39.25L 10.75 12.25C 10.75 11.421573 11.421573 10.75 12.25 10.75L 25.75 10.75L 33.25 18.25L 33.25 31.75M 25.75 10.75L 25.75 16.75C 25.75 17.578426 26.421572 18.25 27.25 18.25L 33.25 18.25M 18.25 33.25L 18.25 24.25C 18.25 22.593145 19.593145 21.25 21.25 21.25C 22.906855 21.25 24.25 22.593145 24.25 24.25L 24.25 33.25M 18.25 27.25L 24.25 27.25"></path></g></g></g><g id="g-root-tx_lackofte_m98h5e17w1xjh-stroke" data-item-order="0" transform="translate(465, 261)"></g><g id="g-root-tx_decision_18gbzrm17w1v5w-stroke" data-item-order="0" transform="translate(465, 297)"></g><g id="g-root-clos_940ssy17vnua5-stroke" data-item-order="0" transform="translate(417, 363)"><g id="clos_940ssy17vnua5-stroke" fill="none" stroke-linecap="round" stroke-linejoin="round" stroke-miterlimit="4" stroke="#484848" stroke-width="2"><g><path d="M 45.25 37L 42.25 37C 41.421574 37 40.75 36.328426 40.75 35.5L 40.75 29.5C 40.75 28.671572 41.421574 28 42.25 28L 45.25 28M 40.75 32.5L 43.75 32.5M 10.75 38.5C 10.75 40.156857 12.093145 41.5 13.75 41.5L 42.25 41.5C 43.317524 41.497314 44.302612 40.925591 44.834499 40M 44.834499 25C 44.302612 24.074409 43.317524 23.502682 42.25 23.5L 13.75 23.5C 12.093145 23.5 10.75 24.843145 10.75 26.5M 30.25 34.75C 30.25 35.992641 29.242641 37 28 37C 26.75736 37 25.75 35.992641 25.75 34.75L 25.75 30.25C 25.75 29.00736 26.75736 28 28 28C 29.242641 28 30.25 29.00736 30.25 30.25ZM 34.75 23.5L 30.25 15.796C 29.782055 14.993467 28.922997 14.499946 27.993999 14.499946C 27.065004 14.499946 26.205948 14.993467 25.738001 15.796L 21.25 23.5M 18.25 28L 18.25 35.5C 18.25 36.328426 18.921574 37 19.75 37L 22.75 37M 37.75 28L 35.199997 28C 34.335243 27.993336 33.569393 28.557014 33.318707 29.384666C 33.06802 30.212318 33.39238 31.106209 34.115501 31.5805L 36.8755 33.419498C 37.597179 33.892891 37.921806 34.784382 37.673515 35.610981C 37.425224 36.437584 36.663082 37.002632 35.799999 37L 33.25 37M 15.25 37C 12.764719 37 10.75 34.985283 10.75 32.5C 10.75 30.014719 12.764719 28 15.25 28"></path></g></g></g><g id="g-root-tx_ignoring_1lr611u17w1wqr-stroke" data-item-order="0" transform="translate(465, 369)"></g><g id="g-root-tx_failingt_1lza76a17w0j62-stroke" data-item-order="0" transform="translate(465, 405)"></g></g></g></svg>