<?xml version="1.0" encoding="utf-8" standalone="yes"?>
<!DOCTYPE svg PUBLIC "-//W3C//DTD SVG 1.1//EN" "http://www.w3.org/Graphics/SVG/1.1/DTD/svg11.dtd">
<svg width="469" height="433" viewBox="0 0 469 433" style="fill:none;stroke:none;fill-rule:evenodd;clip-rule:evenodd;stroke-linecap:round;stroke-linejoin:round;stroke-miterlimit:1.5;" version="1.1" xmlns="http://www.w3.org/2000/svg" xmlns:xlink="http://www.w3.org/1999/xlink"><style id="fontImports"></style><g id="items" style="isolation: isolate"><g id="blend" style="mix-blend-mode:normal"><g id="g-root-1.cu_sy_18fps5e185m0p8-fill" data-item-order="-57942" transform="translate(14.5, 191.5)"><g id="1.cu_sy_18fps5e185m0p8-fill" stroke="none" fill="#466598"><g><path d="M 28 61C 28 42.7746 42.7746 28 61 28L 139 28C 152.377 28 163.895 35.9597 169.077 47.4013C 172.902 46.4852 176.894 46 181 46L 187.758 46C 181.353 25.154 161.946 10 139 10L 61 10C 32.8335 10 10 32.8335 10 61C 10 89.1665 32.8335 112 61 112L 132.242 112L 139 112C 143.106 112 147.098 111.515 150.923 110.599C 172.4 105.4546 188.595 86.7232 189.913 64L 181 64C 177.778 64 174.663 64.4618 171.719 65.3229C 170.009 78.3943 160.649 89.0594 148.281 92.6771C 145.337 93.5382 142.222 94 139 94L 130.087 94L 61 94C 42.7746 94 28 79.2254 28 61Z"></path></g></g></g><g id="g-root-2.cu_sy_qofrnm185m32d-fill" data-item-order="-57938" transform="translate(134.5869140625, 227.5)"><g id="2.cu_sy_qofrnm185m32d-fill" stroke="none" fill="#628acb"><g><path d="M 10 58L 18.9132 58C 22.1355 58 25.2499 57.5382 28.1938 56.6771C 29.9041 43.6057 39.264 32.9406 51.6326 29.3229C 54.5766 28.4618 57.691 28 60.9132 28L 69.8265 28L 130 28L 138.913 28C 142.135 28 145.25 28.4618 148.194 29.3229C 160.562 32.9406 169.922 43.6057 171.633 56.6771C 174.577 57.5382 177.691 58 180.913 58L 189.826 58C 188.508 35.2768 172.313 16.5454 150.836 11.4013C 147.012 10.4852 143.019 10 138.913 10L 132.155 10L 67.6716 10L 60.9132 10C 56.8074 10 52.815 10.4852 48.99 11.4013C 27.5133 16.5454 11.3181 35.2768 10 58ZM 138.913 94L 60.9132 94C 47.536 94 36.0178 86.0403 30.8365 74.5987C 27.0115 75.5148 23.019 76 18.9132 76L 12.1548 76C 18.5603 96.846 37.967 112 60.9132 112L 138.913 112C 161.859 112 181.266 96.846 187.672 76L 180.913 76C 176.807 76 172.815 75.5148 168.99 74.5987C 163.809 86.0403 152.291 94 138.913 94Z"></path></g></g></g><g id="g-root-3.cu_sy_4hyq4i185m2a6-fill" data-item-order="-57934" transform="translate(254.5, 191.5)"><g id="3.cu_sy_4hyq4i185m2a6-fill" stroke="none" fill="#7fb0ff"><g><path d="M 138.912994 112C 167.080017 112 189.912994 89.166504 189.912994 61C 189.912994 32.833496 167.080017 10 138.912994 10L 60.913208 10C 37.96701 10 18.560211 25.153992 12.1548 46L 18.913208 46C 23.019012 46 27.011505 46.485199 30.836395 47.401306C 36.0177 35.959702 47.535889 28 60.913208 28L 138.912994 28C 157.139008 28 171.912994 42.774597 171.912994 61C 171.912994 79.225403 157.139008 94 138.912994 94L 69.826416 94L 60.913208 94C 57.690887 94 54.576599 93.538208 51.632599 92.677094C 39.264008 89.059387 29.903992 78.394302 28.193787 65.322906C 25.249786 64.461792 22.135498 64 18.913208 64L 10 64C 11.3181 86.723206 27.513306 105.45459 48.98999 110.598694C 52.814911 111.514801 56.807404 112 60.913208 112L 67.6716 112L 138.912994 112Z"></path></g></g></g><g id="g-root-tx_trustino_4ju5du185m1ai-fill" data-item-order="0" transform="translate(62.5, 26.5)"><g id="tx_trustino_4ju5du185m1ai-fill" stroke="none" fill="#484848"><g><text style="font: bold 25px Arial, Helvetica, sans-serif; white-space: pre;" font-weight="bold" font-size="25px" font-family="Arial, Helvetica, sans-serif"><tspan x="16.41" y="42" dominant-baseline="ideographic">Trust in Online Commerce</tspan></text></g></g></g><g id="g-root-tx_transpar_qqb6wy185m22p-fill" data-item-order="0" transform="translate(38.5, 146.5)"><g id="tx_transpar_qqb6wy185m22p-fill" stroke="none" fill="#484848"><g><text style="font: 20px Arial, Helvetica, sans-serif; white-space: pre;" font-size="20px" font-family="Arial, Helvetica, sans-serif"><tspan x="15.23" y="33" dominant-baseline="ideographic">Transparency</tspan></text></g></g></g><g id="g-root-tx_security_1lsf8oy185m1af-fill" data-item-order="0" transform="translate(254.5, 146.5)"><g id="tx_security_1lsf8oy185m1af-fill" stroke="none" fill="#484848"><g><text style="font: 20px Arial, Helvetica, sans-serif; white-space: pre;" font-size="20px" font-family="Arial, Helvetica, sans-serif"><tspan x="14.4" y="33" dominant-baseline="ideographic">Security Assurance</tspan></text></g></g></g><g id="g-root-tx_customer_141rpaa185m0hs-fill" data-item-order="0" transform="translate(134.5, 350.5)"><g id="tx_customer_141rpaa185m0hs-fill" stroke="none" fill="#484848"><g><text style="font: 20px Arial, Helvetica, sans-serif; white-space: pre;" font-size="20px" font-family="Arial, Helvetica, sans-serif"><tspan x="16.09" y="33" dominant-baseline="ideographic">Customer Reviews</tspan></text></g></g></g><g id="g-root-1.cu_sy_18fps5e185m0p8-stroke" data-item-order="-57942" transform="translate(14.5, 191.5)"><g id="1.cu_sy_18fps5e185m0p8-stroke" fill="none" stroke-linecap="butt" stroke-linejoin="miter" stroke-miterlimit="4" stroke="#466598" stroke-width="1"><g><path d="M 28 61C 28 42.7746 42.7746 28 61 28L 139 28C 152.3773 28 163.8955 35.9597 169.0768 47.4013C 172.9017 46.4852 176.8942 46 181 46L 187.7584 46C 181.353 25.154 161.9462 10 139 10L 61 10C 32.8335 10 10 32.8335 10 61C 10 89.1665 32.8335 112 61 112L 132.2416 112L 139 112C 143.1058 112 147.0983 111.5148 150.9232 110.5987C 172.4 105.4546 188.5951 86.7232 189.9132 64L 181 64C 177.7777 64 174.6634 64.4618 171.7194 65.3229C 170.0092 78.3943 160.6492 89.0594 148.2806 92.6771C 145.3366 93.5382 142.2223 94 139 94L 130.0868 94L 61 94C 42.7746 94 28 79.2254 28 61Z"></path></g></g></g><g id="g-root-2.cu_sy_qofrnm185m32d-stroke" data-item-order="-57938" transform="translate(134.5869140625, 227.5)"><g id="2.cu_sy_qofrnm185m32d-stroke" fill="none" stroke-linecap="butt" stroke-linejoin="miter" stroke-miterlimit="4" stroke="#628acb" stroke-width="1"><g><path d="M 10 58L 18.9132 58C 22.1355 58 25.2499 57.5382 28.1938 56.6771C 29.9041 43.6057 39.264 32.9406 51.6326 29.3229C 54.5766 28.4618 57.691 28 60.9132 28L 69.8265 28L 130 28L 138.9132 28C 142.1355 28 145.2499 28.4618 148.1938 29.3229C 160.5624 32.9406 169.9224 43.6057 171.6326 56.6771C 174.5766 57.5382 177.691 58 180.9132 58L 189.8265 58C 188.5084 35.2768 172.3132 16.5454 150.8365 11.4013C 147.0115 10.4852 143.019 10 138.9132 10L 132.1548 10L 67.6716 10L 60.9132 10C 56.8074 10 52.815 10.4852 48.99 11.4013C 27.5133 16.5454 11.3181 35.2768 10 58ZM 138.9132 94L 60.9132 94C 47.536 94 36.0178 86.0403 30.8365 74.5987C 27.0115 75.5148 23.019 76 18.9132 76L 12.1548 76C 18.5603 96.846 37.967 112 60.9132 112L 138.9132 112C 161.8594 112 181.2662 96.846 187.6717 76L 180.9132 76C 176.8074 76 172.8149 75.5148 168.99 74.5987C 163.8087 86.0403 152.2905 94 138.9132 94ZM 30.8365 74.5987C 52.3132 69.4546 68.5084 50.7232 69.8265 28M 28.1938 56.6771C 40.5624 53.0594 49.9224 42.3943 51.6326 29.3229M 130 28C 131.3181 50.7232 147.5133 69.4546 168.99 74.5987M 148.1938 29.3229C 149.9041 42.3943 159.264 53.0594 171.6326 56.6771"></path></g></g></g><g id="g-root-3.cu_sy_4hyq4i185m2a6-stroke" data-item-order="-57934" transform="translate(254.5, 191.5)"><g id="3.cu_sy_4hyq4i185m2a6-stroke" fill="none" stroke-linecap="butt" stroke-linejoin="miter" stroke-miterlimit="4" stroke="#7fb0ff" stroke-width="1"><g><path d="M 138.913208 112C 167.079712 112 189.913208 89.166504 189.913208 61C 189.913208 32.833496 167.079712 10 138.913208 10L 60.913208 10C 37.96701 10 18.560211 25.153992 12.1548 46L 18.913208 46C 23.019012 46 27.011505 46.485199 30.836395 47.401306C 36.0177 35.959702 47.535889 28 60.913208 28L 138.913208 28C 157.138611 28 171.913208 42.774597 171.913208 61C 171.913208 79.225403 157.138611 94 138.913208 94L 69.826416 94L 60.913208 94C 57.690887 94 54.576599 93.538208 51.632599 92.677094C 39.264008 89.059387 29.903992 78.394302 28.193787 65.322906C 25.249786 64.461792 22.135498 64 18.913208 64L 10 64C 11.3181 86.723206 27.513306 105.45459 48.98999 110.598694C 52.814911 111.514801 56.807404 112 60.913208 112L 67.6716 112L 138.913208 112ZM 28.193787 65.322906C 40.562408 68.940598 49.922394 79.605698 51.632599 92.677094M 30.836395 47.401306C 52.31311 52.545395 68.508301 71.276794 69.826416 94"></path></g></g></g><g id="g-root-tx_trustino_4ju5du185m1ai-stroke" data-item-order="0" transform="translate(62.5, 26.5)"></g><g id="g-root-tx_transpar_qqb6wy185m22p-stroke" data-item-order="0" transform="translate(38.5, 146.5)"></g><g id="g-root-tx_security_1lsf8oy185m1af-stroke" data-item-order="0" transform="translate(254.5, 146.5)"></g><g id="g-root-tx_customer_141rpaa185m0hs-stroke" data-item-order="0" transform="translate(134.5, 350.5)"></g></g></g></svg>