<?xml version="1.0" encoding="utf-8" standalone="yes"?>
<!DOCTYPE svg PUBLIC "-//W3C//DTD SVG 1.1//EN" "http://www.w3.org/Graphics/SVG/1.1/DTD/svg11.dtd">
<svg width="578" height="422" viewBox="0 0 578 422" style="fill:none;stroke:none;fill-rule:evenodd;clip-rule:evenodd;stroke-linecap:round;stroke-linejoin:round;stroke-miterlimit:1.5;" version="1.1" xmlns="http://www.w3.org/2000/svg" xmlns:xlink="http://www.w3.org/1999/xlink"><style id="fontImports">@import url("https://fonts.googleapis.com/css2?family=Roboto:wght@400;700&amp;display=block");</style><g id="items" style="isolation: isolate"><g id="blend" style="mix-blend-mode:normal"><g id="g-root-5.cu_sy_1q8uyeq17m29zd-fill" data-item-order="-31674" transform="translate(183, 190)"></g><g id="g-root-4.cu_sy_1lt1gaa17m2arm-fill" data-item-order="-31671" transform="translate(255, 201)"><g id="4.cu_sy_1lt1gaa17m2arm-fill" stroke="none" fill="#f6f6f6"><g><path d="M 34.086 22C 34.086 28.627 28.695 34 22.043 34C 15.392 34 10 28.627 10 22C 10 15.373 15.392 10 22.043 10C 28.695 10 34.086 15.373 34.086 22ZM 28 22C 28 25.314 25.314 28 22 28C 18.686 28 16 25.314 16 22C 16 18.686 18.686 16 22 16C 25.314 16 28 18.686 28 22Z"></path></g></g></g><g id="g-root-3.cu_sy_1cxeg1e17m2bkb-fill" data-item-order="-31667" transform="translate(219, 222.32598876953125)"><g id="3.cu_sy_1cxeg1e17m2bkb-fill" stroke="none" fill="#ffe7e6"><g><path d="M 22 78.674011L 94 78.674011C 94 78.674011 73.992 28.166011 65.959 10.058011C 63.725 11.952011 61.073 12.997011 58.043 12.997011C 54.986 12.997011 52.288 11.933011 50.072 10.000011C 42.047 28.114011 22 78.674011 22 78.674011ZM 18 78.679011C 13.582 78.679011 10 82.260011 10 86.679011L 10 88.679011C 10 89.783011 10.895 90.679011 12 90.679011L 104 90.679011C 105.105 90.679011 106 89.783011 106 88.679011L 106 86.679011C 106 82.260011 102.418 78.679011 98 78.679011L 18 78.679011Z"></path></g></g></g><g id="g-root-2.right-bucket_sy_18hkxwy17m2cck-fill" data-item-order="-31663" transform="translate(315, 171)"><g id="2.right-bucket_sy_18hkxwy17m2cck-fill" stroke="none" fill="#ffe7e6"><g><path d="M 10 11.8C 10 10.806 10.806 10 11.8 10L 80.2 10C 81.194 10 82 10.806 82 11.8C 82 20.747 74.747 28 65.8 28L 26.2 28C 17.253 28 10 20.747 10 11.8Z"></path></g></g></g><g id="g-root-1.left-bucket_sy_18hkxwy17m2ccl-fill" data-item-order="-31659" transform="translate(147, 171)"><g id="1.left-bucket_sy_18hkxwy17m2ccl-fill" stroke="none" fill="#e9fbf3"><g><path d="M 10 11.8C 10 10.806 10.806 10 11.8 10L 80.2 10C 81.194 10 82 10.806 82 11.8C 82 20.747 74.747 28 65.8 28L 26.2 28C 17.253 28 10 20.747 10 11.8Z"></path></g></g></g><g id="g-root-tx_ethicalp_147dsqa17lo9vw-fill" data-item-order="0" transform="translate(27, 39)"><g id="tx_ethicalp_147dsqa17lo9vw-fill" stroke="none" fill="#484848"><g><text style="font: 20px Roboto, sans-serif; white-space: pre;" font-size="20px" font-family="Roboto, sans-serif"><tspan x="74.67" y="34" dominant-baseline="ideographic">Local </tspan><tspan x="21.34" y="58" dominant-baseline="ideographic">Transparent</tspan></text></g></g></g><g id="g-root-leaf_94n9v617lin0u-fill" data-item-order="0" transform="translate(159, 39)"></g><g id="g-root-heav_1utocdu17lo9vu-fill" data-item-order="0" transform="translate(327, 39)"></g><g id="g-root-tx_convenie_mgq9bm17lo93a-fill" data-item-order="0" transform="translate(387, 39)"><g id="tx_convenie_mgq9bm17lo93a-fill" stroke="none" fill="#484848"><g><text style="font: 20px Roboto, sans-serif; white-space: pre;" font-size="20px" font-family="Roboto, sans-serif"><tspan x="12" y="34" dominant-baseline="ideographic">Convenience </tspan><tspan x="12" y="58" dominant-baseline="ideographic">Over Values</tspan></text></g></g></g><g id="g-root-tx_intentio_1hiub3m17lo8az-fill" data-item-order="0" transform="translate(-9, 123)"><g id="tx_intentio_1hiub3m17lo8az-fill" stroke="none" fill="#484848"><g><text style="font: 20px Roboto, sans-serif; white-space: pre;" font-size="20px" font-family="Roboto, sans-serif"><tspan x="13.08" y="34" dominant-baseline="ideographic">Ethically sourced</tspan></text></g></g></g><g id="g-root-choo_1cxej7617lh8n6-fill" data-item-order="0" transform="translate(159, 111)"></g><g id="g-root-shoc_dcz2ya17lmvwq-fill" data-item-order="0" transform="translate(327, 111)"></g><g id="g-root-tx_impulseb_qwjrg217lo8b1-fill" data-item-order="0" transform="translate(387, 111)"><g id="tx_impulseb_qwjrg217lo8b1-fill" stroke="none" fill="#484848"><g><text style="font: 20px Roboto, sans-serif; white-space: pre;" font-size="20px" font-family="Roboto, sans-serif"><tspan x="12" y="34" dominant-baseline="ideographic">Impulse &amp; </tspan><tspan x="12" y="58" dominant-baseline="ideographic">Urgency</tspan></text></g></g></g><g id="g-root-tx_statedva_959qya17loao7-fill" data-item-order="0" transform="translate(33, 267)"><g id="tx_statedva_959qya17loao7-fill" stroke="none" fill="#484848"><g><text style="font: 20px Roboto, sans-serif; white-space: pre;" font-size="20px" font-family="Roboto, sans-serif"><tspan x="14.71" y="34" dominant-baseline="ideographic">Stated Values</tspan></text></g></g></g><g id="g-root-tx_realpurc_4g34j617lpmv4-fill" data-item-order="0" transform="translate(363, 267)"><g id="tx_realpurc_4g34j617lpmv4-fill" stroke="none" fill="#484848"><g><text style="font: 20px Roboto, sans-serif; white-space: pre;" font-size="20px" font-family="Roboto, sans-serif"><tspan x="13.3" y="34" dominant-baseline="ideographic">Real Purchases</tspan></text></g></g></g><g id="g-root-tx_bridging_1q5qo4y17lpo8x-fill" data-item-order="0" transform="translate(33, 339)"><g id="tx_bridging_1q5qo4y17lpo8x-fill" stroke="none" fill="#484848"><g><text style="font: 20px Roboto, sans-serif; white-space: pre;" font-size="20px" font-family="Roboto, sans-serif"><tspan x="16.08" y="34" dominant-baseline="ideographic">Bridging the Attitude-Behavior Gap in Consumerism</tspan></text></g></g></g><g id="g-root-5.cu_sy_1q8uyeq17m29zd-stroke" data-item-order="-31674" transform="translate(183, 190)"><g id="5.cu_sy_1q8uyeq17m29zd-stroke" fill="none" stroke-linecap="round" stroke-linejoin="round" stroke-miterlimit="4" stroke="#888888" stroke-width="2"><g><path d="M 178 10L 178 24.978C 178 29.395 174.42 32.976 170.003 32.978L 107 33M 10 10L 10 25.025C 10 29.444 13.582 33.025 18 33.025L 82 33.025"></path></g></g></g><g id="g-root-4.cu_sy_1lt1gaa17m2arm-stroke" data-item-order="-31671" transform="translate(255, 201)"><g id="4.cu_sy_1lt1gaa17m2arm-stroke" fill="none" stroke-linecap="round" stroke-linejoin="round" stroke-miterlimit="4" stroke="#e15e5a" stroke-width="2"><g><path d="M 34.086 22C 34.086 28.627 28.695 34 22.043 34C 15.392 34 10 28.627 10 22C 10 15.373 15.392 10 22.043 10C 28.695 10 34.086 15.373 34.086 22ZM 28 22C 28 25.314 25.314 28 22 28C 18.686 28 16 25.314 16 22C 16 18.686 18.686 16 22 16C 25.314 16 28 18.686 28 22Z"></path></g></g></g><g id="g-root-3.cu_sy_1cxeg1e17m2bkb-stroke" data-item-order="-31667" transform="translate(219, 222.32598876953125)"><g id="3.cu_sy_1cxeg1e17m2bkb-stroke" fill="none" stroke-linecap="round" stroke-linejoin="round" stroke-miterlimit="4" stroke="#e15e5a" stroke-width="2"><g><path d="M 22 78.674011L 94 78.674011C 94 78.674011 73.992 28.166011 65.959 10.058011C 63.725 11.952011 61.073 12.997011 58.043 12.997011C 54.986 12.997011 52.288 11.933011 50.072 10.000011C 42.047 28.114011 22 78.674011 22 78.674011ZM 18 78.679011C 13.582 78.679011 10 82.260011 10 86.679011L 10 88.679011C 10 89.783011 10.895 90.679011 12 90.679011L 104 90.679011C 105.105 90.679011 106 89.783011 106 88.679011L 106 86.679011C 106 82.260011 102.418 78.679011 98 78.679011L 18 78.679011Z"></path></g></g><g id="3.cu_sy_1cxeg1e17m2bkb-stroke" fill="none" stroke-linecap="round" stroke-linejoin="round" stroke-miterlimit="4" stroke="#e15e5a" stroke-width="2"><g><path d="M 58 58.679011L 54 62.679011L 54 71.749011C 55.177 71.068011 56.543 70.679011 58 70.679011C 59.457 70.679011 60.823 71.068011 62 71.749011L 62 62.679011L 58 58.679011ZM 62 71.749011C 60.823 71.068011 59.457 70.679011 58 70.679011C 56.543 70.679011 55.177 71.068011 54 71.749011C 51.609 73.132011 50 75.718011 50 78.679011L 66 78.679011C 66 75.718011 64.391 73.132011 62 71.749011ZM 58 49.679011L 58 55.479011M 78.503 58.176011L 74.404 62.274011M 37.497 58.176011L 41.596 62.274011M 64.747 53.468011L 64.003 56.262011M 44.94 56.078011L 46.4 58.591011M 71.031 56.068011L 69.59 58.572011M 51.224 53.478011L 51.978 56.271011"></path></g></g></g><g id="g-root-2.right-bucket_sy_18hkxwy17m2cck-stroke" data-item-order="-31663" transform="translate(315, 171)"><g id="2.right-bucket_sy_18hkxwy17m2cck-stroke" fill="none" stroke-linecap="round" stroke-linejoin="round" stroke-miterlimit="4" stroke="#e15e5a" stroke-width="2"><g><path d="M 10 11.8C 10 10.806 10.806 10 11.8 10L 80.2 10C 81.194 10 82 10.806 82 11.8C 82 20.747 74.747 28 65.8 28L 26.2 28C 17.253 28 10 20.747 10 11.8Z"></path></g></g></g><g id="g-root-1.left-bucket_sy_18hkxwy17m2ccl-stroke" data-item-order="-31659" transform="translate(147, 171)"><g id="1.left-bucket_sy_18hkxwy17m2ccl-stroke" fill="none" stroke-linecap="round" stroke-linejoin="round" stroke-miterlimit="4" stroke="#3bc482" stroke-width="2"><g><path d="M 10 11.8C 10 10.806 10.806 10 11.8 10L 80.2 10C 81.194 10 82 10.806 82 11.8C 82 20.747 74.747 28 65.8 28L 26.2 28C 17.253 28 10 20.747 10 11.8Z"></path></g></g></g><g id="g-root-tx_ethicalp_147dsqa17lo9vw-stroke" data-item-order="0" transform="translate(27, 39)"></g><g id="g-root-leaf_94n9v617lin0u-stroke" data-item-order="0" transform="translate(159, 39)"><g id="leaf_94n9v617lin0u-stroke" fill="none" stroke-linecap="round" stroke-linejoin="round" stroke-miterlimit="4" stroke="#484848" stroke-width="2"><g><path d="M 49.46286 28.445715C 56.32 38.114285 51.074284 49.188572 48.537144 53.508572C 47.784046 54.731693 46.529278 55.559837 45.10857 55.771427C 40.137142 56.628574 27.76 57.588573 21.108572 47.920002C 14.56 38.799999 14.834286 22.754286 15.417143 15.108571C 15.463764 13.953008 16.06271 12.8902 17.027063 12.251825C 17.991417 11.61345 19.203747 11.477244 20.285713 11.885715C 27.657143 14.011429 43.017143 19.325714 49.46286 28.445715ZM 26.354286 25.257143C 34.207516 34.511768 41.10006 44.540417 46.925713 55.188568"></path></g></g></g><g id="g-root-heav_1utocdu17lo9vu-stroke" data-item-order="0" transform="translate(327, 39)"><g id="heav_1utocdu17lo9vu-stroke" fill="none" stroke-linecap="round" stroke-linejoin="round" stroke-miterlimit="4" stroke="#484848" stroke-width="2"><g><path d="M 11.714286 44.285713L 42.777145 44.285713C 43.63599 44.274734 44.354145 43.629864 44.457146 42.777145L 47.714287 18.365715C 47.804863 17.573093 48.430237 16.947718 49.222855 16.857143L 56.285713 16.857143M 15.142858 54.57143C 15.142858 55.518204 15.910369 56.285713 16.857143 56.285713C 17.803917 56.285713 18.571428 55.518204 18.571428 54.57143C 18.571428 53.624657 17.803917 52.857143 16.857143 52.857143C 15.910369 52.857143 15.142858 53.624657 15.142858 54.57143M 37.428574 54.57143C 37.428574 55.518204 38.196083 56.285713 39.142857 56.285713C 40.08963 56.285713 40.857143 55.518204 40.857143 54.57143C 40.857143 53.624657 40.08963 52.857143 39.142857 52.857143C 38.196083 52.857143 37.428574 53.624657 37.428574 54.57143"></path></g></g></g><g id="g-root-tx_convenie_mgq9bm17lo93a-stroke" data-item-order="0" transform="translate(387, 39)"></g><g id="g-root-tx_intentio_1hiub3m17lo8az-stroke" data-item-order="0" transform="translate(-9, 123)"></g><g id="g-root-choo_1cxej7617lh8n6-stroke" data-item-order="0" transform="translate(159, 111)"><g id="choo_1cxej7617lh8n6-stroke" fill="none" stroke-linecap="round" stroke-linejoin="round" stroke-miterlimit="4" stroke="#484848" stroke-width="2"><g><path d="M 39.256001 32.155998L 36.832001 28.6C 36.604153 28.266392 36.599419 27.828457 36.82 27.49L 39.164001 23.889999C 39.346443 23.609814 39.656853 23.439346 39.991184 23.43573C 40.325516 23.432112 40.639534 23.595825 40.827999 23.872L 43.254002 27.422001C 43.48185 27.755608 43.486584 28.193544 43.265999 28.532L 40.919998 32.132C 40.738571 32.412876 40.428764 32.584488 40.094421 32.58931C 39.760078 32.594131 39.445454 32.431526 39.256001 32.155998ZM 34.042 41L 31.058001 41C 30.790022 41.004288 30.531538 40.900826 30.340527 40.712822C 30.149515 40.524818 30.041965 40.268013 30.042 40L 30.042 16C 30.042 15.447716 30.489716 15 31.042 15L 49.042 15C 49.594284 15 50.042 15.447716 50.042 16L 50.042 39M 30.294001 40.664001L 28.982 41.223999C 28.476631 41.440144 27.89155 41.207901 27.672001 40.704002L 18.360001 19.362C 18.25378 19.118076 18.24914 18.841877 18.347107 18.594522C 18.445072 18.347168 18.637568 18.149048 18.882 18.043999L 35.174 11.08C 35.679909 10.862526 36.266441 11.094991 36.486 11.6L 37.809998 14.698M 34.492001 45.812L 31.474001 48.900002C 31.087933 49.294834 30.454903 49.301998 30.059999 48.916L 12.26 31.516001C 11.865164 31.129932 11.858002 30.496902 12.243999 30.101999L 19.689999 22.476M 56.042 57L 47.543999 48.5M 45.48 53.312L 47.543999 48.5L 52.355999 46.438C 52.726116 46.279285 52.964912 45.914047 52.961857 45.511349C 52.958797 45.108646 52.714481 44.747078 52.341999 44.594002L 39.762001 39.414001C 39.388512 39.25975 38.9589 39.34544 38.673172 39.631172C 38.38744 39.916901 38.30175 40.346512 38.456001 40.720001L 43.636002 53.299999C 43.789486 53.672306 44.151318 53.916222 44.554012 53.918842C 44.956707 53.921463 45.321682 53.682278 45.48 53.312ZM 34.542 19C 34.67477 18.999466 34.802258 19.051971 34.896141 19.145857C 34.990028 19.23974 35.042534 19.367229 35.042 19.5M 34.042 19.5C 34.042 19.223858 34.265858 19 34.542 19M 34.542 20C 34.265858 20 34.042 19.776142 34.042 19.5M 35.042 19.5C 35.042534 19.632771 34.990028 19.760258 34.896141 19.854143C 34.802258 19.948029 34.67477 20.000534 34.542 20M 23.880001 20.285999C 24.156143 20.285999 24.380001 20.509857 24.380001 20.785999M 23.380001 20.785999C 23.380001 20.509857 23.603859 20.285999 23.880001 20.285999M 23.880001 21.285999C 23.747229 21.286533 23.61974 21.234028 23.525856 21.140142C 23.431973 21.046259 23.379465 20.91877 23.379999 20.785999M 24.380001 20.785999C 24.380535 20.91877 24.328026 21.046259 24.234142 21.140142C 24.140259 21.234028 24.012772 21.286533 23.879999 21.285999M 45.542 36C 45.67477 35.999466 45.802258 36.051971 45.896141 36.145859C 45.990025 36.239738 46.042534 36.367226 46.042 36.5M 45.042 36.5C 45.042 36.223858 45.265858 36 45.542 36M 45.542 37C 45.265858 37 45.042 36.776142 45.042 36.5M 46.042 36.5C 46.042534 36.632771 45.990025 36.760258 45.896141 36.854141C 45.802258 36.948029 45.67477 37.000534 45.542 37M 17.906 30.238001C 18.182142 30.238001 18.406 30.461857 18.406 30.738001M 17.4 30.738001C 17.4 30.461857 17.623857 30.238001 17.9 30.238001M 17.906 31.238001C 17.629858 31.238001 17.406 31.014143 17.406 30.738001M 18.4 30.738001C 18.4 31.014143 18.176144 31.238001 17.9 31.238001"></path></g></g></g><g id="g-root-shoc_dcz2ya17lmvwq-stroke" data-item-order="0" transform="translate(327, 111)"><g id="shoc_dcz2ya17lmvwq-stroke" fill="none" stroke-linecap="round" stroke-linejoin="round" stroke-miterlimit="4" stroke="#484848" stroke-width="2"><g><path d="M 11 34C 11 46.702549 21.297451 57 34 57C 46.702549 57 57 46.702549 57 34C 57 21.297451 46.702549 11 34 11C 21.297451 11 11 21.297451 11 34ZM 23 29.5C 23.276142 29.5 23.5 29.723858 23.5 30C 23.5 30.276142 23.276142 30.5 23 30.5C 22.723858 30.5 22.5 30.276142 22.5 30C 22.5 29.723858 22.723858 29.5 23 29.5M 45 29.5C 44.723858 29.5 44.5 29.723858 44.5 30C 44.5 30.276142 44.723858 30.5 45 30.5C 45.276142 30.5 45.5 30.276142 45.5 30C 45.5 29.723858 45.276142 29.5 45 29.5M 34 39C 32.343147 39 31 40.343147 31 42L 31 46C 31 47.656857 32.343147 49 34 49C 35.656853 49 37 47.656857 37 46L 37 42C 37 40.343147 35.656853 39 34 39Z"></path></g></g></g><g id="g-root-tx_impulseb_qwjrg217lo8b1-stroke" data-item-order="0" transform="translate(387, 111)"></g><g id="g-root-tx_statedva_959qya17loao7-stroke" data-item-order="0" transform="translate(33, 267)"></g><g id="g-root-tx_realpurc_4g34j617lpmv4-stroke" data-item-order="0" transform="translate(363, 267)"></g><g id="g-root-tx_bridging_1q5qo4y17lpo8x-stroke" data-item-order="0" transform="translate(33, 339)"></g></g></g></svg>