<?xml version="1.0" encoding="utf-8" standalone="yes"?>
<!DOCTYPE svg PUBLIC "-//W3C//DTD SVG 1.1//EN" "http://www.w3.org/Graphics/SVG/1.1/DTD/svg11.dtd">
<svg width="818" height="590" viewBox="0 0 818 590" style="fill:none;stroke:none;fill-rule:evenodd;clip-rule:evenodd;stroke-linecap:round;stroke-linejoin:round;stroke-miterlimit:1.5;" version="1.1" xmlns="http://www.w3.org/2000/svg" xmlns:xlink="http://www.w3.org/1999/xlink"><style id="fontImports">@import url("https://fonts.googleapis.com/css2?family=Roboto:wght@400;700&amp;display=block");</style><g id="items" style="isolation: isolate"><g id="blend" style="mix-blend-mode:normal"><g id="g-root-ro_zmko4j167t3bc-fill" data-item-order="-31320" transform="translate(339, 105)"><g id="ro_zmko4j167t3bc-fill" stroke="none" fill="#f0f0f0"><g><path d="M 34 10L 166 10C 166 10 190 10 190 34L 190 160C 190 160 190 184 166 184L 34 184C 34 184 10 184 10 160L 10 34C 10 34 10 10 34 10"></path></g></g></g><g id="g-root-ro_1lpw3z716hoglr-fill" data-item-order="-14904" transform="translate(15, 39)"><g id="ro_1lpw3z716hoglr-fill" stroke="none" fill="#e6efff"><g><path d="M 22 10L 274 10C 274 10 286 10 286 22L 286 52C 286 52 286 64 274 64L 22 64C 22 64 10 64 10 52L 10 22C 10 22 10 10 22 10"></path></g></g></g><g id="g-root-ro_1cw4ftv16hsop9-fill" data-item-order="-14256" transform="translate(297, 369)"><g id="ro_1cw4ftv16hsop9-fill" stroke="none" fill="#e9fbf3"><g><path d="M 22 10L 262 10C 262 10 274 10 274 22L 274 52C 274 52 274 64 262 64L 22 64C 22 64 10 64 10 52L 10 22C 10 22 10 10 22 10"></path></g></g></g><g id="g-root-ro_1ut0q3n16i13b5-fill" data-item-order="-9720" transform="translate(567, 57)"><g id="ro_1ut0q3n16i13b5-fill" stroke="none" fill="#fffce6"><g><path d="M 22 10L 178 10C 178 10 190 10 190 22L 190 52C 190 52 190 64 178 64L 22 64C 22 64 10 64 10 52L 10 22C 10 22 10 10 22 10"></path></g></g></g><g id="g-root-tx_scss_1hjfmzn16i13wg-fill" data-item-order="0" transform="translate(183, 213)"><g id="tx_scss_1hjfmzn16i13wg-fill" stroke="none" fill="#484848"><g><text style="font: 20px Roboto, sans-serif; white-space: pre;" font-size="20px" font-family="Roboto, sans-serif"><tspan x="15.69" y="34" dominant-baseline="ideographic">SCSS</tspan></text></g></g></g><g id="g-root-tx_wordpres_v47y8z16i2jux-fill" data-item-order="0" transform="translate(615, 303)"><g id="tx_wordpres_v47y8z16i2jux-fill" stroke="none" fill="#484848"><g><text style="font: 20px Roboto, sans-serif; white-space: pre;" font-size="20px" font-family="Roboto, sans-serif"><tspan x="15.43" y="34" dominant-baseline="ideographic">WordPress</tspan></text></g></g></g><g id="g-root-cu_zjf2g316hogli-fill" data-item-order="0" transform="translate(519, 84)"></g><g id="g-root-tx_uxuidesi_hrihpf16i2j9n-fill" data-item-order="0" transform="translate(111, 321)"><g id="tx_uxuidesi_hrihpf16i2j9n-fill" stroke="none" fill="#484848"><g><text style="font: 20px Roboto, sans-serif; white-space: pre;" font-size="20px" font-family="Roboto, sans-serif"><tspan x="16.88" y="34" dominant-baseline="ideographic">UX/UI Design</tspan></text></g></g></g><g id="g-root-tx_nodejs_vb367716i143w-fill" data-item-order="0" transform="translate(345, 507)"><g id="tx_nodejs_vb367716i143w-fill" stroke="none" fill="#484848"><g><text style="font: 20px Roboto, sans-serif; white-space: pre;" font-size="20px" font-family="Roboto, sans-serif"><tspan x="12.05" y="34" dominant-baseline="ideographic">Node.js</tspan></text></g></g></g><g id="g-root-tx_svelte_hzmntv16i15ot-fill" data-item-order="0" transform="translate(183, 105)"><g id="tx_svelte_hzmntv16i15ot-fill" stroke="none" fill="#484848"><g><text style="font: 20px Roboto, sans-serif; white-space: pre;" font-size="20px" font-family="Roboto, sans-serif"><tspan x="12.99" y="34" dominant-baseline="ideographic">Svelte</tspan></text></g></g></g><g id="g-root-cu_dcy0wz16hoglc-fill" data-item-order="0" transform="translate(249, 93)"></g><g id="g-root-cu_4hb0o316hohe3-fill" data-item-order="0" transform="translate(249, 93)"></g><g id="g-root-cu_1hijn16hoi6d-fill" data-item-order="0" transform="translate(249, 93)"></g><g id="g-root-cu_1q6yk9v16hoirz-fill" data-item-order="0" transform="translate(249, 93)"></g><g id="g-root-cu_1lrrj8j16hogeh-fill" data-item-order="0" transform="translate(249, 93)"></g><g id="g-root-cu_1hby14316hoh6r-fill" data-item-order="0" transform="translate(249, 93)"></g><g id="g-root-cu_18gb0v716hohzh-fill" data-item-order="0" transform="translate(249, 93)"></g><g id="g-root-tx_canva_1cuvhnn16i2knj-fill" data-item-order="0" transform="translate(615, 231)"><g id="tx_canva_1cuvhnn16i2knj-fill" stroke="none" fill="#484848"><g><text style="font: 20px Roboto, sans-serif; white-space: pre;" font-size="20px" font-family="Roboto, sans-serif"><tspan x="12.32" y="34" dominant-baseline="ideographic">Canva</tspan></text></g></g></g><g id="g-root-tx_tailwind_18nsmqr16i14p5-fill" data-item-order="0" transform="translate(123, 249)"><g id="tx_tailwind_18nsmqr16i14p5-fill" stroke="none" fill="#484848"><g><text style="font: 20px Roboto, sans-serif; white-space: pre;" font-size="20px" font-family="Roboto, sans-serif"><tspan x="12.34" y="34" dominant-baseline="ideographic">Tailwind CSS</tspan></text></g></g></g><g id="g-root-cu_13ym3hf16hoiyz-fill" data-item-order="0" transform="translate(291, 66)"></g><g id="g-root-cu_v3lkbn16hohdt-fill" data-item-order="0" transform="translate(321, 423)"></g><g id="g-root-cu_18gb0v716hohzj-fill" data-item-order="0" transform="translate(591, 111)"></g><g id="g-root-cu_140hiqr16hoiru-fill" data-item-order="0" transform="translate(591, 111)"></g><g id="g-root-cu_zlahpf16hogec-fill" data-item-order="0" transform="translate(591, 111)"></g><g id="g-root-cu_qpnhgj16hoh72-fill" data-item-order="0" transform="translate(591, 111)"></g><g id="g-root-cu_m9tzc316hohzc-fill" data-item-order="0" transform="translate(591, 111)"></g><g id="g-root-cu_8yzy1v16hogei-fill" data-item-order="0" transform="translate(591, 111)"></g><g id="g-root-tx_git_dbozkz16i2k1w-fill" data-item-order="0" transform="translate(615, 123)"><g id="tx_git_dbozkz16i2k1w-fill" stroke="none" fill="#484848"><g><text style="font: 20px Roboto, sans-serif; white-space: pre;" font-size="20px" font-family="Roboto, sans-serif"><tspan x="15.49" y="34" dominant-baseline="ideographic">Git</tspan></text></g></g></g><g id="g-root-tx_html5_4osmjn16i143y-fill" data-item-order="0" transform="translate(171, 141)"><g id="tx_html5_4osmjn16i143y-fill" stroke="none" fill="#484848"><g><text style="font: 20px Roboto, sans-serif; white-space: pre;" font-size="20px" font-family="Roboto, sans-serif"><tspan x="13.31" y="34" dominant-baseline="ideographic">HTML5</tspan></text></g></g></g><g id="g-root-cu_m7yk2r16hoi6k-fill" data-item-order="0" transform="translate(321, 423)"></g><g id="g-root-cu_hs51yb16hoiyu-fill" data-item-order="0" transform="translate(321, 423)"></g><g id="g-root-cu_1cu93qb16hoi68-fill" data-item-order="0" transform="translate(429, 279)"></g><g id="g-root-tx_svelteki_146q6g316i13b7-fill" data-item-order="0" transform="translate(345, 471)"><g id="tx_svelteki_146q6g316i13b7-fill" stroke="none" fill="#484848"><g><text style="font: 20px Roboto, sans-serif; white-space: pre;" font-size="20px" font-family="Roboto, sans-serif"><tspan x="13.03" y="34" dominant-baseline="ideographic">SvelteKit</tspan></text></g></g></g><g id="g-root-tx_vscode_13zuyhv16i2j28-fill" data-item-order="0" transform="translate(615, 267)"><g id="tx_vscode_13zuyhv16i2j28-fill" stroke="none" fill="#484848"><g><text style="font: 20px Roboto, sans-serif; white-space: pre;" font-size="20px" font-family="Roboto, sans-serif"><tspan x="14.08" y="34" dominant-baseline="ideographic">VS Code</tspan></text></g></g></g><g id="g-root-tx_adobeill_uyar16i2ih1-fill" data-item-order="0" transform="translate(615, 159)"><g id="tx_adobeill_uyar16i2ih1-fill" stroke="none" fill="#484848"><g><text style="font: 20px Roboto, sans-serif; white-space: pre;" font-size="20px" font-family="Roboto, sans-serif"><tspan x="14.35" y="34" dominant-baseline="ideographic">Adobe Illustrator</tspan></text></g></g></g><g id="g-root-tx_css3_8z4f716i14w7-fill" data-item-order="0" transform="translate(183, 177)"><g id="tx_css3_8z4f716i14w7-fill" stroke="none" fill="#484848"><g><text style="font: 20px Roboto, sans-serif; white-space: pre;" font-size="20px" font-family="Roboto, sans-serif"><tspan x="16.01" y="34" dominant-baseline="ideographic">CSS3</tspan></text></g></g></g><g id="g-root-tx_javascri_v2z02r16i2hoq-fill" data-item-order="0" transform="translate(135, 285)"><g id="tx_javascri_v2z02r16i2hoq-fill" stroke="none" fill="#484848"><g><text style="font: 20px Roboto, sans-serif; white-space: pre;" font-size="20px" font-family="Roboto, sans-serif"><tspan x="17.05" y="34" dominant-baseline="ideographic">JavaScript</tspan></text></g></g></g><g id="g-root-tx_python_1hhk7qb16i14w2-fill" data-item-order="0" transform="translate(345, 435)"><g id="tx_python_1hhk7qb16i14w2-fill" stroke="none" fill="#484848"><g><text style="font: 20px Roboto, sans-serif; white-space: pre;" font-size="20px" font-family="Roboto, sans-serif"><tspan x="14.89" y="34" dominant-baseline="ideographic">Python</tspan></text></g></g></g><g id="g-root-tx_adobepho_1lqihwj16i2juu-fill" data-item-order="0" transform="translate(615, 195)"><g id="tx_adobepho_1lqihwj16i2juu-fill" stroke="none" fill="#484848"><g><text style="font: 20px Roboto, sans-serif; white-space: pre;" font-size="20px" font-family="Roboto, sans-serif"><tspan x="14.38" y="34" dominant-baseline="ideographic">Adobe Photoshop</tspan></text></g></g></g><g id="g-root-pens_92qper16i1534-fill" data-item-order="1000000000" transform="translate(579, 69)"></g><g id="g-root-tx_designto_hydpnn16i13in-fill" data-item-order="1000000000" transform="translate(615, 72)"><g id="tx_designto_hydpnn16i13in-fill" stroke="none" fill="#e3cd09"><g><text style="font: 20px Roboto, sans-serif; white-space: pre;" font-size="20px" font-family="Roboto, sans-serif"><tspan x="12.68" y="34" dominant-baseline="ideographic">Design Tools</tspan></text></g></g></g><g id="g-root-com_1cxeper167t4w7-fill" data-item-order="1000000000" transform="translate(405, 153)"></g><g id="g-root-tx_webdevel_1uoopwj167t2j2-fill" data-item-order="1000000000" transform="translate(393, 207)"><g id="tx_webdevel_1uoopwj167t2j2-fill" stroke="none" fill="#484848"><g><text style="font: 20px Roboto, sans-serif; white-space: pre;" font-size="20px" font-family="Roboto, sans-serif"><tspan x="15.23" y="34" dominant-baseline="ideographic">STACK</tspan></text></g></g></g><g id="g-root-ux_9loo316hn3ta-fill" data-item-order="1000000000" transform="translate(249, 51)"></g><g id="g-root-tx_frontend_dl271f16hn28d-fill" data-item-order="1000000000" transform="translate(27, 54)"><g id="tx_frontend_dl271f16hn28d-fill" stroke="none" fill="#4682e3"><g><text style="font: 20px Roboto, sans-serif; white-space: pre;" font-size="20px" font-family="Roboto, sans-serif"><tspan x="16.72" y="34" dominant-baseline="ideographic">Frontend Technologies</tspan></text></g></g></g><g id="g-root-tx_backendt_4haxib16hsowb-fill" data-item-order="1000000000" transform="translate(345, 384)"><g id="tx_backendt_4haxib16hsowb-fill" stroke="none" fill="#3bc482"><g><text style="font: 20px Roboto, sans-serif; white-space: pre;" font-size="20px" font-family="Roboto, sans-serif"><tspan x="12.02" y="34" dominant-baseline="ideographic">Backend Technologies</tspan></text></g></g></g><g id="g-root-imag_1q6yh4316hsqa4-fill" data-item-order="1000000000" transform="translate(309, 381)"></g><g id="g-root-ro_zmko4j167t3bc-stroke" data-item-order="-31320" transform="translate(339, 105)"><g id="ro_zmko4j167t3bc-stroke" fill="none" stroke-linecap="round" stroke-linejoin="round" stroke-miterlimit="4" stroke="#484848" stroke-width="2"><g><path d="M 34 10L 166 10C 166 10 190 10 190 34L 190 160C 190 160 190 184 166 184L 34 184C 34 184 10 184 10 160L 10 34C 10 34 10 10 34 10"></path></g></g></g><g id="g-root-ro_1lpw3z716hoglr-stroke" data-item-order="-14904" transform="translate(15, 39)"><g id="ro_1lpw3z716hoglr-stroke" fill="none" stroke-linecap="round" stroke-linejoin="round" stroke-miterlimit="4" stroke="#4682e3" stroke-width="2"><g><path d="M 22 10L 274 10C 274 10 286 10 286 22L 286 52C 286 52 286 64 274 64L 22 64C 22 64 10 64 10 52L 10 22C 10 22 10 10 22 10"></path></g></g></g><g id="g-root-ro_1cw4ftv16hsop9-stroke" data-item-order="-14256" transform="translate(297, 369)"><g id="ro_1cw4ftv16hsop9-stroke" fill="none" stroke-linecap="round" stroke-linejoin="round" stroke-miterlimit="4" stroke="#3bc482" stroke-width="2"><g><path d="M 22 10L 262 10C 262 10 274 10 274 22L 274 52C 274 52 274 64 262 64L 22 64C 22 64 10 64 10 52L 10 22C 10 22 10 10 22 10"></path></g></g></g><g id="g-root-ro_1ut0q3n16i13b5-stroke" data-item-order="-9720" transform="translate(567, 57)"><g id="ro_1ut0q3n16i13b5-stroke" fill="none" stroke-linecap="round" stroke-linejoin="round" stroke-miterlimit="4" stroke="#e3cd09" stroke-width="2"><g><path d="M 22 10L 178 10C 178 10 190 10 190 22L 190 52C 190 52 190 64 178 64L 22 64C 22 64 10 64 10 52L 10 22C 10 22 10 10 22 10"></path></g></g></g><g id="g-root-tx_scss_1hjfmzn16i13wg-stroke" data-item-order="0" transform="translate(183, 213)"></g><g id="g-root-tx_wordpres_v47y8z16i2jux-stroke" data-item-order="0" transform="translate(615, 303)"></g><g id="g-root-cu_zjf2g316hogli-stroke" data-item-order="0" transform="translate(519, 84)"><g id="cu_zjf2g316hogli-stroke" fill="none" stroke-linecap="round" stroke-linejoin="round" stroke-miterlimit="4" stroke="#888888" stroke-width="2" stroke-dasharray="5.0, 7.0"><g><path d="M 10 89L 13 89L 13.1 89C 24.64275 88.999996 33.999998 79.642747 33.999998 68.099997L 34 68L 34 30.9C 33.999999 19.357249 43.357248 10.000001 54.899999 10.000002L 55 10L 58 10"></path></g></g></g><g id="g-root-tx_uxuidesi_hrihpf16i2j9n-stroke" data-item-order="0" transform="translate(111, 321)"></g><g id="g-root-tx_nodejs_vb367716i143w-stroke" data-item-order="0" transform="translate(345, 507)"></g><g id="g-root-tx_svelte_hzmntv16i15ot-stroke" data-item-order="0" transform="translate(183, 105)"></g><g id="g-root-cu_dcy0wz16hoglc-stroke" data-item-order="0" transform="translate(249, 93)"><g id="cu_dcy0wz16hoglc-stroke" fill="none" stroke-linecap="round" stroke-linejoin="round" stroke-miterlimit="4" stroke="#888888" stroke-width="2" stroke-dasharray="5.0, 7.0"><g><path d="M 28 10L 28 22L 28 34L 19 34L 10 34"></path></g></g></g><g id="g-root-cu_4hb0o316hohe3-stroke" data-item-order="0" transform="translate(249, 93)"><g id="cu_4hb0o316hohe3-stroke" fill="none" stroke-linecap="round" stroke-linejoin="round" stroke-miterlimit="4" stroke="#888888" stroke-width="2" stroke-dasharray="5.0, 7.0"><g><path d="M 28 10L 28 40L 28 70L 19 70L 10 70"></path></g></g></g><g id="g-root-cu_1hijn16hoi6d-stroke" data-item-order="0" transform="translate(249, 93)"><g id="cu_1hijn16hoi6d-stroke" fill="none" stroke-linecap="round" stroke-linejoin="round" stroke-miterlimit="4" stroke="#888888" stroke-width="2" stroke-dasharray="5.0, 7.0"><g><path d="M 28 10L 28 58L 28 106L 19 106L 10 106"></path></g></g></g><g id="g-root-cu_1q6yk9v16hoirz-stroke" data-item-order="0" transform="translate(249, 93)"><g id="cu_1q6yk9v16hoirz-stroke" fill="none" stroke-linecap="round" stroke-linejoin="round" stroke-miterlimit="4" stroke="#888888" stroke-width="2" stroke-dasharray="5.0, 7.0"><g><path d="M 28 10L 28 76L 28 142L 19 142L 10 142"></path></g></g></g><g id="g-root-cu_1lrrj8j16hogeh-stroke" data-item-order="0" transform="translate(249, 93)"><g id="cu_1lrrj8j16hogeh-stroke" fill="none" stroke-linecap="round" stroke-linejoin="round" stroke-miterlimit="4" stroke="#888888" stroke-width="2" stroke-dasharray="5.0, 7.0"><g><path d="M 28 10L 28 94L 28 178L 19 178L 10 178"></path></g></g></g><g id="g-root-cu_1hby14316hoh6r-stroke" data-item-order="0" transform="translate(249, 93)"><g id="cu_1hby14316hoh6r-stroke" fill="none" stroke-linecap="round" stroke-linejoin="round" stroke-miterlimit="4" stroke="#888888" stroke-width="2" stroke-dasharray="5.0, 7.0"><g><path d="M 28 10L 28 112L 28 214L 19 214L 10 214"></path></g></g></g><g id="g-root-cu_18gb0v716hohzh-stroke" data-item-order="0" transform="translate(249, 93)"><g id="cu_18gb0v716hohzh-stroke" fill="none" stroke-linecap="round" stroke-linejoin="round" stroke-miterlimit="4" stroke="#888888" stroke-width="2" stroke-dasharray="5.0, 7.0"><g><path d="M 28 10L 28 40L 28 238C 27.999995 244.627423 22.627411 250.000006 15.999994 250.000006L 15.9 250L 10 250"></path></g></g></g><g id="g-root-tx_canva_1cuvhnn16i2knj-stroke" data-item-order="0" transform="translate(615, 231)"></g><g id="g-root-tx_tailwind_18nsmqr16i14p5-stroke" data-item-order="0" transform="translate(123, 249)"></g><g id="g-root-cu_13ym3hf16hoiyz-stroke" data-item-order="0" transform="translate(291, 66)"><g id="cu_13ym3hf16hoiyz-stroke" fill="none" stroke-linecap="round" stroke-linejoin="round" stroke-miterlimit="4" stroke="#888888" stroke-width="2" stroke-dasharray="5.0, 7.0"><g><path d="M 58 107L 55 107L 54.9 107C 43.357252 107 34.000003 97.642751 34.000003 86.1L 34 86L 34 30.9C 33.999998 19.357248 24.64275 10 13.1 10L 13 10L 10 10"></path></g></g></g><g id="g-root-cu_v3lkbn16hohdt-stroke" data-item-order="0" transform="translate(321, 423)"><g id="cu_v3lkbn16hohdt-stroke" fill="none" stroke-linecap="round" stroke-linejoin="round" stroke-miterlimit="4" stroke="#888888" stroke-width="2" stroke-dasharray="5.0, 7.0"><g><path d="M 10 10L 10 22L 10 34L 19 34L 28 34"></path></g></g></g><g id="g-root-cu_18gb0v716hohzj-stroke" data-item-order="0" transform="translate(591, 111)"><g id="cu_18gb0v716hohzj-stroke" fill="none" stroke-linecap="round" stroke-linejoin="round" stroke-miterlimit="4" stroke="#888888" stroke-width="2" stroke-dasharray="5.0, 7.0"><g><path d="M 10 10L 10 22L 10 34L 19 34L 28 34"></path></g></g></g><g id="g-root-cu_140hiqr16hoiru-stroke" data-item-order="0" transform="translate(591, 111)"><g id="cu_140hiqr16hoiru-stroke" fill="none" stroke-linecap="round" stroke-linejoin="round" stroke-miterlimit="4" stroke="#888888" stroke-width="2" stroke-dasharray="5.0, 7.0"><g><path d="M 10 10L 10 40L 10 70L 19 70L 28 70"></path></g></g></g><g id="g-root-cu_zlahpf16hogec-stroke" data-item-order="0" transform="translate(591, 111)"><g id="cu_zlahpf16hogec-stroke" fill="none" stroke-linecap="round" stroke-linejoin="round" stroke-miterlimit="4" stroke="#888888" stroke-width="2" stroke-dasharray="5.0, 7.0"><g><path d="M 10 10L 10 58L 10 106L 19 106L 28 106"></path></g></g></g><g id="g-root-cu_qpnhgj16hoh72-stroke" data-item-order="0" transform="translate(591, 111)"><g id="cu_qpnhgj16hoh72-stroke" fill="none" stroke-linecap="round" stroke-linejoin="round" stroke-miterlimit="4" stroke="#888888" stroke-width="2" stroke-dasharray="5.0, 7.0"><g><path d="M 10 10L 10 76L 10 142L 19 142L 28 142"></path></g></g></g><g id="g-root-cu_m9tzc316hohzc-stroke" data-item-order="0" transform="translate(591, 111)"><g id="cu_m9tzc316hohzc-stroke" fill="none" stroke-linecap="round" stroke-linejoin="round" stroke-miterlimit="4" stroke="#888888" stroke-width="2" stroke-dasharray="5.0, 7.0"><g><path d="M 10 10L 10 94L 10 178L 19 178L 28 178"></path></g></g></g><g id="g-root-cu_8yzy1v16hogei-stroke" data-item-order="0" transform="translate(591, 111)"><g id="cu_8yzy1v16hogei-stroke" fill="none" stroke-linecap="round" stroke-linejoin="round" stroke-miterlimit="4" stroke="#888888" stroke-width="2" stroke-dasharray="5.0, 7.0"><g><path d="M 10 10L 10 35.5L 10 202C 10.000001 208.627427 15.372584 214.00001 22.000001 214.00001L 22.1 214L 28 214"></path></g></g></g><g id="g-root-tx_git_dbozkz16i2k1w-stroke" data-item-order="0" transform="translate(615, 123)"></g><g id="g-root-tx_html5_4osmjn16i143y-stroke" data-item-order="0" transform="translate(171, 141)"></g><g id="g-root-cu_m7yk2r16hoi6k-stroke" data-item-order="0" transform="translate(321, 423)"><g id="cu_m7yk2r16hoi6k-stroke" fill="none" stroke-linecap="round" stroke-linejoin="round" stroke-miterlimit="4" stroke="#888888" stroke-width="2" stroke-dasharray="5.0, 7.0"><g><path d="M 10 10L 10 40L 10 70L 19 70L 28 70"></path></g></g></g><g id="g-root-cu_hs51yb16hoiyu-stroke" data-item-order="0" transform="translate(321, 423)"><g id="cu_hs51yb16hoiyu-stroke" fill="none" stroke-linecap="round" stroke-linejoin="round" stroke-miterlimit="4" stroke="#888888" stroke-width="2" stroke-dasharray="5.0, 7.0"><g><path d="M 10 10L 10 22L 10 94C 10.000004 100.627423 15.372587 106.000006 22.000005 106.000005L 22.1 106L 28 106"></path></g></g></g><g id="g-root-cu_1cu93qb16hoi68-stroke" data-item-order="0" transform="translate(429, 279)"><g id="cu_1cu93qb16hoi68-stroke" fill="none" stroke-linecap="round" stroke-linejoin="round" stroke-miterlimit="4" stroke="#888888" stroke-width="2" stroke-dasharray="5.0, 7.0"><g><path d="M 10 10L 10 55L 10 100"></path></g></g></g><g id="g-root-tx_svelteki_146q6g316i13b7-stroke" data-item-order="0" transform="translate(345, 471)"></g><g id="g-root-tx_vscode_13zuyhv16i2j28-stroke" data-item-order="0" transform="translate(615, 267)"></g><g id="g-root-tx_adobeill_uyar16i2ih1-stroke" data-item-order="0" transform="translate(615, 159)"></g><g id="g-root-tx_css3_8z4f716i14w7-stroke" data-item-order="0" transform="translate(183, 177)"></g><g id="g-root-tx_javascri_v2z02r16i2hoq-stroke" data-item-order="0" transform="translate(135, 285)"></g><g id="g-root-tx_python_1hhk7qb16i14w2-stroke" data-item-order="0" transform="translate(345, 435)"></g><g id="g-root-tx_adobepho_1lqihwj16i2juu-stroke" data-item-order="0" transform="translate(615, 195)"></g><g id="g-root-pens_92qper16i1534-stroke" data-item-order="1000000000" transform="translate(579, 69)"><g id="pens_92qper16i1534-stroke" fill="none" stroke-linecap="round" stroke-linejoin="round" stroke-miterlimit="4" stroke="#e3cd09" stroke-width="2"><g><path d="M 33.5 17.625C 32.836918 19.813665 32.499962 22.088093 32.5 24.375C 32.581516 29.21666 33.16124 34.037067 34.23 38.759998C 34.31234 39.118931 34.631748 39.373367 35.000004 39.373367C 35.368256 39.373367 35.687664 39.118931 35.77 38.760002C 36.838757 34.037067 37.41848 29.21666 37.499996 24.374998C 37.500034 22.088093 37.163082 19.813665 36.5 17.625M 35 10.625C 36.666252 11.45875 37.5 13.95875 37.5 15.625C 37.5 17.005713 36.380714 18.125 35 18.125C 33.619286 18.125 32.5 17.005713 32.5 15.625C 32.5 13.39375 35.416252 13.3075 35 10.625ZM 15 14.375L 18.75 14.375L 18.75 25.625L 15 25.625ZM 27.5 15L 27.5 34.375L 23.75 34.375L 23.75 15L 25.625 15.625L 27.5 15ZM 12.5 25.625L 12.5 16.875C 12.5 15.494288 13.619288 14.375 15 14.375M 18.75 12.5C 18.75 11.464466 17.910534 10.625 16.875 10.625C 15.839466 10.625 15 11.464466 15 12.5L 15 14.375L 18.75 14.375ZM 15 25.625L 18.75 25.625L 18.75 34.375L 15 34.375ZM 23.75 15L 25.625 10.625L 27.5 15M 15 34.375C 15.282904 35.858288 15.643398 37.325722 16.08 38.771252C 16.179066 39.128502 16.504269 39.375797 16.875 39.375797C 17.245733 39.375797 17.570934 39.128502 17.67 38.771252C 18.106602 37.325722 18.467098 35.858288 18.75 34.375M 27.5 37.5C 27.5 38.535534 26.660534 39.375 25.625 39.375C 24.589466 39.375 23.75 38.535534 23.75 37.5L 23.75 36.875L 27.5 36.875ZM 23.75 34.375L 27.5 34.375L 27.5 36.875L 23.75 36.875Z"></path></g></g></g><g id="g-root-tx_designto_hydpnn16i13in-stroke" data-item-order="1000000000" transform="translate(615, 72)"></g><g id="g-root-com_1cxeper167t4w7-stroke" data-item-order="1000000000" transform="translate(405, 153)"><g id="com_1cxeper167t4w7-stroke" fill="none" stroke-linecap="round" stroke-linejoin="round" stroke-miterlimit="4" stroke="#484848" stroke-width="2"><g><path d="M 15 16L 53 16C 53 16 57 16 57 20L 57 48C 57 48 57 52 53 52L 15 52C 15 52 11 52 11 48L 11 20C 11 20 11 16 15 16M 11 26L 57 26M 18 20.5C 18.276142 20.5 18.5 20.723858 18.5 21C 18.5 21.276142 18.276142 21.5 18 21.5C 17.723858 21.5 17.5 21.276142 17.5 21C 17.5 20.723858 17.723858 20.5 18 20.5M 24 20.5C 24.276142 20.5 24.5 20.723858 24.5 21C 24.5 21.276142 24.276142 21.5 24 21.5C 23.723858 21.5 23.5 21.276142 23.5 21C 23.5 20.723858 23.723858 20.5 24 20.5M 30 20.5C 30.276142 20.5 30.5 20.723858 30.5 21C 30.5 21.276142 30.276142 21.5 30 21.5C 29.723858 21.5 29.5 21.276142 29.5 21C 29.5 20.723858 29.723858 20.5 30 20.5M 20 42.5C 20.276142 42.5 20.5 42.723858 20.5 43C 20.5 43.276142 20.276142 43.5 20 43.5C 19.723858 43.5 19.5 43.276142 19.5 43C 19.5 42.723858 19.723858 42.5 20 42.5M 29 34C 26.790861 34 25 35.790863 25 38L 25 40C 25 42.209141 26.790861 44 29 44M 35 34C 33.895432 34 33 34.895432 33 36L 33 42C 33 43.104568 33.895432 44 35 44C 36.104568 44 37 43.104568 37 42L 37 36C 37 34.895432 36.104568 34 35 34ZM 47 44L 47 34L 44 39L 41 34L 41 44"></path></g></g></g><g id="g-root-tx_webdevel_1uoopwj167t2j2-stroke" data-item-order="1000000000" transform="translate(393, 207)"></g><g id="g-root-ux_9loo316hn3ta-stroke" data-item-order="1000000000" transform="translate(249, 51)"><g id="ux_9loo316hn3ta-stroke" fill="none" stroke-linecap="round" stroke-linejoin="round" stroke-miterlimit="4" stroke="#4682e3" stroke-width="2"><g><path d="M 14.97375 23.502501L 14.97375 20.620001L 17.303749 20.620001M 25 23.502501L 25 20.620001L 21.848751 20.620001M 14.97375 35.236248L 14.97375 38.119999L 17.303749 38.119999M 25 35.236248L 25 38.119999L 21.848751 38.119999M 14.97375 30.85125L 14.97375 28.59375M 25 30.85125L 25 28.59375M 28.75 20.620001L 34.973751 20.620001L 34.973751 27.495001L 28.75 27.495001ZM 28.75 31.245001L 34.973751 31.245001L 34.973751 38.119999L 28.75 38.119999ZM 10.625 39.375L 10.625 13.125C 10.625 11.744288 11.744288 10.625 13.125 10.625L 36.875 10.625C 38.255714 10.625 39.375 11.744288 39.375 13.125L 39.375 39.375M 10.625 16.875L 39.375 16.875M 15 13.4375C 15.172588 13.4375 15.3125 13.577411 15.3125 13.75C 15.3125 13.922589 15.172588 14.0625 15 14.0625C 14.827411 14.0625 14.6875 13.922589 14.6875 13.75C 14.6875 13.577411 14.827411 13.4375 15 13.4375M 18.75 13.4375C 18.922588 13.4375 19.0625 13.577411 19.0625 13.75C 19.0625 13.922589 18.922588 14.0625 18.75 14.0625C 18.577412 14.0625 18.4375 13.922589 18.4375 13.75C 18.4375 13.577411 18.577412 13.4375 18.75 13.4375M 22.5 13.4375C 22.672588 13.4375 22.8125 13.577411 22.8125 13.75C 22.8125 13.922589 22.672588 14.0625 22.5 14.0625C 22.327412 14.0625 22.1875 13.922589 22.1875 13.75C 22.1875 13.577411 22.327412 13.4375 22.5 13.4375"></path></g></g></g><g id="g-root-tx_frontend_dl271f16hn28d-stroke" data-item-order="1000000000" transform="translate(27, 54)"></g><g id="g-root-tx_backendt_4haxib16hsowb-stroke" data-item-order="1000000000" transform="translate(345, 384)"></g><g id="g-root-imag_1q6yh4316hsqa4-stroke" data-item-order="1000000000" transform="translate(309, 381)"><g id="imag_1q6yh4316hsqa4-stroke" fill="none" stroke-linecap="round" stroke-linejoin="round" stroke-miterlimit="4" stroke="#3bc482" stroke-width="2"><g><path d="M 15 27.5C 15.690356 27.5 16.25 28.059643 16.25 28.75C 16.25 29.440357 15.690356 30 15 30C 14.309644 30 13.75 29.440357 13.75 28.75C 13.75 28.059643 14.309644 27.5 15 27.5M 12.5 24.375L 27.5 24.375C 27.5 24.375 29.375 24.375 29.375 26.25L 29.375 37.5C 29.375 37.5 29.375 39.375 27.5 39.375L 12.5 39.375C 12.5 39.375 10.625 39.375 10.625 37.5L 10.625 26.25C 10.625 26.25 10.625 24.375 12.5 24.375M 14.375 12.5L 16.25 14.375L 14.375 16.25M 16.25 14.375L 12.5 14.375C 11.464466 14.375 10.625 15.214466 10.625 16.25L 10.625 18.75M 35 37.5L 33.125 35.625L 35 33.75M 33.125 35.625L 36.875 35.625C 37.910534 35.625 38.75 34.785534 38.75 33.75L 38.75 31.25M 28.875 38.771252L 24.5725 30.97625C 24.329956 30.528587 23.870396 30.240938 23.361752 30.21841C 22.853107 30.195885 22.369917 30.441782 22.088749 30.866249L 18.563749 36.170002L 16.395 34.263748C 16.088272 33.994396 15.682363 33.866547 15.276638 33.911491C 14.870914 33.956444 14.502831 34.17004 14.2625 34.5L 11.125 38.771252M 32.94875 25.625L 37.5 25.625C 38.535534 25.625 39.375 24.785534 39.375 23.75L 39.375 12.5C 39.375 11.464466 38.535534 10.625 37.5 10.625L 22.5 10.625C 21.464466 10.625 20.625 11.464466 20.625 12.5L 20.625 20.75M 25 13.75C 25.690357 13.75 26.25 14.309644 26.25 15C 26.25 15.690356 25.690357 16.25 25 16.25C 24.309643 16.25 23.75 15.690356 23.75 15C 23.75 14.309644 24.309643 13.75 25 13.75M 38.875 25.02125L 34.57375 17.22625C 34.331207 16.778589 33.871647 16.490938 33.363003 16.46841C 32.854355 16.445885 32.371166 16.691784 32.09 17.116249L 28.565001 22.42L 26.395 20.51375C 26.088272 20.244396 25.682362 20.116545 25.276638 20.161493C 24.870914 20.206442 24.502832 20.42004 24.262501 20.75L 23.87125 21.282499"></path></g></g></g></g></g></svg>